<svg id="logo" xmlns="http://www.w3.org/2000/svg" viewBox="0 0 500 500"><defs><style>.cls-1{fill:#e4e7ef;}.cls-2{fill:#4fd7ed;}.cls-3{fill:#0b3c95;}</style></defs><polygon class="cls-1" points="250.47 251.01 339.18 495.59 1.77 278.98 160.04 32.34 244.17 86.32 323.48 137.32 250.47 251.01"/><polygon class="cls-2" points="323.48 137.32 250.47 251.01 339.18 495.59 128.76 266.02 244.17 86.32 287.15 19.39 353.05 91.36 323.48 137.32"/><path class="cls-3" d="M442.12,334.88v144.5a12.74,12.74,0,0,1-12.74,12.75h0a12.75,12.75,0,0,1-12.75-12.75V376.1l25.21-39.29S442,336.11,442.12,334.88Z"/><path class="cls-3" d="M370.54,252.28l45.63,124.54L339.93,495.59,251.24,251l73-113.75,29.52-45.95L409.56,4.41,498.23,249l-56.39,87.84-35.75-97.57a18.93,18.93,0,0,0-35.55,13Z"/></svg>