<svg width="24" height="25" viewBox="0 0 24 25" fill="none" xmlns="http://www.w3.org/2000/svg">
<g id="down arrow / 24 / Outline">
<path id="Vector" d="M11.29 16.46C11.3851 16.551 11.4972 16.6224 11.62 16.67C11.8635 16.77 12.1365 16.77 12.38 16.67C12.5028 16.6224 12.6149 16.551 12.71 16.46L15.71 13.46C15.8983 13.2717 16.0041 13.0163 16.0041 12.75C16.0041 12.4837 15.8983 12.2283 15.71 12.04C15.5217 11.8517 15.2663 11.7459 15 11.7459C14.7337 11.7459 14.4783 11.8517 14.29 12.04L13 13.34L13 9.75C13 9.48479 12.8946 9.23043 12.7071 9.0429C12.5196 8.85536 12.2652 8.75 12 8.75C11.7348 8.75 11.4804 8.85536 11.2929 9.0429C11.1054 9.23043 11 9.48479 11 9.75L11 13.34L9.71 12.04C9.61704 11.9463 9.50644 11.8719 9.38458 11.8211C9.26272 11.7703 9.13201 11.7442 9 11.7442C8.86799 11.7442 8.73728 11.7703 8.61542 11.8211C8.49356 11.8719 8.38296 11.9463 8.29 12.04C8.19627 12.133 8.12188 12.2436 8.07111 12.3654C8.02034 12.4873 7.9942 12.618 7.9942 12.75C7.9942 12.882 8.02034 13.0127 8.07111 13.1346C8.12188 13.2564 8.19627 13.367 8.29 13.46L11.29 16.46ZM12 22.75C13.9778 22.75 15.9112 22.1635 17.5557 21.0647C19.2002 19.9659 20.4819 18.4041 21.2388 16.5768C21.9957 14.7496 22.1937 12.7389 21.8079 10.7991C21.422 8.85929 20.4696 7.07746 19.0711 5.67894C17.6725 4.28041 15.8907 3.328 13.9509 2.94215C12.0111 2.5563 10.0004 2.75433 8.17317 3.51121C6.3459 4.26809 4.78412 5.54981 3.6853 7.1943C2.58649 8.83879 2 10.7722 2 12.75C2 15.4022 3.05357 17.9457 4.92893 19.8211C5.85752 20.7497 6.95991 21.4863 8.17317 21.9888C9.38642 22.4913 10.6868 22.75 12 22.75ZM12 4.75C13.5823 4.75 15.129 5.2192 16.4446 6.09825C17.7602 6.9773 18.7855 8.22673 19.391 9.68854C19.9965 11.1503 20.155 12.7589 19.8463 14.3107C19.5376 15.8626 18.7757 17.288 17.6569 18.4069C16.538 19.5257 15.1126 20.2876 13.5607 20.5963C12.0089 20.905 10.4003 20.7465 8.93853 20.141C7.47672 19.5355 6.22729 18.5102 5.34824 17.1946C4.46919 15.879 4 14.3323 4 12.75C4 10.6283 4.84285 8.59344 6.34315 7.09315C7.84344 5.59286 9.87827 4.75 12 4.75Z" fill="#0B3C95"/>
</g>
</svg>
