<svg width="24" height="25" viewBox="0 0 24 25" fill="none" xmlns="http://www.w3.org/2000/svg">
<g id="down arrow / 24 / Outline">
<path id="Vector" d="M12.71 9.04C12.6149 8.94896 12.5028 8.87759 12.38 8.83C12.1365 8.72998 11.8635 8.72998 11.62 8.83C11.4972 8.87759 11.3851 8.94896 11.29 9.04L8.29 12.04C8.1017 12.2283 7.99591 12.4837 7.99591 12.75C7.99591 13.0163 8.1017 13.2717 8.29 13.46C8.4783 13.6483 8.7337 13.7541 9 13.7541C9.2663 13.7541 9.5217 13.6483 9.71 13.46L11 12.16L11 15.75C11 16.0152 11.1054 16.2696 11.2929 16.4571C11.4804 16.6446 11.7348 16.75 12 16.75C12.2652 16.75 12.5196 16.6446 12.7071 16.4571C12.8946 16.2696 13 16.0152 13 15.75L13 12.16L14.29 13.46C14.383 13.5537 14.4936 13.6281 14.6154 13.6789C14.7373 13.7297 14.868 13.7558 15 13.7558C15.132 13.7558 15.2627 13.7297 15.3846 13.6789C15.5064 13.6281 15.617 13.5537 15.71 13.46C15.8037 13.367 15.8781 13.2564 15.9289 13.1346C15.9797 13.0127 16.0058 12.882 16.0058 12.75C16.0058 12.618 15.9797 12.4873 15.9289 12.3654C15.8781 12.2436 15.8037 12.133 15.71 12.04L12.71 9.04ZM12 2.75C10.0222 2.75 8.08879 3.33649 6.4443 4.4353C4.79981 5.53412 3.51808 7.0959 2.7612 8.92316C2.00433 10.7504 1.80629 12.7611 2.19215 14.7009C2.578 16.6407 3.53041 18.4225 4.92893 19.8211C6.32746 21.2196 8.10929 22.172 10.0491 22.5578C11.9889 22.9437 13.9996 22.7457 15.8268 21.9888C17.6541 21.2319 19.2159 19.9502 20.3147 18.3057C21.4135 16.6612 22 14.7278 22 12.75C22 10.0978 20.9464 7.55429 19.0711 5.67893C18.1425 4.75034 17.0401 4.01375 15.8268 3.5112C14.6136 3.00865 13.3132 2.75 12 2.75ZM12 20.75C10.4177 20.75 8.87103 20.2808 7.55544 19.4018C6.23984 18.5227 5.21446 17.2733 4.60896 15.8115C4.00346 14.3497 3.84503 12.7411 4.15372 11.1893C4.4624 9.63743 5.22432 8.21196 6.34314 7.09314C7.46196 5.97432 8.88743 5.2124 10.4393 4.90371C11.9911 4.59503 13.5997 4.75346 15.0615 5.35896C16.5233 5.96446 17.7727 6.98984 18.6518 8.30543C19.5308 9.62103 20 11.1677 20 12.75C20 14.8717 19.1571 16.9066 17.6569 18.4069C16.1566 19.9071 14.1217 20.75 12 20.75Z" fill="#0B3C95"/>
</g>
</svg>
