<svg width="30" height="30" viewBox="0 0 30 30" fill="none" xmlns="http://www.w3.org/2000/svg">
<g id="vuesax/bold/award">
<path id="Vector" d="M22.2625 6.8625V7.7875L17.8375 5.225C16.1625 4.2625 13.825 4.2625 12.1625 5.225L7.73749 7.8V6.8625C7.73749 4.05 9.27499 2.5 12.0875 2.5H17.9125C20.725 2.5 22.2625 4.05 22.2625 6.8625Z" fill="#0B3C95"/>
<path id="Vector_2" d="M22.3 9.96279L22.125 9.87529L20.425 8.90029L16.9 6.86279C15.825 6.23779 14.175 6.23779 13.1 6.86279L9.575 8.88779L7.875 9.88779L7.65 10.0003C5.4625 11.4753 5.3125 11.7503 5.3125 14.1128V19.7628C5.3125 22.1253 5.4625 22.4003 7.7 23.9128L13.1 27.0253C13.6375 27.3503 14.3125 27.4878 15 27.4878C15.675 27.4878 16.3625 27.3378 16.9 27.0253L22.35 23.8753C24.55 22.4003 24.6875 22.1378 24.6875 19.7628V14.1128C24.6875 11.7503 24.5375 11.4753 22.3 9.96279ZM18.4875 16.8753L17.725 17.8128C17.6 17.9503 17.5125 18.2128 17.525 18.4003L17.6 19.6003C17.65 20.3378 17.125 20.7128 16.4375 20.4503L15.325 20.0003C15.15 19.9378 14.8625 19.9378 14.6875 20.0003L13.575 20.4378C12.8875 20.7128 12.3625 20.3253 12.4125 19.5878L12.4875 18.3878C12.5 18.2003 12.4125 17.9378 12.2875 17.8003L11.5125 16.8753C11.0375 16.3128 11.25 15.6878 11.9625 15.5003L13.125 15.2003C13.3125 15.1503 13.525 14.9753 13.625 14.8253L14.275 13.8253C14.675 13.2003 15.3125 13.2003 15.725 13.8253L16.375 14.8253C16.475 14.9878 16.7 15.1503 16.875 15.2003L18.0375 15.5003C18.75 15.6878 18.9625 16.3128 18.4875 16.8753Z" fill="#0B3C95"/>
</g>
</svg>
