<svg width="578" height="578" viewBox="0 0 578 578" fill="none" xmlns="http://www.w3.org/2000/svg">
<path d="M152.731 140.007C152.731 140.007 97.0277 192.793 107.66 266.025C118.29 339.256 183.468 395.82 234.812 442.875C286.156 489.931 358.926 496.398 411.447 460.378C463.967 424.358 435.497 378.82 465.238 313.882C494.979 248.944 514.277 235.185 498.353 167.987C482.428 100.788 387.125 58.3347 292.203 76.0994C197.279 93.8652 152.731 140.007 152.731 140.007Z" fill="#0B3C95"/>
<path opacity="0.7" d="M152.731 140.007C152.731 140.007 97.0277 192.793 107.66 266.025C118.29 339.256 183.468 395.82 234.812 442.875C286.156 489.931 358.926 496.398 411.447 460.378C463.967 424.358 435.497 378.82 465.238 313.882C494.979 248.944 514.277 235.185 498.353 167.987C482.428 100.788 387.125 58.3347 292.203 76.0994C197.279 93.8652 152.731 140.007 152.731 140.007Z" fill="white"/>
<path d="M392.756 128.723H309.412L310.256 116.563H393.6L392.756 128.723Z" fill="white"/>
<path d="M392.756 145.747H309.412L310.256 133.587H393.6L392.756 145.747Z" fill="white"/>
<path d="M392.756 162.771H309.412L310.256 150.611H393.6L392.756 162.771Z" fill="white"/>
<path d="M392.756 179.794H309.412L310.256 167.635H393.6L392.756 179.794Z" fill="white"/>
<path d="M392.756 196.819H309.412L310.256 184.659H393.6L392.756 196.819Z" fill="white"/>
<path d="M392.756 213.842H309.412L310.256 201.683H393.6L392.756 213.842Z" fill="white"/>
<path d="M392.756 230.866H309.412L310.256 218.706H393.6L392.756 230.866Z" fill="white"/>
<path d="M392.756 247.89H309.412L310.256 235.73H393.6L392.756 247.89Z" fill="white"/>
<path d="M392.756 264.914H309.412L310.256 252.754H393.6L392.756 264.914Z" fill="white"/>
<path d="M392.756 281.937H309.412L310.256 269.777H393.6L392.756 281.937Z" fill="white"/>
<path d="M392.756 298.961H309.412L310.256 286.802H393.6L392.756 298.961Z" fill="white"/>
<path d="M480.882 128.723H397.537L398.381 116.563H481.726L480.882 128.723Z" fill="white"/>
<path d="M480.882 145.747H397.537L398.381 133.587H481.726L480.882 145.747Z" fill="white"/>
<path d="M480.882 162.771H397.537L398.381 150.611H481.726L480.882 162.771Z" fill="white"/>
<path d="M480.882 179.794H397.537L398.381 167.635H481.726L480.882 179.794Z" fill="white"/>
<path d="M480.882 196.819H397.537L398.381 184.659H481.726L480.882 196.819Z" fill="white"/>
<path d="M480.882 213.842H397.537L398.381 201.683H481.726L480.882 213.842Z" fill="white"/>
<path d="M480.882 230.866H397.537L398.381 218.706H481.726L480.882 230.866Z" fill="white"/>
<path d="M480.882 247.89H397.537L398.381 235.73H481.726L480.882 247.89Z" fill="white"/>
<path d="M480.882 264.914H397.537L398.381 252.754H481.726L480.882 264.914Z" fill="white"/>
<path d="M480.882 281.937H397.537L398.381 269.777H481.726L480.882 281.937Z" fill="white"/>
<path d="M480.882 298.961H397.537L398.381 286.802H481.726L480.882 298.961Z" fill="white"/>
<path d="M297.718 115.896H125.523V263.63H297.718V115.896Z" fill="#0B3C95"/>
<path d="M289.108 123.283H134.133V256.244H289.108V123.283Z" fill="white"/>
<mask id="mask0_556_20259" style="mask-type:luminance" maskUnits="userSpaceOnUse" x="134" y="123" width="156" height="134">
<path d="M289.108 123.283H134.133V256.244H289.108V123.283Z" fill="white"/>
</mask>
<g mask="url(#mask0_556_20259)">
<path d="M289.108 163.597C261.236 183.42 221.317 196.57 175.005 217.244C158.24 224.729 144.829 233.2 134.133 241.677V256.243H289.108V163.597Z" fill="#0B3C95"/>
</g>
<mask id="mask1_556_20259" style="mask-type:luminance" maskUnits="userSpaceOnUse" x="134" y="123" width="156" height="134">
<path d="M289.108 123.283H134.133V256.244H289.108V123.283Z" fill="white"/>
</mask>
<g mask="url(#mask1_556_20259)">
<path d="M289.108 123.283H226.913C220.016 129.202 211.808 135.823 202.145 142.909C166.747 168.867 182.086 194.825 224.564 175.947C246.363 166.259 270.631 143.838 289.109 124.296L289.108 123.283Z" fill="#0B3C95"/>
</g>
<mask id="mask2_556_20259" style="mask-type:luminance" maskUnits="userSpaceOnUse" x="134" y="123" width="156" height="134">
<path d="M289.108 123.283H134.133V256.244H289.108V123.283Z" fill="white"/>
</mask>
<g mask="url(#mask2_556_20259)">
<path d="M160.847 138.191C160.847 127.365 147.359 135.859 134.133 146.782V174.138C147.08 161.513 160.847 147.886 160.847 138.191Z" fill="#0B3C95"/>
</g>
<mask id="mask3_556_20259" style="mask-type:luminance" maskUnits="userSpaceOnUse" x="134" y="123" width="156" height="134">
<path d="M289.108 123.283H134.133V256.244H289.108V123.283Z" fill="white"/>
</mask>
<g mask="url(#mask3_556_20259)">
<path d="M173.826 181.258C173.826 188.1 168.278 193.647 161.436 193.647C154.594 193.647 149.047 188.1 149.047 181.258C149.047 174.415 154.594 168.868 161.436 168.868C168.279 168.868 173.826 174.415 173.826 181.258Z" fill="#0B3C95"/>
</g>
<mask id="mask4_556_20259" style="mask-type:luminance" maskUnits="userSpaceOnUse" x="134" y="123" width="156" height="134">
<path d="M289.108 123.283H134.133V256.244H289.108V123.283Z" fill="white"/>
</mask>
<g mask="url(#mask4_556_20259)">
<path opacity="0.75" d="M289.108 163.597C261.236 183.42 221.317 196.57 175.005 217.244C158.24 224.729 144.829 233.2 134.133 241.677V256.243H289.108V163.597Z" fill="white"/>
</g>
<mask id="mask5_556_20259" style="mask-type:luminance" maskUnits="userSpaceOnUse" x="134" y="123" width="156" height="134">
<path d="M289.108 123.283H134.133V256.244H289.108V123.283Z" fill="white"/>
</mask>
<g mask="url(#mask5_556_20259)">
<path opacity="0.75" d="M289.108 123.283H226.913C220.016 129.202 211.808 135.823 202.145 142.909C166.747 168.867 182.086 194.825 224.564 175.947C246.363 166.259 270.631 143.838 289.109 124.296L289.108 123.283Z" fill="white"/>
</g>
<mask id="mask6_556_20259" style="mask-type:luminance" maskUnits="userSpaceOnUse" x="134" y="123" width="156" height="134">
<path d="M289.108 123.283H134.133V256.244H289.108V123.283Z" fill="white"/>
</mask>
<g mask="url(#mask6_556_20259)">
<g opacity="0.75">
<path d="M160.847 138.191C160.847 127.365 147.359 135.859 134.133 146.782V174.138C147.08 161.513 160.847 147.886 160.847 138.191Z" fill="white"/>
</g>
</g>
<mask id="mask7_556_20259" style="mask-type:luminance" maskUnits="userSpaceOnUse" x="134" y="123" width="156" height="134">
<path d="M289.108 123.283H134.133V256.244H289.108V123.283Z" fill="white"/>
</mask>
<g mask="url(#mask7_556_20259)">
<path opacity="0.75" d="M173.826 181.258C173.826 188.1 168.278 193.647 161.436 193.647C154.594 193.647 149.047 188.1 149.047 181.258C149.047 174.415 154.594 168.868 161.436 168.868C168.279 168.868 173.826 174.415 173.826 181.258Z" fill="white"/>
</g>
<path d="M262.321 220.785C262.321 229.908 254.925 237.304 245.802 237.304C236.678 237.304 229.283 229.908 229.283 220.785C229.283 211.661 236.679 204.267 245.802 204.267C254.925 204.267 262.321 211.663 262.321 220.785Z" fill="white"/>
<path d="M495.267 420.418C490.822 425.546 489.651 431.112 489.407 432.599L477.645 439.193V408.025L477.876 408.34L496.608 394.628C498.97 394.999 508.064 396.028 516.35 391.565C525.968 386.386 532.996 368.632 532.996 368.632C532.996 368.632 510.062 366.042 502.295 375.66C495.989 383.466 495.777 391.028 495.921 393.599L477.645 406.976V383.957C479.844 382.985 488.663 378.45 491.567 367.151C494.896 354.205 477.141 328.682 477.141 328.682C477.141 328.682 458.646 354.944 462.346 368.26C465.48 379.544 473.903 383.115 476.408 383.944V433.861L463.218 422.869C463.523 420.242 463.756 412.014 456.428 403.77C447.55 393.783 423.877 394.523 423.877 394.523C423.877 394.523 433.865 414.498 442.372 421.155C449.807 426.974 460.065 424.6 462.535 423.909L476.409 435.471V450.647H455.789L464.201 503.229H489.44L497.854 450.647H477.646V440.609L490.565 433.366C493.71 434.238 502.487 436.038 510.802 431.882C521.159 426.702 529.666 415.606 529.666 415.606C529.666 415.606 504.884 409.321 495.267 420.418Z" fill="#0B3C95"/>
<path opacity="0.5" d="M495.267 420.418C490.822 425.546 489.651 431.112 489.407 432.599L477.645 439.193V408.025L477.876 408.34L496.608 394.628C498.97 394.999 508.064 396.028 516.35 391.565C525.968 386.386 532.996 368.632 532.996 368.632C532.996 368.632 510.062 366.042 502.295 375.66C495.989 383.466 495.777 391.028 495.921 393.599L477.645 406.976V383.957C479.844 382.985 488.663 378.45 491.567 367.151C494.896 354.205 477.141 328.682 477.141 328.682C477.141 328.682 458.646 354.944 462.346 368.26C465.48 379.544 473.903 383.115 476.408 383.944V433.861L463.218 422.869C463.523 420.242 463.756 412.014 456.428 403.77C447.55 393.783 423.877 394.523 423.877 394.523C423.877 394.523 433.865 414.498 442.372 421.155C449.807 426.974 460.065 424.6 462.535 423.909L476.409 435.471V450.647H455.789L464.201 503.229H489.44L497.854 450.647H477.646V440.609L490.565 433.366C493.71 434.238 502.487 436.038 510.802 431.882C521.159 426.702 529.666 415.606 529.666 415.606C529.666 415.606 504.884 409.321 495.267 420.418Z" fill="white"/>
<path d="M471.948 261.574L437.981 261.854C437.981 261.854 435.735 261.574 435.175 263.257C435.175 263.257 429.28 278.135 428.998 283.469C428.718 288.802 430.121 287.96 427.876 294.977C425.63 301.995 419.173 318.557 415.523 332.032C410.619 350.142 409.34 369.363 409.03 388.056C408.98 391.055 407.187 416.865 411.856 416.865C415.731 416.865 451.468 421.601 451.898 414.712C453.614 387.252 448.656 360.421 458.193 333.715C461.898 323.344 466.146 312.389 469.288 301.539C472.443 290.644 472.981 279.413 475.036 268.31C476.439 260.731 471.948 261.574 471.948 261.574Z" fill="#263238"/>
<path d="M475.273 264.937C474.939 261.017 471.948 261.574 471.948 261.574L437.981 261.855C437.981 261.855 435.735 261.574 435.174 263.258C435.174 263.258 429.28 278.136 428.998 283.469C428.89 285.531 429.033 286.669 429.119 287.696L429.84 288.802C429.84 288.802 430.963 298.627 444.437 299.188C457.911 299.75 465.491 293.573 468.299 287.679C471.106 281.784 472.228 272.239 474.475 266.625C474.699 266.063 474.977 265.5 475.273 264.937Z" fill="#0B3C95"/>
<path d="M467.4 275.901C465.122 284.101 466.488 286.379 464.21 300.503C461.932 314.627 453.732 330.572 450.542 345.151C447.353 359.73 448.72 411.212 449.176 413.49C449.349 414.358 449.39 415.754 449.374 417.15C450.903 416.579 451.83 415.789 451.897 414.714C453.613 387.255 448.654 360.423 458.192 333.717C461.896 323.346 466.144 312.392 469.286 301.542C472.441 290.647 472.978 279.416 475.034 268.312C475.897 263.655 474.535 262.182 473.355 261.734L473.322 261.779C473.322 261.779 469.678 267.701 467.4 275.901Z" fill="#0B3C95"/>
<path d="M401.793 483.194L401.566 483.011V451.303H406.122V431.257H389.266V451.303H393.822V483.557L353.502 496.406V499.596C353.502 501.608 355.134 503.24 357.146 503.24C359.16 503.24 360.791 501.608 360.791 499.596V499.14L394.505 495.22V500.051C394.505 501.812 395.932 503.241 397.694 503.241C399.455 503.241 400.883 501.814 400.883 500.051V495.061L435.963 499.141V499.597C435.963 501.609 437.595 503.241 439.608 503.241C441.62 503.241 443.252 501.609 443.252 499.597V496.407L401.793 483.194Z" fill="#263238"/>
<path d="M449.865 434.95H349.733C347.184 434.95 345.117 432.883 345.117 430.334V416.315C345.117 413.766 347.184 411.699 349.733 411.699H449.865C452.414 411.699 454.481 413.766 454.481 416.315V430.334C454.481 432.883 452.415 434.95 449.865 434.95Z" fill="#263238"/>
<path d="M55.7073 261.574L89.6742 261.854C89.6742 261.854 91.9199 261.574 92.4819 263.257C92.4819 263.257 98.3765 278.135 98.6581 283.469C98.9385 288.802 97.5352 287.96 99.7809 294.977C102.027 301.995 108.483 318.557 112.132 332.032C117.037 350.142 118.315 369.363 118.626 388.056C118.675 391.055 120.469 416.865 115.8 416.865C111.924 416.865 76.1874 421.601 75.7569 414.712C74.0409 387.252 78.9997 360.421 69.4619 333.715C65.7575 323.344 61.5097 312.389 58.3673 301.539C55.2123 290.644 54.6745 279.413 52.6192 268.31C51.216 260.731 55.7073 261.574 55.7073 261.574Z" fill="#263238"/>
<path d="M52.3809 264.937C52.7155 261.017 55.7067 261.574 55.7067 261.574L89.6735 261.855C89.6735 261.855 91.9192 261.574 92.4812 263.258C92.4812 263.258 98.3758 278.136 98.6574 283.469C98.7659 285.531 98.6228 286.669 98.5362 287.696L97.815 288.802C97.815 288.802 96.6922 298.627 83.218 299.188C69.7439 299.75 62.1645 293.573 59.3568 287.679C56.5491 281.784 55.4274 272.239 53.1806 266.625C52.9556 266.063 52.6774 265.5 52.3809 264.937Z" fill="#0B3C95"/>
<path d="M60.2552 275.901C62.5332 284.101 61.1669 286.379 63.4449 300.503C65.7229 314.627 73.9232 330.572 77.1128 345.151C80.3013 359.73 78.935 411.212 78.4792 413.49C78.3061 414.358 78.2645 415.754 78.2795 417.15C76.7505 416.579 75.8238 415.789 75.7569 414.714C74.0409 387.255 78.9996 360.423 69.4618 333.717C65.7575 323.346 61.5096 312.392 58.3673 301.542C55.2122 290.647 54.6756 279.416 52.6192 268.312C51.7572 263.655 53.12 262.182 54.2994 261.734L54.3329 261.779C54.3329 261.779 57.9772 267.701 60.2552 275.901Z" fill="#0B3C95"/>
<path d="M125.861 483.194L126.088 483.011V451.303H121.532V431.257H138.389V451.303H133.833V483.557L174.152 496.406V499.596C174.152 501.608 172.521 503.24 170.508 503.24C168.495 503.24 166.864 501.608 166.864 499.596V499.14L133.15 495.22V500.051C133.15 501.812 131.722 503.241 129.96 503.241C128.199 503.241 126.771 501.814 126.771 500.051V495.061L91.691 499.141V499.597C91.691 501.609 90.0592 503.241 88.0467 503.241C86.0341 503.241 84.4023 501.609 84.4023 499.597V496.407L125.861 483.194Z" fill="#263238"/>
<path d="M77.7898 434.95H177.921C180.47 434.95 182.537 432.883 182.537 430.334V416.315C182.537 413.766 180.47 411.699 177.921 411.699H77.7898C75.2406 411.699 73.1738 413.766 73.1738 416.315V430.334C73.1738 432.883 75.2406 434.95 77.7898 434.95Z" fill="#263238"/>
<path d="M429.788 346.401H155.604V503.988H429.788V346.401Z" fill="#CCCCCC"/>
<path d="M429.574 350.184H155.734V354.543H429.574V350.184Z" fill="#263238"/>
<path d="M431.823 343.817H149.498V350.707H431.823V343.817Z" fill="#CCCCCC"/>
<path d="M228.6 330.132C228.6 330.132 231.831 344.571 231.64 348.56C231.45 352.549 223.851 363.379 223.661 360.909C223.471 358.439 224.991 354.83 224.991 354.83C224.991 354.83 222.331 358.439 221.381 358.249C220.431 358.059 222.14 353.119 222.14 353.119C222.14 353.119 219.291 355.969 218.341 355.399C217.392 354.829 220.431 350.649 220.431 350.649C220.431 350.649 217.012 354.259 216.822 353.118C216.631 351.978 219.861 347.23 219.861 347.23C219.861 347.23 216.631 340.39 216.442 337.54C216.252 334.691 218.341 332.031 218.341 332.031L228.6 330.132Z" fill="white"/>
<mask id="mask8_556_20259" style="mask-type:luminance" maskUnits="userSpaceOnUse" x="216" y="330" width="16" height="32">
<path d="M228.6 330.132C228.6 330.132 231.831 344.571 231.64 348.56C231.45 352.549 223.851 363.379 223.661 360.909C223.471 358.439 224.991 354.83 224.991 354.83C224.991 354.83 222.331 358.439 221.381 358.249C220.431 358.059 222.14 353.119 222.14 353.119C222.14 353.119 219.291 355.969 218.341 355.399C217.392 354.829 220.431 350.649 220.431 350.649C220.431 350.649 217.012 354.259 216.822 353.118C216.631 351.978 219.861 347.23 219.861 347.23C219.861 347.23 216.631 340.39 216.442 337.54C216.252 334.691 218.341 332.031 218.341 332.031L228.6 330.132Z" fill="white"/>
</mask>
<g mask="url(#mask8_556_20259)">
<path d="M228.6 330.132C228.6 330.132 231.831 344.571 231.64 348.56C231.45 352.549 223.851 363.379 223.661 360.909C223.471 358.439 224.991 354.83 224.991 354.83C224.991 354.83 222.331 358.439 221.381 358.249C220.431 358.059 222.14 353.119 222.14 353.119C222.14 353.119 219.291 355.969 218.341 355.399C217.392 354.829 220.431 350.649 220.431 350.649C220.431 350.649 217.012 354.259 216.822 353.118C216.631 351.978 219.861 347.23 219.861 347.23C219.861 347.23 216.631 340.39 216.442 337.54C216.252 334.691 218.341 332.031 218.341 332.031L228.6 330.132Z" fill="#D9D9D9"/>
</g>
<path d="M228.6 330.132C228.6 330.132 231.831 344.571 231.64 348.56C231.45 352.549 223.851 363.379 223.661 360.909C223.471 358.439 224.991 354.83 224.991 354.83C224.991 354.83 222.331 358.439 221.381 358.249C220.431 358.059 222.14 353.119 222.14 353.119C222.14 353.119 219.291 355.969 218.341 355.399C217.392 354.829 220.431 350.649 220.431 350.649C220.431 350.649 217.012 354.259 216.822 353.118C216.631 351.978 219.861 347.23 219.861 347.23C219.861 347.23 216.631 340.39 216.442 337.54C216.252 334.691 218.341 332.031 218.341 332.031L228.6 330.132Z" stroke="#263238" stroke-width="1.154" stroke-miterlimit="10" stroke-linecap="round" stroke-linejoin="round"/>
<path d="M227.844 330.132C227.844 330.132 230.123 340.2 229.934 343.05C229.744 345.899 226.894 354.259 224.804 352.739C222.715 351.219 226.134 345.519 226.134 345.519C226.134 345.519 220.262 341.404 218.914 337.54C217.567 333.677 218.344 332.031 218.344 332.031L227.844 330.132Z" fill="white"/>
<mask id="mask9_556_20259" style="mask-type:luminance" maskUnits="userSpaceOnUse" x="218" y="330" width="12" height="23">
<path d="M227.844 330.132C227.844 330.132 230.123 340.2 229.934 343.05C229.744 345.899 226.894 354.259 224.804 352.739C222.715 351.219 226.134 345.519 226.134 345.519C226.134 345.519 220.262 341.404 218.914 337.54C217.567 333.677 218.344 332.031 218.344 332.031L227.844 330.132Z" fill="white"/>
</mask>
<g mask="url(#mask9_556_20259)">
<path d="M227.844 330.132C227.844 330.132 230.123 340.2 229.934 343.05C229.744 345.899 226.894 354.259 224.804 352.739C222.715 351.219 226.134 345.519 226.134 345.519C226.134 345.519 220.262 341.404 218.914 337.54C217.567 333.677 218.344 332.031 218.344 332.031L227.844 330.132Z" fill="#D9D9D9"/>
</g>
<path d="M227.844 330.132C227.844 330.132 230.123 340.2 229.934 343.05C229.744 345.899 226.894 354.259 224.804 352.739C222.715 351.219 226.134 345.519 226.134 345.519C226.134 345.519 220.262 341.404 218.914 337.54C217.567 333.677 218.344 332.031 218.344 332.031L227.844 330.132Z" stroke="#263238" stroke-width="1.154" stroke-miterlimit="10" stroke-linecap="round" stroke-linejoin="round"/>
<path d="M220.876 282.915L228.967 331.103L217.565 333.677L206.162 296.525L220.876 282.915Z" fill="#263238" stroke="#263238" stroke-width="1.154" stroke-miterlimit="10" stroke-linecap="round" stroke-linejoin="round"/>
<path d="M217.565 306.457C217.565 306.457 218.302 363.841 219.405 379.29C220.508 394.74 216.462 415.339 212.783 421.224C209.104 427.109 192.919 463.893 193.656 466.101C194.392 468.308 197.701 474.929 197.701 476.768C197.701 478.608 197.701 484.493 197.701 484.493C197.701 484.493 216.094 496.632 217.565 496.632C219.037 496.632 220.876 499.575 217.197 501.781C213.518 503.989 172.32 503.989 170.481 502.517C168.641 501.046 167.906 498.472 167.906 498.472C167.906 498.472 162.021 500.678 162.389 495.161C162.757 489.643 169.378 466.101 169.378 466.101C169.378 466.101 165.332 440.351 166.803 423.798C168.274 407.246 173.425 387.382 173.425 383.336C173.425 379.29 168.274 352.437 167.539 348.023C166.804 343.609 156.137 331.102 160.918 321.171C165.7 311.24 169.378 295.422 170.849 294.319C172.32 293.215 192.184 292.479 200.276 294.319C208.369 296.157 217.197 296.157 217.565 306.457Z" fill="#263238" stroke="#263238" stroke-width="1.154" stroke-miterlimit="10" stroke-linecap="round" stroke-linejoin="round"/>
<path d="M181.094 190.804C181.094 190.804 174.813 196.435 173.729 198.385C172.647 200.335 159.432 219.181 159.216 232.611C158.999 246.041 168.964 286.765 168.964 286.765L154.018 324.926L158.35 326.659L162.682 321.893V329.041C162.682 329.041 167.664 333.59 180.661 337.923C193.657 342.255 210.337 337.273 210.337 337.273L215.319 305.611V336.84L221.168 332.941L221.6 280.916C221.6 280.916 226.366 252.973 226.366 245.174C226.366 237.376 213.153 212.898 207.305 205.75C201.456 198.602 191.708 192.754 188.893 190.587C186.077 188.422 181.094 190.804 181.094 190.804Z" fill="#263238"/>
<mask id="mask10_556_20259" style="mask-type:luminance" maskUnits="userSpaceOnUse" x="154" y="189" width="73" height="151">
<path d="M181.094 190.804C181.094 190.804 174.813 196.435 173.729 198.385C172.647 200.335 159.432 219.181 159.216 232.611C158.999 246.041 168.964 286.765 168.964 286.765L154.018 324.926L158.35 326.659L162.682 321.893V329.041C162.682 329.041 167.664 333.59 180.661 337.923C193.657 342.255 210.337 337.273 210.337 337.273L215.319 305.611V336.84L221.168 332.941L221.6 280.916C221.6 280.916 226.366 252.973 226.366 245.174C226.366 237.376 213.153 212.898 207.305 205.75C201.456 198.602 191.708 192.754 188.893 190.587C186.077 188.422 181.094 190.804 181.094 190.804Z" fill="white"/>
</mask>
<g mask="url(#mask10_556_20259)">
<path d="M181.094 190.804C181.094 190.804 174.813 196.435 173.729 198.385C172.647 200.335 159.432 219.181 159.216 232.611C158.999 246.041 168.964 286.765 168.964 286.765L154.018 324.926L158.35 326.659L162.682 321.893V329.041C162.682 329.041 167.664 333.59 180.661 337.923C193.657 342.255 210.337 337.273 210.337 337.273L215.319 305.611V336.84L221.168 332.941L221.6 280.916C221.6 280.916 226.366 252.973 226.366 245.174C226.366 237.376 213.153 212.898 207.305 205.75C201.456 198.602 191.708 192.754 188.893 190.587C186.077 188.422 181.094 190.804 181.094 190.804Z" fill="#0B3C95"/>
<path d="M162.594 236.931C162.594 236.931 170.458 242.501 175.701 244.467" stroke="#263238" stroke-width="1.154" stroke-miterlimit="10" stroke-linecap="round" stroke-linejoin="round"/>
<path d="M164.889 242.828C164.889 242.828 173.736 245.122 178.324 245.122" stroke="#263238" stroke-width="1.154" stroke-miterlimit="10" stroke-linecap="round" stroke-linejoin="round"/>
<path d="M177.668 295.257L202.571 298.206L200.933 303.449L177.996 300.828" stroke="white" stroke-width="1.154" stroke-miterlimit="10" stroke-linecap="round" stroke-linejoin="round"/>
</g>
<path d="M181.094 190.804C181.094 190.804 174.813 196.435 173.729 198.385C172.647 200.335 159.432 219.181 159.216 232.611C158.999 246.041 168.964 286.765 168.964 286.765L154.018 324.926L158.35 326.659L162.682 321.893V329.041C162.682 329.041 167.664 333.59 180.661 337.923C193.657 342.255 210.337 337.273 210.337 337.273L215.319 305.611V336.84L221.168 332.941L221.6 280.916C221.6 280.916 226.366 252.973 226.366 245.174C226.366 237.376 213.153 212.898 207.305 205.75C201.456 198.602 191.708 192.754 188.893 190.587C186.077 188.422 181.094 190.804 181.094 190.804Z" stroke="white" stroke-width="1.154" stroke-miterlimit="10" stroke-linecap="round" stroke-linejoin="round"/>
<path d="M179.795 192.104L203.84 218.098L217.92 244.959C217.92 244.959 214.887 225.03 212.288 219.615C209.689 214.199 197.991 200.553 196.692 197.52C195.391 194.486 179.795 192.104 179.795 192.104Z" fill="white" stroke="#263238" stroke-width="1.154" stroke-miterlimit="10" stroke-linecap="round" stroke-linejoin="round"/>
<path d="M211.263 232.259L217.921 244.959C217.921 244.959 215.853 231.379 213.669 223.594L212.289 219.616C211.248 217.446 208.744 213.956 206.037 210.356L202.266 209.602L203.841 218.098L208.719 222.077L211.263 232.259Z" fill="#263238" stroke="#263238" stroke-width="1.154" stroke-miterlimit="10" stroke-linecap="round" stroke-linejoin="round"/>
<path d="M204.846 201.857L206.091 203.31L210.009 207.88L212.289 219.614L202.266 209.601C202.266 209.601 203.556 203.578 204.846 201.857Z" fill="white" stroke="#263238" stroke-width="1.154" stroke-miterlimit="10" stroke-linecap="round" stroke-linejoin="round"/>
<path d="M216.188 153.547C216.188 153.547 221.459 157.587 222.108 161.486C222.758 165.386 220.809 169.718 221.025 171.234C221.242 172.751 225.14 176.216 224.924 177.949C224.707 179.683 221.459 180.332 221.459 180.332C221.459 180.332 217.922 193.188 217.055 195.354C216.188 197.52 211.856 196.87 208.606 196.438L202.758 213.767L183.479 191.023L186.512 181.925C186.512 181.925 178.28 171.961 177.631 161.347C176.981 150.732 185.429 143.367 197.559 141.851C209.69 140.335 219.871 146.183 221.17 148.566C222.471 150.947 216.188 153.547 216.188 153.547Z" fill="white"/>
<mask id="mask11_556_20259" style="mask-type:luminance" maskUnits="userSpaceOnUse" x="177" y="141" width="48" height="73">
<path d="M216.19 153.547C216.19 153.547 221.46 157.587 222.11 161.486C222.76 165.386 220.811 169.718 221.027 171.234C221.244 172.751 225.142 176.216 224.926 177.949C224.709 179.683 221.46 180.332 221.46 180.332C221.46 180.332 217.923 193.188 217.057 195.354C216.19 197.52 211.858 196.87 208.608 196.438L202.76 213.767L183.481 191.023L186.514 181.925C186.514 181.925 178.282 171.961 177.633 161.347C176.983 150.732 185.431 143.367 197.561 141.851C209.692 140.335 219.873 146.183 221.172 148.566C222.473 150.947 216.19 153.547 216.19 153.547Z" fill="white"/>
</mask>
<g mask="url(#mask11_556_20259)">
<path d="M216.19 153.547C216.19 153.547 221.46 157.587 222.11 161.486C222.76 165.386 220.811 169.718 221.027 171.234C221.244 172.751 225.142 176.216 224.926 177.949C224.709 179.683 221.46 180.332 221.46 180.332C221.46 180.332 217.923 193.188 217.057 195.354C216.19 197.52 211.858 196.87 208.608 196.438L202.76 213.767L183.481 191.023L186.514 181.925C186.514 181.925 178.282 171.961 177.633 161.347C176.983 150.732 185.431 143.367 197.561 141.851C209.692 140.335 219.873 146.183 221.172 148.566C222.473 150.947 216.19 153.547 216.19 153.547Z" fill="#D9D9D9"/>
</g>
<mask id="mask12_556_20259" style="mask-type:luminance" maskUnits="userSpaceOnUse" x="177" y="141" width="48" height="73">
<path d="M216.19 153.547C216.19 153.547 221.46 157.587 222.11 161.486C222.76 165.386 220.811 169.718 221.027 171.234C221.244 172.751 225.142 176.216 224.926 177.949C224.709 179.683 221.46 180.332 221.46 180.332C221.46 180.332 217.923 193.188 217.057 195.354C216.19 197.52 211.858 196.87 208.608 196.438L202.76 213.767L183.481 191.023L186.514 181.925C186.514 181.925 178.282 171.961 177.633 161.347C176.983 150.732 185.431 143.367 197.561 141.851C209.692 140.335 219.873 146.183 221.172 148.566C222.473 150.947 216.19 153.547 216.19 153.547Z" fill="white"/>
</mask>
<g mask="url(#mask12_556_20259)">
<path d="M193.72 203.101C196.976 202.441 202.426 201.314 207.34 200.197L208.608 196.437C211.318 196.798 214.773 197.304 216.35 196.209C212.651 194.69 203.512 192.015 201.643 188.588C199.32 184.329 207.451 171.939 207.451 165.744C207.451 159.549 199.707 152.58 199.707 152.58C195.973 149.032 189.177 148.008 183.141 147.897C179.389 151.286 177.298 155.88 177.633 161.346C178.282 171.961 186.514 181.924 186.514 181.924L183.481 191.022L193.72 203.101Z" fill="#B8B8B8"/>
</g>
<path d="M216.188 153.547C216.188 153.547 221.459 157.587 222.108 161.486C222.758 165.386 220.809 169.718 221.025 171.234C221.242 172.751 225.14 176.216 224.924 177.949C224.707 179.683 221.459 180.332 221.459 180.332C221.459 180.332 217.922 193.188 217.055 195.354C216.188 197.52 211.856 196.87 208.606 196.438L202.758 213.767L183.479 191.023L186.512 181.925C186.512 181.925 178.28 171.961 177.631 161.347C176.981 150.732 185.429 143.367 197.559 141.851C209.69 140.335 219.871 146.183 221.17 148.566C222.471 150.947 216.188 153.547 216.188 153.547Z" stroke="#263238" stroke-width="1.154" stroke-miterlimit="10" stroke-linecap="round" stroke-linejoin="round"/>
<path d="M216.188 153.547C216.188 153.547 222.471 150.947 221.17 148.565C219.871 146.182 209.69 140.334 197.559 141.85C185.428 143.366 176.981 150.731 177.631 161.346C178.28 171.96 186.512 181.924 186.512 181.924L186.051 183.308C190.543 185.494 195.177 181.924 195.177 181.924C195.177 181.924 192.579 183.44 189.979 181.057C187.38 178.674 187.163 171.092 190.412 170.443C193.662 169.793 195.828 171.092 195.828 173.475C195.828 175.858 196.478 174.342 198.211 174.125C199.944 173.908 198.428 168.709 199.511 167.844C200.594 166.977 202.111 166.328 204.06 163.728C206.009 161.129 200.377 158.963 199.728 156.58C199.076 154.197 216.188 153.547 216.188 153.547Z" fill="#263238" stroke="#263238" stroke-width="1.154" stroke-miterlimit="10" stroke-linecap="round" stroke-linejoin="round"/>
<path d="M217.744 170.462L213.729 171.801H217.362" stroke="#263238" stroke-width="1.154" stroke-miterlimit="10" stroke-linecap="round" stroke-linejoin="round"/>
<path d="M219.275 166.446C219.275 166.446 217.553 163.959 215.641 165.108C213.729 166.255 213.537 167.02 213.537 167.02" stroke="#263238" stroke-width="1.154" stroke-miterlimit="10" stroke-linecap="round" stroke-linejoin="round"/>
<path d="M215.156 183.846C215.156 183.846 216.699 185.08 219.168 184.771" stroke="#263238" stroke-width="1.154" stroke-miterlimit="10" stroke-linecap="round" stroke-linejoin="round"/>
<path d="M182.613 186.905L206.874 210.733L204.708 220.914L178.93 193.187L182.613 186.905Z" fill="white" stroke="#263238" stroke-width="1.154" stroke-miterlimit="10" stroke-linecap="round" stroke-linejoin="round"/>
<path d="M275.798 278.013C275.798 278.013 267.26 272.935 265.875 273.397C264.49 273.858 251.105 283.551 252.028 285.859C252.951 288.167 260.105 291.167 264.259 292.782C268.414 294.397 276.952 290.935 276.952 290.935L275.798 278.013Z" fill="white" stroke="#263238" stroke-width="1.154" stroke-miterlimit="10" stroke-linecap="round" stroke-linejoin="round"/>
<path d="M250.873 276.166C250.873 276.166 258.258 272.012 259.412 272.012C260.566 272.012 267.258 278.011 267.258 278.011L264.488 282.166C264.488 282.166 273.257 286.551 272.334 288.167C271.411 289.782 267.949 292.321 264.257 292.783C260.565 293.244 250.18 286.551 250.18 286.551L250.873 276.166Z" fill="white"/>
<mask id="mask13_556_20259" style="mask-type:luminance" maskUnits="userSpaceOnUse" x="250" y="272" width="23" height="21">
<path d="M250.873 276.166C250.873 276.166 258.258 272.012 259.412 272.012C260.566 272.012 267.258 278.011 267.258 278.011L264.488 282.166C264.488 282.166 273.257 286.551 272.334 288.167C271.411 289.782 267.949 292.321 264.257 292.783C260.565 293.244 250.18 286.551 250.18 286.551L250.873 276.166Z" fill="white"/>
</mask>
<g mask="url(#mask13_556_20259)">
<path d="M250.873 276.166C250.873 276.166 258.258 272.012 259.412 272.012C260.566 272.012 267.258 278.011 267.258 278.011L264.488 282.166C264.488 282.166 273.257 286.551 272.334 288.167C271.411 289.782 267.949 292.321 264.257 292.783C260.565 293.244 250.18 286.551 250.18 286.551L250.873 276.166Z" fill="#D9D9D9"/>
</g>
<path d="M250.873 276.166C250.873 276.166 258.258 272.012 259.412 272.012C260.566 272.012 267.258 278.011 267.258 278.011L264.488 282.166C264.488 282.166 273.257 286.551 272.334 288.167C271.411 289.782 267.949 292.321 264.257 292.783C260.565 293.244 250.18 286.551 250.18 286.551L250.873 276.166Z" stroke="#263238" stroke-width="1.154" stroke-miterlimit="10" stroke-linecap="round" stroke-linejoin="round"/>
<path d="M245.797 274.32L252.258 275.474L250.181 286.552L244.643 284.705L245.797 274.32Z" fill="white" stroke="#263238" stroke-width="1.154" stroke-miterlimit="10" stroke-linecap="round" stroke-linejoin="round"/>
<path d="M170.794 209.934C170.794 209.934 164.564 221.934 163.871 227.934C163.179 233.933 188.565 281.704 190.411 283.32C192.257 284.936 246.259 286.551 246.259 286.551L248.567 274.781L202.411 261.627L186.718 213.394" fill="#263238"/>
<mask id="mask14_556_20259" style="mask-type:luminance" maskUnits="userSpaceOnUse" x="163" y="209" width="86" height="78">
<path d="M170.794 209.934C170.794 209.934 164.564 221.934 163.871 227.934C163.179 233.933 188.565 281.704 190.411 283.32C192.257 284.936 246.259 286.551 246.259 286.551L248.567 274.781L202.411 261.627L186.718 213.394" fill="white"/>
</mask>
<g mask="url(#mask14_556_20259)">
<path d="M170.794 209.934C170.794 209.934 164.564 221.934 163.871 227.934C163.179 233.933 188.565 281.704 190.411 283.32C192.257 284.936 246.259 286.551 246.259 286.551L248.567 274.781L202.411 261.627L186.718 213.394" fill="#0B3C95"/>
</g>
<path d="M170.794 209.934C170.794 209.934 164.564 221.934 163.871 227.934C163.179 233.933 188.565 281.704 190.411 283.32C192.257 284.936 246.259 286.551 246.259 286.551L248.567 274.781L202.411 261.627L186.718 213.394" stroke="white" stroke-width="1.154" stroke-miterlimit="10" stroke-linecap="round" stroke-linejoin="round"/>
<path d="M267.721 274.551C267.721 274.551 264.49 271.781 263.336 275.013C262.182 278.244 255.028 286.09 258.258 286.321C261.489 286.551 267.489 279.859 267.489 279.859" fill="white"/>
<path d="M267.721 274.551C267.721 274.551 264.49 271.781 263.336 275.013C262.182 278.244 255.028 286.09 258.258 286.321C261.489 286.551 267.489 279.859 267.489 279.859" stroke="#263238" stroke-width="1.154" stroke-miterlimit="10" stroke-linecap="round" stroke-linejoin="round"/>
<path d="M253.412 287.475C253.412 287.475 252.577 291.371 254.566 293.013C255.956 294.161 256.751 290.933 256.413 288.628C256.062 286.245 254.105 285.628 253.412 287.475Z" fill="white" stroke="#263238" stroke-width="1.154" stroke-miterlimit="10" stroke-linecap="round" stroke-linejoin="round"/>
<path d="M256.643 288.398C256.643 288.398 255.807 292.293 257.797 293.936C259.186 295.084 259.981 291.856 259.643 289.55C259.294 287.167 257.335 286.551 256.643 288.398Z" fill="white" stroke="#263238" stroke-width="1.154" stroke-miterlimit="10" stroke-linecap="round" stroke-linejoin="round"/>
<path d="M259.873 289.782C259.873 289.782 259.038 293.678 261.027 295.32C262.417 296.469 263.212 293.241 262.874 290.935C262.524 288.552 260.566 287.936 259.873 289.782Z" fill="white" stroke="#263238" stroke-width="1.154" stroke-miterlimit="10" stroke-linecap="round" stroke-linejoin="round"/>
<path d="M263.072 291.664C263.072 291.664 262.305 294.291 264.132 295.399C265.41 296.173 266.14 293.997 265.83 292.441C265.509 290.834 263.709 290.418 263.072 291.664Z" fill="white" stroke="#263238" stroke-width="1.154" stroke-miterlimit="10" stroke-linecap="round" stroke-linejoin="round"/>
<path d="M275.797 278.013L276.489 292.782L281.566 291.397L280.412 277.782L275.797 278.013Z" stroke="#263238" stroke-width="1.154" stroke-miterlimit="10" stroke-linecap="round" stroke-linejoin="round"/>
<path d="M279.258 276.628L281.566 294.166L320.106 290.013L321.029 267.166L279.258 276.628Z" fill="#263238" stroke="#263238" stroke-width="1.154" stroke-miterlimit="10" stroke-linecap="round" stroke-linejoin="round"/>
<path d="M211.681 346.553C211.681 346.553 204.692 393.269 204.692 409.086C204.692 424.902 194.024 451.388 193.656 466.101" stroke="white" stroke-width="1.154" stroke-miterlimit="10" stroke-linecap="round" stroke-linejoin="round"/>
<path d="M170.483 502.517C172.322 503.988 213.52 503.988 217.199 501.78C220.878 499.573 219.038 496.631 217.567 496.631C216.096 496.631 197.703 484.492 197.703 484.492C197.703 484.492 187.772 492.217 182.254 494.057C176.736 495.896 167.908 496.263 167.908 496.263V498.471C167.908 498.471 168.643 501.045 170.483 502.517Z" fill="white" stroke="#263238" stroke-width="1.154" stroke-miterlimit="10" stroke-linecap="round" stroke-linejoin="round"/>
<path d="M217.198 501.78C219.138 500.617 219.536 499.252 219.27 498.218C215.167 499.102 209.712 499.755 202.853 499.941C191.739 500.241 174.258 499.561 168.213 499.301C168.582 500.182 169.303 501.572 170.483 502.516C172.321 503.988 213.52 503.988 217.198 501.78Z" fill="white" stroke="#263238" stroke-width="1.154" stroke-miterlimit="10" stroke-linecap="round" stroke-linejoin="round"/>
<path d="M166.837 498.759L167.907 496.263L169.378 466.1C169.378 466.1 162.757 489.641 162.39 495.16C162.121 499.176 165.159 499.098 166.837 498.759Z" fill="#263238" stroke="#263238" stroke-width="1.154" stroke-miterlimit="10" stroke-linecap="round" stroke-linejoin="round"/>
<path d="M325.711 337.356C325.711 337.356 322.032 392.165 325.711 414.235C329.39 436.305 338.585 474.561 340.057 479.342C341.528 484.123 341.16 488.17 341.16 488.17L361.759 491.113C361.759 491.113 355.505 418.649 355.505 410.188C355.505 401.728 362.494 338.458 362.494 338.458L325.711 337.356Z" fill="#263238" stroke="#263238" stroke-width="1.154" stroke-miterlimit="10" stroke-linecap="round" stroke-linejoin="round"/>
<path d="M341.16 488.171C341.16 488.171 318.722 497.735 316.147 499.574C313.572 501.413 321.664 503.988 331.597 503.988C341.528 503.988 351.461 502.885 351.461 502.885L355.506 500.677L355.875 503.252H366.542C366.542 503.252 368.382 494.423 367.645 492.216C366.909 490.008 365.806 487.802 365.806 487.802L341.16 488.171Z" fill="#263238" stroke="#263238" stroke-width="1.154" stroke-miterlimit="10" stroke-linecap="round" stroke-linejoin="round"/>
<path d="M322.4 332.942C322.4 332.942 324.24 385.543 328.654 404.303C333.068 423.062 340.793 468.675 340.793 473.457C340.793 478.24 339.69 481.55 339.69 481.55L338.218 486.333C338.586 488.172 339.321 489.643 339.321 489.643C339.321 489.643 348.886 491.851 355.138 491.851C361.391 491.851 366.708 490.114 366.708 490.114C366.708 490.114 366.909 478.609 367.277 473.092C367.645 467.574 365.806 432.261 365.806 423.801C365.806 415.341 363.599 410.559 363.599 400.259C363.599 389.96 361.76 362.371 362.128 357.957C362.496 353.543 367.645 348.761 368.75 343.244C369.853 337.726 370.957 331.841 370.957 331.841L322.4 332.942Z" fill="#263238" stroke="#263238" stroke-width="1.154" stroke-miterlimit="10" stroke-linecap="round" stroke-linejoin="round"/>
<path d="M326.809 388.259C326.809 388.259 337.09 459.586 339.661 464.085C342.231 468.583 340.792 473.457 340.792 473.457" stroke="white" stroke-width="1.154" stroke-miterlimit="10" stroke-linecap="round" stroke-linejoin="round"/>
<path d="M313.573 291.377C313.573 291.377 312.194 305.446 312.194 316.206C312.194 322.203 312.137 330 312.086 335.727C312.044 340.531 315.403 344.694 320.109 345.661C322.548 346.162 325.182 346.553 327.46 346.553L318.815 293.031C318.815 293.031 314.952 286.41 313.573 291.377Z" fill="#263238" stroke="#263238" stroke-width="1.154" stroke-miterlimit="10" stroke-linecap="round" stroke-linejoin="round"/>
<path d="M354.403 195.553C354.403 195.553 358.265 197.576 360.105 199.783C361.944 201.99 363.967 205.852 363.967 205.852C363.967 205.852 379.6 223.877 379.968 225.716C380.336 227.556 371.14 285.49 371.14 285.49L381.624 340.298C381.624 340.298 364.703 349.678 351.829 350.229C342.762 350.618 329.135 347.723 321.867 345.976C318.877 345.257 316.686 342.727 316.403 339.664C315.691 331.965 314.354 316.634 313.573 302.041C312.667 285.131 315.228 251.647 317.067 239.876C318.907 228.105 324.608 212.104 329.022 205.483C333.436 198.864 345.575 192.059 354.403 195.553Z" fill="#0B3C95" stroke="white" stroke-width="1.154" stroke-miterlimit="10" stroke-linecap="round" stroke-linejoin="round"/>
<path d="M363.967 205.853C363.967 205.853 361.944 201.991 360.105 199.784C358.265 197.577 354.403 195.554 354.403 195.554C347.069 192.65 337.465 196.859 331.888 202.162C331.16 203.804 325.34 217.072 322.583 227.923C319.641 239.511 320.009 254.04 320.009 254.04C320.009 254.04 329.757 241.534 342.999 226.819C351.806 217.033 360.039 210.1 364.568 206.55C364.189 206.108 363.967 205.853 363.967 205.853Z" fill="#263238"/>
<mask id="mask15_556_20259" style="mask-type:luminance" maskUnits="userSpaceOnUse" x="319" y="194" width="46" height="61">
<path d="M363.967 205.853C363.967 205.853 361.944 201.991 360.105 199.784C358.265 197.577 354.403 195.554 354.403 195.554C347.069 192.65 337.465 196.859 331.888 202.162C331.16 203.804 325.34 217.072 322.583 227.923C319.641 239.511 320.009 254.04 320.009 254.04C320.009 254.04 329.757 241.534 342.999 226.819C351.806 217.033 360.039 210.1 364.568 206.55C364.189 206.108 363.967 205.853 363.967 205.853Z" fill="white"/>
</mask>
<g mask="url(#mask15_556_20259)">
<path d="M363.967 205.853C363.967 205.853 361.944 201.991 360.105 199.784C358.265 197.577 354.403 195.554 354.403 195.554C347.069 192.65 337.465 196.859 331.888 202.162C331.16 203.804 325.34 217.072 322.583 227.923C319.641 239.511 320.009 254.04 320.009 254.04C320.009 254.04 329.757 241.534 342.999 226.819C351.806 217.033 360.039 210.1 364.568 206.55C364.189 206.108 363.967 205.853 363.967 205.853Z" fill="#0B3C95"/>
</g>
<path d="M363.967 205.853C363.967 205.853 361.944 201.991 360.105 199.784C358.265 197.577 354.403 195.554 354.403 195.554C347.069 192.65 337.465 196.859 331.888 202.162C331.16 203.804 325.34 217.072 322.583 227.923C319.641 239.511 320.009 254.04 320.009 254.04C320.009 254.04 329.757 241.534 342.999 226.819C351.806 217.033 360.039 210.1 364.568 206.55C364.189 206.108 363.967 205.853 363.967 205.853Z" stroke="#263238" stroke-width="1.154" stroke-miterlimit="10" stroke-linecap="round" stroke-linejoin="round"/>
<path d="M330.677 210.68C330.677 210.68 325.711 226.267 324.194 230.681C322.676 235.096 322.539 241.993 322.539 241.993C322.539 241.993 341.161 214.128 345.713 209.439C350.265 204.749 356.197 197.438 356.197 197.438L352.197 196.335L330.677 210.68Z" fill="white" stroke="#263238" stroke-width="1.154" stroke-miterlimit="10" stroke-linecap="round" stroke-linejoin="round"/>
<path d="M332.056 205.024C332.056 205.024 329.848 211.508 329.848 211.922C329.848 212.336 329.297 218.544 329.297 218.544L337.159 207.922L332.056 205.024Z" fill="white" stroke="#263238" stroke-width="1.154" stroke-miterlimit="10" stroke-linecap="round" stroke-linejoin="round"/>
<path d="M352.058 192.059L330.539 209.577L333.85 219.233L355.92 196.748L352.058 192.059Z" fill="white" stroke="#263238" stroke-width="1.154" stroke-miterlimit="10" stroke-linecap="round" stroke-linejoin="round"/>
<path d="M349.276 331.005C349.276 331.005 346.213 338.607 345.304 341.105C344.396 343.601 344.851 353.36 344.964 354.381C345.077 355.403 346.893 355.63 346.893 355.63C346.893 355.63 347.461 363.46 348.142 363.687C348.823 363.915 350.298 364.028 350.298 364.028C350.298 364.028 351.546 368 353.134 367.659C354.723 367.319 354.949 365.504 354.949 365.504C354.949 365.504 356.652 365.731 357.673 364.255C358.694 362.78 359.262 361.191 359.262 361.191C359.262 361.191 361.985 359.83 362.213 358.808C362.44 357.787 363.121 354.155 363.121 354.155C363.121 354.155 363.915 353.928 363.915 351.545C363.915 349.162 362.1 334.523 362.1 334.523L349.276 331.005Z" fill="white" stroke="#263238" stroke-width="1.154" stroke-miterlimit="10" stroke-linecap="round" stroke-linejoin="round"/>
<path d="M346.893 355.63L347.227 348.732" stroke="#263238" stroke-width="1.154" stroke-miterlimit="10" stroke-linecap="round" stroke-linejoin="round"/>
<path d="M350.297 364.027L351.037 353.812" stroke="#263238" stroke-width="1.154" stroke-miterlimit="10" stroke-linecap="round" stroke-linejoin="round"/>
<path d="M354.949 365.503L355.482 354.447" stroke="#263238" stroke-width="1.154" stroke-miterlimit="10" stroke-linecap="round" stroke-linejoin="round"/>
<path d="M359.262 361.19L359.926 353.495" stroke="#263238" stroke-width="1.154" stroke-miterlimit="10" stroke-linecap="round" stroke-linejoin="round"/>
<path d="M371.69 220.75L379.967 225.716L377.207 282.915L362.494 336.988L348.516 333.309L352.93 290.64L350.722 247.602C350.722 247.602 353.848 237.579 361.021 232.062" fill="#0B3C95"/>
<path d="M371.69 220.75L379.967 225.716L377.207 282.915L362.494 336.988L348.516 333.309L352.93 290.64L350.722 247.602C350.722 247.602 353.848 237.579 361.021 232.062" stroke="white" stroke-width="1.154" stroke-miterlimit="10" stroke-linecap="round" stroke-linejoin="round"/>
<path d="M354.677 230.405C354.677 230.405 350.907 239.97 350.723 247.602" stroke="white" stroke-width="1.154" stroke-miterlimit="10" stroke-linecap="round" stroke-linejoin="round"/>
<path d="M357.813 234.963C357.813 234.963 351.369 245.477 351.369 250.225C351.369 254.972 353.066 294.654 353.066 294.654L348.656 328.908" stroke="white" stroke-width="1.154" stroke-miterlimit="10" stroke-linecap="round" stroke-linejoin="round"/>
<path d="M317.849 157.022C317.849 157.022 313.435 169.575 313.848 171.367C314.262 173.16 314.675 175.92 314.675 175.92C314.675 175.92 307.778 184.472 308.606 185.438C309.434 186.404 313.296 187.507 313.296 187.507C313.296 187.507 316.468 200.749 317.71 201.991C318.952 203.233 326.677 200.473 326.677 200.473L334.953 210.957L351.919 194.68L349.85 186.128C349.85 186.128 358.817 170.402 358.678 162.954C358.54 155.505 343.229 145.574 332.331 145.711C321.434 145.85 311.227 149.85 313.296 152.746C315.366 155.643 317.849 157.022 317.849 157.022Z" fill="white"/>
<mask id="mask16_556_20259" style="mask-type:luminance" maskUnits="userSpaceOnUse" x="308" y="145" width="51" height="66">
<path d="M317.849 157.022C317.849 157.022 313.435 169.575 313.848 171.367C314.262 173.16 314.675 175.92 314.675 175.92C314.675 175.92 307.778 184.472 308.606 185.438C309.434 186.404 313.296 187.507 313.296 187.507C313.296 187.507 316.468 200.749 317.71 201.991C318.952 203.233 326.677 200.473 326.677 200.473L334.953 210.957L351.919 194.68L349.85 186.128C349.85 186.128 358.817 170.402 358.678 162.954C358.54 155.505 343.229 145.574 332.331 145.711C321.434 145.85 311.227 149.85 313.296 152.746C315.366 155.643 317.849 157.022 317.849 157.022Z" fill="white"/>
</mask>
<g mask="url(#mask16_556_20259)">
<path d="M353.318 154.333C351.301 154.639 349.236 155.175 347.219 156.064L330.958 162.646C330.958 162.646 323.214 169.229 323.989 174.261C324.763 179.295 331.732 186.264 330.183 191.297C328.635 196.331 318.955 201.751 318.955 201.751L321.991 201.86C324.313 201.316 326.678 200.473 326.678 200.473L327.942 202.075L343.621 202.642L351.92 194.679L349.851 186.127C349.851 186.127 358.818 170.401 358.679 162.953C358.628 160.208 356.512 157.125 353.318 154.333Z" fill="#B8B8B8"/>
</g>
<path d="M317.849 157.022C317.849 157.022 313.435 169.575 313.848 171.367C314.262 173.16 314.675 175.92 314.675 175.92C314.675 175.92 307.778 184.472 308.606 185.438C309.434 186.404 313.296 187.507 313.296 187.507C313.296 187.507 316.468 200.749 317.71 201.991C318.952 203.233 326.677 200.473 326.677 200.473L334.953 210.957L351.919 194.68L349.85 186.128C349.85 186.128 358.817 170.402 358.678 162.954C358.54 155.505 343.229 145.574 332.331 145.711C321.434 145.85 311.227 149.85 313.296 152.746C315.366 155.643 317.849 157.022 317.849 157.022Z" stroke="#263238" stroke-width="1.154" stroke-miterlimit="10" stroke-linecap="round" stroke-linejoin="round"/>
<path d="M349.85 186.127C349.85 186.127 358.817 170.401 358.679 162.953C358.54 155.504 343.229 145.573 332.332 145.71C321.434 145.849 311.227 149.849 313.296 152.745C315.365 155.642 317.849 157.022 317.849 157.022C317.849 157.022 324.608 160.194 324.608 161.022C324.608 161.849 320.608 166.263 321.987 168.195C323.366 170.126 329.988 172.472 329.988 172.472C329.988 172.472 328.885 176.196 330.539 176.61C332.194 177.024 333.023 175.368 334.126 174.265C335.229 173.162 339.092 171.644 339.643 176.334C340.195 181.024 337.713 185.438 337.16 185.852C336.608 186.267 344.195 191.37 347.505 189.852C348.378 189.453 349.383 188.938 350.4 188.397L349.85 186.127Z" fill="#263238" stroke="#263238" stroke-width="1.154" stroke-miterlimit="10" stroke-linecap="round" stroke-linejoin="round"/>
<path d="M316.745 179.368C317.279 179.368 317.711 177.701 317.711 175.644C317.711 173.587 317.279 171.92 316.745 171.92C316.212 171.92 315.779 173.587 315.779 175.644C315.779 177.701 316.212 179.368 316.745 179.368Z" stroke="#263238" stroke-width="1.154" stroke-miterlimit="10" stroke-linecap="round" stroke-linejoin="round"/>
<path d="M317.85 174.127L334.127 174.265" stroke="#263238" stroke-width="1.154" stroke-miterlimit="10" stroke-linecap="round" stroke-linejoin="round"/>
<path d="M315.174 169.641C315.174 169.641 316.717 167.172 318.26 170.258" stroke="#263238" stroke-width="1.154" stroke-miterlimit="10" stroke-linecap="round" stroke-linejoin="round"/>
<path d="M314.867 189.698C314.867 189.698 317.336 188.772 319.496 186.92" stroke="#263238" stroke-width="1.154" stroke-miterlimit="10" stroke-linecap="round" stroke-linejoin="round"/>
<path d="M61.9688 503.988H516.158" stroke="#263238" stroke-width="2.308" stroke-miterlimit="10"/>
</svg>
