<svg width="440" height="436" viewBox="0 0 440 436" fill="none" xmlns="http://www.w3.org/2000/svg">
<path d="M411.178 286.132C368.604 385.642 256.224 428.384 168.173 421.097C144.131 419.107 95.759 415.103 57.9896 379.386C-14.5441 310.793 -3.37318 167.415 66.0623 83.0016C75.0043 72.131 136.898 -0.701467 233.349 0.273368C303.965 0.98723 353.53 40.8772 359.557 45.8467C367.17 52.1245 383.963 67.0427 399.097 90.7095C434.656 146.318 437.782 223.948 411.178 286.132Z" fill="url(#paint0_linear_552_18768)"/>
<path d="M185.316 340.024L175.856 405.304H285.604L271.309 340.024H185.316Z" fill="url(#paint1_linear_552_18768)"/>
<path d="M0.958984 131.003V325.303C0.958984 341.287 13.6961 354.358 29.6746 354.77C100.643 356.6 348.854 361.037 416.411 360.041C428.022 359.87 437.429 350.578 437.764 338.971C439.066 293.832 441.182 185.289 433.352 134.896C431.703 124.284 422.746 116.349 412.012 116.006C352.55 114.103 89.4291 108.063 21.9039 109.58C10.2582 109.841 0.958984 119.354 0.958984 131.003Z" fill="url(#paint2_linear_552_18768)"/>
<path d="M13.1504 130.057V314.656C13.1504 323.988 20.6416 331.592 29.9728 331.732L406.692 336.386C415.943 336.524 423.526 329.081 423.561 319.829L424.191 136.88C424.215 130.264 418.945 124.844 412.331 124.683L26.6408 116.891C19.244 116.711 13.1504 122.658 13.1504 130.057Z" fill="#4077FF"/>
<path d="M426.398 343.951C426.395 343.951 426.392 343.951 426.389 343.951L13.1424 336.91C12.8539 336.905 12.6242 336.667 12.629 336.379C12.6338 336.09 12.8749 335.87 13.1602 335.865L426.406 342.906C426.695 342.912 426.925 343.149 426.92 343.437C426.915 343.723 426.682 343.951 426.398 343.951Z" fill="#91B3FA"/>
<path d="M223.85 352.55C221.192 352.55 219.028 350.387 219.028 347.728C219.028 345.07 221.192 342.906 223.85 342.906C226.509 342.906 228.672 345.07 228.672 347.728C228.672 350.387 226.509 352.55 223.85 352.55ZM223.85 343.951C221.767 343.951 220.073 345.646 220.073 347.728C220.073 349.811 221.767 351.506 223.85 351.506C225.933 351.506 227.628 349.811 227.628 347.728C227.628 345.646 225.933 343.951 223.85 343.951Z" fill="#91B3FA"/>
<path d="M309.244 422.662H148.62C144.257 422.662 140.98 419.556 141.823 416.219L143.884 408.068C144.504 405.617 147.201 403.817 150.404 403.717L305.251 398.885C308.597 398.781 311.56 400.557 312.289 403.105L316.005 416.088C316.97 419.461 313.678 422.662 309.244 422.662Z" fill="url(#paint3_linear_552_18768)"/>
<path d="M235.087 405.924C234.802 405.924 234.569 405.695 234.565 405.409C234.56 405.12 234.791 404.883 235.079 404.879L241.714 404.782C241.992 404.784 242.24 405.009 242.245 405.297C242.249 405.586 242.018 405.823 241.73 405.827L235.094 405.924C235.092 405.924 235.089 405.924 235.087 405.924Z" fill="#91B3FA"/>
<path d="M147.77 418.167C147.743 418.167 147.715 418.165 147.687 418.16C147.402 418.115 147.208 417.847 147.254 417.562L148.201 411.634C148.709 408.448 151.419 406.102 154.644 406.055L225.022 405.025C225.025 405.025 225.028 405.025 225.03 405.025C225.315 405.025 225.548 405.254 225.552 405.54C225.557 405.829 225.326 406.066 225.038 406.07L154.66 407.1C151.943 407.139 149.66 409.115 149.232 411.798L148.285 417.726C148.244 417.984 148.022 418.167 147.77 418.167Z" fill="#91B3FA"/>
<path d="M334.782 335.733L82.1826 332.218V60.1929C82.1826 54.4232 86.8599 49.7461 92.6294 49.7461H325.244C330.643 49.7461 335.02 54.1229 335.02 59.522L334.782 335.733Z" fill="#91B3FA"/>
<path d="M326.678 335.664L89.6543 332.325V67.4011C89.6543 61.6826 94.2328 57.0469 99.8806 57.0469H317.108C322.394 57.0469 326.678 61.3849 326.678 66.7361L326.678 335.664Z" fill="#BDD0FB"/>
<g opacity="0.75">
<path opacity="0.76" d="M305.929 225.783H115.529C114.775 225.783 114.164 225.172 114.164 224.418V133.732C114.164 132.978 114.775 132.366 115.529 132.366H305.929C306.683 132.366 307.294 132.977 307.294 133.732V224.418C307.294 225.172 306.683 225.783 305.929 225.783Z" fill="white"/>
<path opacity="0.76" d="M315.658 263.272H102.301C101.925 263.272 101.621 262.968 101.621 262.593V243.271C101.621 242.896 101.925 242.592 102.301 242.592H315.658C316.034 242.592 316.338 242.896 316.338 243.271V262.593C316.338 262.968 316.034 263.272 315.658 263.272Z" fill="white"/>
<path opacity="0.76" d="M314.832 297.543H102.285C101.686 297.543 101.2 297.057 101.2 296.458V277.947C101.2 277.348 101.686 276.862 102.285 276.862H314.832C315.431 276.862 315.917 277.348 315.917 277.947V296.458C315.917 297.057 315.431 297.543 314.832 297.543Z" fill="white"/>
<path opacity="0.76" d="M315.159 329.514H102.923C102.238 329.514 101.683 328.958 101.683 328.273V310.074C101.683 309.389 102.238 308.833 102.923 308.833H315.159C315.844 308.833 316.399 309.389 316.399 310.074V328.273C316.399 328.958 315.844 329.514 315.159 329.514Z" fill="white"/>
</g>
<path d="M26.0244 233.762C26.0244 233.762 53.1288 305.245 61.692 320.115C71.6323 337.377 100.663 326.377 99.2183 311.931C97.7738 297.485 63.8559 237.774 63.8559 237.774L26.0244 233.762Z" fill="url(#paint4_linear_552_18768)"/>
<path d="M62.6468 181.69L231.11 123.281L229.341 281.345L58.043 243.124L62.6468 181.69Z" fill="#0B3C95"/>
<path d="M231.27 284.002C240.41 284.002 247.821 247.634 247.821 202.772C247.821 157.91 240.41 121.542 231.27 121.542C222.129 121.542 214.719 157.91 214.719 202.772C214.719 247.634 222.129 284.002 231.27 284.002Z" fill="#7D97F4"/>
<path d="M232.526 278.447C231.03 276.926 227.771 271.057 224.977 255.88C222.277 241.213 220.79 222.19 220.79 202.314C220.79 182.437 222.277 163.414 224.977 148.747C227.771 133.57 231.03 127.701 232.526 126.18C234.021 127.701 237.28 133.57 240.074 148.747C242.774 163.414 244.261 182.437 244.261 202.314C244.261 222.19 242.774 241.213 240.074 255.88C237.28 271.057 234.021 276.926 232.526 278.447Z" fill="#0B3C95"/>
<mask id="mask0_552_18768" style="mask-type:luminance" maskUnits="userSpaceOnUse" x="220" y="126" width="45" height="153">
<path d="M232.526 278.447C231.03 276.926 227.771 271.057 224.977 255.88C222.277 241.213 220.79 222.19 220.79 202.314C220.79 182.437 222.277 163.414 224.977 148.747C227.771 133.57 231.03 127.701 232.526 126.18C234.021 127.701 237.28 133.57 240.074 148.747C242.774 163.414 264.081 182.437 264.081 202.314C264.081 222.19 242.774 241.213 240.074 255.88C237.28 271.057 234.021 276.926 232.526 278.447Z" fill="white"/>
</mask>
<g mask="url(#mask0_552_18768)">
<path d="M253.739 201.708C253.739 215.51 246.304 226.699 231.588 226.699C216.873 226.699 204.943 215.51 204.943 201.708C204.943 187.906 216.873 176.718 231.588 176.718C246.304 176.718 253.739 187.906 253.739 201.708Z" fill="url(#paint5_linear_552_18768)"/>
</g>
<path d="M35.4768 178.293C43.4016 177.372 54.7656 177.041 67.0525 179.855C63.0044 201.001 63.6153 223.042 68.2972 245.864H33.6416C28.1162 245.864 23.4049 241.851 22.5431 236.393C20.816 225.454 18.7045 207.067 20.956 192.299C22.0857 184.888 28.0299 179.157 35.4768 178.293Z" fill="url(#paint6_linear_552_18768)"/>
<path d="M56.2753 194.488H29.2745C28.358 194.488 27.5495 194.008 27.1113 193.203C26.6735 192.398 26.7093 191.457 27.2071 190.688C27.4155 190.366 27.8454 190.276 28.1672 190.483C28.4891 190.691 28.5814 191.121 28.373 191.443C28.156 191.778 28.1404 192.188 28.3311 192.539C28.5221 192.89 28.8748 193.1 29.2745 193.1H56.2755C56.8676 193.1 57.3492 192.618 57.3492 192.026V190.105C57.3492 189.513 56.8676 189.031 56.2755 189.031H29.0742C28.6907 189.031 28.38 188.72 28.38 188.337C28.38 187.954 28.6907 187.643 29.0742 187.643H56.2753C57.6332 187.643 58.7378 188.747 58.7378 190.105V192.026C58.7378 193.384 57.6332 194.488 56.2753 194.488Z" fill="#91B3FA"/>
<path d="M53.8673 206.446H26.8663C25.9498 206.446 25.1413 205.966 24.7031 205.161C24.2653 204.356 24.3011 203.416 24.7989 202.646C25.0073 202.325 25.4374 202.234 25.759 202.44C26.0808 202.649 26.173 203.079 25.9646 203.401C25.7476 203.736 25.7321 204.146 25.9228 204.497C26.1138 204.848 26.4665 205.058 26.8662 205.058H53.8671C54.4592 205.058 54.9409 204.576 54.9409 203.984V202.063C54.9409 201.471 54.4592 200.989 53.8671 200.989H26.666C26.2825 200.989 25.9718 200.678 25.9718 200.295C25.9718 199.911 26.2825 199.601 26.666 199.601H53.8671C55.2249 199.601 56.3296 200.705 56.3296 202.063V203.984C56.3296 205.342 55.225 206.446 53.8673 206.446Z" fill="#91B3FA"/>
<path d="M87.1259 177.412C86.8316 177.412 86.5585 177.223 86.4646 176.928C86.3481 176.563 86.5503 176.172 86.9155 176.056L214.508 135.454C214.873 135.338 215.263 135.54 215.38 135.905C215.496 136.271 215.294 136.661 214.929 136.777L87.3368 177.379C87.2666 177.401 87.1957 177.412 87.1259 177.412Z" fill="#BDD0FB"/>
<path d="M69.8725 184.466C69.5988 184.466 69.3395 184.303 69.2295 184.034C69.0844 183.679 69.2546 183.274 69.6096 183.129L76.1764 180.445C76.531 180.299 76.9366 180.47 77.0817 180.825C77.2268 181.18 77.0567 181.585 76.7016 181.73L70.1349 184.414C70.049 184.45 69.9599 184.466 69.8725 184.466Z" fill="#BDD0FB"/>
<path d="M56.2752 220.451H29.2744C28.3579 220.451 27.5495 219.971 27.1115 219.166C26.6736 218.361 26.7092 217.42 27.2072 216.651C27.4156 216.329 27.8455 216.238 28.1672 216.445C28.4892 216.653 28.5814 217.083 28.373 217.405C28.1557 217.741 28.1402 218.151 28.3313 218.502C28.5223 218.853 28.8749 219.063 29.2744 219.063H56.2754C56.8675 219.063 57.3491 218.581 57.3491 217.989V216.068C57.3491 215.475 56.8675 214.994 56.2754 214.994H29.0741C28.6906 214.994 28.3798 214.683 28.3798 214.3C28.3798 213.916 28.6906 213.605 29.0741 213.605H56.2752C57.6331 213.605 58.7377 214.71 58.7377 216.068V217.989C58.7377 219.346 57.6331 220.451 56.2752 220.451Z" fill="#91B3FA"/>
<path d="M58.8036 235.996H31.8027C30.8863 235.996 30.0778 235.516 29.6398 234.711C29.2018 233.906 29.2376 232.965 29.7354 232.196C29.944 231.874 30.3739 231.783 30.6955 231.99C31.0173 232.198 31.1095 232.628 30.9011 232.95C30.684 233.286 30.6683 233.696 30.8596 234.047C31.0506 234.398 31.4031 234.608 31.8027 234.608H58.8036C59.3957 234.608 59.8774 234.126 59.8774 233.534V231.613C59.8774 231.02 59.3957 230.539 58.8036 230.539H31.6025C31.219 230.539 30.9083 230.228 30.9083 229.845C30.9083 229.461 31.219 229.15 31.6025 229.15H58.8036C60.1615 229.15 61.2661 230.255 61.2661 231.613V233.534C61.2661 234.891 60.1615 235.996 58.8036 235.996Z" fill="#91B3FA"/>
<path d="M82.9186 320.514C81.6744 320.514 80.417 320.38 79.1624 320.106C73.6728 318.91 69.2037 315.29 66.9012 310.175L45.329 262.25C45.1715 261.9 45.3275 261.49 45.6771 261.332C46.0267 261.174 46.4379 261.331 46.5951 261.68L68.1673 309.605C70.2876 314.315 74.403 317.648 79.458 318.749C84.4264 319.833 89.4538 318.546 93.2521 315.222C93.4558 315.044 93.6603 314.861 93.8657 314.674C94.1488 314.415 94.5878 314.434 94.8466 314.718C95.1053 315.001 95.0855 315.44 94.8023 315.699C94.5893 315.894 94.3774 316.083 94.1662 316.267C90.9933 319.044 87.0321 320.514 82.9186 320.514Z" fill="#91B3FA"/>
<path d="M42.7724 255.574C42.5075 255.574 42.2546 255.421 42.1389 255.165L39.7323 249.818C39.5748 249.469 39.7308 249.058 40.0804 248.9C40.4299 248.743 40.8412 248.899 40.9985 249.248L43.4051 254.594C43.5626 254.944 43.4066 255.355 43.057 255.513C42.9645 255.554 42.8676 255.574 42.7724 255.574Z" fill="#91B3FA"/>
<path d="M249.795 200.99C249.434 200.99 249.129 200.71 249.103 200.345C248.623 193.582 246.279 188.54 242.136 185.359C234.972 179.859 224.749 181.749 224.646 181.769C224.267 181.841 223.906 181.596 223.833 181.219C223.76 180.843 224.007 180.478 224.383 180.406C224.826 180.32 235.327 178.381 242.982 184.258C247.454 187.691 249.979 193.07 250.488 200.246C250.515 200.628 250.227 200.961 249.844 200.988C249.828 200.989 249.811 200.99 249.795 200.99Z" fill="#BDD0FB"/>
<path d="M162.727 71.8604H171.487C175.056 71.8604 177.655 72.5531 179.283 73.9385C180.912 75.3242 181.726 77.528 181.726 80.5496C181.726 82.5381 181.295 84.2013 180.434 85.5401C179.573 86.8785 178.399 87.6888 176.912 87.9706V88.2056C178.853 88.691 180.254 89.5993 181.115 90.9298C181.976 92.2607 182.407 94.0297 182.407 96.2374C182.407 99.3531 181.573 101.791 179.906 103.553C178.239 105.314 175.957 106.195 173.06 106.195H162.727V71.8604H162.727ZM168.739 85.6692H171.674C173.02 85.6692 173.968 85.3094 174.516 84.589C175.064 83.8691 175.338 82.7964 175.338 81.3717C175.338 79.9472 175.024 78.9254 174.398 78.3069C173.772 77.6887 172.786 77.3792 171.439 77.3792H168.739V85.6692ZM168.739 91.0003V100.605H171.956C173.287 100.605 174.277 100.199 174.927 99.3843C175.576 98.5703 175.901 97.3098 175.901 95.6032C175.901 92.5348 174.555 91.0001 171.862 91.0001L168.739 91.0003Z" fill="#0B3C95"/>
<path d="M187.104 106.195V71.8604H193.491V100.605H202.345V106.195H187.104Z" fill="#0B3C95"/>
<path d="M230.057 88.9807C230.057 94.6639 228.992 99.0322 226.863 102.085C224.734 105.138 221.689 106.665 217.728 106.665C213.751 106.665 210.698 105.142 208.569 102.097C206.439 99.0518 205.375 94.6638 205.375 88.9336C205.375 83.2504 206.439 78.8939 208.569 75.8646C210.698 72.835 213.767 71.3203 217.775 71.3203C221.736 71.3203 224.773 72.8431 226.887 75.8883C229 78.9333 230.057 83.2975 230.057 88.9807ZM211.904 88.9807C211.904 92.8948 212.397 95.8775 213.383 97.9282C214.369 99.9795 215.817 101.005 217.728 101.005C221.579 101.005 223.505 96.9968 223.505 88.9805C223.505 80.9646 221.595 76.9566 217.775 76.9566C215.833 76.9566 214.369 77.978 213.383 80.021C212.397 82.0645 211.904 85.0509 211.904 88.9807Z" fill="#0B3C95"/>
<path d="M245.439 87.1488H255.937V104.762C252.962 106.031 249.799 106.664 246.449 106.664C242.456 106.664 239.383 105.146 237.231 102.109C235.078 99.0714 234.002 94.6956 234.002 88.9806C234.002 83.4699 235.235 79.1564 237.701 76.0406C240.167 72.9251 243.615 71.3672 248.046 71.3672C250.785 71.3672 253.4 72.0716 255.89 73.4808L253.87 78.6943C251.928 77.5671 250.113 77.0033 248.422 77.0033C245.994 77.0033 244.073 78.0876 242.656 80.2559C241.239 82.4246 240.531 85.3796 240.531 89.1214C240.531 92.973 241.043 95.9244 242.069 97.9751C243.094 100.027 244.585 101.052 246.543 101.052C247.576 101.052 248.625 100.919 249.69 100.653V92.7851H245.439V87.1488Z" fill="#0B3C95"/>
<path d="M317.847 159.881L277.119 162.193C273.709 162.386 270.776 159.808 270.531 156.402L267.134 109.154C266.873 105.535 269.739 102.456 273.367 102.456H317.493C320.945 102.456 323.743 105.254 323.743 108.706V153.641C323.743 156.956 321.156 159.693 317.847 159.881Z" fill="#7D97F4"/>
<path d="M295.43 156.559C293.373 156.559 291.508 155.508 290.443 153.748C284.437 143.826 277.278 130.758 277.278 124.848C277.278 115.613 285.421 108.1 295.43 108.1C305.439 108.1 313.582 115.613 313.582 124.848C313.582 130.759 306.423 143.826 300.417 153.748C299.352 155.508 297.487 156.559 295.43 156.559ZM295.43 110.422C286.702 110.422 279.601 116.894 279.601 124.848C279.601 128.98 284.277 139.075 292.43 152.545C293.071 153.604 294.193 154.236 295.43 154.236C296.668 154.236 297.789 153.604 298.43 152.545C306.583 139.076 311.259 128.981 311.259 124.848C311.259 116.894 304.158 110.422 295.43 110.422Z" fill="white"/>
<path d="M294.024 136.543C287.818 136.543 282.77 131.494 282.77 125.288C282.77 124.647 283.29 124.127 283.931 124.127C284.572 124.127 285.092 124.647 285.092 125.288C285.092 130.213 289.099 134.22 294.024 134.22C298.949 134.22 302.955 130.213 302.955 125.288C302.955 120.364 298.949 116.357 294.024 116.357C291.176 116.357 288.565 117.668 286.86 119.954C286.476 120.469 285.748 120.575 285.234 120.191C284.72 119.807 284.614 119.08 284.998 118.565C287.114 115.728 290.488 114.034 294.024 114.034C300.229 114.034 305.278 119.083 305.278 125.289C305.278 131.494 300.23 136.543 294.024 136.543Z" fill="white"/>
<path d="M412.988 190.481L363.314 189.664C359.749 189.605 356.955 186.58 357.18 183.021L360.447 131.257C360.635 128.278 362.904 125.847 365.864 125.455L421.796 118.047C425.94 117.498 429.445 121.094 428.789 125.223L419.263 185.213C418.776 188.286 416.1 190.533 412.988 190.481Z" fill="#7D97F4"/>
<g opacity="0.9">
<path d="M390.324 176.664C379.551 176.664 370.787 167.9 370.787 157.128C370.787 146.356 379.551 137.592 390.324 137.592C401.096 137.592 409.86 146.356 409.86 157.128C409.86 167.9 401.096 176.664 390.324 176.664ZM390.324 140.865C381.356 140.865 374.061 148.161 374.061 157.128C374.061 166.095 381.356 173.391 390.324 173.391C399.291 173.391 406.586 166.095 406.586 157.128C406.586 148.161 399.291 140.865 390.324 140.865Z" fill="white"/>
<path fill-rule="evenodd" clip-rule="evenodd" d="M384.204 164.651V150.606C384.204 149.105 385.838 148.175 387.128 148.941L398.963 155.964C400.227 156.714 400.227 158.544 398.963 159.294L387.128 166.316C385.838 167.082 384.204 166.152 384.204 164.651Z" fill="white"/>
</g>
<path d="M295.174 264.987L265.338 268.13C261.648 268.519 258.434 265.626 258.434 261.915V227.477C258.434 224.369 260.717 221.734 263.793 221.291L293.629 216.995C297.396 216.452 300.769 219.375 300.769 223.181V258.772C300.769 261.97 298.355 264.652 295.174 264.987Z" fill="#7D97F4"/>
<path d="M277.197 253.565C273.841 253.565 270.353 252.114 269.32 249.954C268.138 247.482 270.493 245.721 271.243 245.24C273.518 243.782 275.541 243.28 277.255 243.752C279.039 244.242 279.763 245.598 279.839 245.751L277.524 246.911L277.538 246.938C277.526 246.917 277.233 246.413 276.52 246.237C275.85 246.071 274.634 246.143 272.641 247.421C271.798 247.962 271.467 248.438 271.657 248.837C272.324 250.232 276.435 251.651 279.467 250.64C280.476 250.304 281.353 247.363 280.504 240.182C279.883 234.934 278.632 229.827 278.619 229.776C278.503 229.303 278.661 228.805 279.029 228.487C279.398 228.168 279.914 228.083 280.364 228.266C280.672 228.391 287.92 231.391 289.89 237.055C290.785 239.627 290.462 242.3 288.932 245C288.58 245.622 287.789 245.841 287.167 245.488C286.545 245.136 286.326 244.345 286.679 243.723C287.84 241.674 288.091 239.774 287.446 237.913C286.491 235.156 283.763 233.091 281.744 231.884C282.168 233.916 282.717 236.849 283.076 239.877C284.031 247.944 283.144 252.145 280.286 253.097C279.326 253.417 278.268 253.565 277.197 253.565Z" fill="white"/>
<path d="M390.461 110.32H345.329C341.877 110.32 339.079 107.521 339.079 104.07V58.816C339.079 55.5597 341.579 52.8492 344.825 52.5865L392.911 48.6947C396.699 48.3881 399.881 51.5053 399.653 55.2991L396.7 104.445C396.502 107.745 393.768 110.32 390.461 110.32Z" fill="#7D97F4"/>
<path d="M379.816 68.618C376.521 65.3793 371.382 66.3535 367.844 69.3238C367.337 69.7496 366.602 69.7544 366.088 69.3375C362.502 66.4297 357.369 65.5445 354.13 68.839C350.614 72.4162 350.664 78.166 354.241 81.682L366.21 93.4466C366.754 93.981 367.628 93.9733 368.162 93.4296L379.927 81.4608C383.442 77.8839 383.393 72.134 379.816 68.618Z" fill="white"/>
<path d="M353.49 196.93C357.038 184.561 349.887 171.658 337.518 168.11C325.148 164.562 312.245 171.713 308.697 184.082C305.15 196.451 312.301 209.355 324.67 212.902C337.039 216.45 349.942 209.299 353.49 196.93Z" fill="#7D97F4"/>
<path d="M325.449 182.741C325.449 182.14 324.962 181.653 324.361 181.653H320.416C319.815 181.653 319.328 182.14 319.328 182.741V199.948C319.328 200.549 319.815 201.036 320.416 201.036H324.361C324.962 201.036 325.449 200.549 325.449 199.948V182.741Z" fill="white"/>
<path d="M338.807 181.654H334.97V177.013C334.97 175.505 334.082 174.513 332.574 174.513H332.477C330.969 174.513 329.747 175.62 329.747 177.128L328.399 181.781C327.798 181.781 326.81 182.21 326.81 182.811V200.648C326.81 201.248 328.3 202.056 328.901 202.056H329.746H338.807C341.063 202.056 342.791 199.906 342.791 197.65V185.808C342.791 183.552 341.063 181.654 338.807 181.654Z" fill="white"/>
<path d="M382.148 423.327C382.148 423.327 382.939 427.565 383.346 431.763C383.505 433.404 382.253 434.842 380.607 434.926C375.013 435.213 363.048 435.78 358.751 435.629C358.105 435.607 357.677 434.95 357.91 434.347C358.105 433.842 358.488 433.431 358.978 433.2L378.662 423.925L382.148 423.327Z" fill="url(#paint7_linear_552_18768)"/>
<path d="M382.739 420.827L382.185 425.91C382.185 425.91 378.737 427.556 376.354 425.763L377.735 420.091L382.739 420.827Z" fill="url(#paint8_linear_552_18768)"/>
<path d="M381.375 325.376C381.648 326.7 383.403 391.529 376.749 420.652C376.641 421.127 376.886 421.614 377.339 421.794C378.406 422.218 380.496 422.827 382.994 422.887C383.768 422.906 384.457 422.397 384.668 421.652C386.585 414.891 395.756 381.023 396.686 348.744C397.726 312.676 396.675 347.517 396.675 347.517L395.651 325.237L381.375 325.376Z" fill="url(#paint9_linear_552_18768)"/>
<path d="M404.913 425.324C404.913 425.324 406.127 427.456 407.337 433.139C407.555 434.165 406.846 435.156 405.803 435.269C403.957 435.468 401.114 435.729 398.836 435.735C397.785 435.738 396.957 434.831 397.073 433.787C397.306 431.706 398.06 428.289 400.463 425.608L404.913 425.324Z" fill="url(#paint10_linear_552_18768)"/>
<path d="M405.899 418.784L404.564 426.476C404.564 426.476 403.182 427.524 400.422 426.8L401.015 418.532L405.899 418.784Z" fill="url(#paint11_linear_552_18768)"/>
<path d="M408.827 327.104C414.822 361.261 408.405 411.67 406.172 421.545C406.035 422.15 405.553 422.617 404.942 422.724C403.906 422.906 402.197 423.063 400.507 422.589C399.925 422.426 399.512 421.906 399.482 421.302C399.094 413.339 399.189 364.429 393.723 345.152C393.446 344.175 392.84 343.327 392.007 342.746L381.685 335.556L380.787 323.783L408.827 327.104Z" fill="url(#paint12_linear_552_18768)"/>
<path d="M372.088 262.627C389.073 262.185 407.862 266.747 407.862 266.747C413.208 296.245 409.355 330.364 409.355 330.364C396.236 333.939 381.348 328.523 381.348 328.523C379.044 316.194 368.514 281.535 368.514 281.535C360.204 280.584 353.343 278.255 347.683 275.143C351.93 270.123 353.895 263.769 354.738 260.016C360.762 261.825 366.849 262.764 372.088 262.627Z" fill="#0B3C95"/>
<path d="M321.671 238.084C323.32 236.052 325.442 236.986 325.442 236.986C328.042 247.521 341.232 255.958 354.738 260.015C353.895 263.768 351.93 270.123 347.683 275.142C325.214 262.789 321.671 238.084 321.671 238.084Z" fill="url(#paint13_linear_552_18768)"/>
<path d="M322.081 238.592C321.911 239.149 323.941 239.975 325.11 237.693C325.141 236.605 325.759 231.937 325.1 231.057C321.592 226.369 314.822 220.515 314.822 220.515C313.698 221.645 314.643 222.736 314.643 222.736L317.933 226.098C317.263 227.335 316.442 228.382 316.067 229.875C315.783 231.005 315.975 232.209 316.554 233.23C317.135 234.254 317.928 235.586 318.676 236.626C320.09 238.596 322.081 238.592 322.081 238.592Z" fill="url(#paint14_linear_552_18768)"/>
<path d="M319.378 228.285L322.37 230.773L323.326 233.269L320.708 236.23C320.708 236.23 319.771 231.268 319.099 230.198C318.428 229.129 318.766 228.606 319.378 228.285Z" fill="url(#paint15_linear_552_18768)"/>
<path d="M401.504 283.257L407.863 266.746C407.863 266.746 423.833 277.376 426.573 291.02C423.577 291.27 418.129 292.102 412.814 294.849C411.579 288.406 401.504 283.257 401.504 283.257Z" fill="#0B3C95"/>
<path d="M387.785 298.868C387.785 298.868 405.697 308.766 411.626 300.111C412.857 298.314 413.138 296.537 412.815 294.849C418.129 292.102 423.577 291.27 426.573 291.021C427.399 295.134 427.025 299.521 424.646 303.973C414.3 323.335 385.47 303.283 385.47 303.283L387.785 298.868Z" fill="url(#paint16_linear_552_18768)"/>
<path d="M389.164 248.671L394.718 264.251C394.81 264.509 394.707 264.797 394.468 264.932C393.003 265.76 387.717 268.165 381.281 264.171C380.61 263.755 380.15 263.07 380.042 262.288L378.162 248.776L389.164 248.671Z" fill="url(#paint17_linear_552_18768)"/>
<path d="M377.265 234.308C377.265 234.308 371.436 245.537 372.24 250.043C373.044 254.549 380.397 254.155 386.786 250.428L391.159 238.321L377.265 234.308Z" fill="url(#paint18_linear_552_18768)"/>
<path d="M386.445 244.507C386.183 244.394 386.084 244.075 386.238 243.834C386.706 243.103 387.584 241.613 387.856 240.313C387.856 240.313 388.916 239.619 385.125 238.75C381.333 237.88 375.679 236.529 374.462 233.32C373.276 230.192 376.238 222.268 381.144 228.512C381.331 228.75 381.692 228.752 381.874 228.51C382.659 227.469 384.727 225.303 387.639 226.576C390.364 227.768 390.689 229.753 390.661 230.756C390.653 231.051 390.919 231.278 391.208 231.22C392.577 230.945 395.867 230.689 397.436 234.051C398.729 236.821 397.921 238.404 397.179 239.181C396.939 239.433 397.049 239.843 397.383 239.941C398.287 240.209 399.459 240.963 399.362 243.076C399.229 245.998 395.962 245.772 395.031 245.647C394.878 245.627 394.725 245.681 394.623 245.796C393.834 246.686 390.279 250.465 386.396 250.954C386.06 250.996 385.796 250.666 385.903 250.345L387.539 245.439C387.615 245.211 387.504 244.963 387.283 244.868L386.445 244.507Z" fill="url(#paint19_linear_552_18768)"/>
<path d="M385.776 245.207C385.776 245.207 389.975 242.267 390.307 244.706C390.639 247.145 386.535 248.279 384.488 247.388L385.776 245.207Z" fill="url(#paint20_linear_552_18768)"/>
<path d="M391.445 314.511L381.688 280.438C381.577 280.051 381.247 279.769 380.848 279.722C379.08 279.516 373.958 278.937 368.043 278.437C360.919 277.834 352.646 277.346 347.702 277.761C347 277.82 346.575 278.563 346.887 279.196C349.699 284.883 361.263 308.019 367.054 315.598C367.245 315.849 367.542 315.996 367.858 315.993L390.496 315.783C391.154 315.776 391.626 315.144 391.445 314.511Z" fill="url(#paint21_linear_552_18768)"/>
<path d="M389.088 306.279C389.088 306.279 390.447 300.69 389.899 298.707C389.351 296.724 388.288 294.175 384.748 294.741C381.207 295.308 377.03 296.799 377.03 296.799C377.03 296.799 377.241 299.382 379.932 298.549L378.263 299.84C378.263 299.84 378.502 301.908 380.775 300.803L379.223 302.516C379.223 302.516 380.199 304.214 381.871 303.125C383.544 302.035 384.345 306.952 389.088 306.279Z" fill="url(#paint22_linear_552_18768)"/>
<path d="M368.694 288.608C368.694 290.19 367.412 291.472 365.83 291.472C364.248 291.472 362.966 290.19 362.966 288.608C362.966 287.026 364.248 285.744 365.83 285.744C367.412 285.744 368.694 287.026 368.694 288.608Z" fill="#7D97F4"/>
<path d="M380.587 290.495L381.312 290.281L379.325 283.543C379.002 282.447 378.117 281.623 377.016 281.393C370.72 280.079 354.136 279.811 353.433 279.8L353.422 280.556C353.593 280.559 370.636 280.834 376.862 282.133C377.69 282.306 378.356 282.928 378.6 283.757L380.587 290.495Z" fill="#91B3FA"/>
<defs>
<linearGradient id="paint0_linear_552_18768" x1="454.355" y1="476.707" x2="144.522" y2="142.284" gradientUnits="userSpaceOnUse">
<stop stop-color="#DAE3FE"/>
<stop offset="1" stop-color="#E9EFFD"/>
</linearGradient>
<linearGradient id="paint1_linear_552_18768" x1="229.616" y1="326.214" x2="231.734" y2="476.555" gradientUnits="userSpaceOnUse">
<stop stop-color="#09005D"/>
<stop offset="1" stop-color="#1A0F91"/>
</linearGradient>
<linearGradient id="paint2_linear_552_18768" x1="250.073" y1="-22.9194" x2="211.958" y2="296.82" gradientUnits="userSpaceOnUse">
<stop stop-color="#09005D"/>
<stop offset="1" stop-color="#1A0F91"/>
</linearGradient>
<linearGradient id="paint3_linear_552_18768" x1="221.627" y1="324.739" x2="231.155" y2="445.435" gradientUnits="userSpaceOnUse">
<stop stop-color="#09005D"/>
<stop offset="1" stop-color="#1A0F91"/>
</linearGradient>
<linearGradient id="paint4_linear_552_18768" x1="21.6003" y1="187.439" x2="77.7131" y2="308.134" gradientUnits="userSpaceOnUse">
<stop stop-color="#09005D"/>
<stop offset="1" stop-color="#1A0F91"/>
</linearGradient>
<linearGradient id="paint5_linear_552_18768" x1="270.473" y1="178.671" x2="182.868" y2="229.832" gradientUnits="userSpaceOnUse">
<stop stop-color="#09005D"/>
<stop offset="1" stop-color="#1A0F91"/>
</linearGradient>
<linearGradient id="paint6_linear_552_18768" x1="125.401" y1="61.9628" x2="93.6388" y2="123.37" gradientUnits="userSpaceOnUse">
<stop stop-color="#09005D"/>
<stop offset="1" stop-color="#1A0F91"/>
</linearGradient>
<linearGradient id="paint7_linear_552_18768" x1="359.207" y1="417.679" x2="432.354" y2="495.741" gradientUnits="userSpaceOnUse">
<stop stop-color="#09005D"/>
<stop offset="1" stop-color="#1A0F91"/>
</linearGradient>
<linearGradient id="paint8_linear_552_18768" x1="382.763" y1="423.304" x2="376.332" y2="423.365" gradientUnits="userSpaceOnUse">
<stop stop-color="#FEBBBA"/>
<stop offset="1" stop-color="#FF928E"/>
</linearGradient>
<linearGradient id="paint9_linear_552_18768" x1="-1790.12" y1="-2317.48" x2="-1848.35" y2="-2389.48" gradientUnits="userSpaceOnUse">
<stop stop-color="#09005D"/>
<stop offset="1" stop-color="#1A0F91"/>
</linearGradient>
<linearGradient id="paint10_linear_552_18768" x1="375.307" y1="402.59" x2="448.457" y2="480.655" gradientUnits="userSpaceOnUse">
<stop stop-color="#09005D"/>
<stop offset="1" stop-color="#1A0F91"/>
</linearGradient>
<linearGradient id="paint11_linear_552_18768" x1="405.936" y1="422.753" x2="400.384" y2="422.806" gradientUnits="userSpaceOnUse">
<stop stop-color="#FEBBBA"/>
<stop offset="1" stop-color="#FF928E"/>
</linearGradient>
<linearGradient id="paint12_linear_552_18768" x1="-1779.84" y1="-2325.8" x2="-1838.07" y2="-2397.8" gradientUnits="userSpaceOnUse">
<stop stop-color="#09005D"/>
<stop offset="1" stop-color="#1A0F91"/>
</linearGradient>
<linearGradient id="paint13_linear_552_18768" x1="354.698" y1="255.779" x2="321.842" y2="256.091" gradientUnits="userSpaceOnUse">
<stop stop-color="#FEBBBA"/>
<stop offset="1" stop-color="#FF928E"/>
</linearGradient>
<linearGradient id="paint14_linear_552_18768" x1="328.245" y1="247.298" x2="316.069" y2="222.418" gradientUnits="userSpaceOnUse">
<stop stop-color="#FEBBBA"/>
<stop offset="1" stop-color="#FF928E"/>
</linearGradient>
<linearGradient id="paint15_linear_552_18768" x1="321.788" y1="233.877" x2="312.455" y2="219.82" gradientUnits="userSpaceOnUse">
<stop stop-color="#FEBBBA"/>
<stop offset="1" stop-color="#FF928E"/>
</linearGradient>
<linearGradient id="paint16_linear_552_18768" x1="427.036" y1="301.63" x2="385.458" y2="302.025" gradientUnits="userSpaceOnUse">
<stop stop-color="#FEBBBA"/>
<stop offset="1" stop-color="#FF928E"/>
</linearGradient>
<linearGradient id="paint17_linear_552_18768" x1="397.104" y1="280.222" x2="381.223" y2="248.99" gradientUnits="userSpaceOnUse">
<stop stop-color="#FEBBBA"/>
<stop offset="1" stop-color="#FF928E"/>
</linearGradient>
<linearGradient id="paint18_linear_552_18768" x1="695.198" y1="-1539" x2="700.239" y2="-1567.66" gradientUnits="userSpaceOnUse">
<stop stop-color="#FEBBBA"/>
<stop offset="1" stop-color="#FF928E"/>
</linearGradient>
<linearGradient id="paint19_linear_552_18768" x1="401.664" y1="224.313" x2="378.489" y2="242.977" gradientUnits="userSpaceOnUse">
<stop stop-color="#09005D"/>
<stop offset="1" stop-color="#1A0F91"/>
</linearGradient>
<linearGradient id="paint20_linear_552_18768" x1="701.276" y1="-1537.93" x2="706.317" y2="-1566.59" gradientUnits="userSpaceOnUse">
<stop stop-color="#FEBBBA"/>
<stop offset="1" stop-color="#FF928E"/>
</linearGradient>
<linearGradient id="paint21_linear_552_18768" x1="374.308" y1="275.212" x2="351.365" y2="370.807" gradientUnits="userSpaceOnUse">
<stop stop-color="#09005D"/>
<stop offset="1" stop-color="#1A0F91"/>
</linearGradient>
<linearGradient id="paint22_linear_552_18768" x1="390.029" y1="300.502" x2="377.03" y2="300.502" gradientUnits="userSpaceOnUse">
<stop stop-color="#FEBBBA"/>
<stop offset="1" stop-color="#FF928E"/>
</linearGradient>
</defs>
</svg>
