<svg width="31" height="31" viewBox="0 0 31 31" fill="none" xmlns="http://www.w3.org/2000/svg">
<g id="call">
<g id="vuesax/bold/call">
<g id="call_2">
<path id="Vector" d="M14.3125 19.4365L12 21.749C11.5125 22.2365 10.7375 22.2365 10.2375 21.7615C10.1 21.624 9.9625 21.499 9.825 21.3615C8.5375 20.0615 7.375 18.699 6.3375 17.274C5.3125 15.849 4.4875 14.424 3.8875 13.0115C3.3 11.5865 3 10.224 3 8.92402C3 8.07402 3.15 7.26152 3.45 6.51152C3.75 5.74902 4.225 5.04902 4.8875 4.42402C5.6875 3.63652 6.5625 3.24902 7.4875 3.24902C7.8375 3.24902 8.1875 3.32402 8.5 3.47402C8.825 3.62402 9.1125 3.84902 9.3375 4.17402L12.2375 8.26152C12.4625 8.57402 12.625 8.86152 12.7375 9.13652C12.85 9.39902 12.9125 9.66152 12.9125 9.89902C12.9125 10.199 12.825 10.499 12.65 10.7865C12.4875 11.074 12.25 11.374 11.95 11.674L11 12.6615C10.8625 12.799 10.8 12.9615 10.8 13.1615C10.8 13.2615 10.8125 13.349 10.8375 13.449C10.875 13.549 10.9125 13.624 10.9375 13.699C11.1625 14.1115 11.55 14.649 12.1 15.299C12.6625 15.949 13.2625 16.6115 13.9125 17.274C14.0375 17.399 14.175 17.524 14.3 17.649C14.8 18.1365 14.8125 18.9365 14.3125 19.4365Z" fill="#0B3C95"/>
<path id="Vector_2" d="M27.9625 23.6623C27.9625 24.0123 27.9 24.3748 27.775 24.7248C27.7375 24.8248 27.7 24.9248 27.65 25.0248C27.4375 25.4748 27.1625 25.8998 26.8 26.2998C26.1875 26.9748 25.5125 27.4623 24.75 27.7748C24.7375 27.7748 24.725 27.7873 24.7125 27.7873C23.975 28.0873 23.175 28.2498 22.3125 28.2498C21.0375 28.2498 19.675 27.9498 18.2375 27.3373C16.8 26.7248 15.3625 25.8998 13.9375 24.8623C13.45 24.4998 12.9625 24.1373 12.5 23.7498L16.5875 19.6623C16.9375 19.9248 17.25 20.1248 17.5125 20.2623C17.575 20.2873 17.65 20.3248 17.7375 20.3623C17.8375 20.3998 17.9375 20.4123 18.05 20.4123C18.2625 20.4123 18.425 20.3373 18.5625 20.1998L19.5125 19.2623C19.825 18.9498 20.125 18.7123 20.4125 18.5623C20.7 18.3873 20.9875 18.2998 21.3 18.2998C21.5375 18.2998 21.7875 18.3498 22.0625 18.4623C22.3375 18.5748 22.625 18.7373 22.9375 18.9498L27.075 21.8873C27.4 22.1123 27.625 22.3748 27.7625 22.6873C27.8875 22.9998 27.9625 23.3123 27.9625 23.6623Z" fill="#0B3C95"/>
</g>
</g>
</g>
</svg>
