<svg width="17" height="17" viewBox="0 0 17 17" fill="none" xmlns="http://www.w3.org/2000/svg">
<g id="Frame" clip-path="url(#clip0_540_16589)">
<g id="Group">
<path id="Vector" d="M15.3381 6.85297C15.1441 3.58609 12.425 0.988281 9.11031 0.988281H6.96781C3.65313 0.988281 0.934062 3.58609 0.74 6.85297C0.328125 7.03047 0.0390625 7.44078 0.0390625 7.91703V10.3336C0.0390625 10.9723 0.55875 11.492 1.1975 11.492H2.135V6.75859H1.68687C1.925 4.05422 4.2025 1.92578 6.96781 1.92578H9.11031C11.8756 1.92578 14.1531 4.05422 14.3912 6.75859H13.9431V11.492H14.8806C15.5194 11.492 16.0391 10.9723 16.0391 10.3336V7.91703C16.0391 7.44078 15.75 7.03047 15.3381 6.85297Z" fill="#0B3C95"/>
<path id="Vector_2" d="M11.7203 5.29199H4.35344C3.64594 5.29199 3.07031 5.86762 3.07031 6.57512V12.4151C3.07031 13.1226 3.64594 13.6982 4.35344 13.6982H5.96L7.5225 15.5476C7.61156 15.6529 7.7425 15.7139 7.88062 15.7139C8.01875 15.7139 8.14969 15.6529 8.23875 15.5476L9.80125 13.6982H11.7203C12.4278 13.6982 13.0034 13.1226 13.0034 12.4151V6.57512C13.0034 5.86762 12.4278 5.29199 11.7203 5.29199ZM9.75 7.63949C10.0087 7.63949 10.2188 7.84918 10.2188 8.10824C10.2188 8.36699 10.0087 8.57699 9.75 8.57699C9.49125 8.57699 9.28125 8.36699 9.28125 8.10824C9.28125 7.84918 9.49125 7.63949 9.75 7.63949ZM6.12531 7.63949C6.38406 7.63949 6.59406 7.84918 6.59406 8.10824C6.59406 8.36699 6.38406 8.57699 6.12531 8.57699C5.86656 8.57699 5.65656 8.36699 5.65656 8.10824C5.65656 7.84918 5.86656 7.63949 6.12531 7.63949ZM10.3734 10.4832C9.65281 11.1223 8.84469 11.442 8.03687 11.442C7.22875 11.442 6.42094 11.1226 5.70031 10.4832C5.50656 10.3117 5.48875 10.0154 5.66063 9.82168C5.8325 9.62793 6.12875 9.61012 6.3225 9.78199C6.86719 10.2651 7.45187 10.5067 8.03687 10.5067C8.62187 10.5067 9.20687 10.2651 9.75156 9.78199C9.945 9.61012 10.2413 9.62793 10.4131 9.82168C10.585 10.0154 10.5672 10.3117 10.3734 10.4832Z" fill="#0B3C95"/>
</g>
</g>
<defs>
<clipPath id="clip0_540_16589">
<rect width="16" height="16" fill="white" transform="translate(0.0390625 0.351562)"/>
</clipPath>
</defs>
</svg>
