<svg width="578" height="325" viewBox="0 0 578 325" fill="none" xmlns="http://www.w3.org/2000/svg">
<g clip-path="url(#clip0_540_16343)">
<path d="M482.492 270.626C482.802 257.251 485.063 243.795 490.533 231.569C496.003 219.343 504.901 208.503 516.48 201.812C524.685 197.043 536.008 194.837 543.229 201.055C545.584 203.21 547.399 205.89 548.526 208.877C551.689 216.677 551.771 225.389 548.753 233.247C546.21 239.765 541.651 245.299 536.737 250.286C523.591 263.615 506.232 274.163 487.506 274.081" fill="#D3E8E8"/>
<path d="M484.889 297.439C493.098 288.327 504.278 282.43 516.434 280.8C520.691 280.235 530.109 278.749 532.635 283.371C535.078 287.839 529.27 294.649 526.253 297.138C522.84 300.166 518.965 302.628 514.774 304.431C509.75 306.338 504.291 306.797 499.018 305.758C493.745 304.719 488.869 302.222 484.944 298.551" fill="#D3E8E8"/>
<path d="M172.845 273.005C179.546 253.915 182.126 232.763 176.173 213.426C170.22 194.089 154.63 177.068 134.809 173.011C132.107 172.325 129.283 172.275 126.559 172.865C123.876 173.71 121.456 175.229 119.53 177.278C110.021 186.604 107.413 201.401 110.267 214.402C113.12 227.403 120.715 238.863 129.276 249.092C138.693 260.315 150.591 270.972 165.151 272.531" fill="#D3E8E8"/>
<path d="M163.537 294.732C160.802 290.41 156.243 287.602 151.767 285.141C142.705 280.181 133.05 276.024 122.821 274.556C117.259 273.772 110.513 274.401 107.705 279.26C105.38 283.29 106.921 288.514 109.528 292.38C111.677 295.553 114.451 298.254 117.68 300.317C120.91 302.38 124.527 303.762 128.309 304.377C133.095 305.125 137.982 304.614 142.787 303.958C149.451 303.046 156.243 301.797 162.051 298.406" fill="#D3E8E8"/>
<path d="M139.313 196.323C154.936 215.539 169.409 235.661 182.655 256.586C186.381 262.469 190.003 268.411 193.522 274.41C193.587 274.555 193.596 274.72 193.547 274.872C193.498 275.023 193.394 275.152 193.256 275.232C193.119 275.312 192.956 275.338 192.8 275.306C192.644 275.274 192.505 275.185 192.41 275.057C179.967 253.871 166.289 233.436 151.448 213.855C147.193 208.239 142.845 202.699 138.402 197.235C137.882 196.597 138.794 195.676 139.313 196.323Z" fill="white"/>
<path d="M123.514 290.009C141.529 293.717 159.91 295.345 178.297 294.859C178.469 294.859 178.633 294.927 178.755 295.049C178.876 295.17 178.944 295.335 178.944 295.507C178.944 295.678 178.876 295.843 178.755 295.964C178.633 296.086 178.469 296.154 178.297 296.154C159.797 296.633 141.302 294.991 123.176 291.258C122.356 291.085 122.702 289.845 123.514 290.009Z" fill="white"/>
<path d="M532.47 222.453C510.078 235.968 489.47 252.241 471.132 270.891C466.026 276.075 461.112 281.433 456.39 286.964C455.852 287.602 454.94 286.681 455.478 286.052C472.467 266.194 491.865 248.532 513.225 233.475C519.303 229.22 525.502 225.173 531.823 221.331C532.534 220.903 533.182 222.024 532.47 222.453Z" fill="white"/>
<path d="M519.197 291.805C505.027 296.584 490.335 299.645 475.435 300.922C471.211 301.275 466.978 301.487 462.736 301.56C462.578 301.542 462.433 301.466 462.328 301.347C462.223 301.229 462.165 301.076 462.165 300.918C462.165 300.759 462.223 300.606 462.328 300.488C462.433 300.369 462.578 300.294 462.736 300.275C477.572 300.022 492.325 297.993 506.679 294.23C510.782 293.155 514.842 291.939 518.859 290.584C519.652 290.319 519.99 291.559 519.206 291.824L519.197 291.805Z" fill="white"/>
<path d="M481.69 325.473L157.538 324.826L193.851 109.056C194.539 105.028 196.629 101.372 199.753 98.7361C202.876 96.1001 206.831 94.6532 210.917 94.6514L500.042 95.2348C502.55 95.2396 505.026 95.7906 507.3 96.8495C509.573 97.9084 511.589 99.4498 513.206 101.366C514.823 103.283 516.004 105.529 516.665 107.948C517.326 110.367 517.453 112.901 517.036 115.374L481.69 325.473Z" fill="#E1E8F0"/>
<path d="M458.077 168.517C462.179 165.281 467.43 165.281 469.792 168.517C472.153 171.754 470.758 176.996 466.656 180.232C462.553 183.469 457.311 183.46 454.94 180.232C452.57 177.005 453.974 171.745 458.077 168.517Z" fill="#8FC6C6"/>
<path d="M443.945 174.734H267.615" stroke="#0B3C95" stroke-width="1.03021" stroke-miterlimit="10"/>
<path d="M439.801 250.786C437.165 247.773 438.218 242.541 442.151 239.1C446.085 235.659 451.41 235.311 454.046 238.324C456.682 241.337 455.63 246.569 451.696 250.01C447.762 253.451 442.437 253.799 439.801 250.786Z" fill="#8FC6C6"/>
<path d="M428.511 244.944H252.171" stroke="#0B3C95" stroke-width="1.03021" stroke-miterlimit="10"/>
<path d="M516.771 117.48L517.036 115.374C517.453 112.901 517.326 110.367 516.665 107.948C516.004 105.529 514.823 103.283 513.206 101.366C511.589 99.4498 509.573 97.9084 507.3 96.8495C505.026 95.7906 502.55 95.2396 500.042 95.2348L210.917 94.6514C206.831 94.6532 202.876 96.1001 199.753 98.7361C196.629 101.372 194.539 105.028 193.851 109.056L192.355 117.918C191.581 116.559 516.771 117.48 516.771 117.48Z" fill="#0B3C95"/>
<path d="M490.04 104.844C492.165 103.167 494.891 103.167 496.112 104.844C497.334 106.522 496.614 109.238 494.489 110.916C492.365 112.593 489.639 112.593 488.408 110.916C487.178 109.238 487.907 106.503 490.04 104.844Z" fill="white"/>
<path d="M476 104.844C478.125 103.167 480.85 103.167 482.072 104.844C483.294 106.522 482.574 109.238 480.449 110.916C478.325 112.593 475.599 112.593 474.368 110.916C473.138 109.238 473.867 106.503 476 104.844Z" fill="#FFB701"/>
<path d="M461.878 104.844C464.002 103.167 466.728 103.167 467.95 104.844C469.172 106.522 468.451 109.238 466.327 110.916C464.203 112.593 461.477 112.593 460.246 110.916C459.016 109.238 459.745 106.503 461.878 104.844Z" fill="#8FC6C6"/>
<path d="M274.9 83.7019C268.797 83.7019 263.85 78.7548 263.85 72.6522C263.85 66.5497 268.797 61.6025 274.9 61.6025C281.002 61.6025 285.949 66.5497 285.949 72.6522C285.949 78.7548 281.002 83.7019 274.9 83.7019Z" fill="#0B3C95" stroke="#0B3C95" stroke-width="2.21541" stroke-miterlimit="10"/>
<path d="M295.859 109.685L267.989 63.3074C266.375 59.4601 270.906 47.8816 273.833 44.9004C281.865 36.6951 293.471 32.6108 304.903 31.8176C311.24 31.38 323.383 38.2815 326.984 46.2497C330.978 55.0748 333.366 63.7632 344.307 68.0573C367.773 77.2289 363.024 102.929 363.024 102.929" fill="#252525"/>
<path d="M299.789 37.4974C297.705 35.9693 295.403 34.7644 292.96 33.9236C295.268 33.2592 297.616 32.7445 299.989 32.3828C300.409 32.5287 300.828 32.6563 301.238 32.8204C312.552 37.3242 320.384 52.9414 317.567 64.7296C316.217 64.7296 313.136 65.3222 311.841 65.076C311.604 55.1295 307.994 43.4599 299.789 37.4974Z" fill="#0B3C95"/>
<path d="M309.972 65.7877C310.003 65.9142 310.059 66.0331 310.137 66.1375C310.214 66.2418 310.312 66.3294 310.425 66.3949C310.537 66.4605 310.662 66.5026 310.791 66.5189C310.92 66.5352 311.051 66.5253 311.176 66.4897C313.4 65.8515 318.387 63.937 320.749 69.5439C323.11 75.1508 318.46 80.0922 315.151 81.2226C314.194 81.5509 312.006 82.3805 311.55 83.274C310.137 86.009 314.102 108.026 317.877 115.466C318.169 129.688 296.908 149.134 296.908 149.134C296.908 149.134 291.319 141.248 286.834 124.054C286.834 124.054 285.439 93.0564 285.229 92.9105C281.756 90.9595 268.016 91.9988 268.326 67.7387C268.609 45.2291 284.272 42.4211 288.338 42.0199C291.784 41.6826 303.344 39.2028 309.972 65.7877Z" fill="#FFB4A5"/>
<path d="M277.061 42.9957C277.061 42.9957 290.061 72.8718 310.647 66.4627C310.647 66.4627 315.488 28.0075 277.061 42.9957Z" fill="#252525"/>
<path d="M318.697 71.9412C318.697 71.9412 313.136 65.5594 311.477 76.6638L318.697 71.9412Z" fill="#FF8164"/>
<path d="M290.681 71.2392C289.642 71.5027 288.704 72.0687 287.987 72.8656C287.269 73.6625 286.805 74.6545 286.652 75.7157C286.499 76.7769 286.664 77.8597 287.127 78.8269C287.59 79.794 288.33 80.6019 289.252 81.1483C290.175 81.6947 291.239 81.9549 292.309 81.896C293.38 81.837 294.409 81.4616 295.266 80.8173C296.123 80.173 296.77 79.2888 297.124 78.2767C297.478 77.2646 297.523 76.1702 297.255 75.1322C296.898 73.7449 296.006 72.5558 294.773 71.8259C293.541 71.096 292.069 70.885 290.681 71.2392Z" fill="#FF9E87"/>
<path d="M269.502 79.317C270.492 78.8337 271.311 78.06 271.85 77.0991C272.388 76.1383 272.621 75.0361 272.517 73.9395C272.413 72.8428 271.977 71.804 271.268 70.9616C270.558 70.1192 269.608 69.5133 268.545 69.2246C268.545 69.2246 267.934 75.5882 269.502 79.317Z" fill="#FF9E87"/>
<path d="M273.131 75.3691L282.193 77.0922C282.193 77.0922 279.103 81.0125 276.568 80.0552C274.034 79.098 273.131 75.3691 273.131 75.3691Z" fill="white"/>
<path d="M277.598 67.8848L277.936 73.911L274.827 73.4734C274.696 73.4537 274.573 73.4006 274.469 73.3192C274.365 73.2378 274.284 73.1309 274.233 73.0089C274.183 72.8868 274.165 72.7538 274.181 72.6228C274.197 72.4917 274.247 72.3671 274.325 72.2609L277.598 67.8848Z" fill="#FF8164"/>
<path d="M287.226 62.9062C288.192 63.6812 286.843 60.4264 285.494 59.9706C284.905 59.7248 284.242 59.722 283.651 59.9628C283.06 60.2037 282.589 60.6686 282.339 61.2561C284.111 61.2169 285.841 61.8009 287.226 62.9062Z" fill="#252525"/>
<path d="M270.615 61.4295C269.557 62.0677 271.308 59.0226 272.703 58.74C273.319 58.5716 273.977 58.6533 274.534 58.9675C275.09 59.2816 275.5 59.8027 275.675 60.4175C273.922 60.1524 272.131 60.5105 270.615 61.4295Z" fill="#252525"/>
<path d="M283.789 68.3771C283.67 69.4347 283.16 70.2005 282.649 70.2005C282.139 70.2005 281.81 69.2888 281.929 68.1857C282.047 67.0825 282.558 66.3623 283.069 66.3623C283.579 66.3623 283.907 67.2922 283.789 68.3771Z" fill="#252525"/>
<path d="M275.438 66.9184C275.328 67.9303 274.845 68.7418 274.353 68.6506C273.86 68.5594 273.55 67.7389 273.669 66.7178C273.787 65.6967 274.261 64.8944 274.754 64.9856C275.246 65.0768 275.547 65.9064 275.438 66.9184Z" fill="#252525"/>
<path d="M284.336 92.4548C287.625 93.0332 291.006 92.7953 294.182 91.7619C299.078 90.0388 289.46 102.511 284.336 92.4548Z" fill="#FF8164"/>
<path d="M314.522 325.474C312.935 318.791 311.695 313.567 310.875 310.167C309.763 305.49 302.533 306.52 303.098 311.297C303.508 314.743 303.837 319.566 304.101 325.474H249.263C252.782 277.455 260.613 234.533 275.766 209.489C296.005 206.699 320.703 210.346 341.216 210.957C351.427 229.008 356.824 242.218 362.686 265.166C364.592 272.596 369.351 295.388 375.295 325.474H314.522Z" fill="#2D2F3D"/>
<g style="mix-blend-mode:multiply" opacity="0.21">
<path d="M276.067 218.56L367.783 285.469C367.783 285.469 360.681 246.02 345.902 218.231L276.067 218.56Z" fill="#252525"/>
</g>
<path d="M180.129 171.462C180.129 171.462 197.999 187.945 226.863 208.978V209.078L227.009 209.005C228.768 209.288 235.651 212.807 237.11 212.652C237.11 212.652 254.997 219.654 267.342 178.646C269.165 174.999 295.085 130.718 295.504 130.208C295.504 130.208 292.45 120.991 292.213 120.79C275.866 106.741 258.188 163.047 242.124 182.202C241.8 182.591 241.359 182.867 240.867 182.986C240.374 183.106 239.856 183.064 239.389 182.867C237.411 182.056 234.685 180.706 234.685 180.706L217.855 172.501L188.316 153.265C188.316 153.265 186.028 143.072 185.226 141.923C183.731 141.467 177.668 141.239 177.668 141.239C177.668 141.239 159.006 125.485 159.006 129.333C159.006 131.621 169.08 142.953 169.08 142.953C169.08 142.953 163.929 149.253 163.61 153.374C163.291 157.495 180.129 171.462 180.129 171.462Z" fill="#FF9E87"/>
<g style="mix-blend-mode:multiply">
<path d="M185.408 142.352C183.396 142.218 181.385 142.148 179.373 142.142C178.361 142.142 177.358 142.142 176.346 142.142H174.842C174.279 142.112 173.716 142.174 173.173 142.324C172.825 142.469 172.54 142.734 172.371 143.072C172.217 143.376 172.148 143.716 172.17 144.056C172.223 144.687 172.509 145.276 172.973 145.707C173.801 146.403 174.792 146.88 175.854 147.092C177.805 147.621 179.771 148.086 181.752 148.487C179.874 147.703 178.005 146.983 176.118 146.336C175.212 146.085 174.373 145.633 173.666 145.014C173.386 144.747 173.214 144.387 173.182 144.002C173.16 143.857 173.186 143.708 173.255 143.578C173.324 143.449 173.433 143.345 173.565 143.282C173.996 143.182 174.437 143.136 174.878 143.145L176.382 143.081C177.385 143.026 178.388 142.981 179.391 142.899C181.406 142.807 183.412 142.616 185.408 142.352Z" fill="#D18478"/>
<path d="M169.982 142.926C170.557 143.573 171.14 144.193 171.669 144.868C172.198 145.542 172.718 146.208 173.21 146.901C174.177 148.282 175.031 149.739 175.763 151.259L175.963 150.584C175.638 150.738 175.28 150.809 174.92 150.792C174.561 150.774 174.211 150.669 173.903 150.484C173.14 150.111 172.414 149.668 171.733 149.162C171.013 148.669 170.274 148.186 169.527 147.712C168.779 147.238 168.031 146.8 167.256 146.345C167.895 146.965 168.569 147.53 169.226 148.122C169.882 148.715 170.566 149.262 171.25 149.818C171.936 150.417 172.685 150.94 173.483 151.377C173.932 151.603 174.416 151.748 174.915 151.806C175.459 151.86 176.006 151.746 176.483 151.477L176.893 151.231L176.692 150.803C175.924 149.227 174.966 147.751 173.839 146.408C173.271 145.742 172.662 145.111 172.016 144.521C171.375 143.944 170.696 143.411 169.982 142.926Z" fill="#D18478"/>
<path d="M173.456 151.131C173.568 151.621 173.611 152.125 173.584 152.626C173.567 152.825 173.502 153.016 173.394 153.183C173.286 153.35 173.138 153.488 172.964 153.584C172.69 153.693 172.353 153.584 171.906 153.31C171.459 153.037 170.994 152.818 170.575 152.563C169.663 152.07 168.825 151.542 167.949 151.013C167.074 150.484 166.217 149.928 165.296 149.408C166.602 151.06 168.223 152.436 170.064 153.456C170.529 153.711 170.976 153.958 171.468 154.176C171.735 154.307 172.017 154.405 172.307 154.468C172.667 154.544 173.043 154.479 173.356 154.286C173.619 154.102 173.827 153.849 173.956 153.554C174.084 153.26 174.129 152.936 174.085 152.617C173.989 152.081 173.774 151.573 173.456 151.131Z" fill="#D18478"/>
<path d="M164.631 153.311C164.883 153.922 165.328 154.435 165.898 154.769C166.467 155.127 167.113 155.343 167.783 155.399C168.452 155.455 169.126 155.348 169.745 155.088C170.361 154.851 170.883 154.419 171.231 153.858C170.677 154.07 170.103 154.226 169.517 154.323C168.42 154.475 167.302 154.382 166.244 154.049C165.682 153.86 165.141 153.613 164.631 153.311Z" fill="#D18478"/>
</g>
<path d="M294.237 120.544C291.574 118.309 288.269 116.977 284.801 116.741C281.332 116.505 277.878 117.377 274.936 119.231C264.078 125.658 243.839 169.638 237.502 178.327L211.738 162.527C211.738 162.527 197.762 184.471 192.501 188.638C192.501 188.638 232.078 224.249 246.774 217.484C261.471 210.719 294.237 120.544 294.237 120.544Z" fill="#8FC6C6"/>
<path opacity="0.93" d="M262.227 162.946C267.406 146.837 276.687 132.651 288.211 120.38C288.9 119.672 289.369 118.778 289.56 117.809C291.26 118.453 292.841 119.377 294.237 120.544C294.237 120.544 272.83 179.475 256.857 205.632C256.438 191.191 257.787 176.804 262.227 162.946Z" fill="#749E9D"/>
<path d="M286.396 114.873C286.98 116.304 264.269 159.546 264.971 173.595C265.673 187.644 268.135 213.29 267.387 215.405C267.387 215.405 285.521 222.225 345.948 212.716C345.474 200.526 341.964 123.735 341.964 123.735C341.964 123.735 322.198 111.591 317.084 111.208C317.084 111.208 313.437 116.058 308.195 117.417C304.48 118.402 300.667 118.965 296.826 119.094C290.398 119.249 289.14 118.328 286.396 114.873Z" fill="#8FC6C6"/>
<g opacity="0.93">
<path d="M301.74 208.331C343.678 188.173 333.403 144.148 339.921 122.522L341.927 123.753C341.927 123.753 345.437 200.545 345.911 212.734C303.527 219.408 281.956 218.04 272.848 216.636C277.279 214.421 297.254 210.492 301.74 208.331Z" fill="#749E9D"/>
</g>
<path d="M305.905 79.5271C303.552 73.8964 306.209 67.4243 311.84 65.0713C317.47 62.7182 323.943 65.3752 326.296 71.0059C328.649 76.6366 325.992 83.1087 320.361 85.4618C314.73 87.8148 308.258 85.1578 305.905 79.5271Z" fill="#0B3C95" stroke="#0B3C95" stroke-width="2.21541" stroke-miterlimit="10"/>
<path d="M310.209 76.582L303.891 83.3924C302.703 84.6798 301.207 85.6452 299.544 86.1984C297.882 86.7516 296.106 86.8746 294.383 86.5559L277.142 83.3832" stroke="#0B3C95" stroke-width="1.03021" stroke-miterlimit="10"/>
<path d="M277.086 81.1019L280.114 81.7212C281.012 81.9048 281.591 82.7815 281.407 83.6793L281.331 84.0545C281.147 84.9523 280.27 85.5312 279.372 85.3476L276.344 84.7282C275.447 84.5446 274.868 83.6679 275.051 82.7701L275.128 82.395C275.312 81.4972 276.188 80.9182 277.086 81.1019Z" fill="#0B3C95"/>
<path d="M316.117 82.5265C312.104 82.5265 308.851 79.2733 308.851 75.2603C308.851 71.2473 312.104 67.9941 316.117 67.9941C320.13 67.9941 323.383 71.2473 323.383 75.2603C323.383 79.2733 320.13 82.5265 316.117 82.5265Z" stroke="#252525" stroke-width="1.03021" stroke-miterlimit="10"/>
<path d="M330.002 122.167C341.699 112.64 369.278 148.141 369.278 148.141L392.426 175.419L430.717 141.96C431.273 138.623 432.312 132.952 433.379 130.308C434.519 127.5 434.117 123.015 433.817 120.726C433.788 120.565 433.805 120.398 433.863 120.245C433.922 120.091 434.021 119.957 434.15 119.855C434.279 119.753 434.433 119.688 434.595 119.667C434.758 119.645 434.924 119.668 435.075 119.733C435.835 120.032 436.493 120.546 436.968 121.21C437.444 121.875 437.717 122.663 437.755 123.48C437.983 125.914 439.196 129.488 439.287 131.421C439.286 131.522 439.311 131.621 439.361 131.709C439.41 131.797 439.481 131.871 439.568 131.924C439.654 131.976 439.753 132.005 439.853 132.008C439.954 132.011 440.054 131.988 440.144 131.94C442.14 131.156 443.016 129.98 445.659 127.819C447.848 125.817 449.794 123.565 451.458 121.109C453.974 117.353 457.393 112.129 458.56 113.998C459.389 115.338 454.913 123.115 454.12 124.209C452.669 126.439 451.448 128.809 450.473 131.284C450.273 132.041 456.007 126.598 458.487 123.215C460.967 119.833 463.264 116.241 464.595 116.378C465.926 116.514 464.021 119.97 464.021 119.97C464.021 119.97 466.537 117.937 467.221 118.775C467.677 119.341 465.069 124.902 463.127 128.567C466.683 126.023 466.692 127.956 466.692 127.956C466.692 127.956 461.222 136.599 458.651 138.213C456.6 139.516 453.856 143.072 453.4 143.792C452.944 144.512 445.86 151.651 439.086 154.988C433.297 162.774 387.302 224.14 381.586 218.943C338.882 180.096 313.364 135.724 330.002 122.167Z" fill="#FF9E87"/>
<g style="mix-blend-mode:multiply">
<path d="M463.265 128.229L461.241 130.17C460.587 130.775 459.885 131.327 459.144 131.821C458.405 132.313 457.603 132.732 456.801 133.307C455.998 133.847 455.245 134.458 454.549 135.13H455.616C454.795 134.474 453.965 133.835 453.099 133.225C452.223 132.615 451.31 132.061 450.364 131.565C450.969 132.443 451.633 133.277 452.352 134.063C453.054 134.847 453.792 135.595 454.549 136.324L455.05 136.817L455.616 136.315C456.29 135.723 457.01 135.203 457.731 134.665C458.451 134.127 459.253 133.626 460.01 132.988C460.756 132.349 461.41 131.609 461.952 130.79C462.48 129.986 462.92 129.127 463.265 128.229Z" fill="#D18478"/>
<path d="M438.859 132.942C438.713 133.854 438.613 134.602 438.521 135.395C438.43 136.188 438.366 136.963 438.312 137.738L438.029 142.515C438.687 141.948 439.187 141.219 439.479 140.4C439.771 139.596 439.949 138.755 440.007 137.902C440.065 137.057 440.013 136.208 439.852 135.377C439.704 134.502 439.365 133.671 438.859 132.942Z" fill="#D18478"/>
<path d="M463.857 120.425C463.098 121.532 462.28 122.598 461.404 123.616C460.493 124.609 459.663 125.585 458.742 126.551C457.822 127.518 456.919 128.493 456.007 129.542C455.089 130.574 454.301 131.716 453.664 132.942C454.795 132.14 455.871 131.338 456.919 130.472C457.98 129.607 458.985 128.675 459.928 127.682C460.877 126.668 461.714 125.556 462.426 124.363C463.178 123.168 463.666 121.825 463.857 120.425Z" fill="#D18478"/>
</g>
<path d="M330.003 122.167C341.7 112.64 369.278 148.141 369.278 148.141L392.426 175.419L413.222 157.258C416.923 163.056 425.894 173.951 429.313 179.932C413.477 200.18 385.497 222.453 381.604 218.925C338.882 180.096 313.364 135.724 330.003 122.167Z" fill="#8FC6C6"/>
<path d="M535.552 324.963H89.6808" stroke="#0B3C95" stroke-width="1.03021" stroke-miterlimit="10"/>
<path d="M231.613 70.319L223.189 61.895H191.498C189.963 61.8962 188.442 61.5947 187.023 61.0079C185.604 60.4211 184.314 59.5603 183.228 58.4749C182.142 57.3895 181.28 56.1006 180.692 54.6819C180.104 53.2633 179.801 51.7427 179.801 50.2071V47.6635C179.801 46.1278 180.104 44.6072 180.692 43.1886C181.28 41.77 182.142 40.4811 183.228 39.3957C184.314 38.3102 185.604 37.4495 187.023 36.8627C188.442 36.2758 189.963 35.9744 191.498 35.9756H219.934C223.032 35.978 226.003 37.2105 228.193 39.4021C230.383 41.5938 231.613 44.5652 231.613 47.6635V70.319Z" fill="#8FC6C6"/>
<path d="M196.631 48.6117C196.631 49.1888 196.46 49.7528 196.139 50.2326C195.819 50.7123 195.363 51.0863 194.83 51.3071C194.297 51.5279 193.71 51.5857 193.144 51.4731C192.578 51.3605 192.059 51.0827 191.651 50.6747C191.243 50.2667 190.965 49.7468 190.852 49.1809C190.74 48.615 190.797 48.0284 191.018 47.4953C191.239 46.9622 191.613 46.5066 192.093 46.186C192.572 45.8654 193.136 45.6943 193.713 45.6943C194.487 45.6943 195.229 46.0017 195.776 46.5488C196.323 47.0959 196.631 47.838 196.631 48.6117Z" fill="white"/>
<path d="M207.325 48.6117C207.325 49.1888 207.154 49.7528 206.834 50.2326C206.513 50.7123 206.057 51.0863 205.524 51.3071C204.991 51.5279 204.405 51.5857 203.839 51.4731C203.273 51.3605 202.753 51.0827 202.345 50.6747C201.937 50.2667 201.659 49.7468 201.546 49.1809C201.434 48.615 201.492 48.0284 201.712 47.4953C201.933 46.9622 202.307 46.5066 202.787 46.186C203.267 45.8654 203.831 45.6943 204.408 45.6943C205.182 45.6943 205.924 46.0017 206.471 46.5488C207.018 47.0959 207.325 47.838 207.325 48.6117Z" fill="white"/>
<path d="M218.02 48.6117C218.02 49.1888 217.848 49.7528 217.528 50.2326C217.207 50.7123 216.752 51.0863 216.219 51.3071C215.685 51.5279 215.099 51.5857 214.533 51.4731C213.967 51.3605 213.447 51.0827 213.039 50.6747C212.631 50.2667 212.353 49.7468 212.241 49.1809C212.128 48.615 212.186 48.0284 212.407 47.4953C212.628 46.9622 213.002 46.5066 213.481 46.186C213.961 45.8654 214.525 45.6943 215.102 45.6943C215.876 45.6943 216.618 46.0017 217.165 46.5488C217.712 47.0959 218.02 47.838 218.02 48.6117Z" fill="white"/>
<g style="mix-blend-mode:multiply">
<path d="M183.594 41.7368C180.261 41.7368 177.559 39.0347 177.559 35.7014C177.559 32.3682 180.261 29.666 183.594 29.666C186.927 29.666 189.629 32.3682 189.629 35.7014C189.629 39.0347 186.927 41.7368 183.594 41.7368Z" fill="#0B3C95"/>
</g>
<path d="M238.596 34.3434L247.02 25.9194H278.738C281.839 25.9194 284.813 24.6883 287.006 22.4966C289.199 20.305 290.433 17.3321 290.435 14.2315V11.6879C290.433 8.58722 289.199 5.61439 287.006 3.42275C284.813 1.23111 281.839 -9.41825e-07 278.738 0L250.284 0C247.184 0 244.212 1.2314 242.02 3.4233C239.828 5.6152 238.596 8.58806 238.596 11.6879V34.3434Z" fill="#FFB701"/>
<path d="M273.55 12.6362C273.55 13.2132 273.722 13.7772 274.042 14.257C274.363 14.7368 274.818 15.1107 275.351 15.3315C275.884 15.5523 276.471 15.6101 277.037 15.4975C277.603 15.3849 278.123 15.1071 278.531 14.6991C278.939 14.2911 279.217 13.7712 279.329 13.2053C279.442 12.6394 279.384 12.0528 279.163 11.5197C278.942 10.9866 278.568 10.531 278.089 10.2104C277.609 9.88985 277.045 9.71875 276.468 9.71875C275.694 9.71875 274.952 10.0261 274.405 10.5732C273.858 11.1204 273.55 11.8624 273.55 12.6362Z" fill="white"/>
<path d="M262.893 12.6362C262.893 13.2132 263.064 13.7772 263.384 14.257C263.705 14.7368 264.161 15.1107 264.694 15.3315C265.227 15.5523 265.813 15.6101 266.379 15.4975C266.945 15.3849 267.465 15.1071 267.873 14.6991C268.281 14.2911 268.559 13.7712 268.671 13.2053C268.784 12.6394 268.726 12.0528 268.505 11.5197C268.285 10.9866 267.911 10.531 267.431 10.2104C266.951 9.88985 266.387 9.71875 265.81 9.71875C265.036 9.71875 264.294 10.0261 263.747 10.5732C263.2 11.1204 262.893 11.8624 262.893 12.6362Z" fill="white"/>
<path d="M252.199 12.6362C252.199 13.2132 252.37 13.7772 252.691 14.257C253.011 14.7368 253.467 15.1107 254 15.3315C254.533 15.5523 255.12 15.6101 255.685 15.4975C256.251 15.3849 256.771 15.1071 257.179 14.6991C257.587 14.2911 257.865 13.7712 257.978 13.2053C258.09 12.6394 258.032 12.0528 257.812 11.5197C257.591 10.9866 257.217 10.531 256.737 10.2104C256.257 9.88985 255.693 9.71875 255.116 9.71875C254.343 9.71875 253.6 10.0261 253.053 10.5732C252.506 11.1204 252.199 11.8624 252.199 12.6362Z" fill="white"/>
<path opacity="0.51" d="M170.967 143.609L143.352 119.331H39.3734C18.2039 119.331 1.08234 104.252 1.08234 85.653V78.3595C1.08234 59.7519 18.2312 44.627 39.3734 44.627H132.639C153.809 44.627 170.93 59.7063 170.93 78.3595L170.967 143.609Z" fill="#E1E8F0"/>
<path d="M101.004 65.9424H143.762V97.4869H101.004V65.9424Z" fill="#FFB701"/>
<path d="M143.78 65.4138L125.364 83.8208C124.576 84.6064 123.509 85.0475 122.397 85.0475C121.284 85.0475 120.217 84.6064 119.429 83.8208L100.894 65.2861L143.78 65.4138Z" fill="#FFE25E"/>
<path opacity="0.73" d="M104.532 90.8772H115.418C115.56 90.8772 115.697 90.8206 115.798 90.7197C115.899 90.6188 115.956 90.482 115.956 90.3393C115.953 90.1982 115.895 90.0638 115.795 89.9649C115.694 89.8659 115.559 89.8105 115.418 89.8105H104.532C104.392 89.8105 104.257 89.8663 104.158 89.9654C104.059 90.0646 104.003 90.1991 104.003 90.3393C104.002 90.4095 104.015 90.4793 104.041 90.5445C104.067 90.6097 104.106 90.6691 104.155 90.7191C104.204 90.7692 104.263 90.809 104.328 90.8361C104.392 90.8633 104.462 90.8772 104.532 90.8772Z" fill="white"/>
<path d="M129.194 87.8509H140.079C140.219 87.8509 140.354 87.7951 140.453 87.696C140.552 87.5968 140.608 87.4623 140.608 87.3221C140.608 87.181 140.553 87.0455 140.454 86.9449C140.355 86.8443 140.22 86.7866 140.079 86.7842H129.194C129.052 86.7866 128.918 86.8443 128.819 86.9449C128.72 87.0455 128.665 87.181 128.665 87.3221C128.665 87.4623 128.72 87.5968 128.82 87.696C128.919 87.7951 129.053 87.8509 129.194 87.8509Z" fill="white"/>
<path d="M129.193 90.6858H140.079C140.149 90.6858 140.219 90.6719 140.284 90.6447C140.348 90.6176 140.407 90.5778 140.456 90.5277C140.505 90.4777 140.544 90.4183 140.57 90.3531C140.596 90.2879 140.609 90.2181 140.608 90.1479C140.608 90.0077 140.552 89.8732 140.453 89.774C140.354 89.6748 140.219 89.6191 140.079 89.6191H129.193C129.053 89.6191 128.919 89.6748 128.82 89.774C128.72 89.8732 128.665 90.0077 128.665 90.1479C128.663 90.2181 128.676 90.2879 128.702 90.3531C128.728 90.4183 128.767 90.4777 128.816 90.5277C128.866 90.5778 128.924 90.6176 128.989 90.6447C129.054 90.6719 129.123 90.6858 129.193 90.6858Z" fill="white"/>
<path d="M25.3242 74.8867H89.9084C90.7579 74.8843 91.5718 74.5451 92.1717 73.9436C92.7715 73.342 93.1084 72.5271 93.1084 71.6776C93.1084 70.8289 92.7712 70.0149 92.1711 69.4148C91.571 68.8147 90.7571 68.4775 89.9084 68.4775H25.3242C24.4746 68.4775 23.6597 68.8144 23.0582 69.4142C22.4566 70.0141 22.1175 70.828 22.115 71.6776C22.1174 72.528 22.4563 73.3428 23.0576 73.9441C23.6589 74.5454 24.4738 74.8843 25.3242 74.8867Z" fill="white"/>
<path d="M55.711 85.2981H91.3398C91.5768 85.2982 91.8113 85.2507 92.0296 85.1584C92.2478 85.0662 92.4453 84.931 92.6102 84.7609C92.7752 84.5908 92.9043 84.3893 92.9899 84.1684C93.0755 83.9474 93.1159 83.7116 93.1085 83.4747C93.1085 83.0056 92.9222 82.5558 92.5905 82.2241C92.2588 81.8924 91.8089 81.7061 91.3398 81.7061H55.711C55.4787 81.7061 55.2487 81.7518 55.0341 81.8407C54.8195 81.9296 54.6246 82.0598 54.4603 82.2241C54.2961 82.3883 54.1658 82.5833 54.0769 82.7979C53.9881 83.0125 53.9423 83.2425 53.9423 83.4747C53.9349 83.7116 53.9753 83.9474 54.0609 84.1684C54.1465 84.3893 54.2756 84.5908 54.4406 84.7609C54.6055 84.931 54.803 85.0662 55.0212 85.1584C55.2395 85.2507 55.474 85.2982 55.711 85.2981Z" fill="white"/>
<path d="M55.711 93.0833H91.3398C91.8089 93.0833 92.2588 92.8969 92.5905 92.5652C92.9222 92.2335 93.1085 91.7837 93.1085 91.3146C93.1159 91.0778 93.0755 90.8419 92.9899 90.6209C92.9043 90.4 92.7752 90.1985 92.6102 90.0284C92.4453 89.8584 92.2478 89.7232 92.0296 89.6309C91.8113 89.5386 91.5768 89.4911 91.3398 89.4912H55.711C55.474 89.4911 55.2395 89.5386 55.0212 89.6309C54.803 89.7232 54.6055 89.8584 54.4406 90.0284C54.2756 90.1985 54.1465 90.4 54.0609 90.6209C53.9753 90.8419 53.9349 91.0778 53.9423 91.3146C53.9423 91.5469 53.9881 91.7768 54.0769 91.9914C54.1658 92.206 54.2961 92.401 54.4603 92.5652C54.6246 92.7295 54.8195 92.8598 55.0341 92.9486C55.2487 93.0375 55.4787 93.0833 55.711 93.0833Z" fill="white"/>
<path d="M115.555 258.546H211.109L219.068 226.026H123.504L115.555 258.546Z" fill="#FFB701"/>
<path d="M143.908 235.916C146.391 235.916 148.905 237.825 149.548 240.224C150.191 242.623 148.7 244.532 146.217 244.532C143.734 244.532 141.221 242.623 140.578 240.224C139.935 237.825 141.425 235.916 143.908 235.916ZM145.975 243.626C147.926 243.626 149.039 242.109 148.534 240.224C148.029 238.339 146.102 236.822 144.151 236.822C142.2 236.822 141.086 238.339 141.591 240.224C142.096 242.109 144.023 243.626 145.975 243.626ZM156.768 236.063H157.769L159.999 244.385H159.163L151.894 237.825L153.652 244.385H152.651L150.421 236.063H151.232L158.549 242.708L156.768 236.063ZM166.527 243.491H171.278L171.518 244.385H165.766L163.535 236.063H164.536L166.527 243.491ZM170.86 236.063H171.861L174.091 244.385H173.09L170.86 236.063ZM180.548 236.063H181.549L183.779 244.385H182.943L175.674 237.825L177.432 244.385H176.431L174.2 236.063H175.011L182.329 242.708L180.548 236.063ZM190.171 236.957H185.141L185.905 239.808H190.428L190.667 240.701H186.145L186.892 243.491H191.922L192.162 244.385H186.131L183.9 236.063H189.931L190.171 236.957Z" fill="white"/>
<path d="M221.437 274.235C219.879 272.454 220.502 269.36 222.829 267.325C225.156 265.289 228.305 265.083 229.863 266.864C231.421 268.645 230.798 271.739 228.471 273.775C226.145 275.81 222.995 276.016 221.437 274.235Z" fill="#0B3C95"/>
<g style="mix-blend-mode:multiply">
<path d="M220.052 254.189C218.63 259.504 213.16 263.816 207.845 263.816C202.53 263.816 199.366 259.504 200.798 254.189C202.229 248.874 207.69 244.562 213.005 244.562C218.32 244.562 221.475 248.892 220.052 254.189Z" fill="#0B3C95"/>
</g>
<path d="M216.789 259.996L222.478 258.172C223.025 257.999 223.207 257.261 222.742 257.124L212.212 253.559C212.104 253.532 211.992 253.529 211.883 253.551C211.775 253.573 211.672 253.62 211.585 253.688C211.497 253.755 211.425 253.842 211.376 253.942C211.327 254.041 211.301 254.15 211.3 254.261L212.093 265.758C212.093 266.259 212.841 266.259 213.133 265.758L216.305 260.288C216.426 260.135 216.597 260.031 216.789 259.996Z" fill="#8FC6C6"/>
<path d="M554.507 274.384C548.672 272.702 545.306 266.609 546.988 260.774C548.669 254.939 554.763 251.573 560.598 253.254C566.433 254.936 569.799 261.03 568.117 266.865C566.435 272.699 560.342 276.066 554.507 274.384Z" fill="#FFB701"/>
<path d="M567.243 237.614C567.243 236.545 567.56 235.5 568.154 234.611C568.748 233.722 569.592 233.029 570.58 232.62C571.568 232.21 572.655 232.103 573.704 232.312C574.752 232.52 575.716 233.035 576.472 233.791C577.228 234.548 577.743 235.511 577.951 236.56C578.16 237.608 578.053 238.695 577.644 239.683C577.234 240.671 576.542 241.515 575.652 242.11C574.763 242.704 573.718 243.021 572.649 243.021C571.215 243.021 569.84 242.451 568.826 241.437C567.812 240.423 567.243 239.048 567.243 237.614Z" fill="#FFB701"/>
<path d="M514.939 38.4737C514.939 37.4044 515.256 36.3592 515.85 35.4701C516.444 34.5811 517.288 33.8881 518.276 33.4789C519.264 33.0697 520.351 32.9627 521.4 33.1713C522.449 33.3799 523.412 33.8948 524.168 34.6509C524.924 35.4069 525.439 36.3703 525.648 37.419C525.856 38.4677 525.749 39.5547 525.34 40.5426C524.931 41.5305 524.238 42.3749 523.349 42.9689C522.46 43.563 521.414 43.88 520.345 43.88C518.912 43.8776 517.538 43.3073 516.525 42.2939C515.512 41.2805 514.941 39.9068 514.939 38.4737Z" fill="#FFB701"/>
<path d="M86.3343 309.245C86.3343 308.176 86.6514 307.131 87.2455 306.242C87.8395 305.353 88.6838 304.66 89.6717 304.25C90.6596 303.841 91.7466 303.734 92.7954 303.943C93.8441 304.151 94.8074 304.666 95.5635 305.422C96.3196 306.178 96.8345 307.142 97.0431 308.19C97.2517 309.239 97.1446 310.326 96.7354 311.314C96.3262 312.302 95.6333 313.146 94.7442 313.74C93.8552 314.334 92.8099 314.652 91.7407 314.652C91.0304 314.653 90.3268 314.514 89.6703 314.242C89.0139 313.971 88.4174 313.573 87.9151 313.071C87.4128 312.568 87.0147 311.972 86.7434 311.316C86.4721 310.659 86.3331 309.956 86.3343 309.245Z" fill="#FFB701"/>
<path d="M128.929 140.154C128.929 139.085 129.246 138.04 129.84 137.151C130.434 136.262 131.279 135.569 132.266 135.16C133.254 134.75 134.341 134.643 135.39 134.852C136.439 135.061 137.402 135.575 138.158 136.332C138.914 137.088 139.429 138.051 139.638 139.1C139.846 140.148 139.739 141.235 139.33 142.223C138.921 143.211 138.228 144.056 137.339 144.65C136.45 145.244 135.405 145.561 134.335 145.561C133.625 145.562 132.922 145.423 132.265 145.152C131.609 144.88 131.012 144.482 130.51 143.98C130.008 143.478 129.609 142.881 129.338 142.225C129.067 141.568 128.928 140.865 128.929 140.154Z" fill="#FFB701"/>
<path d="M355.548 62.9253C350.392 62.9253 346.212 58.7456 346.212 53.5896C346.212 48.4336 350.392 44.2539 355.548 44.2539C360.704 44.2539 364.884 48.4336 364.884 53.5896C364.884 58.7456 360.704 62.9253 355.548 62.9253Z" fill="#FFB701"/>
</g>
<defs>
<clipPath id="clip0_540_16343">
<rect width="578" height="325" fill="white" transform="matrix(-1 0 0 1 578 0)"/>
</clipPath>
</defs>
</svg>
