<svg width="454" height="369" viewBox="0 0 454 369" fill="none" xmlns="http://www.w3.org/2000/svg">
<g clip-path="url(#clip0_226_33113)">
<path opacity="0.1" d="M226.891 368.237C351.983 368.237 453.391 362.316 453.391 355.013C453.391 347.709 351.983 341.789 226.891 341.789C101.798 341.789 0.390625 347.709 0.390625 355.013C0.390625 362.316 101.798 368.237 226.891 368.237Z" fill="#F5F5F5"/>
<path d="M298.477 336.03L289.599 333.857L292.25 312.713L301.14 314.874L298.477 336.03Z" fill="#FFB573"/>
<path d="M375.859 345.679H366.712L359.598 324.511H368.733L375.859 345.679Z" fill="#FFB573"/>
<path d="M365.496 344.627H376.64C376.821 344.628 376.997 344.689 377.139 344.801C377.281 344.913 377.381 345.07 377.423 345.246L379.234 353.424C379.276 353.622 379.273 353.827 379.225 354.024C379.176 354.221 379.084 354.405 378.955 354.561C378.826 354.717 378.663 354.842 378.478 354.926C378.294 355.01 378.093 355.052 377.89 355.047C374.304 354.989 371.687 354.779 367.166 354.779C364.386 354.779 356.01 355.071 352.167 355.071C348.323 355.071 347.833 351.274 349.398 350.924C356.407 349.393 361.758 347.267 364.012 345.235C364.414 344.855 364.943 344.639 365.496 344.627Z" fill="#263238"/>
<path d="M289.973 332.852L299.669 335.189C299.845 335.234 300.001 335.336 300.111 335.48C300.221 335.625 300.28 335.802 300.277 335.983L300.101 344.312C300.099 344.513 300.051 344.711 299.961 344.891C299.871 345.071 299.741 345.227 299.581 345.349C299.421 345.471 299.235 345.554 299.038 345.593C298.84 345.632 298.637 345.626 298.443 345.574C294.938 344.663 289.95 343.238 285.593 342.151C280.452 340.89 275.943 340.084 269.915 338.647C266.271 337.759 266.154 333.822 267.766 333.869C275.079 334.044 280.803 335.271 287.707 333.028C288.432 332.763 289.216 332.702 289.973 332.852Z" fill="#263238"/>
<path d="M334.235 70.8048C333.605 72.6973 332.997 74.3093 332.308 76.0499C331.619 77.7905 330.929 79.426 330.193 81.0965C328.733 84.4375 327.109 87.7085 325.334 90.956C323.536 94.24 321.547 97.4152 319.376 100.465C317.106 103.697 314.498 106.677 311.596 109.355C310.813 110.044 310.031 110.733 309.154 111.376C308.687 111.715 308.348 111.995 307.776 112.357C307.234 112.722 306.672 113.057 306.094 113.362C303.668 114.652 300.955 115.307 298.208 115.266C295.688 115.211 293.204 114.647 290.907 113.607C288.925 112.704 287.059 111.566 285.347 110.219C282.31 107.769 279.601 104.938 277.286 101.797C276.118 100.302 275.137 98.7362 274.155 97.1241C273.16 95.5391 272.251 93.9012 271.434 92.2177L277.275 88.5963C278.279 89.7645 279.436 91.0728 280.557 92.2644C281.679 93.456 282.894 94.6008 284.062 95.769C286.304 97.9218 288.776 99.8218 291.433 101.435C293.898 102.895 296.409 103.619 297.963 103.374C298.719 103.259 299.439 102.971 300.066 102.533C300.249 102.412 300.425 102.279 300.592 102.136C300.743 102.019 301.071 101.727 301.292 101.528C301.829 101.074 302.34 100.591 302.823 100.08C306.795 95.9208 310.217 90.2551 313.196 84.4375C314.703 81.5054 316.093 78.4798 317.449 75.4425C318.114 73.9122 318.769 72.3702 319.388 70.8282C320.007 69.2862 320.638 67.674 321.163 66.2722L334.235 70.8048Z" fill="#FFB573"/>
<path d="M337.95 66.3069C339.901 74.823 321.221 96.6214 321.221 96.6214L304.423 84.3321C308.14 77.2531 312.609 70.595 317.752 64.4729C325.45 55.84 335.789 56.9614 337.95 66.3069Z" fill="#0B3C95"/>
<path opacity="0.2" d="M319.178 80.5935C317.368 84.1894 315.806 87.9052 314.505 91.7147L321.222 96.621C321.222 96.621 332.32 83.6892 336.502 73.8414C331.455 69.5074 323.57 71.9723 319.178 80.5935Z" fill="#252525"/>
<path d="M278.175 89.8919L273.911 84.1794L266.68 92.7072C266.68 92.7072 271.06 97.0996 276.481 95.3824L278.175 89.8919Z" fill="#FFB573"/>
<path d="M264.39 81.0376L261.995 90.827L266.68 92.7078L273.911 84.18L264.39 81.0376Z" fill="#FFB573"/>
<path opacity="0.2" d="M292.251 312.713L290.884 323.612L299.774 325.785L301.14 314.886L292.251 312.713Z" fill="#252525"/>
<path opacity="0.2" d="M368.745 324.511H359.598L363.266 335.422H372.413L368.745 324.511Z" fill="#252525"/>
<path d="M378.86 65.0338C375.548 74.7103 372.963 84.6208 371.127 94.6824C369.807 101.692 368.79 108.409 368.136 114.542C366.454 128.84 366.068 139.798 365.403 143.478L316.934 136.947C313.652 84.6126 328.032 58.6789 328.032 58.6789C331.927 58.2029 335.849 57.9727 339.773 57.9896C340.602 57.9896 341.443 57.9896 342.296 58.0481C349.212 58.5747 356.093 59.4991 362.903 60.8167C364.199 61.062 365.508 61.3307 366.769 61.6227C373.218 63.0829 378.86 65.0338 378.86 65.0338Z" fill="#0B3C95"/>
<path opacity="0.2" d="M343.02 71.7151C334.142 70.5469 330.17 73.1169 329.458 76.3879C326.607 89.1445 336.467 101.025 336.467 101.025C336.467 101.025 350.941 92.2519 353.791 79.4953C354.527 76.2243 351.887 72.8483 343.02 71.7151Z" fill="#252525"/>
<path d="M337.46 96.5742C335.03 92.8244 330.801 84.8924 332.6 76.715C332.939 75.2314 336.374 74.1217 342.296 74.881C348.219 75.6403 350.976 77.5444 350.649 79.028C348.838 87.2287 341.374 93.6654 337.46 96.5742Z" fill="white"/>
<path opacity="0.2" d="M371.127 94.6816C369.807 101.691 368.791 108.408 368.137 114.541L361.583 99.3777L371.127 94.6816Z" fill="#252525"/>
<path d="M363.989 37.3242C361.793 43.7726 358.861 55.7465 362.903 60.7931C360.58 62.6593 357.883 64.0039 354.994 64.7356C352.106 65.4673 349.094 65.5689 346.162 65.0336C340.473 64.1458 340.73 60.1156 342.296 58.0829C349.924 57.3119 350.473 51.7981 349.889 46.4711L363.989 37.3242Z" fill="#FFB573"/>
<path opacity="0.2" d="M358.242 41.0386L349.89 46.4122C350.046 47.6517 350.093 48.9027 350.03 50.1504C352.915 50.1504 357.214 47.5454 357.903 44.6366C358.229 43.4669 358.344 42.2485 358.242 41.0386Z" fill="#252525"/>
<path d="M347.214 11.4132C340.135 10.8408 337.682 27.8964 342.098 31.1673C346.514 34.4382 360.473 12.4646 347.214 11.4132Z" fill="#263238"/>
<path d="M366.127 27.453C364.363 36.3546 363.791 41.6582 358.627 45.6534C350.871 51.6579 340.345 46.0623 339.411 36.8102C338.57 28.481 341.595 15.3272 350.859 12.9325C352.901 12.3954 355.046 12.3893 357.091 12.9149C359.136 13.4404 361.012 14.4801 362.542 15.9351C364.072 17.39 365.205 19.2121 365.832 21.228C366.46 23.2439 366.561 25.3868 366.127 27.453Z" fill="#FFB573"/>
<path d="M364.305 36.1675C359.924 38.9011 356.221 11.5655 367.868 15.1401C386.781 20.9927 369.527 32.9199 364.305 36.1675Z" fill="#263238"/>
<path d="M364.328 20.2096C361.676 16.9387 345.555 18.9129 338.126 14.0416C330.696 9.17022 335.404 -1.54206 349.001 0.186854C342.67 0.922813 343.826 6.20302 348.172 6.1563C352.518 6.10957 362.517 0.72422 366.863 5.3152C372.926 11.6935 375.963 7.90858 378.989 11.53C383.428 16.7401 370.075 27.3239 364.328 20.2096Z" fill="#263238"/>
<path d="M368.837 37.896C368.112 38.7638 367.223 39.4799 366.221 40.0031C365.218 40.5263 364.123 40.8464 362.996 40.945C359.982 41.202 359.036 38.3633 360.356 35.8167C361.524 33.4803 364.538 30.6299 367.365 31.5761C370.192 32.5224 370.578 35.7232 368.837 37.896Z" fill="#FFB573"/>
<path d="M288.057 320.75L303.103 324.371C303.103 324.371 312.799 273.123 317.296 244.934C318.663 236.372 321.712 224.526 325.403 211.875C330.076 195.941 335.719 178.745 340.31 165.299C345.158 151.129 348.791 141.106 348.791 141.106L316.934 136.819C316.934 136.819 292.659 211.337 289.972 239.093C287.075 267.983 288.057 320.75 288.057 320.75Z" fill="#263238"/>
<path opacity="0.2" d="M325.404 211.967C330.077 196.033 335.719 178.838 340.31 165.392L337.448 158.021C328.897 166.945 324.89 196.01 325.404 211.967Z" fill="#252525"/>
<path d="M334.118 139.225C334.118 139.225 332.541 217.575 334.691 244.28C337.027 273.484 358.966 333.319 358.966 333.319H375.718C375.718 333.319 364.538 278.589 361.115 250.191C357.213 217.832 365.391 143.442 365.391 143.442L334.118 139.225Z" fill="#263238"/>
<path d="M356.957 333.67H376.687V327.782L354.644 327.396L356.957 333.67Z" fill="#0B3C95"/>
<path d="M286.083 320.645L304.003 325.014L305.416 319.231L285.452 314.033L286.083 320.645Z" fill="#0B3C95"/>
<path d="M352.167 28.1302C352.074 28.8545 351.606 29.3919 351.127 29.2984C350.648 29.205 350.333 28.5858 350.438 27.8615C350.543 27.1373 350.999 26.5882 351.478 26.6934C351.957 26.7985 352.261 27.3943 352.167 28.1302Z" fill="#263238"/>
<path d="M343.908 27.0093C343.803 27.7453 343.335 28.2826 342.857 28.1775C342.378 28.0724 342.074 27.4649 342.179 26.729C342.284 25.993 342.74 25.4556 343.219 25.5608C343.698 25.6659 344.001 26.285 343.908 27.0093Z" fill="#263238"/>
<path d="M346.478 27.7334C345.311 29.8718 343.852 31.8376 342.144 33.5743C342.592 34.0064 343.13 34.3349 343.72 34.5367C344.309 34.7385 344.935 34.8088 345.555 34.7425L346.478 27.7334Z" fill="#ED893E"/>
<path d="M348.382 36.997C348.062 36.996 347.742 36.9726 347.424 36.9269C347.396 36.9241 347.368 36.9154 347.342 36.9013C347.317 36.8872 347.295 36.868 347.277 36.845C347.26 36.822 347.247 36.7956 347.24 36.7675C347.234 36.7393 347.233 36.7101 347.237 36.6816C347.242 36.6538 347.252 36.6271 347.266 36.6032C347.281 36.5792 347.3 36.5585 347.323 36.5421C347.346 36.5258 347.372 36.5142 347.399 36.5081C347.427 36.5019 347.455 36.5013 347.483 36.5063C348.39 36.6476 349.317 36.5731 350.19 36.2889C351.063 36.0048 351.856 35.519 352.506 34.8709C352.547 34.8323 352.601 34.8108 352.658 34.8108C352.714 34.8108 352.769 34.8323 352.81 34.8709C352.83 34.8905 352.847 34.9141 352.858 34.9402C352.869 34.9663 352.875 34.9944 352.875 35.0227C352.875 35.0511 352.869 35.0792 352.858 35.1053C352.847 35.1314 352.83 35.155 352.81 35.1746C352.234 35.7625 351.544 36.2271 350.783 36.5404C350.022 36.8537 349.205 37.009 348.382 36.997Z" fill="#263238"/>
<path d="M355.076 25.8053C354.999 25.8058 354.924 25.7854 354.858 25.7463C354.792 25.7072 354.738 25.6508 354.702 25.5833C354.446 25.1036 354.081 24.6903 353.637 24.376C353.193 24.0617 352.682 23.8551 352.144 23.7726C352.087 23.7696 352.031 23.7555 351.98 23.7309C351.929 23.7064 351.883 23.672 351.845 23.6297C351.807 23.5873 351.778 23.5379 351.759 23.4843C351.74 23.4306 351.732 23.3738 351.735 23.317C351.744 23.2034 351.796 23.0976 351.881 23.0215C351.966 22.9454 352.077 22.9048 352.191 22.9082C352.873 22.9965 353.524 23.246 354.091 23.636C354.658 24.026 355.124 24.5454 355.45 25.1511C355.479 25.2008 355.498 25.2558 355.505 25.3128C355.513 25.3699 355.509 25.4279 355.493 25.4833C355.478 25.5388 355.452 25.5907 355.416 25.636C355.381 25.6812 355.337 25.7189 355.286 25.7468C355.222 25.7822 355.15 25.8022 355.076 25.8053Z" fill="#263238"/>
<path d="M340.731 23.6915C340.644 23.6902 340.56 23.666 340.486 23.6214C340.391 23.5553 340.326 23.4548 340.304 23.3414C340.282 23.228 340.305 23.1105 340.369 23.0139C340.737 22.4337 341.239 21.9498 341.833 21.6023C342.426 21.2549 343.093 21.054 343.78 21.0164C343.894 21.0164 344.004 21.0619 344.085 21.143C344.167 21.224 344.212 21.3339 344.212 21.4486C344.212 21.5632 344.167 21.6732 344.085 21.7542C344.004 21.8353 343.894 21.8808 343.78 21.8808C343.235 21.9124 342.706 22.0755 342.238 22.3563C341.77 22.637 341.377 23.0271 341.093 23.4929C341.054 23.5536 341 23.6036 340.937 23.6383C340.874 23.6729 340.803 23.6912 340.731 23.6915Z" fill="#263238"/>
<path d="M362.471 346.228C361.847 346.275 361.226 346.11 360.707 345.761C360.541 345.619 360.414 345.437 360.336 345.233C360.259 345.029 360.234 344.809 360.263 344.593C360.262 344.465 360.296 344.34 360.362 344.23C360.428 344.121 360.523 344.032 360.637 343.974C361.641 343.46 364.597 345.27 364.924 345.481C364.962 345.502 364.993 345.535 365.012 345.575C365.031 345.615 365.037 345.659 365.029 345.703C365.021 345.745 365.002 345.783 364.973 345.814C364.944 345.845 364.907 345.867 364.865 345.878C364.083 346.084 363.28 346.202 362.471 346.228ZM361.116 344.336C361.023 344.315 360.928 344.315 360.835 344.336C360.79 344.362 360.754 344.399 360.729 344.445C360.704 344.49 360.692 344.541 360.695 344.593C360.673 344.737 360.688 344.885 360.739 345.022C360.79 345.16 360.875 345.281 360.987 345.376C362.009 345.844 363.171 345.902 364.235 345.539C363.283 344.94 362.223 344.531 361.116 344.336Z" fill="#0B3C95"/>
<path d="M364.819 345.9H364.714C363.768 345.386 361.934 343.377 362.132 342.396C362.162 342.235 362.247 342.09 362.373 341.985C362.499 341.881 362.658 341.823 362.821 341.823C362.986 341.805 363.153 341.821 363.311 341.869C363.47 341.917 363.617 341.997 363.744 342.104C364.807 342.98 365.018 345.608 365.029 345.725C365.032 345.764 365.025 345.802 365.009 345.837C364.992 345.872 364.967 345.902 364.936 345.924C364.895 345.927 364.855 345.919 364.819 345.9ZM362.973 342.197H362.868C362.588 342.197 362.564 342.361 362.553 342.419C362.436 343.027 363.604 344.534 364.55 345.246C364.486 344.204 364.108 343.206 363.464 342.384C363.329 342.264 363.154 342.197 362.973 342.197Z" fill="#0B3C95"/>
<path d="M288.735 333.857C287.228 333.798 284.6 333.53 283.829 332.42C283.719 332.259 283.649 332.075 283.625 331.882C283.601 331.689 283.622 331.493 283.689 331.31C283.723 331.195 283.786 331.09 283.871 331.006C283.957 330.923 284.063 330.862 284.179 330.831C285.406 330.481 288.525 333.167 288.852 333.483C288.882 333.515 288.903 333.555 288.913 333.598C288.924 333.641 288.923 333.686 288.91 333.728C288.895 333.763 288.87 333.793 288.84 333.815C288.809 333.838 288.773 333.852 288.735 333.857ZM284.355 331.228H284.261C284.216 331.24 284.175 331.263 284.142 331.296C284.109 331.329 284.086 331.37 284.074 331.415C284.03 331.536 284.015 331.666 284.031 331.794C284.047 331.923 284.094 332.045 284.168 332.151C284.6 332.77 286.037 333.214 288.081 333.319C286.831 332.373 285.079 331.17 284.355 331.228Z" fill="#0B3C95"/>
<path d="M288.735 333.857C288.686 333.875 288.632 333.875 288.583 333.857C287.625 333.11 285.978 330.668 286.375 329.71C286.48 329.477 286.714 329.231 287.31 329.313C287.524 329.338 287.731 329.408 287.916 329.518C288.102 329.629 288.261 329.778 288.384 329.956C289.296 331.124 288.945 333.612 288.933 333.717C288.926 333.754 288.909 333.789 288.885 333.817C288.86 333.846 288.829 333.868 288.793 333.881L288.735 333.857ZM287.018 329.699C286.831 329.699 286.796 329.804 286.784 329.839C286.539 330.423 287.613 332.28 288.548 333.203C288.686 332.167 288.511 331.113 288.046 330.178C287.953 330.048 287.835 329.938 287.698 329.856C287.561 329.774 287.409 329.72 287.251 329.699H287.018Z" fill="#0B3C95"/>
<path d="M383.919 75.6752C383.767 77.4041 383.603 78.8877 383.381 80.4648C383.159 82.0418 382.926 83.5722 382.669 85.1375C382.143 88.2332 381.5 91.3056 380.753 94.3662C380.005 97.4269 379.152 100.488 378.113 103.525C377.099 106.617 375.898 109.644 374.515 112.59L373.428 114.821L373.358 114.961L373.206 115.242L372.891 115.802C372.666 116.167 372.42 116.518 372.155 116.854C371.65 117.496 371.078 118.084 370.449 118.606C369.379 119.486 368.171 120.185 366.875 120.674C365.821 121.066 364.734 121.363 363.627 121.562C360.072 122.083 356.456 122.036 352.915 121.421C346.623 120.379 340.482 118.566 334.633 116.024L336.584 109.424C339.422 109.798 342.425 110.172 345.275 110.405C348.125 110.639 351.022 110.849 353.768 110.826C356.224 110.892 358.677 110.617 361.057 110.008C361.968 109.74 362.541 109.272 362.389 109.284C362.328 109.302 362.272 109.334 362.225 109.377L362.12 109.494L362.062 109.564V109.448L362.798 107.555C364.703 102.257 366.199 96.8207 367.272 91.2939C367.879 88.4785 368.358 85.6282 368.849 82.7895C369.09 81.3643 369.312 79.9391 369.515 78.5139L370.087 74.3318L383.919 75.6752Z" fill="#FFB573"/>
<path d="M385.601 70.2197C390.706 77.3106 384.807 99.1674 384.807 99.1674L360.812 99.9384C360.812 99.9384 362.763 85.5347 366.315 74.799C370.17 63.1171 379.398 61.6335 385.601 70.2197Z" fill="#0B3C95"/>
<path d="M337.705 109.693L329.282 105.791V117.473C329.282 117.473 337.191 119.213 338.569 115.137L337.705 109.693Z" fill="#FFB573"/>
<path d="M321.83 107.473L322.239 117.123L329.236 117.461L329.283 105.78L321.83 107.473Z" fill="#FFB573"/>
<path d="M289.412 184.107H66.1476C63.2367 184.057 60.4477 182.929 58.3202 180.942C56.1926 178.955 54.8775 176.249 54.6293 173.348L44.653 30.9694C44.5356 29.5911 44.7078 28.2035 45.1586 26.8957C45.6093 25.5879 46.3287 24.3889 47.2704 23.3756C48.2121 22.3624 49.3554 21.5574 50.6268 21.0123C51.8981 20.4671 53.2695 20.194 54.6527 20.2104H277.87C280.78 20.2631 283.568 21.3918 285.695 23.3786C287.822 25.3654 289.138 28.0696 289.388 30.9694L299.411 173.348C299.529 174.727 299.357 176.114 298.906 177.422C298.455 178.73 297.736 179.929 296.794 180.942C295.852 181.955 294.709 182.76 293.438 183.305C292.166 183.85 290.795 184.124 289.412 184.107Z" fill="#263238"/>
<path d="M353.278 300.306H101.708C95.0379 300.306 88.3091 295.995 86.7788 290.773L57.6442 191.758C56.3942 187.529 60.2376 184.106 66.1486 184.106H289.413C295.335 184.106 302.099 187.529 304.471 191.758L360.065 290.773C362.985 295.995 359.948 300.306 353.278 300.306Z" fill="#263238"/>
<path d="M292.099 184.107H68.8466C65.9349 184.06 63.1445 182.933 61.0164 180.945C58.8882 178.957 57.5739 176.25 57.3283 173.348L47.2935 30.9693C47.178 29.5914 47.3514 28.2045 47.8029 26.8975C48.2543 25.5905 48.9738 24.3922 49.9151 23.3794C50.8565 22.3665 51.999 21.5615 53.2695 21.0157C54.5401 20.47 55.9105 20.1957 57.2932 20.2103H280.557C283.468 20.2604 286.257 21.3881 288.385 23.3755C290.512 25.3628 291.827 28.0685 292.076 30.9693L302.11 173.348C302.226 174.727 302.052 176.115 301.6 177.423C301.148 178.73 300.428 179.929 299.485 180.942C298.542 181.955 297.398 182.76 296.126 183.305C294.854 183.85 293.483 184.123 292.099 184.107Z" fill="#0B3C95"/>
<path d="M70.669 175.146C69.5194 175.122 68.4192 174.675 67.5786 173.891C66.7381 173.106 66.2163 172.039 66.113 170.894L56.4288 33.4217C56.3831 32.878 56.4517 32.3308 56.63 31.8151C56.8084 31.2995 57.0926 30.8268 57.4644 30.4275C57.8362 30.0282 58.2874 29.711 58.789 29.4964C59.2907 29.2818 59.8317 29.1744 60.3772 29.1812H278.735C279.881 29.2078 280.977 29.6545 281.814 30.4364C282.652 31.2182 283.174 32.2807 283.279 33.4217L292.964 170.894C293.009 171.438 292.941 171.986 292.762 172.502C292.584 173.019 292.3 173.492 291.928 173.892C291.557 174.292 291.106 174.611 290.604 174.827C290.102 175.043 289.561 175.151 289.015 175.146H70.669Z" fill="white" fill-opacity="0.5"/>
<path opacity="0.2" d="M170.496 26.1495C171.11 25.5138 171.055 24.4642 170.373 23.8053C169.691 23.1464 168.64 23.1276 168.026 23.7633C167.412 24.399 167.467 25.4485 168.149 26.1074C168.831 26.7663 169.882 26.7852 170.496 26.1495Z" fill="#252525"/>
<path d="M355.975 300.306H104.394C97.7239 300.306 91.0068 295.995 89.4648 290.774L60.3302 191.758C59.0919 187.529 62.9236 184.106 68.8463 184.106H292.099C298.021 184.106 304.785 187.529 307.157 191.758L362.739 290.774C365.671 295.995 362.646 300.306 355.975 300.306Z" fill="#0B3C95"/>
<path opacity="0.2" d="M90.8431 247.423C88.3432 247.423 85.8316 245.881 85.2592 244.012L69.9092 193.534C69.3952 191.864 70.9021 190.497 73.2619 190.497H293.127C294.289 190.496 295.435 190.771 296.471 191.299C297.507 191.827 298.402 192.593 299.084 193.534L326.946 244.035C327.974 245.904 326.782 247.446 324.282 247.446L90.8431 247.423Z" fill="#252525"/>
<path opacity="0.2" d="M191.565 291.499C190.821 291.5 190.091 291.299 189.452 290.916C188.814 290.533 188.293 289.983 187.944 289.326L175.094 256.43C174.662 255.32 175.503 254.409 176.975 254.409H244.145C244.87 254.408 245.582 254.594 246.214 254.948C246.846 255.302 247.377 255.812 247.755 256.43L263.023 289.326C263.584 290.494 262.79 291.499 261.271 291.499H191.565Z" fill="#252525"/>
<path d="M64.9914 154.903L70.5053 143.968H88.7173L93.8457 151.865L98.974 159.751L94.9905 167.636L91.2056 175.147H91.6144L95.3176 167.811L99.3011 159.926H117.513L122.642 167.823L127.396 175.147H127.84L122.922 167.624L117.794 159.727L121.777 151.854L125.761 143.968H143.949L149.078 151.865L154.206 159.751L150.234 167.636L146.438 175.147H146.846L150.561 167.811L154.533 159.926H172.745L177.873 167.823L182.628 175.147H183.072L178.189 167.624L173.154 159.727L177.126 151.854L181.109 143.968H199.31L204.438 151.865L209.566 159.751L205.595 167.636L201.798 175.147H202.207L205.863 167.834L209.835 159.949H228.059L233.187 167.846L237.942 175.171H238.386L233.503 167.647L228.374 159.751L232.346 151.877L236.33 143.992H254.542L259.67 151.889L264.798 159.774L260.768 167.636L256.971 175.147H257.392L261.095 167.811L265.067 159.926H283.314L288.442 167.823L292.181 173.57L292.414 173.255L288.805 167.624L283.676 159.727L287.648 151.854L291.153 144.844V144.132L287.356 151.655L283.373 159.54H265.09L259.962 151.643L254.834 143.758L258.817 135.873L262.789 127.999H281.001L291.036 143.431L290.977 142.672L281.316 127.801L288.875 112.824V112.1L281.036 127.625H262.777L257.649 119.74L252.521 111.843L256.504 103.97L260.488 96.0843H278.688L288.805 111.656L288.746 110.897L279.015 95.909L286.632 80.8277V80.1151L278.735 95.7455H260.476L255.348 87.8485L250.254 79.9633L254.226 72.078L258.21 64.2044H276.422L286.585 79.8464V79.0871L276.772 64.0058L284.447 48.8194V48.1068L276.363 63.8656H258.163L253.035 55.9687L247.918 48.0484L251.89 40.1631L255.862 32.3246H274.074L279.202 40.2098L284.307 48.0834V47.3241L279.459 39.9879L274.331 32.0909L275.803 29.1821H275.394L274.015 31.9157H255.85L254.063 29.1821H253.63L255.535 32.1143L251.551 39.9996L247.579 47.8731H229.367L224.239 39.9879L219.11 32.0909L220.582 29.1821H220.174L218.783 31.9157H200.583L198.854 29.1821H198.422L200.326 32.1143L196.343 39.9996L192.371 47.8731H174.1L168.972 39.9879L163.808 32.0909L165.28 29.1821H164.872L163.481 31.9157H145.304L143.529 29.1821H143.085L145.001 32.1143L141.017 39.9996L137.045 47.8731H118.833L113.705 39.9879L108.577 32.0909L110.048 29.1821H109.628L108.249 31.9157H90.0374L88.2617 29.1821H87.8762L89.7921 32.1143L85.8085 39.9996L81.825 47.8731H63.5663L56.709 37.3594V38.1188L63.2041 48.1068L58.1225 58.1649L58.1809 58.8775L63.5312 48.282H81.7433L86.8599 56.1673L91.9883 64.0642L88.0164 71.9378L84.0329 79.8231H65.8676L60.7509 71.9261L58.9519 69.1575V69.9168L60.3888 72.1247L65.5171 80.01L61.5336 87.8953L60.3654 90.2317V90.9442L61.7906 88.1172L65.7741 80.2319H83.9745L89.1028 88.1289L94.2312 96.0142L90.2593 103.899L86.2758 111.773H68.1806L63.0522 103.888L61.1831 101.014V101.762L62.6901 104.098L67.8185 111.983L63.8349 119.857L62.6667 122.263V122.976L64.1503 120.032L68.1339 112.159H86.3342L91.4626 120.044L96.5909 127.941L92.6191 135.814L88.6356 143.7H70.4936L63.4261 132.789L63.4845 133.548L70.1899 143.863L64.9447 154.248L64.9914 154.903ZM143.949 143.606H125.761L120.586 135.709L115.469 127.824L119.441 119.939L123.424 112.065H141.625L146.753 119.95L151.881 127.847L147.909 135.721L143.949 143.606ZM223.386 95.7104H205.197L200.022 87.8485L194.894 79.9633L198.877 72.078L202.861 64.2044H221.061L226.19 72.0897L231.318 79.9749L227.346 87.8602L223.386 95.7104ZM223.386 96.0726L228.514 103.97L233.643 111.855L229.671 119.728L225.722 127.649H207.51L202.359 119.763L197.23 111.866L201.214 103.993L205.186 96.1076L223.386 96.0726ZM199.73 88.0121L204.859 95.8974L200.875 103.783L196.892 111.656H178.726L173.598 103.771L168.481 95.909L172.453 88.0355L176.437 80.1502H194.649L199.73 88.0121ZM178.411 111.89L174.427 119.763L170.455 127.649H152.243L147.115 119.763L141.987 111.866L145.97 103.993L149.942 96.1076H168.154L173.282 104.005L178.411 111.89ZM172.126 87.8602L168.142 95.7455H149.93L144.802 87.8485L139.674 79.9633L143.657 72.078L147.629 64.2044H165.841L170.969 72.0897L176.098 79.9749L172.126 87.8602ZM144.498 88.0471L149.615 95.9324L145.643 103.818L141.613 111.691H123.459L118.331 103.806L113.203 95.909L117.174 88.0355L121.158 80.1502H139.37L144.498 88.0471ZM176.74 151.678L172.768 159.564H154.556L149.428 151.667L144.3 143.781L148.283 135.896L152.255 128.023H170.467L175.595 135.908L180.724 143.805L176.74 151.678ZM199.24 143.606H181.039L175.911 135.709L170.818 127.824L174.789 119.939L178.773 112.065H196.985L202.113 119.95L207.23 127.847L203.258 135.721L199.24 143.606ZM231.949 151.678L227.977 159.564H209.823L204.695 151.667L199.567 143.781L203.55 135.896L207.522 128.023H225.722L230.851 135.908L235.979 143.805L231.949 151.678ZM257.345 119.939L262.474 127.836L258.49 135.709L254.507 143.594H236.306L231.178 135.698L226.05 127.812L230.021 119.927L234.005 112.053H252.217L257.345 119.939ZM255.009 88.0355L260.137 95.9207L256.154 103.806L252.182 111.68H233.993L228.865 103.794L223.737 95.8974L227.72 88.0238L231.692 80.1385H249.904L255.009 88.0355ZM229.309 48.2353H247.521L252.649 56.1205L257.778 64.0175L253.794 71.8911L249.822 79.7764H231.68L226.552 71.8794L221.424 63.9941L225.407 56.1089L229.309 48.2353ZM196.6 40.1514L200.583 32.2778H218.795L223.912 40.1631L229.04 48.0601L225.068 55.9336L221.05 63.8656H202.884L197.768 55.9687L192.639 48.0834L196.6 40.1514ZM174.1 48.2353H192.312L197.441 56.1205L202.569 64.0175L198.585 71.8911L194.614 79.7764H176.413L171.285 71.8794L166.145 64.0058L170.117 56.1205L174.1 48.2353ZM141.391 40.1514L145.374 32.2778H163.575L168.703 40.1631L173.832 48.0601L169.86 55.9336L165.829 63.8656H147.617L142.489 55.9687L137.361 48.0834L141.391 40.1514ZM118.892 48.2353H137.057L142.185 56.1205L147.314 64.0175L143.33 71.8911L139.347 79.7764H121.146L116.018 71.8794L110.89 63.9941L114.861 56.1089L118.892 48.2353ZM87.2688 55.922L82.1404 48.0367L86.124 40.1514L90.0958 32.2778H108.308L113.436 40.1631L118.565 48.0601L114.581 55.9336L110.609 63.8189H92.3504L87.2688 55.922ZM89.6052 87.8369L84.3717 79.9633L88.3552 72.078L92.327 64.2044H110.539L115.667 72.0897L120.796 79.9749L116.812 87.8602L112.84 95.7455H94.6634L89.6052 87.8369ZM91.9415 119.752L86.7081 111.866L90.6916 103.993L94.6634 96.1076H112.875L118.004 104.005L123.132 111.89L119.149 119.763L115.177 127.649H96.9764L91.9415 119.752ZM93.1097 135.884L97.0932 128.011H115.305L120.434 135.896L125.562 143.793L121.578 151.667L117.607 159.552H99.2894L94.1611 151.655L89.0444 143.781L93.1097 135.884Z" fill="#E0E0E0"/>
<path d="M72.5613 175.146L65.6689 164.528L65.7157 165.275L72.129 175.146H72.5613Z" fill="#E0E0E0"/>
<path d="M221.236 160.65H140.444C138.82 160.627 137.264 159.995 136.085 158.878C134.905 157.762 134.189 156.242 134.078 154.622L130.982 99.0395C130.931 98.2632 131.04 97.4847 131.303 96.7525C131.566 96.0204 131.978 95.3505 132.512 94.7847C133.046 94.2189 133.691 93.7694 134.407 93.4643C135.122 93.1593 135.893 93.0051 136.671 93.0117H217.486C219.109 93.0345 220.664 93.6672 221.842 94.7841C223.019 95.901 223.733 97.4202 223.841 99.0395L226.89 154.622C226.942 155.395 226.833 156.171 226.572 156.901C226.311 157.63 225.903 158.299 225.373 158.864C224.842 159.429 224.202 159.879 223.49 160.187C222.778 160.494 222.011 160.651 221.236 160.65Z" fill="#0B3C95"/>
<path opacity="0.2" d="M136.66 93.07C135.882 93.0635 135.112 93.2176 134.396 93.5227C133.68 93.8278 133.035 94.2773 132.501 94.8431C131.967 95.4089 131.556 96.0788 131.292 96.8109C131.029 97.543 130.92 98.3216 130.971 99.0979L134.067 154.68C134.178 156.301 134.895 157.82 136.074 158.937C137.254 160.053 138.81 160.686 140.434 160.708H180.83L177.068 93.07H136.66Z" fill="#252525"/>
<path opacity="0.2" d="M172.628 144.704L173.563 127.041C172.158 126.161 170.982 124.962 170.129 123.541C169.277 122.12 168.772 120.517 168.656 118.864C168.569 117.591 168.747 116.313 169.179 115.112C169.611 113.911 170.288 112.813 171.166 111.887C172.045 110.961 173.106 110.228 174.283 109.734C175.459 109.24 176.726 108.995 178.002 109.016C180.633 109.053 183.155 110.076 185.069 111.882C186.983 113.688 188.151 116.146 188.34 118.77C188.442 120.362 188.128 121.952 187.429 123.386C186.731 124.819 185.672 126.047 184.357 126.948L187.242 144.611L172.628 144.704Z" fill="#252525"/>
<path d="M186.822 118.77C186.675 116.532 185.688 114.432 184.059 112.89C182.431 111.348 180.28 110.477 178.037 110.453C176.962 110.44 175.897 110.651 174.908 111.071C173.919 111.491 173.028 112.111 172.29 112.892C171.553 113.674 170.985 114.599 170.623 115.611C170.261 116.623 170.112 117.698 170.187 118.77C170.288 120.33 170.8 121.835 171.67 123.133C172.539 124.431 173.736 125.477 175.14 126.165L174.252 143.127H185.466L182.698 126.165C184.027 125.463 185.124 124.391 185.856 123.079C186.588 121.766 186.923 120.27 186.822 118.77Z" fill="#9FBDFF"/>
<path d="M215.384 89.0275H204.695L204.041 77.4274C203.54 69.9407 200.237 62.9176 194.79 57.7566C189.343 52.5957 182.152 49.6756 174.649 49.5778C171.053 49.5423 167.488 50.2506 164.179 51.6581C160.869 53.0657 157.886 55.1421 155.417 57.7572C152.947 60.3722 151.045 63.4694 149.83 66.8544C148.615 70.2393 148.112 73.839 148.354 77.4274L148.996 89.0275H138.307L137.665 77.4274C137.326 72.4601 138.019 67.4765 139.699 62.7899C141.379 58.1032 144.011 53.8148 147.428 50.1942C150.846 46.5736 154.976 43.6992 159.558 41.7516C164.14 39.804 169.075 38.8254 174.054 38.8772C195.303 38.8772 213.55 56.1664 214.742 77.4274L215.384 89.0275Z" fill="#0B3C95"/>
</g>
<defs>
<clipPath id="clip0_226_33113">
<rect width="453" height="368.248" fill="white" transform="translate(0.390625)"/>
</clipPath>
</defs>
</svg>
