<svg width="542" height="405" viewBox="0 0 542 405" fill="none" xmlns="http://www.w3.org/2000/svg">
<g clip-path="url(#clip0_220_26565)">
<path d="M542 355.914H0V356.186H542V355.914Z" fill="#0F2C61"/>
<path d="M342.187 363.316H314.588V363.588H342.187V363.316Z" fill="#0F2C61"/>
<path d="M493.697 369.196H428.299V369.468H493.697V369.196Z" fill="#0F2C61"/>
<path d="M308.712 363.447H241.146V363.719H308.712V363.447Z" fill="#0F2C61"/>
<path d="M197.331 371.577H183.195V371.849H197.331V371.577Z" fill="#0F2C61"/>
<path d="M275.434 371.577H211.066V371.849H275.434V371.577Z" fill="#0F2C61"/>
<path d="M98.547 366.99H56.8672V367.262H98.547V366.99Z" fill="#0F2C61"/>
<path d="M256.918 307.437H47.5978C44.1832 307.437 41.4082 304.655 41.4082 301.231V6.20636C41.4082 2.78253 44.1832 0 47.5978 0H256.918C260.333 0 263.108 2.78253 263.108 6.20636V301.231C263.108 304.655 260.333 307.437 256.918 307.437ZM47.5978 0.271732C44.335 0.271732 41.6792 2.9347 41.6792 6.20636V301.231C41.6792 304.503 44.335 307.166 47.5978 307.166H256.918C260.181 307.166 262.837 304.503 262.837 301.231V6.20636C262.837 2.9347 260.181 0.271732 256.918 0.271732H47.5978Z" fill="white"/>
<path d="M491.389 307.437H282.069C278.654 307.437 275.879 304.655 275.879 301.231V6.20636C275.879 2.78253 278.654 0 282.069 0H491.389C494.804 0 497.579 2.78253 497.579 6.20636V301.231C497.579 304.655 494.804 307.437 491.389 307.437ZM282.069 0.271732C278.806 0.271732 276.15 2.9347 276.15 6.20636V301.231C276.15 304.503 278.806 307.166 282.069 307.166H491.389C494.652 307.166 497.308 304.503 497.308 301.231V6.20636C497.308 2.9347 494.652 0.271732 491.389 0.271732H282.069Z" fill="white"/>
<path d="M212.422 261.634H140.445L136.076 211.092H208.054L212.422 261.634Z" fill="#E6E6E6"/>
<path d="M216.151 261.634H144.173L139.805 211.092H211.782L216.151 261.634Z" fill="#F0F0F0"/>
<path d="M154.016 250.786L151.609 221.95H201.939L204.346 250.786H154.016Z" fill="#E1EBFF"/>
<path d="M228.606 261.634H220.162V355.903H228.606V261.634Z" fill="#E6E6E6"/>
<path d="M231.273 261.634H225.408V355.903H231.273V261.634Z" fill="#F0F0F0"/>
<path d="M149.529 272.047H231.273V261.645H149.529V272.047Z" fill="#F0F0F0"/>
<path d="M152.411 272.047H143.967V355.914H152.411V272.047Z" fill="#E6E6E6"/>
<path d="M155.077 272.047H149.213V355.914H155.077V272.047Z" fill="#F0F0F0"/>
<path d="M92.3037 272.047H83.8594V355.914H92.3037V272.047Z" fill="#E6E6E6"/>
<path d="M94.9699 272.047H89.1055V355.914H94.9699V272.047Z" fill="#F0F0F0"/>
<path d="M175.165 272.047H166.721V355.914H175.165V272.047Z" fill="#E6E6E6"/>
<path d="M177.821 272.047H171.957V355.914H177.821V272.047Z" fill="#F0F0F0"/>
<path d="M149.528 261.634H83.8594V272.036H149.528V261.634Z" fill="#E6E6E6"/>
<path d="M394.402 26.5859H140.389V168.386H394.402V26.5859Z" fill="#E0E0E0"/>
<path d="M408.353 26.5859H141.668V168.386H408.353V26.5859Z" fill="#F5F5F5"/>
<path d="M403.996 164.017V30.9551L146.026 30.9551V164.017L403.996 164.017Z" fill="#E1EBFF"/>
<path d="M250.48 164.017L299.184 30.9551H218.806L170.102 164.017H250.48Z" fill="#F5F5F5"/>
<path d="M327.844 164.017L376.548 30.9551H315.909L267.205 164.017H327.844Z" fill="#F5F5F5"/>
<path d="M131.144 238.396V241.026H129.464L128.087 261.634H107.664L106.288 241.026H104.607V238.396H131.144Z" fill="#E6E6E6"/>
<path d="M124.422 187.234C122.742 174.951 106.222 171.452 85.2466 170.995C65.2901 170.571 58.8945 163.484 58.8945 163.484C58.8945 163.484 58.9596 192.158 87.7181 202.538C115.024 212.396 126.103 199.527 124.422 187.234Z" fill="#E6E6E6"/>
<path d="M114.233 215.07C114.58 210.016 122.623 200.733 141.973 204.961C155.956 208.016 161.16 200.744 161.16 200.744C161.16 200.744 159.87 221.265 138.829 227.439C118.851 233.298 113.615 223.961 114.233 215.081V215.07Z" fill="#E6E6E6"/>
<path d="M118.645 246.134C118.861 246.134 119.067 246.047 119.219 245.873C120.618 244.21 119.479 240.232 117.886 234.722C115.848 227.657 113.311 218.852 115.458 212.472C116.672 208.864 118.168 205.69 119.62 202.614C122.655 196.179 125.279 190.614 123.089 184.81C122.948 184.419 122.515 184.223 122.124 184.375C121.734 184.516 121.55 184.951 121.691 185.343C123.653 190.56 121.279 195.592 118.265 201.983C116.867 204.951 115.273 208.32 114.038 212.005C111.74 218.842 114.352 227.885 116.444 235.156C117.68 239.439 118.959 243.874 118.07 244.928C117.799 245.243 117.842 245.71 118.157 245.982C118.298 246.102 118.471 246.156 118.634 246.156L118.645 246.134Z" fill="#E6E6E6"/>
<path d="M271.001 405C387.078 405 481.178 399.491 481.178 392.696C481.178 385.9 387.078 380.392 271.001 380.392C154.924 380.392 60.8242 385.9 60.8242 392.696C60.8242 399.491 154.924 405 271.001 405Z" fill="#174890"/>
<path d="M270.956 332.708H117.028L108.605 84.4863H262.533L270.956 332.708Z" fill="#0B3C95"/>
<path d="M278.641 325.002H124.713L116.279 76.7803H270.207L278.641 325.002Z" fill="#0B3C95"/>
<path opacity="0.3" d="M278.641 325.002H124.713L116.279 76.7803H270.207L278.641 325.002Z" fill="#E1EBFF"/>
<path d="M227.073 178.921C243.554 162.11 242.853 134.622 225.506 117.524C208.16 100.425 180.737 100.193 164.256 117.003C147.775 133.814 148.476 161.303 165.822 178.401C183.169 195.499 210.591 195.732 227.073 178.921Z" fill="#0B3C95"/>
<path d="M231.401 147.974C231.607 154.158 230.241 159.973 227.662 165.038C222.014 176.201 210.469 183.799 196.887 183.799C183.304 183.799 171.239 176.201 164.833 165.038C161.906 159.973 160.15 154.158 159.933 147.974C159.261 128.181 174.708 112.138 194.448 112.138C214.187 112.138 230.729 128.181 231.401 147.974Z" fill="#E1EBFF"/>
<path opacity="0.6" d="M227.663 165.039C222.015 176.202 210.47 183.8 196.888 183.8C183.305 183.8 171.24 176.202 164.834 165.039C173.625 159.018 184.303 155.496 195.923 155.496C207.544 155.496 218.459 159.018 227.663 165.039Z" fill="#0B3C95"/>
<path opacity="0.6" d="M206.802 147.078C212.862 140.896 212.604 130.789 206.226 124.501C199.848 118.214 189.764 118.129 183.704 124.31C177.643 130.492 177.901 140.6 184.28 146.887C190.658 153.174 200.742 153.26 206.802 147.078Z" fill="#0B3C95"/>
<path d="M247.715 235.113H149.526L148.865 215.548H247.054L247.715 235.113Z" fill="#E1EBFF"/>
<path d="M248.908 270.079H150.708L150.047 250.515H248.246L248.908 270.079Z" fill="#E1EBFF"/>
<path d="M211.011 253.21L187.347 256.439C186.372 256.569 185.732 257.46 185.916 258.406L189.027 274.308C189.212 275.253 190.155 275.927 191.13 275.786L214.794 272.558C215.77 272.427 216.409 271.547 216.225 270.59L213.114 254.689C212.93 253.743 211.987 253.069 211.011 253.21ZM204.214 269.319L199.933 269.906L199.499 264.775C198.588 264.373 197.927 263.558 197.743 262.601C197.439 261.047 198.491 259.602 200.073 259.395C201.656 259.178 203.195 260.265 203.499 261.819C203.683 262.775 203.369 263.721 202.653 264.341L204.203 269.319H204.214Z" fill="#0B3C95"/>
<path d="M208.669 252.351C207.802 252.471 206.967 251.884 206.805 251.036L206.501 249.482C205.666 245.199 201.58 241.96 197.157 242.352C192.431 242.765 189.266 246.949 190.144 251.471L190.49 253.253C190.653 254.101 190.089 254.873 189.222 254.993C188.355 255.112 187.52 254.525 187.358 253.677L187.065 252.156C185.894 246.188 189.645 240.449 195.705 239.384C202.078 238.276 208.366 242.58 209.58 248.797L209.927 250.58C210.089 251.427 209.526 252.199 208.658 252.319L208.669 252.351Z" fill="#0B3C95"/>
<path d="M232.701 297.481H168.777L168.344 284.742H232.267L232.701 297.481Z" fill="#0B3C95"/>
<path d="M201.861 225.331C201.926 227.309 200.387 228.907 198.414 228.907C196.441 228.907 194.794 227.309 194.729 225.331C194.664 223.353 196.203 221.755 198.176 221.755C200.149 221.755 201.796 223.353 201.861 225.331Z" fill="#263238"/>
<path d="M186.49 225.331C186.555 227.309 185.016 228.907 183.043 228.907C181.07 228.907 179.422 227.309 179.357 225.331C179.292 223.353 180.832 221.755 182.805 221.755C184.777 221.755 186.425 223.353 186.49 225.331Z" fill="#263238"/>
<path d="M171.131 225.331C171.196 227.309 169.656 228.907 167.683 228.907C165.711 228.907 164.063 227.309 163.998 225.331C163.933 223.352 165.472 221.755 167.445 221.755C169.418 221.755 171.066 223.352 171.131 225.331Z" fill="#263238"/>
<path d="M217.223 225.331C217.288 227.309 215.748 228.907 213.775 228.907C211.803 228.907 210.155 227.309 210.09 225.331C210.025 223.353 211.564 221.755 213.537 221.755C215.51 221.755 217.158 223.353 217.223 225.331Z" fill="#263238"/>
<path d="M232.582 225.331C232.647 227.309 231.108 228.907 229.135 228.907C227.162 228.907 225.514 227.309 225.449 225.331C225.384 223.353 226.924 221.755 228.896 221.755C230.869 221.755 232.517 223.353 232.582 225.331Z" fill="#263238"/>
<path d="M361.958 129.703C363.4 132.019 364.603 134.247 365.839 136.562C367.075 138.855 368.191 141.203 369.286 143.583C371.443 148.344 373.373 153.257 374.814 158.507C375.009 159.148 375.15 159.833 375.313 160.507L375.551 161.518L375.671 162.018L375.812 162.844C376.126 165.05 375.844 166.855 375.476 168.441C374.695 171.604 373.448 174.137 372.104 176.55C369.362 181.322 366.164 185.387 362.468 189.234L357.904 185.767C360.159 181.485 362.381 176.996 364.018 172.68C364.809 170.539 365.481 168.355 365.676 166.561C365.774 165.681 365.709 164.92 365.59 164.637L365.156 163.311C364.982 162.768 364.82 162.224 364.603 161.67C363.042 157.279 361.058 152.877 358.89 148.54C356.755 144.214 354.392 139.812 352.072 135.692L361.969 129.703H361.958Z" fill="#FF8B7B"/>
<path d="M359.063 184.202L354.088 186.854L359.811 193.571C359.811 193.571 363.389 191.148 363.54 187.452L359.063 184.213V184.202Z" fill="#FF8B7B"/>
<path d="M347.389 190.995L353.513 195.875L359.8 193.571L354.077 186.854L347.389 190.995Z" fill="#FF8B7B"/>
<path d="M326.447 94.1391C326.328 94.7478 325.905 95.1717 325.515 95.0847C325.125 95.0086 324.897 94.4543 325.027 93.8456C325.146 93.2369 325.569 92.813 325.959 92.9C326.349 92.9761 326.577 93.5304 326.447 94.1391Z" fill="#263238"/>
<path d="M325.959 95.1826C325.959 95.1826 323.878 98.3891 322.035 99.7695C322.902 100.987 324.799 100.9 324.799 100.9L325.959 95.1935V95.1826Z" fill="#FF5652"/>
<path d="M324.007 116.508L324.05 109.389L333.459 110.53C333.459 110.53 333.297 116.66 328.039 118.454L323.996 116.508H324.007Z" fill="#FF8B7B"/>
<path d="M326.717 104.247L333.341 106.16L333.46 110.519L324.051 109.377L326.717 104.247Z" fill="#FF8B7B"/>
<path opacity="0.2" d="M333.341 106.16L326.718 104.247L325.428 106.725C325.59 110.932 328.149 114.388 331.542 115.942C333.384 113.519 333.46 110.519 333.46 110.519L333.341 106.16Z" fill="#252525"/>
<path d="M329.331 91.2371C329.417 91.2371 329.504 91.2044 329.58 91.1392C329.732 91.0088 329.732 90.7697 329.602 90.6284C328.247 89.161 326.599 89.4219 326.534 89.4328C326.339 89.4654 326.209 89.6501 326.241 89.8458C326.274 90.0414 326.469 90.1719 326.653 90.1393C326.707 90.1393 327.997 89.9436 329.081 91.1175C329.157 91.1936 329.244 91.2371 329.342 91.2371H329.331Z" fill="#263238"/>
<path d="M343.183 105.139C342.088 110.736 341.427 118.486 345.33 122.214C345.33 122.214 343.801 127.888 333.438 127.888C322.045 127.888 327.953 122.91 327.953 122.91C332.69 121.432 332.647 116.03 331.563 111.682L343.172 105.139H343.183Z" fill="#FF8B7B"/>
<path d="M347.466 125.953C348.485 124.508 348.441 119.953 347.357 119.16C345.612 117.867 338.122 117.562 328.04 119.888C329.124 124.301 326.805 126.605 326.805 126.605L347.466 125.953Z" fill="#0B3C95"/>
<path d="M381.351 383.99C380.581 384.153 379.822 384.196 379.454 383.881C379.302 383.751 379.14 383.501 379.281 383.044C379.356 382.805 379.508 382.62 379.747 382.512C380.776 382.022 383.14 382.99 383.248 383.022C383.313 383.044 383.356 383.109 383.356 383.185C383.356 383.262 383.324 383.327 383.259 383.349C382.901 383.522 382.131 383.816 381.362 383.979L381.351 383.99ZM380.115 382.772C380.039 382.794 379.963 382.816 379.898 382.838C379.757 382.903 379.671 383.012 379.627 383.142C379.53 383.468 379.649 383.566 379.692 383.609C380.104 383.957 381.622 383.642 382.695 383.207C381.969 382.946 380.787 382.62 380.115 382.772Z" fill="#0B3C95"/>
<path d="M383.205 383.381C383.205 383.381 383.151 383.381 383.118 383.381C382.251 383.131 380.408 381.816 380.387 380.947C380.387 380.795 380.441 380.501 380.853 380.36C381.124 380.262 381.384 380.284 381.655 380.425C382.674 380.947 383.314 383.066 383.346 383.153C383.368 383.218 383.346 383.284 383.303 383.338C383.281 383.36 383.248 383.382 383.216 383.392L383.205 383.381ZM381.048 380.675C381.048 380.675 380.994 380.686 380.972 380.697C380.744 380.773 380.755 380.882 380.755 380.936C380.766 381.447 381.98 382.479 382.88 382.892C382.652 382.284 382.143 381.077 381.492 380.74C381.341 380.664 381.2 380.642 381.059 380.675H381.048Z" fill="#0B3C95"/>
<path d="M325.047 385.273C324.072 385.273 323.129 385.142 322.804 384.697C322.695 384.545 322.608 384.284 322.814 383.903C322.934 383.697 323.129 383.555 323.389 383.479C324.657 383.132 327.324 384.653 327.432 384.718C327.497 384.751 327.53 384.827 327.519 384.903C327.508 384.979 327.454 385.034 327.378 385.055C326.89 385.153 325.947 385.273 325.037 385.273H325.047ZM323.833 383.795C323.703 383.795 323.584 383.805 323.487 383.838C323.324 383.882 323.205 383.968 323.129 384.088C322.999 384.316 323.053 384.425 323.096 384.49C323.454 384.979 325.384 385.001 326.793 384.795C326.088 384.436 324.722 383.795 323.833 383.795Z" fill="#0B3C95"/>
<path d="M327.357 385.066C327.357 385.066 327.303 385.066 327.281 385.055C326.36 384.642 324.538 382.99 324.679 382.12C324.712 381.914 324.853 381.664 325.351 381.61C325.72 381.577 326.056 381.675 326.349 381.925C327.313 382.718 327.519 384.783 327.53 384.87C327.53 384.936 327.509 385.001 327.454 385.033C327.422 385.055 327.389 385.066 327.346 385.066H327.357ZM325.492 381.968C325.492 381.968 325.417 381.968 325.384 381.968C325.059 382.001 325.037 382.131 325.037 382.175C324.95 382.697 326.197 383.99 327.129 384.555C327.032 383.957 326.761 382.718 326.121 382.197C325.926 382.033 325.72 381.957 325.492 381.957V381.968Z" fill="#0B3C95"/>
<path d="M335.737 384.881H328.116L327.357 367.175H334.978L335.737 384.881Z" fill="#FF8B7B"/>
<path d="M391.703 381.349L384.245 382.969L376.766 366.469L384.224 364.86L391.703 381.349Z" fill="#FF8B7B"/>
<path d="M383.531 382.218L391.899 380.403C392.203 380.337 392.517 380.49 392.647 380.772L395.552 387.098C395.856 387.75 395.455 388.522 394.75 388.663C391.813 389.25 390.36 389.381 386.674 390.185C384.409 390.674 379.292 391.924 376.17 392.609C373.114 393.272 371.964 390.272 373.189 389.718C378.664 387.207 380.94 385 382.425 382.946C382.696 382.577 383.086 382.316 383.531 382.229V382.218Z" fill="#263238"/>
<path d="M328.171 384.001H336.496C336.81 384.001 337.081 384.218 337.146 384.523L338.653 391.316C338.805 392.022 338.273 392.686 337.558 392.675C334.555 392.62 330.219 392.446 326.436 392.446C322.024 392.446 318.209 392.686 313.038 392.686C309.905 392.686 309.038 389.512 310.35 389.229C316.312 387.925 321.19 387.783 326.339 384.599C326.902 384.251 327.52 384.001 328.171 384.001Z" fill="#263238"/>
<path d="M358.988 123.942C366.131 125.584 372.028 143.877 372.028 143.877L357.676 154.844C357.676 154.844 352.408 149.866 350.066 140.714C347.606 131.127 351.681 122.258 358.988 123.942Z" fill="#0B3C95"/>
<path opacity="0.4" d="M358.988 123.942C366.131 125.584 372.028 143.877 372.028 143.877L357.676 154.844C357.676 154.844 352.408 149.866 350.066 140.714C347.606 131.127 351.681 122.258 358.988 123.942Z" fill="#252525"/>
<path d="M321.406 145.768C319.617 147.703 317.839 149.41 316.007 151.181C315.097 152.062 314.154 152.92 313.2 153.768L311.758 155.029L311.4 155.344C311.227 155.496 311.01 155.67 310.783 155.855C310.306 156.214 309.785 156.616 308.69 157.094C308.116 157.322 307.368 157.616 306.056 157.638C305.438 157.638 304.593 157.54 303.78 157.236C302.956 156.931 302.154 156.399 301.612 155.855C300.474 154.714 300.138 153.714 299.91 153.04C299.704 152.344 299.639 151.855 299.596 151.42C299.531 150.573 299.574 150.007 299.617 149.475C299.672 148.953 299.737 148.497 299.823 148.073C300.138 146.399 300.593 145.04 301.081 143.692C301.579 142.355 302.121 141.062 302.761 139.769C303.444 138.388 304.116 137.377 304.777 136.225C307.455 131.736 310.598 127.638 313.937 123.769C317.352 119.932 320.929 116.421 325.048 113.204L329.037 117.324C326.23 121.084 323.476 125.117 320.929 129.084C318.381 133.084 316.029 137.16 313.991 141.312C313.525 142.334 312.951 143.453 312.625 144.312C312.246 145.247 311.899 146.258 311.606 147.247C311.325 148.225 311.097 149.247 310.989 149.997C310.967 150.181 310.956 150.334 310.956 150.431C310.956 150.518 310.978 150.562 310.956 150.334C310.945 150.203 310.934 150.018 310.815 149.627C310.685 149.247 310.479 148.529 309.568 147.605C309.124 147.171 308.463 146.714 307.78 146.475C307.119 146.214 306.425 146.138 305.959 146.138C304.951 146.16 304.506 146.366 304.214 146.475C303.682 146.703 303.672 146.768 303.672 146.747L304.083 146.366L305.384 145.171L307.975 142.736C309.688 141.116 311.411 139.388 313.048 137.78L321.395 145.801L321.406 145.768Z" fill="#FF8B7B"/>
<path opacity="0.2" d="M352.863 137.398C356.743 141.246 358.012 148.268 358.315 154.365L357.686 154.854C357.686 154.854 352.418 149.865 350.066 140.724C349.925 140.148 349.795 139.583 349.697 139.018L352.873 137.409L352.863 137.398Z" fill="#252525"/>
<path d="M313.829 131.605C312.268 139.866 311.292 156.822 315.824 190.419H356.604C356.885 184.136 352.951 153.518 358.988 123.942C358.988 123.942 351.997 122.54 345.341 122.214C340.127 121.964 332.582 121.801 328.008 122.214C326.1 122.388 324.214 122.671 322.544 122.964C318.132 123.747 314.664 127.192 313.84 131.605H313.829Z" fill="#0B3C95"/>
<path opacity="0.4" d="M313.829 131.605C312.268 139.866 311.292 156.822 315.824 190.419H356.604C356.885 184.136 352.951 153.518 358.988 123.942C358.988 123.942 351.997 122.54 345.341 122.214C340.127 121.964 332.582 121.801 328.008 122.214C326.1 122.388 324.214 122.671 322.544 122.964C318.132 123.747 314.664 127.192 313.84 131.605H313.829Z" fill="#252525"/>
<path opacity="0.2" d="M320.073 143.812L312.702 142.04C312.474 146.518 312.453 152.062 312.789 158.92C316.182 155.051 320.507 149.018 320.073 143.812Z" fill="#252525"/>
<path opacity="0.2" d="M327.357 367.186L327.748 376.316H335.379L334.989 367.186H327.357Z" fill="#252525"/>
<path opacity="0.2" d="M384.224 364.86L376.766 366.48L380.625 374.98L388.083 373.36L384.224 364.86Z" fill="#252525"/>
<path d="M346.803 96.9537C344.841 104.28 344.072 108.671 339.562 111.714C332.776 116.301 324.332 111.04 324.061 103.269C323.823 96.2798 327.064 85.4649 334.912 83.9866C342.641 82.5302 348.765 89.6169 346.803 96.9428V96.9537Z" fill="#FF8B7B"/>
<path d="M329.698 97.2367C329.34 96.2584 327.649 88.6825 329.232 86.7152C330.814 84.7479 348.863 86.1609 351.53 88.7912C355.952 93.1607 352.885 97.0628 348.039 102.084C344.397 105.867 344.256 110.128 342.413 110.758C339.194 111.856 334.196 110.823 333.188 107.378C332.191 103.932 329.687 97.2367 329.687 97.2367H329.698Z" fill="#263238"/>
<path d="M349.341 80.1828C342.957 77.4546 331 80.4763 324.55 78.9111C324.323 82.2697 326.339 87.6392 332.8 89.0848C332.8 89.0848 341.97 90.8782 349.06 90.5847C356.149 90.2913 354.772 82.4871 349.352 80.1828H349.341Z" fill="#263238"/>
<path d="M350.338 89.0308C350.338 89.0308 354.284 89.4764 357.08 87.7373C358.273 90.6285 351.725 91.422 350.338 89.0308Z" fill="#263238"/>
<path d="M333.167 97.5415C333.048 99.5306 332.126 101.389 331.021 102.617C329.362 104.454 327.628 103.313 327.324 101.074C327.064 99.0632 327.606 95.6829 329.633 94.6721C331.639 93.6721 333.286 95.2807 333.156 97.5524L333.167 97.5415Z" fill="#FF8B7B"/>
<path d="M330.284 190.419C330.284 190.419 338.935 248.841 343.683 270.732C348.886 294.699 376.777 374.001 376.777 374.001L390.425 371.034C390.425 371.034 370.923 306.405 366.555 272.895C363.205 247.157 356.593 190.408 356.593 190.408H330.273L330.284 190.419Z" fill="#0B3C95"/>
<path d="M373.515 369.436C373.46 369.447 376.062 374.381 376.062 374.381L391.422 371.044L390.132 366.414L373.525 369.425L373.515 369.436Z" fill="#263238"/>
<path opacity="0.3" d="M335.759 211.233C345.764 213.201 344.702 250.613 343.498 269.851C340.615 256.254 336.387 230.081 333.504 211.505C334.165 211.168 334.913 211.07 335.759 211.233Z" fill="#252525"/>
<path d="M315.812 190.419C315.812 190.419 314.761 247.58 315.595 270.895C316.463 295.144 324.907 374.544 324.907 374.544H337.828C337.828 374.544 338.305 296.557 338.88 272.743C339.509 246.776 342.63 190.419 342.63 190.419H315.823H315.812Z" fill="#0B3C95"/>
<path d="M322.425 369.382C322.371 369.382 323.151 374.762 323.151 374.762H338.858L339.281 369.969L322.414 369.393L322.425 369.382Z" fill="#263238"/>
<path d="M329.807 134.116C333.46 143.996 311.986 155.637 311.986 155.637L302.686 143.648C302.686 143.648 308.886 131.268 316.507 125.692C325.916 118.801 327.032 126.605 329.807 134.127V134.116Z" fill="#0B3C95"/>
<path opacity="0.4" d="M329.807 134.116C333.46 143.996 311.986 155.637 311.986 155.637L302.686 143.648C302.686 143.648 308.886 131.268 316.507 125.692C325.916 118.801 327.032 126.605 329.807 134.127V134.116Z" fill="#252525"/>
<path d="M413.946 59.1071C435.552 59.1071 453.067 47.9145 453.067 34.1077C453.067 20.301 435.552 9.1084 413.946 9.1084C392.34 9.1084 374.824 20.301 374.824 34.1077C374.824 47.9145 392.34 59.1071 413.946 59.1071Z" fill="#0B3C95"/>
<path d="M399.833 46.6947C397.665 46.6947 395.54 46.0426 393.697 44.7817C391.226 43.097 389.589 40.5319 389.068 37.5754C388.093 31.9125 391.843 26.2822 397.426 24.9997C402.022 23.9562 406.694 25.9235 409.155 29.9126L434.271 24.7171C436.309 24.2932 438.369 25.5105 438.878 27.4344C439.149 28.4561 438.987 29.5104 438.434 30.4017C437.881 31.293 437.014 31.9016 435.984 32.119L435.323 32.2603C435.128 32.3038 434.965 32.4234 434.867 32.5973C434.77 32.7712 434.759 32.9777 434.824 33.1625L435.269 34.3146C435.572 35.0972 435.29 35.9776 434.596 36.4015C434.065 36.7385 433.697 37.3145 433.621 37.9341C433.534 38.7058 433.025 39.2928 432.32 39.4449L431.8 39.5536C431.095 39.6949 430.391 39.358 430.011 38.6841C429.556 37.9015 428.656 37.4993 427.767 37.6841C426.878 37.8689 426.206 38.5971 426.098 39.4993C426 40.271 425.491 40.8579 424.786 41.0101L424.277 41.1188C423.583 41.2601 422.868 40.9231 422.488 40.2493C422.174 39.7058 421.61 39.3145 420.981 39.2275C420.179 39.108 419.572 38.4123 419.54 37.5754L419.485 36.3363C419.485 36.1407 419.388 35.9559 419.225 35.8363C419.074 35.7168 418.878 35.6624 418.672 35.7059L410.673 37.358C409.99 41.9014 406.575 45.5426 402.055 46.4773C401.307 46.6295 400.559 46.7056 399.811 46.7056L399.833 46.6947ZM397.665 26.0648C392.635 27.2061 389.264 32.2929 390.142 37.3906C390.597 40.0536 392.082 42.3688 394.304 43.8905C396.526 45.4122 399.215 45.9556 401.849 45.4013C406.044 44.5317 409.177 41.0862 409.664 36.8254L409.708 36.4341L418.477 34.619C418.987 34.5103 419.507 34.6407 419.919 34.9559C420.331 35.2711 420.569 35.7494 420.591 36.2711L420.645 37.5102C420.656 37.8254 420.884 38.0863 421.166 38.1297C422.13 38.271 422.965 38.8362 423.453 39.684C423.572 39.8906 423.8 40.0862 424.092 40.0319L424.602 39.9232C424.884 39.8688 425.025 39.5862 425.046 39.3471C425.209 37.9776 426.228 36.8798 427.572 36.5972C428.916 36.3146 430.282 36.9341 430.965 38.1189C431.084 38.3254 431.312 38.5319 431.605 38.4667L432.125 38.358C432.407 38.3037 432.548 38.0211 432.569 37.7928C432.678 36.8254 433.22 35.9776 434.044 35.4559C434.282 35.3037 434.38 34.9668 434.271 34.6842L433.827 33.532C433.642 33.0538 433.675 32.5103 433.924 32.0538C434.174 31.5973 434.607 31.2821 435.106 31.1734L435.767 31.0321C436.504 30.8799 437.122 30.4452 437.512 29.8147C437.903 29.1735 438.022 28.4235 437.827 27.6952C437.469 26.3257 435.973 25.467 434.488 25.7714L408.613 31.1299L408.418 30.793C406.25 26.9996 401.936 25.0866 397.665 26.0648ZM399.843 42.684C398.499 42.684 397.188 42.2927 396.039 41.5318C394.488 40.5101 393.426 38.9449 393.058 37.1189C392.678 35.2929 393.036 33.4342 394.055 31.8799C395.074 30.3256 396.635 29.2713 398.456 28.8909C400.277 28.5104 402.131 28.8691 403.681 29.8908C405.231 30.9125 406.282 32.4777 406.662 34.3038C407.041 36.1298 406.683 37.9776 405.664 39.5319C404.646 41.0862 403.085 42.1514 401.263 42.5209C400.797 42.6188 400.32 42.6622 399.843 42.6622V42.684ZM399.876 29.8474C399.475 29.8474 399.074 29.8908 398.673 29.9669C397.144 30.2821 395.822 31.1843 394.965 32.4886C394.109 33.8038 393.805 35.3689 394.12 36.9015C394.434 38.4341 395.334 39.7601 396.635 40.6188C397.946 41.4775 399.507 41.7818 401.036 41.4666C402.575 41.1514 403.887 40.2493 404.743 38.9449C405.599 37.6298 405.903 36.0646 405.589 34.532C405.274 32.9886 404.375 31.6734 403.074 30.8039C402.109 30.1626 401.003 29.8365 399.876 29.8365V29.8474Z" fill="#E1EBFF"/>
<path opacity="0.6" d="M382.108 73.7693C389.208 73.7693 394.964 70.0904 394.964 65.5521C394.964 61.0139 389.208 57.335 382.108 57.335C375.008 57.335 369.252 61.0139 369.252 65.5521C369.252 70.0904 375.008 73.7693 382.108 73.7693Z" fill="#0B3C95"/>
<path opacity="0.3" d="M361.654 77.1286C364.57 77.1286 366.933 75.62 366.933 73.7591C366.933 71.8982 364.57 70.3896 361.654 70.3896C358.739 70.3896 356.375 71.8982 356.375 73.7591C356.375 75.62 358.739 77.1286 361.654 77.1286Z" fill="#0B3C95"/>
</g>
<defs>
<clipPath id="clip0_220_26565">
<rect width="542" height="405" fill="white"/>
</clipPath>
</defs>
</svg>
