<svg width="49" height="49" viewBox="0 0 49 49" fill="none" xmlns="http://www.w3.org/2000/svg">
<g id="Icon" clip-path="url(#clip0_540_16531)">
<g id="Clip path group">
<mask id="mask0_540_16531" style="mask-type:luminance" maskUnits="userSpaceOnUse" x="0" y="0" width="49" height="49">
<g id="__lottie_element_70">
<path id="Vector" d="M48.171 0.0253906H0.09375V48.1026H48.171V0.0253906Z" fill="white"/>
</g>
</mask>
<g mask="url(#mask0_540_16531)">
<g id="Group">
<g id="Group_2">
<g id="Group_3">
<path id="Vector_2" d="M12.3164 26.0517V7.33203H35.8547V26.0517" stroke="white" stroke-width="1.53847" stroke-linecap="round" stroke-linejoin="round"/>
</g>
</g>
</g>
<g id="Group_4">
<g id="Group_5">
<g id="Group_6">
<path id="Vector_3" d="M26.5439 19.6162C26.5439 21.4847 25.3972 22.8838 24.0244 22.8838C22.6516 22.8838 21.4375 21.5042 21.4375 19.6357C21.4375 17.7674 22.719 16.5225 24.0918 16.5225C25.4646 16.5225 26.5439 17.7479 26.5439 19.6162Z" stroke="white" stroke-width="1.53847" stroke-linecap="round" stroke-linejoin="round"/>
</g>
<g id="Group_7">
<path id="Vector_4" d="M24.3282 26.839C20.9918 26.7467 17.9497 24.557 17.0463 21.1222C16.0036 17.1576 18.2698 13.2451 22.1902 12.0472C25.9797 10.8893 30.0995 12.7826 31.3477 16.9186C31.7894 18.5735 31.5316 20.0131 30.9463 21.4849C30.7142 22.0684 29.9488 23.4345 28.2463 23.4345C27.3167 23.4345 26.5418 22.5437 26.5469 21.5177L26.5806 16.087" stroke="white" stroke-width="1.53847" stroke-linecap="round" stroke-linejoin="round"/>
</g>
</g>
</g>
</g>
</g>
<g id="Group_8">
<g id="Group_9">
<g id="Group_10">
<path id="Vector_5" d="M21.186 31.3906L7.88281 40.47" stroke="white" stroke-width="1.53847" stroke-linecap="round" stroke-linejoin="round"/>
</g>
<g id="Group_11">
<path id="Vector_6" d="M27.7188 31.4004L40.364 40.3135" stroke="white" stroke-width="1.53847" stroke-linecap="round" stroke-linejoin="round"/>
</g>
<g id="Group_12">
<path id="Vector_7" d="M40.6685 23.5508L40.5663 40.4884L7.6875 40.5544V23.5508L24.178 33.1303L40.6685 23.5508Z" stroke="white" stroke-width="1.53847" stroke-linecap="round" stroke-linejoin="round"/>
</g>
<g id="Group_13">
<path id="Vector_8" d="M7.6875 23.5507L23.9857 16.2236" stroke="white" stroke-width="1.53847" stroke-linecap="round" stroke-linejoin="round"/>
</g>
<g id="Group_14">
<path id="Vector_9" d="M40.6683 23.5506L24.2148 16.1914" stroke="white" stroke-width="1.53847" stroke-linecap="round" stroke-linejoin="round"/>
</g>
</g>
</g>
</g>
<defs>
<clipPath id="clip0_540_16531">
<rect width="48.0772" height="48.0772" fill="white" transform="translate(0.09375 0.0253906)"/>
</clipPath>
</defs>
</svg>
