<svg width="21" height="20" viewBox="0 0 21 20" fill="none" xmlns="http://www.w3.org/2000/svg">
<path d="M12.6083 7.8916L8.39166 12.1083C7.85 11.5666 7.51666 10.8249 7.51666 9.99993C7.51666 8.34993 8.85 7.0166 10.5 7.0166C11.325 7.0166 12.0667 7.34994 12.6083 7.8916Z" stroke="#0B3C95" stroke-width="1.25" stroke-linecap="round" stroke-linejoin="round"/>
<path d="M15.3501 4.8084C13.8917 3.7084 12.2251 3.1084 10.5001 3.1084C7.55839 3.1084 4.81672 4.84173 2.90839 7.84173C2.15839 9.01673 2.15839 10.9917 2.90839 12.1667C3.56672 13.2001 4.33339 14.0917 5.16672 14.8084" stroke="#0B3C95" stroke-width="1.25" stroke-linecap="round" stroke-linejoin="round"/>
<path d="M7.51666 16.2751C8.46666 16.6751 9.475 16.8917 10.5 16.8917C13.4417 16.8917 16.1833 15.1584 18.0917 12.1584C18.8417 10.9834 18.8417 9.0084 18.0917 7.8334C17.8167 7.40006 17.5167 6.99173 17.2083 6.6084" stroke="#0B3C95" stroke-width="1.25" stroke-linecap="round" stroke-linejoin="round"/>
<path d="M13.425 10.5833C13.2083 11.7583 12.25 12.7166 11.075 12.9333" stroke="#0B3C95" stroke-width="1.25" stroke-linecap="round" stroke-linejoin="round"/>
<path d="M8.39169 12.1084L2.16669 18.3334" stroke="#0B3C95" stroke-width="1.25" stroke-linecap="round" stroke-linejoin="round"/>
<path d="M18.8333 1.66675L12.6083 7.89175" stroke="#0B3C95" stroke-width="1.25" stroke-linecap="round" stroke-linejoin="round"/>
</svg>
