<svg width="8" height="15" viewBox="0 0 8 15" fill="none" xmlns="http://www.w3.org/2000/svg">
<path d="M7.36369 6.18421H6.13641H5.6981V5.72581V4.30475V3.84635H6.13641H7.05687C7.29795 3.84635 7.49519 3.66299 7.49519 3.38795V0.958404C7.49519 0.706282 7.31986 0.5 7.05687 0.5H5.45702C3.72568 0.5 2.52031 1.78353 2.52031 3.68591V5.67997V6.13837H2.082H0.591725C0.284905 6.13837 0 6.39049 0 6.75722V8.40747C0 8.72835 0.241073 9.02632 0.591725 9.02632H2.03816H2.47648V9.48472V14.0917C2.47648 14.4126 2.71755 14.7105 3.06821 14.7105H5.12829C5.25978 14.7105 5.36936 14.6418 5.45702 14.5501C5.54469 14.4584 5.61043 14.298 5.61043 14.1604V9.50764V9.04924H6.07066H7.05687C7.34178 9.04924 7.56093 8.86588 7.60477 8.59083V8.56791V8.54499L7.91159 6.9635C7.9335 6.80306 7.91159 6.6197 7.78009 6.43633C7.73626 6.32173 7.53902 6.20713 7.36369 6.18421Z" fill="#DDDDDD"/>
</svg>
