<svg width="1440" height="491" viewBox="0 0 1440 491" fill="none" xmlns="http://www.w3.org/2000/svg">
<g clip-path="url(#clip0_1958_28416)">
<ellipse cx="55.0003" cy="349.75" rx="364" ry="364" transform="rotate(-45 55.0003 349.75)" fill="url(#paint0_linear_1958_28416)"/>
<ellipse cx="1312.34" cy="471.715" rx="199.017" ry="199.017" transform="rotate(-75 1312.34 471.715)" fill="url(#paint1_linear_1958_28416)"/>
<path d="M1380.93 40.9442C1381.96 40.9442 1382.8 41.7804 1382.8 42.8119C1382.8 43.8433 1381.96 44.6795 1380.93 44.6795C1379.9 44.6795 1379.07 43.8433 1379.07 42.8119C1379.07 41.7804 1379.9 40.9442 1380.93 40.9442Z" fill="white" fill-opacity="0.5"/>
<path d="M1380.93 24.5097C1381.96 24.5097 1382.8 25.3459 1382.8 26.3774C1382.8 27.4088 1381.96 28.245 1380.93 28.245C1379.9 28.245 1379.07 27.4088 1379.07 26.3774C1379.07 25.3459 1379.9 24.5097 1380.93 24.5097Z" fill="white" fill-opacity="0.5"/>
<path d="M1380.93 8.07457C1381.96 8.07457 1382.8 8.91073 1382.8 9.9422C1382.8 10.9737 1381.96 11.8098 1380.93 11.8098C1379.9 11.8098 1379.07 10.9737 1379.07 9.9422C1379.07 8.91073 1379.9 8.07457 1380.93 8.07457Z" fill="white" fill-opacity="0.5"/>
<path d="M1396.9 40.9449C1397.93 40.9449 1398.77 41.7811 1398.77 42.8125C1398.77 43.844 1397.93 44.6802 1396.9 44.6802C1395.87 44.6802 1395.04 43.844 1395.04 42.8125C1395.04 41.7811 1395.87 40.9449 1396.9 40.9449Z" fill="white" fill-opacity="0.5"/>
<path d="M1413.33 40.9449C1414.36 40.9449 1415.2 41.7811 1415.2 42.8125C1415.2 43.844 1414.36 44.6802 1413.33 44.6802C1412.3 44.6802 1411.46 43.844 1411.46 42.8125C1411.46 41.7811 1412.3 40.9449 1413.33 40.9449Z" fill="white" fill-opacity="0.5"/>
<path d="M1429.76 40.9449C1430.79 40.9449 1431.62 41.7811 1431.62 42.8125C1431.62 43.844 1430.79 44.6802 1429.76 44.6802C1428.73 44.6802 1427.89 43.844 1427.89 42.8125C1427.89 41.7811 1428.73 40.9449 1429.76 40.9449Z" fill="white" fill-opacity="0.5"/>
<path d="M1396.9 24.5097C1397.93 24.5097 1398.77 25.3459 1398.77 26.3774C1398.77 27.4088 1397.93 28.245 1396.9 28.245C1395.87 28.245 1395.04 27.4088 1395.04 26.3774C1395.04 25.3459 1395.87 24.5097 1396.9 24.5097Z" fill="white" fill-opacity="0.5"/>
<path d="M1413.33 24.5097C1414.36 24.5097 1415.2 25.3459 1415.2 26.3774C1415.2 27.4088 1414.36 28.245 1413.33 28.245C1412.3 28.245 1411.46 27.4088 1411.46 26.3774C1411.46 25.3459 1412.3 24.5097 1413.33 24.5097Z" fill="white" fill-opacity="0.5"/>
<path d="M1429.76 24.5097C1430.79 24.5097 1431.62 25.3459 1431.62 26.3774C1431.62 27.4088 1430.79 28.245 1429.76 28.245C1428.73 28.245 1427.89 27.4088 1427.89 26.3774C1427.89 25.3459 1428.73 24.5097 1429.76 24.5097Z" fill="white" fill-opacity="0.5"/>
<path d="M1396.9 8.07423C1397.93 8.07423 1398.77 8.91041 1398.77 9.94188C1398.77 10.9733 1397.93 11.8095 1396.9 11.8095C1395.87 11.8095 1395.04 10.9733 1395.04 9.94188C1395.04 8.91041 1395.87 8.07423 1396.9 8.07423Z" fill="white" fill-opacity="0.5"/>
<path d="M1413.33 8.07422C1414.36 8.07422 1415.2 8.91041 1415.2 9.94188C1415.2 10.9733 1414.36 11.8095 1413.33 11.8095C1412.3 11.8095 1411.46 10.9733 1411.46 9.94188C1411.46 8.91041 1412.3 8.07422 1413.33 8.07422Z" fill="white" fill-opacity="0.5"/>
<path d="M1429.76 8.07422C1430.79 8.07422 1431.62 8.91041 1431.62 9.94188C1431.62 10.9733 1430.79 11.8095 1429.76 11.8095C1428.73 11.8095 1427.89 10.9733 1427.89 9.94188C1427.89 8.91041 1428.73 8.07422 1429.76 8.07422Z" fill="white" fill-opacity="0.5"/>
<path d="M1380.93 89.9518C1381.96 89.9518 1382.8 90.788 1382.8 91.8195C1382.8 92.8509 1381.96 93.6871 1380.93 93.6871C1379.9 93.6871 1379.07 92.8509 1379.07 91.8195C1379.07 90.788 1379.9 89.9518 1380.93 89.9518Z" fill="white" fill-opacity="0.5"/>
<path d="M1380.93 73.5166C1381.96 73.5166 1382.8 74.3528 1382.8 75.3843C1382.8 76.4158 1381.96 77.2519 1380.93 77.2519C1379.9 77.2519 1379.07 76.4158 1379.07 75.3843C1379.07 74.3528 1379.9 73.5166 1380.93 73.5166Z" fill="white" fill-opacity="0.5"/>
<path d="M1380.93 106.014C1381.96 106.014 1382.8 106.85 1382.8 107.882C1382.8 108.913 1381.96 109.749 1380.93 109.749C1379.9 109.749 1379.07 108.913 1379.07 107.882C1379.07 106.85 1379.9 106.014 1380.93 106.014Z" fill="white" fill-opacity="0.5"/>
<path d="M1380.93 57.0818C1381.96 57.0818 1382.8 57.918 1382.8 58.9495C1382.8 59.9809 1381.96 60.8171 1380.93 60.8171C1379.9 60.8171 1379.07 59.9809 1379.07 58.9495C1379.07 57.918 1379.9 57.0818 1380.93 57.0818Z" fill="white" fill-opacity="0.5"/>
<path d="M1396.9 89.9521C1397.93 89.9521 1398.77 90.7883 1398.77 91.8198C1398.77 92.8513 1397.93 93.6874 1396.9 93.6874C1395.87 93.6874 1395.04 92.8513 1395.04 91.8198C1395.04 90.7883 1395.87 89.9521 1396.9 89.9521Z" fill="white" fill-opacity="0.5"/>
<path d="M1413.33 89.9521C1414.36 89.9521 1415.2 90.7883 1415.2 91.8198C1415.2 92.8513 1414.36 93.6874 1413.33 93.6874C1412.3 93.6874 1411.46 92.8513 1411.46 91.8198C1411.46 90.7883 1412.3 89.9521 1413.33 89.9521Z" fill="white" fill-opacity="0.5"/>
<path d="M1429.76 89.9521C1430.79 89.9521 1431.62 90.7883 1431.62 91.8198C1431.62 92.8512 1430.79 93.6874 1429.76 93.6874C1428.73 93.6874 1427.89 92.8512 1427.89 91.8198C1427.89 90.7883 1428.73 89.9521 1429.76 89.9521Z" fill="white" fill-opacity="0.5"/>
<path d="M1396.9 73.5166C1397.93 73.5166 1398.77 74.3528 1398.77 75.3843C1398.77 76.4158 1397.93 77.2519 1396.9 77.2519C1395.87 77.2519 1395.04 76.4158 1395.04 75.3843C1395.04 74.3528 1395.87 73.5166 1396.9 73.5166Z" fill="white" fill-opacity="0.5"/>
<path d="M1413.33 73.517C1414.36 73.517 1415.2 74.3531 1415.2 75.3846C1415.2 76.4161 1414.36 77.2522 1413.33 77.2522C1412.3 77.2522 1411.46 76.4161 1411.46 75.3846C1411.46 74.3531 1412.3 73.517 1413.33 73.517Z" fill="white" fill-opacity="0.5"/>
<path d="M1429.76 73.517C1430.79 73.517 1431.62 74.3531 1431.62 75.3846C1431.62 76.4161 1430.79 77.2522 1429.76 77.2522C1428.73 77.2522 1427.89 76.4161 1427.89 75.3846C1427.89 74.3531 1428.73 73.517 1429.76 73.517Z" fill="white" fill-opacity="0.5"/>
<path d="M1396.9 106.014C1397.93 106.014 1398.77 106.85 1398.77 107.881C1398.77 108.913 1397.93 109.749 1396.9 109.749C1395.87 109.749 1395.04 108.913 1395.04 107.881C1395.04 106.85 1395.87 106.014 1396.9 106.014Z" fill="white" fill-opacity="0.5"/>
<path d="M1396.9 57.0815C1397.93 57.0815 1398.77 57.9176 1398.77 58.9491C1398.77 59.9806 1397.93 60.8168 1396.9 60.8168C1395.87 60.8168 1395.04 59.9806 1395.04 58.9491C1395.04 57.9176 1395.87 57.0815 1396.9 57.0815Z" fill="white" fill-opacity="0.5"/>
<path d="M1413.33 106.014C1414.36 106.014 1415.2 106.85 1415.2 107.881C1415.2 108.913 1414.36 109.749 1413.33 109.749C1412.3 109.749 1411.46 108.913 1411.46 107.881C1411.46 106.85 1412.3 106.014 1413.33 106.014Z" fill="white" fill-opacity="0.5"/>
<path d="M1413.33 57.0815C1414.36 57.0815 1415.2 57.9176 1415.2 58.9491C1415.2 59.9806 1414.36 60.8168 1413.33 60.8168C1412.3 60.8168 1411.46 59.9806 1411.46 58.9491C1411.46 57.9176 1412.3 57.0815 1413.33 57.0815Z" fill="white" fill-opacity="0.5"/>
<path d="M1429.76 106.014C1430.79 106.014 1431.62 106.85 1431.62 107.881C1431.62 108.913 1430.79 109.749 1429.76 109.749C1428.73 109.749 1427.89 108.913 1427.89 107.881C1427.89 106.85 1428.73 106.014 1429.76 106.014Z" fill="white" fill-opacity="0.5"/>
<path d="M1429.76 57.0815C1430.79 57.0815 1431.62 57.9176 1431.62 58.9491C1431.62 59.9806 1430.79 60.8168 1429.76 60.8168C1428.73 60.8168 1427.89 59.9806 1427.89 58.9491C1427.89 57.9176 1428.73 57.0815 1429.76 57.0815Z" fill="white" fill-opacity="0.5"/>
</g>
<defs>
<linearGradient id="paint0_linear_1958_28416" x1="55.0003" y1="-14.25" x2="55.0003" y2="713.75" gradientUnits="userSpaceOnUse">
<stop stop-color="#13C296" stop-opacity="0.4"/>
<stop offset="1" stop-opacity="0"/>
</linearGradient>
<linearGradient id="paint1_linear_1958_28416" x1="1312.34" y1="272.698" x2="1312.34" y2="670.732" gradientUnits="userSpaceOnUse">
<stop stop-color="#3056D3" stop-opacity="0.32"/>
<stop offset="1" stop-opacity="0"/>
</linearGradient>
<clipPath id="clip0_1958_28416">
<rect width="1440" height="491" fill="white"/>
</clipPath>
</defs>
</svg>
