<svg width="33" height="32" viewBox="0 0 33 32" fill="none" xmlns="http://www.w3.org/2000/svg">
<path d="M12.4987 14.3333C10.472 14.3333 8.83203 12.6933 8.83203 10.6667C8.83203 8.64 10.472 7 12.4987 7C14.5254 7 16.1654 8.64 16.1654 10.6667C16.1654 12.6933 14.5254 14.3333 12.4987 14.3333ZM12.4987 9C11.5787 9 10.832 9.74667 10.832 10.6667C10.832 11.5867 11.5787 12.3333 12.4987 12.3333C13.4187 12.3333 14.1654 11.5867 14.1654 10.6667C14.1654 9.74667 13.4187 9 12.4987 9Z" fill="#0B3C95"/>
<path d="M20.5013 30.3332H12.5013C5.2613 30.3332 2.16797 27.2398 2.16797 19.9998V11.9998C2.16797 4.75984 5.2613 1.6665 12.5013 1.6665H17.8346C18.3813 1.6665 18.8346 2.11984 18.8346 2.6665C18.8346 3.21317 18.3813 3.6665 17.8346 3.6665H12.5013C6.35464 3.6665 4.16797 5.85317 4.16797 11.9998V19.9998C4.16797 26.1465 6.35464 28.3332 12.5013 28.3332H20.5013C26.648 28.3332 28.8346 26.1465 28.8346 19.9998V13.3332C28.8346 12.7865 29.288 12.3332 29.8346 12.3332C30.3813 12.3332 30.8346 12.7865 30.8346 13.3332V19.9998C30.8346 27.2398 27.7413 30.3332 20.5013 30.3332Z" fill="#0B3C95"/>
<path d="M24.5 11.6665C24.3667 11.6665 24.2467 11.6398 24.1133 11.5865C23.74 11.4398 23.5 11.0665 23.5 10.6665V2.6665C23.5 2.11984 23.9533 1.6665 24.5 1.6665C25.0467 1.6665 25.5 2.11984 25.5 2.6665V8.25317L26.46 7.29317C26.8467 6.9065 27.4867 6.9065 27.8733 7.29317C28.26 7.67984 28.26 8.31984 27.8733 8.7065L25.2067 11.3732C25.02 11.5598 24.7667 11.6665 24.5 11.6665Z" fill="#0B3C95"/>
<path d="M24.5032 11.6668C24.2498 11.6668 23.9965 11.5734 23.7965 11.3734L21.1298 8.70675C20.7432 8.32009 20.7432 7.68008 21.1298 7.29342C21.5165 6.90675 22.1565 6.90675 22.5432 7.29342L25.2098 9.96008C25.5965 10.3468 25.5965 10.9868 25.2098 11.3734C25.0098 11.5734 24.7565 11.6668 24.5032 11.6668Z" fill="#0B3C95"/>
<path d="M4.05839 26.2666C3.73839 26.2666 3.41839 26.1066 3.23173 25.8266C2.92506 25.3732 3.04506 24.7466 3.51173 24.4399L10.0851 20.0266C11.5251 19.0532 13.5117 19.1732 14.8184 20.2799L15.2584 20.6666C15.9251 21.2399 17.0584 21.2399 17.7117 20.6666L23.2584 15.9066C24.6717 14.6932 26.8984 14.6932 28.3251 15.9066L30.4984 17.7732C30.9117 18.1332 30.9651 18.7599 30.6051 19.1866C30.2451 19.5999 29.6184 19.6532 29.1917 19.2932L27.0184 17.4266C26.3517 16.8532 25.2184 16.8532 24.5517 17.4266L19.0051 22.1866C17.5917 23.3999 15.3651 23.3999 13.9384 22.1866L13.4984 21.7999C12.8851 21.2799 11.8717 21.2266 11.1917 21.6932L4.61839 26.1066C4.44506 26.2132 4.24506 26.2666 4.05839 26.2666Z" fill="#0B3C95"/>
</svg>
