<svg width="34" height="34" viewBox="0 0 34 34" fill="none" xmlns="http://www.w3.org/2000/svg">
<path d="M8.31656 19.9555L7.25078 23.9386L3.35539 24.0211C2.19124 21.8595 1.53091 19.3863 1.53091 16.7581C1.53091 14.2166 2.1483 11.82 3.24266 9.70972H3.2435L6.71149 10.3462L8.23069 13.7973C7.91272 14.7253 7.73942 15.7215 7.73942 16.7581C7.73954 17.8831 7.9431 18.961 8.31656 19.9555Z" fill="#FBBB00"/>
<path d="M31.8817 13.8943C32.0575 14.8214 32.1492 15.7789 32.1492 16.7574C32.1492 17.8547 32.0339 18.925 31.8144 19.9574C31.0692 23.4706 29.1218 26.5384 26.4243 28.7093L26.4234 28.7085L22.0553 28.4853L21.4371 24.6218C23.2271 23.5708 24.6259 21.9262 25.3628 19.9574H17.1766V13.8943H25.4822H31.8817Z" fill="#518EF8"/>
<path d="M26.4234 28.7087L26.4242 28.7095C23.8007 30.8206 20.4679 32.0838 16.84 32.0838C11.01 32.0838 5.94115 28.8215 3.35541 24.0207L8.31658 19.9551C9.60942 23.4093 12.9379 25.8683 16.84 25.8683C18.5173 25.8683 20.0886 25.4144 21.437 24.622L26.4234 28.7087Z" fill="#28B446"/>
<path d="M26.6119 4.95977L21.6524 9.02456C20.2569 8.15132 18.6073 7.64688 16.8401 7.64688C12.8496 7.64688 9.4589 10.2186 8.23082 13.7967L3.24357 9.70921H3.24274C5.79063 4.79136 10.9234 1.4314 16.8401 1.4314C20.5547 1.4314 23.9605 2.75603 26.6119 4.95977Z" fill="#F14336"/>
</svg>
