<svg width="30" height="30" viewBox="0 0 30 30" fill="none" xmlns="http://www.w3.org/2000/svg">
<g id="vuesax/bold/graph">
<g id="graph">
<path id="Vector" d="M27.0877 8.68775C26.2877 5.97525 24.0252 3.71275 21.3127 2.91275C19.2502 2.31275 17.8252 2.36275 16.8377 3.10025C15.6502 3.98775 15.5127 5.58775 15.5127 6.72525V9.83775C15.5127 12.9127 16.9127 14.4752 19.6627 14.4752H23.2502C24.3752 14.4752 25.9877 14.3377 26.8752 13.1502C27.6377 12.1752 27.7002 10.7502 27.0877 8.68775Z" fill="#0B3C95"/>
<path id="Vector_2" d="M23.6382 16.7004C23.3132 16.3254 22.8382 16.1129 22.3507 16.1129H17.8757C15.6757 16.1129 13.8882 14.3254 13.8882 12.1254V7.65043C13.8882 7.16293 13.6757 6.68793 13.3007 6.36293C12.9382 6.03793 12.4382 5.88793 11.9632 5.95043C9.02573 6.32543 6.32573 7.93793 4.56323 10.3629C2.78823 12.8004 2.13823 15.7754 2.70073 18.7504C3.51323 23.0504 6.95073 26.4879 11.2632 27.3004C11.9507 27.4379 12.6382 27.5004 13.3257 27.5004C15.5882 27.5004 17.7757 26.8004 19.6382 25.4379C22.0632 23.6754 23.6757 20.9754 24.0507 18.0379C24.1132 17.5504 23.9632 17.0629 23.6382 16.7004Z" fill="#0B3C95"/>
</g>
</g>
</svg>
