<svg width="31" height="30" viewBox="0 0 31 30" fill="none" xmlns="http://www.w3.org/2000/svg">
<path d="M15.5 2.5C8.6 2.5 3 8.1 3 15C3 21.9 8.6 27.5 15.5 27.5C22.4 27.5 28 21.9 28 15C28 8.1 22.4 2.5 15.5 2.5ZM15.9125 21.25C15.6875 21.325 15.3 21.325 15.075 21.25C13.125 20.5875 8.75 17.8 8.75 13.075C8.75 10.9875 10.425 9.3 12.5 9.3C13.725 9.3 14.8125 9.8875 15.5 10.8125C16.175 9.9 17.275 9.3 18.5 9.3C20.575 9.3 22.25 10.9875 22.25 13.075C22.25 17.8 17.875 20.5875 15.9125 21.25Z" fill="#0B3C95"/>
</svg>
