<svg width="15" height="15" viewBox="0 0 15 15" fill="none" xmlns="http://www.w3.org/2000/svg">
<path d="M7.56694 9.91464C9.01914 9.91464 10.1964 8.741 10.1964 7.29326C10.1964 5.84551 9.01914 4.67188 7.56694 4.67188C6.11474 4.67188 4.9375 5.84551 4.9375 7.29326C4.9375 8.741 6.11474 9.91464 7.56694 9.91464Z" fill="#DDDDDD"/>
<path d="M10.4252 0.289062H4.66769C2.37827 0.289062 0.519531 2.14211 0.519531 4.42452V10.1192C0.519531 12.4468 2.37827 14.2999 4.66769 14.2999H10.3799C12.7147 14.2999 14.5734 12.4468 14.5734 10.1644V4.42452C14.5734 2.14211 12.7147 0.289062 10.4252 0.289062ZM7.56913 10.7294C5.64239 10.7294 4.12367 9.17012 4.12367 7.29448C4.12367 5.41884 5.66506 3.85957 7.56913 3.85957C9.45054 3.85957 10.9919 5.41884 10.9919 7.29448C10.9919 9.17012 9.47321 10.7294 7.56913 10.7294ZM12.3293 4.17594C12.1026 4.42452 11.7626 4.56011 11.3773 4.56011C11.0373 4.56011 10.6973 4.42452 10.4252 4.17594C10.1759 3.92736 10.0399 3.61099 10.0399 3.22682C10.0399 2.84265 10.1759 2.54887 10.4252 2.2777C10.6746 2.00652 10.9919 1.87093 11.3773 1.87093C11.7173 1.87093 12.08 2.00652 12.3293 2.2551C12.556 2.54887 12.7147 2.88785 12.7147 3.24942C12.692 3.61099 12.556 3.92736 12.3293 4.17594Z" fill="#DDDDDD"/>
<path d="M11.3995 2.68359C11.1048 2.68359 10.8555 2.93217 10.8555 3.22595C10.8555 3.51972 11.1048 3.7683 11.3995 3.7683C11.6942 3.7683 11.9435 3.51972 11.9435 3.22595C11.9435 2.93217 11.7168 2.68359 11.3995 2.68359Z" fill="#DDDDDD"/>
</svg>
