<svg width="19" height="18" viewBox="0 0 19 18" fill="none" xmlns="http://www.w3.org/2000/svg">
<g clip-path="url(#clip0_540_16440)">
<path d="M9.5 12C10.8807 12 12 10.8807 12 9.5C12 8.11929 10.8807 7 9.5 7C8.11929 7 7 8.11929 7 9.5C7 10.8807 8.11929 12 9.5 12Z" fill="#0B3C95"/>
<path d="M12.8271 1.86133H6.08011C4.9421 1.86318 3.85124 2.31607 3.04655 3.12076C2.24185 3.92546 1.78896 5.01632 1.78711 6.15433V12.9013C1.78896 14.0393 2.24185 15.1302 3.04655 15.9349C3.85124 16.7396 4.9421 17.1925 6.08011 17.1943H12.8271C13.9651 17.1925 15.056 16.7396 15.8607 15.9349C16.6654 15.1302 17.1183 14.0393 17.1201 12.9013V6.15433C17.1183 5.01632 16.6654 3.92546 15.8607 3.12076C15.056 2.31607 13.9651 1.86318 12.8271 1.86133ZM9.45411 13.2083C8.72627 13.2083 8.01478 12.9925 7.40961 12.5881C6.80444 12.1838 6.33276 11.609 6.05423 10.9366C5.7757 10.2642 5.70282 9.52424 5.84482 8.81039C5.98681 8.09654 6.3373 7.44083 6.85196 6.92617C7.36661 6.41152 8.02233 6.06103 8.73618 5.91904C9.45003 5.77704 10.19 5.84992 10.8624 6.12845C11.5348 6.40698 12.1096 6.87866 12.5139 7.48383C12.9183 8.089 13.1341 8.80049 13.1341 9.52833C13.1341 10.5043 12.7464 11.4403 12.0563 12.1305C11.3661 12.8206 10.4301 13.2083 9.45411 13.2083ZM13.4401 6.46133C13.2582 6.46133 13.0803 6.40737 12.929 6.30628C12.7777 6.20519 12.6598 6.06151 12.5901 5.8934C12.5205 5.72529 12.5023 5.54031 12.5378 5.36185C12.5733 5.18338 12.6609 5.01945 12.7896 4.89079C12.9182 4.76212 13.0822 4.6745 13.2606 4.63901C13.4391 4.60351 13.6241 4.62173 13.7922 4.69136C13.9603 4.76099 14.104 4.87891 14.2051 5.0302C14.3062 5.1815 14.3601 5.35937 14.3601 5.54133C14.3601 5.66214 14.3363 5.78178 14.2901 5.8934C14.2438 6.00502 14.1761 6.10644 14.0906 6.19187C14.0052 6.2773 13.9038 6.34506 13.7922 6.3913C13.6806 6.43753 13.5609 6.46133 13.4401 6.46133Z" fill="#0B3C95"/>
</g>
<defs>
<clipPath id="clip0_540_16440">
<rect width="19" height="18" fill="white"/>
</clipPath>
</defs>
</svg>
