<svg width="30" height="30" viewBox="0 0 30 30" fill="none" xmlns="http://www.w3.org/2000/svg">
<g id="vuesax/bold/like-shapes">
<g id="like-shapes">
<path id="Vector" d="M26.9496 13.4242L25.2496 11.4492C24.9246 11.0742 24.6621 10.3742 24.6621 9.87422V7.74922C24.6621 6.42422 23.5746 5.33672 22.2496 5.33672H20.1246C19.6371 5.33672 18.9246 5.07422 18.5496 4.74922L16.5746 3.04922C15.7121 2.31172 14.2996 2.31172 13.4246 3.04922L11.4621 4.76172C11.0871 5.07422 10.3746 5.33672 9.88711 5.33672H7.72461C6.39961 5.33672 5.31211 6.42422 5.31211 7.74922V9.88672C5.31211 10.3742 5.04961 11.0742 4.73711 11.4492L3.04961 13.4367C2.32461 14.2992 2.32461 15.6992 3.04961 16.5617L4.73711 18.5492C5.04961 18.9242 5.31211 19.6242 5.31211 20.1117V22.2492C5.31211 23.5742 6.39961 24.6617 7.72461 24.6617H9.88711C10.3746 24.6617 11.0871 24.9242 11.4621 25.2492L13.4371 26.9492C14.2996 27.6867 15.7121 27.6867 16.5871 26.9492L18.5621 25.2492C18.9371 24.9242 19.6371 24.6617 20.1371 24.6617H22.2621C23.5871 24.6617 24.6746 23.5742 24.6746 22.2492V20.1242C24.6746 19.6367 24.9371 18.9242 25.2621 18.5492L26.9621 16.5742C27.6871 15.7117 27.6871 14.2867 26.9496 13.4242ZM20.8496 14.9992L19.3871 19.4492C19.1996 20.1867 18.4121 20.7867 17.6121 20.7867H15.2996C14.8996 20.7867 14.3371 20.6492 14.0871 20.3992L12.2496 18.9617C12.2121 19.7617 11.8496 20.0992 10.9621 20.0992H10.3621C9.43711 20.0992 9.06211 19.7367 9.06211 18.8617V12.8867C9.06211 12.0117 9.43711 11.6492 10.3621 11.6492H10.9746C11.8996 11.6492 12.2746 12.0117 12.2746 12.8867V13.3367L14.6996 9.73672C14.9496 9.34922 15.5871 9.07422 16.1246 9.28672C16.7121 9.48672 17.0871 10.1367 16.9621 10.7117L16.6621 12.6617C16.6371 12.8367 16.6746 12.9992 16.7871 13.1242C16.8871 13.2367 17.0371 13.3117 17.1996 13.3117H19.6371C20.1121 13.3117 20.5121 13.4992 20.7496 13.8367C20.9621 14.1617 20.9996 14.5742 20.8496 14.9992Z" fill="#0B3C95"/>
</g>
</g>
</svg>
