<svg width="30" height="30" viewBox="0 0 30 30" fill="none" xmlns="http://www.w3.org/2000/svg">
<g id="vuesax/bold/like-tag">
<g id="like-tag">
<path id="Vector" d="M22.5 2.5H7.5C5.425 2.5 3.75 4.1625 3.75 6.2125V19.85C3.75 21.9 5.425 23.5625 7.5 23.5625H8.45C9.45 23.5625 10.4 23.95 11.1 24.65L13.2375 26.7625C14.2125 27.725 15.8 27.725 16.775 26.7625L18.9125 24.65C19.6125 23.95 20.575 23.5625 21.5625 23.5625H22.5C24.575 23.5625 26.25 21.9 26.25 19.85V6.2125C26.25 4.1625 24.575 2.5 22.5 2.5ZM20.85 13.125L19.3875 17.575C19.2 18.3125 18.4125 18.9125 17.6125 18.9125H15.3C14.9 18.9125 14.3375 18.775 14.0875 18.525L12.25 17.0875C12.2125 17.8875 11.85 18.225 10.9625 18.225H10.3625C9.4375 18.225 9.0625 17.8625 9.0625 16.9875V11.025C9.0625 10.15 9.4375 9.7875 10.3625 9.7875H10.975C11.9 9.7875 12.275 10.15 12.275 11.025V11.475L14.7 7.875C14.95 7.4875 15.5875 7.2125 16.125 7.425C16.7125 7.625 17.0875 8.275 16.9625 8.85L16.6625 10.8C16.625 10.9625 16.6625 11.1375 16.775 11.25C16.875 11.3625 17.025 11.4375 17.1875 11.4375H19.625C20.1 11.4375 20.5 11.625 20.7375 11.9625C20.9625 12.2875 21 12.7 20.85 13.125Z" fill="#0B3C95"/>
</g>
</g>
</svg>
