<svg width="31" height="30" viewBox="0 0 31 30" fill="none" xmlns="http://www.w3.org/2000/svg">
<g id="vuesax/bold/like-tag">
<g id="like-tag">
<path id="Vector" d="M23 2.5H8C5.925 2.5 4.25 4.1625 4.25 6.2125V19.85C4.25 21.9 5.925 23.5625 8 23.5625H8.95C9.95 23.5625 10.9 23.95 11.6 24.65L13.7375 26.7625C14.7125 27.725 16.3 27.725 17.275 26.7625L19.4125 24.65C20.1125 23.95 21.075 23.5625 22.0625 23.5625H23C25.075 23.5625 26.75 21.9 26.75 19.85V6.2125C26.75 4.1625 25.075 2.5 23 2.5ZM21.35 13.125L19.8875 17.575C19.7 18.3125 18.9125 18.9125 18.1125 18.9125H15.8C15.4 18.9125 14.8375 18.775 14.5875 18.525L12.75 17.0875C12.7125 17.8875 12.35 18.225 11.4625 18.225H10.8625C9.9375 18.225 9.5625 17.8625 9.5625 16.9875V11.025C9.5625 10.15 9.9375 9.7875 10.8625 9.7875H11.475C12.4 9.7875 12.775 10.15 12.775 11.025V11.475L15.2 7.875C15.45 7.4875 16.0875 7.2125 16.625 7.425C17.2125 7.625 17.5875 8.275 17.4625 8.85L17.1625 10.8C17.125 10.9625 17.1625 11.1375 17.275 11.25C17.375 11.3625 17.525 11.4375 17.6875 11.4375H20.125C20.6 11.4375 21 11.625 21.2375 11.9625C21.4625 12.2875 21.5 12.7 21.35 13.125Z" fill="#0B3C95"/>
</g>
</g>
</svg>
