<svg width="15" height="14" viewBox="0 0 15 14" fill="none" xmlns="http://www.w3.org/2000/svg">
<g id="linkedin" clip-path="url(#clip0_540_16445)">
<g id="Group 170">
<path id="Path 1759" d="M1.80201 3.2711H1.77886C1.55495 3.29107 1.32932 3.26462 1.1161 3.1934C0.902878 3.12218 0.706646 3.00773 0.539679 2.85721C0.372713 2.70668 0.238605 2.52332 0.145743 2.3186C0.0528823 2.11387 0.0032666 1.89218 0 1.66741C0.0044912 1.43886 0.0563634 1.21374 0.152335 1.00627C0.248307 0.798807 0.38629 0.613516 0.557556 0.462121C0.728822 0.310726 0.929644 0.196521 1.14732 0.126731C1.36499 0.0569404 1.59478 0.0330833 1.82215 0.0566688C2.04798 0.0345183 2.27595 0.0594179 2.49168 0.129797C2.70741 0.200175 2.9062 0.314505 3.07553 0.465571C3.24485 0.616637 3.38102 0.80116 3.47545 1.0075C3.56988 1.21383 3.62051 1.4375 3.62416 1.66439C3.61972 1.89278 3.56785 2.11776 3.47184 2.32504C3.37582 2.53232 3.23776 2.71737 3.06642 2.86846C2.89508 3.01954 2.6942 3.13335 2.47653 3.20266C2.25887 3.27198 2.02917 3.29528 1.80201 3.2711Z" fill="#0B3C95"/>
<path id="Path 1760" d="M3.62097 1.66434C3.62128 1.40011 3.55436 1.14014 3.4265 0.9089C3.29864 0.677662 3.11405 0.482757 2.89009 0.342527C2.79334 0.328866 2.69585 0.321133 2.59815 0.319373C2.37111 0.29581 2.14165 0.319552 1.92425 0.3891C1.70685 0.458649 1.50622 0.572495 1.33501 0.723459C1.16381 0.874422 1.02574 1.05923 0.929529 1.26621C0.833316 1.4732 0.781041 1.69788 0.776001 1.92608C0.772659 2.19054 0.837963 2.45134 0.965535 2.68302C1.09311 2.91469 1.27858 3.10932 1.50385 3.2479C1.59626 3.26105 1.68939 3.26845 1.78271 3.27004H1.80486C2.03146 3.29333 2.26042 3.26939 2.4773 3.19973C2.69418 3.13006 2.89426 3.0162 3.06491 2.86531C3.23557 2.71443 3.37309 2.52981 3.4688 2.3231C3.5645 2.11639 3.61632 1.89208 3.62097 1.66434Z" fill="#0B3C95"/>
<path id="Rectangle 149" d="M3.10382 4.37012H0.517578V13.6802H3.10382V4.37012Z" fill="#0B3C95"/>
<path id="Path 1762" d="M3.10456 13.6802H1.29248V5.14636C1.29248 5.00912 1.347 4.8775 1.44404 4.78046C1.54108 4.68342 1.67269 4.62891 1.80993 4.62891H3.10456V13.6802Z" fill="#0B3C95"/>
<path id="Path 1763" d="M3.10376 13.9388H0.517514C0.448896 13.9388 0.383088 13.9116 0.334568 13.8631C0.286047 13.8145 0.258789 13.7487 0.258789 13.6801V4.37005C0.258789 4.30143 0.286047 4.23563 0.334568 4.18711C0.383088 4.13859 0.448896 4.11133 0.517514 4.11133H3.10376C3.17237 4.11133 3.23818 4.13859 3.2867 4.18711C3.33522 4.23563 3.36248 4.30143 3.36248 4.37005V13.6801C3.36248 13.7487 3.33522 13.8145 3.2867 13.8631C3.23818 13.9116 3.17237 13.9388 3.10376 13.9388ZM0.776239 13.4214H2.84503V4.62878H0.776239V13.4214Z" fill="#0B3C95"/>
<path id="Path 1764" d="M11.3787 4.37012C10.7757 4.37031 10.181 4.5114 9.64216 4.78214C9.1033 5.05288 8.63515 5.44578 8.27505 5.92951V4.37012H5.17236V13.6802H8.27605V8.76643C8.27605 8.28583 8.46697 7.82492 8.8068 7.48509C9.14663 7.14526 9.60754 6.95435 10.0881 6.95435C10.5687 6.95435 11.0296 7.14526 11.3695 7.48509C11.7093 7.82492 11.9002 8.28583 11.9002 8.76643V13.6802H15.0039V7.99428C15.0039 7.51826 14.9101 7.04691 14.7279 6.60714C14.5457 6.16737 14.2787 5.7678 13.9421 5.43125C13.6054 5.09471 13.2058 4.82777 12.766 4.6457C12.3261 4.46363 11.8548 4.36999 11.3787 4.37012Z" fill="#0B3C95"/>
<path id="Path 1765" d="M11.4948 5.14837C10.5549 5.18239 9.65987 5.55867 8.97802 6.20642C8.94193 6.24274 8.89592 6.26758 8.84576 6.27783C8.7956 6.28808 8.74353 6.28327 8.69609 6.26402C8.64865 6.24476 8.60796 6.21192 8.57913 6.16961C8.5503 6.1273 8.53462 6.07741 8.53406 6.02622V5.62354C8.44239 5.72154 8.35603 5.82437 8.27533 5.93159V4.62891H6.46325C6.32601 4.62891 6.1944 4.68342 6.09736 4.78046C6.00032 4.8775 5.9458 5.00912 5.9458 5.14636V13.6813H8.27332V8.76649C8.27178 8.39476 8.38518 8.03165 8.59798 7.72686C8.81078 7.42207 9.11259 7.1905 9.46209 7.06387C9.81158 6.93723 10.1917 6.92171 10.5503 7.01944C10.909 7.11716 11.2287 7.32335 11.4656 7.60978C11.6796 7.77845 11.8526 7.99345 11.9715 8.23862C12.0904 8.48379 12.1522 8.75273 12.1522 9.02522V13.6802H14.9971V7.99132C14.996 7.80242 14.9799 7.6139 14.9488 7.42756C14.6707 6.74322 14.1918 6.15915 13.5753 5.7523C12.9587 5.34545 12.2334 5.1349 11.4948 5.14837Z" fill="#0B3C95"/>
</g>
</g>
<defs>
<clipPath id="clip0_540_16445">
<rect width="15" height="13.8785" fill="white" transform="translate(0 0.0605469)"/>
</clipPath>
</defs>
</svg>
