<svg width="15" height="15" viewBox="0 0 15 15" fill="none" xmlns="http://www.w3.org/2000/svg">
<path d="M14.0039 0.289062H1.78547C1.20804 0.289062 0.746094 0.747467 0.746094 1.32047V13.4682C0.746094 14.0183 1.20804 14.4996 1.78547 14.4996H13.9577C14.5351 14.4996 14.9971 14.0412 14.9971 13.4682V1.29755C15.0433 0.747467 14.5813 0.289062 14.0039 0.289062ZM4.97289 12.368H2.87104V5.60655H4.97289V12.368ZM3.91041 4.66682C3.2175 4.66682 2.68626 4.11674 2.68626 3.45205C2.68626 2.78736 3.24059 2.23728 3.91041 2.23728C4.58023 2.23728 5.13457 2.78736 5.13457 3.45205C5.13457 4.11674 4.62643 4.66682 3.91041 4.66682ZM12.9414 12.368H10.8396V9.09042C10.8396 8.31113 10.8165 7.27973 9.73091 7.27973C8.62225 7.27973 8.46057 8.15069 8.46057 9.02166V12.368H6.35872V5.60655H8.41437V6.54628H8.43747C8.73773 5.99619 9.40755 5.44611 10.4469 5.44611C12.595 5.44611 12.9876 6.82132 12.9876 8.70078V12.368H12.9414Z" fill="#DDDDDD"/>
</svg>
