<svg width="35" height="36" viewBox="0 0 35 36" fill="none" xmlns="http://www.w3.org/2000/svg">
<g clip-path="url(#clip0_218_17470)">
<path d="M17.5002 1.46094C9.89862 1.46094 3.66425 7.47656 3.66425 14.8047C3.66425 20.6562 12.0314 30.3359 15.6408 34.2734C16.133 34.8203 16.7892 35.0937 17.5002 35.0937C18.2111 35.0937 18.8674 34.8203 19.3596 34.2734C22.9689 30.3906 31.3361 20.6562 31.3361 14.8047C31.3361 7.42188 25.1017 1.46094 17.5002 1.46094ZM17.9377 32.9609C17.6642 33.2344 17.2814 33.2344 17.0627 32.9609C14.383 30.0625 5.57831 20.1094 5.57831 14.8047C5.57831 8.46094 10.9377 3.375 17.5002 3.375C24.0627 3.375 29.4221 8.51562 29.4221 14.8047C29.4221 20.1094 20.6174 30.0078 17.9377 32.9609Z" fill="#0B3C95"/>
<path d="M17.5002 9.33594C14.2736 9.33594 11.5939 11.9609 11.5939 15.2422C11.5939 18.4688 14.2189 21.1484 17.5002 21.1484C20.7814 21.1484 23.4064 18.5234 23.4064 15.2422C23.4064 11.9609 20.7267 9.33594 17.5002 9.33594ZM17.5002 19.1797C15.3127 19.1797 13.508 17.375 13.508 15.1875C13.508 13 15.3127 11.1953 17.5002 11.1953C19.6877 11.1953 21.4924 13 21.4924 15.1875C21.4924 17.375 19.6877 19.1797 17.5002 19.1797Z" fill="#0B3C95"/>
</g>
<defs>
<clipPath id="clip0_218_17470">
<rect width="35" height="35" fill="white" transform="translate(0 0.75)"/>
</clipPath>
</defs>
</svg>
