<svg width="326" height="372" viewBox="0 0 326 372" fill="none" xmlns="http://www.w3.org/2000/svg">
<g clip-path="url(#clip0_220_26760)">
<path d="M316.732 165.991L297.174 165.987C295.866 165.987 294.806 164.926 294.806 163.618L294.81 145.359L319.104 145.364L319.1 163.623C319.1 164.931 318.04 165.991 316.732 165.991Z" fill="#CDDFF7"/>
<path d="M306.879 157.4C300.223 157.398 294.809 151.852 294.811 145.036C294.812 138.22 300.229 132.676 306.885 132.677C313.541 132.679 318.954 138.225 318.953 145.041C318.95 151.857 313.535 157.401 306.879 157.4ZM306.883 137.921C303.119 137.92 300.055 141.112 300.054 145.036C300.053 148.96 303.115 152.153 306.88 152.154C310.644 152.155 313.707 148.963 313.708 145.039C313.709 141.115 310.647 137.922 306.883 137.921Z" fill="#CDDFF7"/>
<path opacity="0.15" d="M319.104 145.247H294.657V148.723H319.104V145.247Z" fill="#6C99EA"/>
<path d="M309.255 157.891L308.717 156.9C309.47 156.279 309.922 155.266 309.76 154.139C309.586 152.929 308.666 151.921 307.531 151.71C305.788 151.387 304.274 152.802 304.273 154.593C304.273 155.534 304.698 156.363 305.348 156.899L304.809 157.889L303.464 160.36C303.073 161.078 303.561 161.976 304.343 161.977L307.032 161.978L309.721 161.979C310.502 161.979 310.991 161.081 310.6 160.363L309.255 157.891Z" fill="#4B74BC"/>
<path d="M159.715 237.344C159.715 237.344 155.725 245.211 154.11 245.961C152.495 246.711 144.991 246.3 144.44 247.583C143.888 248.867 145.172 249.418 148.657 250.156C152.142 250.894 157.277 253.101 159.574 249.526C161.871 245.951 165.951 239.644 165.951 239.644L159.715 237.344Z" fill="#FFDAD7"/>
<path d="M159.066 235.226C161.55 229.706 164.099 224.32 166.83 218.907C168.196 216.205 169.607 213.51 171.101 210.809C172.609 208.106 174.169 205.411 176.035 202.637C176.991 201.241 177.985 199.839 179.354 198.29L179.877 197.709L180.345 197.22L181.288 196.242C181.919 195.569 182.559 194.986 183.202 194.385C185.779 191.997 188.431 189.899 191.124 187.957C193.82 186.031 196.559 184.256 199.346 182.584C200.739 181.746 202.149 180.943 203.576 180.152L205.749 178.989L206.869 178.414L207.452 178.124L208.125 177.807L211.256 176.333C217.782 173.26 225.564 176.06 228.636 182.586C231.709 189.112 228.909 196.894 222.383 199.966C220.529 200.839 218.511 201.234 216.59 201.208C216.533 201.207 216.37 201.247 216.228 201.279L215.78 201.386L214.843 201.625L212.928 202.151C211.646 202.524 210.358 202.915 209.085 203.336C206.535 204.173 204.026 205.098 201.607 206.11C199.201 207.129 196.891 208.243 194.789 209.445C194.267 209.746 193.722 210.044 193.259 210.361L192.528 210.829L192.159 211.063L191.887 211.25C191.143 211.759 190.204 212.591 189.287 213.471C187.427 215.271 185.536 217.365 183.682 219.506C181.826 221.66 179.993 223.891 178.183 226.158C174.571 230.69 171.011 235.398 167.6 240.095L167.561 240.149C165.959 242.355 162.872 242.844 160.666 241.242C158.741 239.847 158.125 237.314 159.066 235.226Z" fill="#4B74BC"/>
<path d="M160.278 232.567C159.873 233.452 159.467 234.335 159.066 235.227C158.125 237.315 158.741 239.847 160.667 241.246C162.873 242.848 165.96 242.359 167.562 240.153L167.601 240.099C168.152 239.34 168.713 238.582 169.272 237.823C169.174 237.851 169.085 237.871 168.98 237.905C164.943 239.21 162.033 235.763 160.278 232.567Z" fill="#6C99EA"/>
<path d="M156.745 368.146C156.748 367.967 156.75 367.778 156.75 367.576C156.75 364.345 143.365 361.422 143.365 361.422L127.673 355.114C127.673 355.114 123.391 364.045 122.766 368.499H156.703C156.72 368.382 156.743 368.267 156.745 368.146Z" fill="#0B3C95"/>
<path d="M122.766 368.499C122.568 369.908 122.733 370.873 123.519 370.96C126.932 371.339 146.856 371.095 153.857 370.996C155.308 370.975 156.502 369.899 156.702 368.498H122.766V368.499Z" fill="#4B74BC"/>
<path d="M257.053 368.146C257.057 367.967 257.058 367.778 257.058 367.576C257.058 364.345 243.673 361.422 243.673 361.422L227.981 355.114C227.981 355.114 223.699 364.045 223.074 368.499H257.011C257.027 368.382 257.05 368.267 257.053 368.146Z" fill="#0B3C95"/>
<path d="M223.074 368.499C222.876 369.908 223.041 370.873 223.827 370.96C227.24 371.339 247.164 371.095 254.165 370.996C255.616 370.975 256.81 369.899 257.01 368.498H223.074V368.499Z" fill="#4B74BC"/>
<path d="M178.596 245.883C178.596 245.883 127.211 351.729 127.519 354.498C127.827 357.267 142.288 361.267 142.288 361.267L209.365 278.805L223.827 252.651L178.596 245.883Z" fill="#4B74BC"/>
<path d="M175.519 248.96L176.304 249.637L226.288 299.421C230.223 302.816 228.277 315.457 228.134 320.652C227.639 338.584 227.826 356.037 227.672 356.191C227.454 356.408 242.287 356.652 242.287 356.652C242.287 356.652 261.979 300.037 257.979 288.652C253.979 277.267 222.902 223.934 213.979 224.549C205.056 225.164 175.825 247.729 175.825 247.729" fill="#4B74BC"/>
<path d="M243.827 180.55C243.827 180.55 257.058 248.242 245.365 259.012C233.672 269.782 176.134 266.397 170.904 260.55C165.673 254.704 189.365 225.165 193.981 215.319C198.596 205.473 203.919 194.423 204.443 193.268C210.802 179.217 215.52 174.191 215.52 174.191C215.52 174.191 233.058 181.165 243.827 180.55Z" fill="#CDDFF7"/>
<path d="M224.34 157.473C224.34 157.473 224.75 166.191 222.904 172.447C221.058 178.703 240.955 177.883 240.955 177.883L241.878 162.293L223.211 153.165L224.34 157.473Z" fill="#FFDAD7"/>
<path d="M220.442 148.154C220.442 148.154 228.442 166 239.519 168.257C250.596 170.513 251.314 152.858 251.314 152.858C251.314 152.858 253.673 137.371 248.852 134.909C240.747 130.77 231.211 127.129 231.211 127.129L220.032 135.437C220.032 135.437 215.212 139.539 220.442 148.154Z" fill="#FFDAD7"/>
<path d="M250.699 144.858C250.699 144.858 254.289 150.396 253.981 151.935C253.673 153.473 249.673 153.473 249.673 153.473L250.699 144.858Z" fill="#FFDAD7"/>
<path d="M216.545 138.704C216.545 138.704 214.699 145.678 216.135 148.037C217.571 150.396 221.058 155.729 223.725 156.242C226.392 156.755 226.494 155.114 226.494 152.242C226.494 149.37 224.238 146.293 226.289 145.473C227.301 145.068 227.838 145.509 228.124 146.059C228.31 146.418 228.839 146.381 228.989 146.006C229.773 144.044 231.094 140.339 230.802 138.294C230.391 135.422 216.545 138.704 216.545 138.704Z" fill="#475188"/>
<path d="M240.34 142.499C240.34 142.499 246.802 145.166 252.032 143.012C253.16 142.704 253.16 136.858 251.211 136.653C249.262 136.448 241.878 137.473 241.878 137.473L240.34 142.499Z" fill="#475188"/>
<path d="M215.365 139.576C215.365 139.576 234.363 148.583 253.463 138.211C253.57 137.903 248.413 114.532 230.186 117.576C215.442 120.037 215.365 139.576 215.365 139.576Z" fill="#6C99EA"/>
<path opacity="0.15" d="M206.904 281.268L213.365 272.653L211.519 284.345L206.904 281.268Z" fill="#4B74BC"/>
<path opacity="0.15" d="M255.236 313.268C244.815 310.556 242.205 344.379 239.211 345.576C236.134 346.807 231.826 350.499 231.211 340.653C230.596 330.807 228.134 301.268 228.134 301.268L228.369 304.101C229.263 309.331 228.237 316.913 228.134 320.652C227.639 338.584 227.826 356.037 227.672 356.19C227.454 356.408 242.287 356.652 242.287 356.652C242.287 356.652 250.495 333.057 255.236 313.268Z" fill="#4B74BC"/>
<path d="M244.382 361.082L226.775 359.366C225.727 359.264 224.952 358.323 225.055 357.274L225.362 354.118C225.464 353.07 226.406 352.295 227.454 352.398L245.061 354.114C246.109 354.216 246.884 355.158 246.781 356.206L246.474 359.362C246.372 360.41 245.431 361.184 244.382 361.082Z" fill="#CDDFF7"/>
<path opacity="0.15" d="M152.442 343.114C143.826 348.345 143.826 343.114 142.904 337.576C142.397 334.533 145 322.234 148.108 309.294C137.11 332.42 127.385 353.289 127.52 354.499C127.828 357.268 142.289 361.268 142.289 361.268L161.563 337.573C157.99 339.745 154.72 341.731 152.442 343.114Z" fill="#4B74BC"/>
<path d="M144.598 362.361C136.643 360.508 132.822 358.9 125.993 354.594C124.976 353.953 124.66 352.688 125.261 351.823C125.984 350.781 126.345 350.259 127.063 349.214C127.659 348.346 128.862 348.126 129.761 348.692C135.801 352.494 139.182 353.917 146.23 355.552C147.279 355.795 147.983 356.806 147.777 357.84C147.529 359.084 147.404 359.706 147.15 360.949C146.939 361.979 145.782 362.637 144.598 362.361Z" fill="#CDDFF7"/>
<path d="M227.865 145.576C227.858 145.567 227.87 145.556 227.878 145.564C229.319 146.877 239.664 155.917 250.698 155.73C251.006 155.627 251.211 155.73 251.211 155.73C251.211 155.73 252.032 168.756 245.775 169.268C239.518 169.78 233.924 163.025 231.929 160.447C229.467 157.268 224.955 150.909 225.775 150.909C226.595 150.909 229.41 155.007 230.698 154.191C233.425 152.465 228.532 146.509 227.865 145.576Z" fill="#475188"/>
<path opacity="0.15" d="M245.981 165.165L226.084 151.934C226.084 151.934 221.9 146.308 225.817 157.344C229.202 162.092 233.975 167.127 239.519 168.256C249.12 170.213 245.667 168.665 245.981 165.165Z" fill="#EAB8B5"/>
<path opacity="0.15" d="M227.38 147.34C227.215 147.299 227.061 147.345 226.909 147.408C226.883 147.419 226.856 147.43 226.83 147.441C226.831 147.437 226.831 147.434 226.831 147.42C226.831 147.413 226.834 147.367 226.833 147.362C226.843 147.289 226.857 147.213 226.873 147.141C226.907 146.99 226.968 146.857 227.052 146.728C227.183 146.527 226.894 146.322 226.729 146.479C226.486 146.709 226.282 147.021 226.254 147.36C226.226 147.702 226.432 148.07 226.815 148.047C226.966 148.038 227.105 147.96 227.224 147.879C227.225 147.894 227.226 147.911 227.225 147.922C227.222 147.962 227.218 148.002 227.212 148.041C227.185 148.222 227.135 148.4 227.078 148.574C227.017 148.761 226.956 148.929 227 149.127C227.018 149.21 227.135 149.263 227.207 149.211C227.366 149.095 227.437 148.945 227.501 148.762C227.562 148.589 227.614 148.412 227.648 148.232C227.707 147.921 227.785 147.441 227.38 147.34Z" fill="#3F8BD3"/>
<path opacity="0.15" d="M253.453 138.09C253.329 137.239 252.047 131.946 248.868 126.909C247.825 128.082 246.473 129.505 244.673 131.191C240.199 135.382 224.059 135.236 215.852 134.868C215.646 136.055 215.528 137.089 215.46 137.886L216.289 138.499C216.289 138.499 223.597 140.576 223.981 141.422C224.32 142.168 237.79 142.495 242.306 142.299C243.578 142.033 244.868 141.706 246.171 141.298C248.428 140.397 251.483 139.027 253.453 138.09Z" fill="#475188"/>
<path d="M253.939 136.432C253.635 135.85 253.366 134.433 253.032 133.825C252.822 133.442 252.34 133.078 251.93 133.269C250.443 133.961 247.714 135.07 245.598 135.374C241.664 135.94 237.651 136.177 233.675 136.173C227.423 136.166 220.442 134.705 216.135 132.756C215.605 132.516 215.032 133.117 214.946 133.669C214.879 134.094 215.373 135.085 215.212 135.936C215.058 136.749 214.249 137.421 214.177 137.82C214.045 138.546 214.438 139.257 215.109 139.613C220.914 142.684 225.869 143.467 232.934 143.461C238.27 143.456 249.441 142.583 254.266 138.927C254.712 138.589 254.835 137.995 254.553 137.523C254.336 137.158 254.129 136.796 253.939 136.432Z" fill="#8ABAFF"/>
<mask id="mask0_220_26760" style="mask-type:luminance" maskUnits="userSpaceOnUse" x="214" y="132" width="41" height="12">
<path d="M253.939 136.432C253.635 135.85 253.366 134.433 253.032 133.825C252.822 133.442 252.34 133.078 251.93 133.269C250.443 133.961 247.714 135.07 245.598 135.374C241.664 135.94 237.651 136.177 233.675 136.173C227.423 136.166 220.442 134.705 216.135 132.756C215.605 132.516 215.032 133.117 214.946 133.669C214.879 134.094 215.373 135.085 215.212 135.936C215.058 136.749 214.249 137.421 214.177 137.82C214.045 138.546 214.438 139.257 215.109 139.613C220.914 142.684 225.869 143.467 232.934 143.461C238.27 143.456 249.441 142.583 254.266 138.927C254.712 138.589 254.835 137.995 254.553 137.523C254.336 137.158 254.129 136.796 253.939 136.432Z" fill="white"/>
</mask>
<g mask="url(#mask0_220_26760)">
<path d="M217.848 132.583C217.779 132.34 217.382 132.313 217.328 132.583C217.244 133.008 217.239 133.439 217.166 133.865C217.084 134.337 216.893 134.694 216.65 135.099C216.195 135.857 216.19 136.611 216.334 137.463C216.498 138.434 216.628 139.207 216.059 140.076C215.541 140.868 214.761 141.634 214.523 142.572C214.481 142.737 214.664 142.89 214.816 142.797C215.237 142.54 215.552 142.133 215.858 141.753C216.182 141.349 216.506 140.937 216.791 140.504C217.322 139.697 217.428 138.889 217.283 137.948C217.212 137.49 217.097 137.035 217.092 136.57C217.086 136.056 217.304 135.682 217.55 135.25C218.012 134.433 218.103 133.484 217.848 132.583Z" fill="#6C99EA"/>
</g>
<mask id="mask1_220_26760" style="mask-type:luminance" maskUnits="userSpaceOnUse" x="214" y="132" width="41" height="12">
<path d="M253.939 136.432C253.635 135.85 253.366 134.433 253.032 133.825C252.822 133.442 252.34 133.078 251.93 133.269C250.443 133.961 247.714 135.07 245.598 135.374C241.664 135.94 237.651 136.177 233.675 136.173C227.423 136.166 220.442 134.705 216.135 132.756C215.605 132.516 215.032 133.117 214.946 133.669C214.879 134.094 215.373 135.085 215.212 135.936C215.058 136.749 214.249 137.421 214.177 137.82C214.045 138.546 214.438 139.257 215.109 139.613C220.914 142.684 225.869 143.467 232.934 143.461C238.27 143.456 249.441 142.583 254.266 138.927C254.712 138.589 254.835 137.995 254.553 137.523C254.336 137.158 254.129 136.796 253.939 136.432Z" fill="white"/>
</mask>
<g mask="url(#mask1_220_26760)">
<path d="M221.798 135.956C222.043 135.202 222.69 134.264 222.401 133.447C222.327 133.237 222.003 133.147 221.887 133.38C221.699 133.758 221.612 134.183 221.451 134.574C221.292 134.959 221.102 135.332 220.97 135.728C220.698 136.539 220.674 137.419 220.723 138.265C220.772 139.118 220.897 139.967 220.915 140.822C220.932 141.653 220.757 142.458 220.683 143.282C220.669 143.442 220.875 143.493 220.976 143.404C222.247 142.28 221.703 140.047 221.596 138.576C221.532 137.694 221.522 136.806 221.798 135.956Z" fill="#6C99EA"/>
</g>
<mask id="mask2_220_26760" style="mask-type:luminance" maskUnits="userSpaceOnUse" x="214" y="132" width="41" height="12">
<path d="M253.939 136.432C253.635 135.85 253.366 134.433 253.032 133.825C252.822 133.442 252.34 133.078 251.93 133.269C250.443 133.961 247.714 135.07 245.598 135.374C241.664 135.94 237.651 136.177 233.675 136.173C227.423 136.166 220.442 134.705 216.135 132.756C215.605 132.516 215.032 133.117 214.946 133.669C214.879 134.094 215.373 135.085 215.212 135.936C215.058 136.749 214.249 137.421 214.177 137.82C214.045 138.546 214.438 139.257 215.109 139.613C220.914 142.684 225.869 143.467 232.934 143.461C238.27 143.456 249.441 142.583 254.266 138.927C254.712 138.589 254.835 137.995 254.553 137.523C254.336 137.158 254.129 136.796 253.939 136.432Z" fill="white"/>
</mask>
<g mask="url(#mask2_220_26760)">
<path d="M227.247 133.915C226.055 135.302 225.455 136.936 225.433 138.768C225.421 139.79 225.566 140.807 225.548 141.829C225.539 142.32 225.493 142.809 225.377 143.287C225.322 143.514 225.221 143.736 225.177 143.964C225.137 144.173 225.178 144.363 225.171 144.572C225.165 144.761 225.392 144.893 225.553 144.791C225.941 144.546 226.143 144.356 226.299 143.908C226.45 143.472 226.518 143.005 226.55 142.546C226.617 141.583 226.476 140.625 226.393 139.668C226.228 137.741 226.58 135.852 227.595 134.184C227.726 133.973 227.415 133.72 227.247 133.915Z" fill="#6C99EA"/>
</g>
<mask id="mask3_220_26760" style="mask-type:luminance" maskUnits="userSpaceOnUse" x="214" y="132" width="41" height="12">
<path d="M253.939 136.432C253.635 135.85 253.366 134.433 253.032 133.825C252.822 133.442 252.34 133.078 251.93 133.269C250.443 133.961 247.714 135.07 245.598 135.374C241.664 135.94 237.651 136.177 233.675 136.173C227.423 136.166 220.442 134.705 216.135 132.756C215.605 132.516 215.032 133.117 214.946 133.669C214.879 134.094 215.373 135.085 215.212 135.936C215.058 136.749 214.249 137.421 214.177 137.82C214.045 138.546 214.438 139.257 215.109 139.613C220.914 142.684 225.869 143.467 232.934 143.461C238.27 143.456 249.441 142.583 254.266 138.927C254.712 138.589 254.835 137.995 254.553 137.523C254.336 137.158 254.129 136.796 253.939 136.432Z" fill="white"/>
</mask>
<g mask="url(#mask3_220_26760)">
<path d="M232.348 141.511C232.031 140.538 232.003 139.637 232.046 138.621C232.09 137.582 232.13 136.533 232.214 135.498C232.242 135.156 231.709 135.096 231.623 135.418C231.382 136.325 231.178 137.21 231.088 138.145C231.003 139.033 230.9 139.964 231.043 140.851C231.181 141.709 231.639 142.516 231.574 143.402C231.547 143.765 231.444 144.14 231.29 144.47C231.122 144.829 230.842 145.125 230.759 145.521C230.699 145.806 230.929 146.028 231.211 145.973C231.968 145.824 232.419 144.846 232.587 144.17C232.816 143.251 232.635 142.391 232.348 141.511Z" fill="#6C99EA"/>
</g>
<mask id="mask4_220_26760" style="mask-type:luminance" maskUnits="userSpaceOnUse" x="214" y="132" width="41" height="12">
<path d="M253.939 136.432C253.635 135.85 253.366 134.433 253.032 133.825C252.822 133.442 252.34 133.078 251.93 133.269C250.443 133.961 247.714 135.07 245.598 135.374C241.664 135.94 237.651 136.177 233.675 136.173C227.423 136.166 220.442 134.705 216.135 132.756C215.605 132.516 215.032 133.117 214.946 133.669C214.879 134.094 215.373 135.085 215.212 135.936C215.058 136.749 214.249 137.421 214.177 137.82C214.045 138.546 214.438 139.257 215.109 139.613C220.914 142.684 225.869 143.467 232.934 143.461C238.27 143.456 249.441 142.583 254.266 138.927C254.712 138.589 254.835 137.995 254.553 137.523C254.336 137.158 254.129 136.796 253.939 136.432Z" fill="white"/>
</mask>
<g mask="url(#mask4_220_26760)">
<path d="M238.576 141.209C238.265 139.253 237.368 137.418 237.305 135.417C237.295 135.093 236.799 135 236.722 135.338C236.301 137.189 236.957 138.939 237.37 140.727C237.548 141.498 237.654 142.289 237.596 143.081C237.566 143.49 237.474 143.888 237.341 144.275C237.218 144.635 237.046 144.961 237.006 145.342C236.985 145.543 237.24 145.745 237.431 145.666C238.166 145.36 238.476 144.495 238.604 143.76C238.753 142.911 238.711 142.059 238.576 141.209Z" fill="#6C99EA"/>
</g>
<mask id="mask5_220_26760" style="mask-type:luminance" maskUnits="userSpaceOnUse" x="214" y="132" width="41" height="12">
<path d="M253.939 136.432C253.635 135.85 253.366 134.433 253.032 133.825C252.822 133.442 252.34 133.078 251.93 133.269C250.443 133.961 247.714 135.07 245.598 135.374C241.664 135.94 237.651 136.177 233.675 136.173C227.423 136.166 220.442 134.705 216.135 132.756C215.605 132.516 215.032 133.117 214.946 133.669C214.879 134.094 215.373 135.085 215.212 135.936C215.058 136.749 214.249 137.421 214.177 137.82C214.045 138.546 214.438 139.257 215.109 139.613C220.914 142.684 225.869 143.467 232.934 143.461C238.27 143.456 249.441 142.583 254.266 138.927C254.712 138.589 254.835 137.995 254.553 137.523C254.336 137.158 254.129 136.796 253.939 136.432Z" fill="white"/>
</mask>
<g mask="url(#mask5_220_26760)">
<path d="M245.084 144.74C244.97 144.421 244.63 144.26 244.488 143.933C244.292 143.482 244.341 142.928 244.306 142.446C244.239 141.518 244.102 140.593 243.879 139.689C243.664 138.819 243.368 137.97 242.965 137.17C242.623 136.49 242.103 135.449 241.32 135.203C241.201 135.165 241.037 135.271 241.053 135.406C241.102 135.828 241.363 136.197 241.561 136.566C241.797 137.004 242.038 137.437 242.231 137.896C242.621 138.829 242.896 139.806 243.074 140.801C243.251 141.792 243.227 142.813 243.414 143.797C243.495 144.222 243.683 144.657 244.047 144.914C244.322 145.108 244.754 145.264 245.018 144.988C245.078 144.925 245.114 144.825 245.084 144.74Z" fill="#6C99EA"/>
</g>
<mask id="mask6_220_26760" style="mask-type:luminance" maskUnits="userSpaceOnUse" x="214" y="132" width="41" height="12">
<path d="M253.939 136.432C253.635 135.85 253.366 134.433 253.032 133.825C252.822 133.442 252.34 133.078 251.93 133.269C250.443 133.961 247.714 135.07 245.598 135.374C241.664 135.94 237.651 136.177 233.675 136.173C227.423 136.166 220.442 134.705 216.135 132.756C215.605 132.516 215.032 133.117 214.946 133.669C214.879 134.094 215.373 135.085 215.212 135.936C215.058 136.749 214.249 137.421 214.177 137.82C214.045 138.546 214.438 139.257 215.109 139.613C220.914 142.684 225.869 143.467 232.934 143.461C238.27 143.456 249.441 142.583 254.266 138.927C254.712 138.589 254.835 137.995 254.553 137.523C254.336 137.158 254.129 136.796 253.939 136.432Z" fill="white"/>
</mask>
<g mask="url(#mask6_220_26760)">
<path d="M248.545 138.312C248.158 137.379 247.653 136.504 247.232 135.587C247.028 135.144 246.848 134.699 246.711 134.231C246.574 133.763 246.507 133.268 246.275 132.835C246.183 132.664 245.939 132.682 245.843 132.835C245.374 133.58 245.66 134.632 245.909 135.409C246.207 136.336 246.664 137.204 247.061 138.091C247.452 138.963 247.835 139.871 247.889 140.837C247.922 141.429 247.856 142.013 247.728 142.59C247.596 143.183 247.422 143.721 247.495 144.335C247.532 144.65 247.887 144.849 248.142 144.603C248.945 143.827 249.121 142.517 249.172 141.447C249.224 140.359 248.959 139.311 248.545 138.312Z" fill="#6C99EA"/>
</g>
<mask id="mask7_220_26760" style="mask-type:luminance" maskUnits="userSpaceOnUse" x="214" y="132" width="41" height="12">
<path d="M253.939 136.432C253.635 135.85 253.366 134.433 253.032 133.825C252.822 133.442 252.34 133.078 251.93 133.269C250.443 133.961 247.714 135.07 245.598 135.374C241.664 135.94 237.651 136.177 233.675 136.173C227.423 136.166 220.442 134.705 216.135 132.756C215.605 132.516 215.032 133.117 214.946 133.669C214.879 134.094 215.373 135.085 215.212 135.936C215.058 136.749 214.249 137.421 214.177 137.82C214.045 138.546 214.438 139.257 215.109 139.613C220.914 142.684 225.869 143.467 232.934 143.461C238.27 143.456 249.441 142.583 254.266 138.927C254.712 138.589 254.835 137.995 254.553 137.523C254.336 137.158 254.129 136.796 253.939 136.432Z" fill="white"/>
</mask>
<g mask="url(#mask7_220_26760)">
<path d="M253.088 139.49C252.993 138.566 252.822 137.655 252.54 136.769C251.978 135.001 251.07 133.403 249.875 131.987C249.581 131.639 248.963 132.106 249.237 132.479C250.248 133.857 251.014 135.417 251.491 137.058C251.729 137.877 251.916 138.721 252.011 139.569C252.099 140.354 252.033 141.294 252.334 142.031C252.417 142.234 252.701 142.314 252.827 142.095C253.252 141.359 253.173 140.305 253.088 139.49Z" fill="#6C99EA"/>
</g>
<path d="M228.75 139.204C225.59 139.152 222.47 138.429 219.616 137.07C219.042 136.797 218.538 137.652 219.115 137.927C222.131 139.364 225.408 140.142 228.75 140.197C229.389 140.207 229.389 139.215 228.75 139.204Z" fill="#6C99EA"/>
<path d="M239.92 139.592C239.843 139.31 239.575 139.203 239.31 139.246C237.957 139.463 236.581 139.528 235.212 139.46C234.944 139.447 234.716 139.698 234.716 139.956C234.716 140.236 234.944 140.439 235.212 140.452C236.672 140.525 238.13 140.435 239.574 140.203C239.838 140.159 239.985 139.83 239.92 139.592Z" fill="#6C99EA"/>
<path d="M218.673 168.96C218.673 172.077 213.267 171.89 214.186 173.498C216.34 177.267 223.93 185.267 242.391 185.062C248.988 184.989 247.123 181.378 246.145 177.084C245.732 175.272 243.979 174.127 242.138 174.377C240.222 174.637 237.497 174.681 234.288 173.806C225.998 171.545 218.673 166.004 218.673 168.96Z" fill="#6C99EA"/>
<path d="M244.979 186.913C241.992 187.102 238.999 187.173 236.018 187.091C226.781 186.838 216.473 184.887 207.756 180.766C206.855 181.866 205.923 183.133 204.985 184.598C207.774 186.663 210.697 188.444 214.172 189.867C220.389 192.413 226.866 193.743 233.549 194.295C237.777 194.644 241.99 194.609 246.192 194.315C245.753 191.5 245.336 188.99 244.979 186.913Z" fill="#6C99EA"/>
<path d="M200.41 195.162C200.044 196.73 199.579 198.671 199.008 200.818C208.89 205.306 219.791 207.442 231.017 208.225C236.725 208.623 242.465 208.77 248.203 208.771C247.931 206.53 247.646 204.345 247.356 202.245C242.398 202.198 237.44 202.052 232.502 201.695C221.803 200.922 210.649 199.061 200.41 195.162Z" fill="#6C99EA"/>
<path d="M248.904 214.999C241.012 215.9 232.786 216.371 225.053 216.196C215.374 215.976 205.274 214.187 195.895 210.737C195.308 212.301 194.672 213.846 193.981 215.319C193.793 215.72 193.563 216.165 193.315 216.629C202.783 220.911 213.282 223.151 222.957 223.505C231.905 223.832 240.729 223.2 249.577 222.39C249.385 219.923 249.157 217.448 248.904 214.999Z" fill="#6C99EA"/>
<path d="M250.082 231.044C249.171 231.244 248.258 231.432 247.341 231.607C239.099 233.178 230.669 233.768 222.287 233.412C210.345 232.904 198.608 230.253 187.381 226.191C186.267 227.883 185.092 229.656 183.895 231.471C195.626 236.881 208.465 239.66 221.472 240.309C230.195 240.745 238.98 240.155 247.561 238.518C248.393 238.359 249.274 238.195 250.182 238.024C250.206 235.775 250.17 233.438 250.082 231.044Z" fill="#6C99EA"/>
<path d="M249.771 245.987C240.171 247.659 230.391 248.194 220.657 247.994C210.628 247.788 200.626 246.949 190.7 245.496C186.032 244.812 181.158 244.259 176.418 243.264C175.26 245.219 174.202 247.113 173.294 248.899C177.425 250.286 181.747 251.223 186.161 252.034C196.927 254.012 207.94 255.374 218.886 255.7C228.688 255.992 238.508 255.498 248.208 254.052C248.949 251.81 249.456 249.074 249.771 245.987Z" fill="#6C99EA"/>
<path d="M157.274 247.076C157.274 247.076 153.96 255.25 152.414 256.134C150.867 257.018 143.356 257.239 142.914 258.564C142.472 259.89 143.798 260.331 147.333 260.773C150.868 261.215 156.17 262.982 158.158 259.226C160.146 255.47 163.681 248.843 163.681 248.843L157.274 247.076Z" fill="#FFDAD7"/>
<path d="M156.449 245.021C158.459 239.311 160.547 233.73 162.813 228.106C163.947 225.299 165.126 222.494 166.388 219.678C167.663 216.857 168.991 214.041 170.617 211.12C171.452 209.649 172.324 208.168 173.558 206.509L174.031 205.886L174.456 205.359L175.313 204.305C175.885 203.581 176.474 202.947 177.064 202.294C179.431 199.697 181.897 197.384 184.417 195.222C186.941 193.076 189.521 191.077 192.158 189.177C193.476 188.225 194.813 187.305 196.168 186.398L198.236 185.056L199.303 184.389L199.86 184.051L200.504 183.679L203.5 181.947C209.745 178.336 217.734 180.471 221.345 186.716C224.956 192.961 222.821 200.95 216.576 204.561C214.802 205.587 212.824 206.15 210.908 206.286C210.851 206.29 210.692 206.344 210.553 206.387L210.115 206.532L209.202 206.849L207.338 207.534C206.092 208.014 204.842 208.512 203.608 209.038C201.138 210.087 198.715 211.22 196.39 212.432C194.078 213.65 191.871 214.954 189.877 216.329C189.382 216.673 188.864 217.015 188.43 217.371L187.741 217.899L187.393 218.163L187.138 218.373C186.439 218.943 185.574 219.851 184.734 220.805C183.032 222.755 181.323 225.001 179.656 227.29C177.988 229.592 176.349 231.97 174.736 234.382C171.518 239.202 168.367 244.193 165.363 249.16L165.328 249.217C163.917 251.55 160.882 252.297 158.55 250.886C156.513 249.653 155.687 247.181 156.449 245.021Z" fill="#4B74BC"/>
<path d="M157.433 242.269C157.104 243.185 156.773 244.099 156.449 245.021C155.687 247.181 156.514 249.653 158.551 250.884C160.884 252.295 163.918 251.548 165.329 249.215L165.364 249.158C165.849 248.356 166.344 247.553 166.837 246.75C166.742 246.786 166.655 246.813 166.553 246.856C162.64 248.496 159.45 245.306 157.433 242.269Z" fill="#6C99EA"/>
<path opacity="0.15" d="M245.366 259.012C246.335 258.119 247.13 256.828 247.779 255.223C239.923 259.893 225.43 261.853 221.469 261.986C214.18 262.231 208.57 262.335 204.224 262.336C198.303 262.337 195.954 254.68 200.85 251.35L203.007 249.883C203.589 249.381 203.126 248.436 202.372 248.588C198.66 249.334 185.533 256.794 178.802 255.832C168.751 254.396 183.725 232.858 183.725 232.858C183.725 232.858 183.111 233.364 182.111 234.189C174.878 245.276 167.802 257.082 170.905 260.55C176.135 266.396 233.673 269.781 245.366 259.012Z" fill="#6C99EA"/>
<path d="M0.0732745 177.054C-0.432725 181.327 1.70528 185.655 5.76328 187.726L139.938 256.198C144.008 258.275 148.783 257.455 151.947 254.516L0.0732745 177.054Z" fill="#0B3C95"/>
<path d="M154.176 251.581L219.381 123.807L66.3353 45.7471L1.14728 173.487C0.561278 174.636 0.21728 175.843 0.0742798 177.053L151.947 254.515C152.83 253.695 153.596 252.718 154.176 251.581Z" fill="#0B3C95"/>
<path d="M239.426 84.4841C242.083 79.2771 240.016 72.9031 234.81 70.2461L100.635 1.77406C95.4293 -0.882937 89.0543 1.18406 86.3973 6.39006L66.3173 45.7381L219.363 123.798L239.426 84.4841Z" fill="#CBDEFF"/>
<g opacity="0.15">
<path d="M127.198 216.727L49.9823 177.344C46.7563 175.699 45.4633 171.714 47.1093 168.488L50.7843 161.282C52.4293 158.057 56.4143 156.764 59.6403 158.409L136.856 197.792C140.081 199.437 141.374 203.422 139.729 206.648L136.054 213.854C134.408 217.079 130.423 218.372 127.198 216.727Z" fill="#14334C"/>
<path d="M77.8327 184.331L80.7743 178.565L81.5982 178.985L79.0221 184.035L82.1444 185.628L81.7788 186.344L77.8327 184.331ZM85.1893 188.167C84.7499 187.943 84.3785 187.66 84.0752 187.319C83.7774 186.98 83.5584 186.609 83.4183 186.205C83.2809 185.796 83.2264 185.373 83.2548 184.938C83.2831 184.502 83.4051 184.073 83.6208 183.65C83.8365 183.227 84.1123 182.877 84.4482 182.598C84.7841 182.32 85.1566 182.119 85.5657 181.995C85.9776 181.866 86.4081 181.823 86.8572 181.865C87.3063 181.907 87.7533 182.042 88.1982 182.269C88.6375 182.493 89.0034 182.773 89.2957 183.109C89.5964 183.442 89.8153 183.813 89.9527 184.222C90.0983 184.629 90.1542 185.049 90.1204 185.481C90.0921 185.917 89.9686 186.349 89.7501 186.777C89.5316 187.205 89.2544 187.559 88.9185 187.837C88.5881 188.119 88.2142 188.322 87.7968 188.449C87.3878 188.572 86.9587 188.613 86.5095 188.571C86.0687 188.526 85.6286 188.391 85.1893 188.167ZM85.5633 187.434C85.8818 187.596 86.2037 187.691 86.5288 187.719C86.8595 187.749 87.1741 187.716 87.4726 187.619C87.7795 187.519 88.0565 187.363 88.3036 187.15C88.5562 186.94 88.7638 186.675 88.9263 186.357C89.0888 186.038 89.181 185.715 89.2029 185.387C89.2304 185.062 89.1929 184.749 89.0906 184.447C88.9965 184.143 88.8402 183.866 88.6216 183.616C88.4085 183.369 88.1427 183.164 87.8241 183.002C87.5001 182.836 87.1728 182.739 86.8421 182.708C86.517 182.681 86.201 182.717 85.8941 182.817C85.59 182.911 85.3117 183.063 85.0591 183.273C84.812 183.486 84.6071 183.752 84.4447 184.071C84.2822 184.389 84.1872 184.711 84.1598 185.036C84.1378 185.364 84.1766 185.682 84.2762 185.988C84.3785 186.29 84.5363 186.564 84.7493 186.811C84.9679 187.061 85.2392 187.269 85.5633 187.434ZM92.1081 191.697C91.6633 191.47 91.2905 191.189 90.9899 190.856C90.6921 190.517 90.4731 190.146 90.333 189.742C90.1956 189.333 90.1411 188.911 90.1694 188.475C90.1978 188.04 90.3212 187.608 90.5397 187.18C90.7582 186.751 91.0354 186.398 91.3713 186.119C91.7072 185.841 92.0797 185.64 92.4888 185.516C92.9062 185.39 93.338 185.351 93.7843 185.398C94.2334 185.441 94.6832 185.577 95.1335 185.806C95.5894 186.039 95.969 186.326 96.2723 186.667C96.5756 187.009 96.7834 187.395 96.8958 187.826L96.1244 188.077C96.0059 187.726 95.8333 187.426 95.6064 187.179C95.3878 186.929 95.1165 186.722 94.7925 186.556C94.4629 186.388 94.1274 186.286 93.7857 186.25C93.4496 186.217 93.1267 186.246 92.8172 186.338C92.5131 186.432 92.2334 186.587 91.978 186.803C91.7308 187.016 91.526 187.281 91.3635 187.6C91.2038 187.913 91.1089 188.235 91.0786 188.565C91.0567 188.893 91.0955 189.211 91.1951 189.518C91.3029 189.822 91.4689 190.1 91.6929 190.353C91.917 190.606 92.1938 190.816 92.5233 190.984C92.8309 191.141 93.1486 191.244 93.4763 191.294C93.8123 191.341 94.1586 191.313 94.5151 191.211L94.6653 192.077C94.2564 192.173 93.8276 192.186 93.3787 192.116C92.9381 192.044 92.5146 191.904 92.1081 191.697ZM93.9291 191.566L95.0217 189.424L95.8125 189.828L94.6653 192.077L93.9291 191.566ZM95.9022 193.549L98.8439 187.782L99.6677 188.202L96.726 193.969L95.9022 193.549ZM98.4525 194.85L101.394 189.083L102.07 189.428L103.468 196.11L103.113 195.93L105.53 191.193L106.354 191.613L103.412 197.38L102.736 197.035L101.339 190.352L101.693 190.533L99.2764 195.27L98.4525 194.85Z" fill="#14334C"/>
</g>
<path d="M125.834 215.364L48.6183 175.981C45.3933 174.336 44.1003 170.351 45.7453 167.125L49.4203 159.919C51.0653 156.694 55.0503 155.401 58.2763 157.046L135.492 196.429C138.718 198.074 140.011 202.059 138.365 205.285L134.69 212.491C133.045 215.716 129.06 217.009 125.834 215.364Z" fill="white"/>
<path d="M76.4694 182.968L79.4111 177.201L80.2349 177.622L77.6588 182.672L80.7811 184.264L80.4155 184.981L76.4694 182.968ZM83.826 186.804C83.3866 186.58 83.0153 186.297 82.7119 185.955C82.4141 185.617 82.1951 185.245 82.055 184.842C81.9177 184.432 81.8632 184.01 81.8915 183.575C81.9198 183.139 82.0418 182.71 82.2575 182.287C82.4733 181.864 82.7491 181.513 83.085 181.235C83.4208 180.956 83.7933 180.755 84.2024 180.632C84.6143 180.503 85.0448 180.459 85.4939 180.502C85.943 180.544 86.39 180.678 86.8349 180.905C87.2743 181.129 87.6401 181.409 87.9324 181.745C88.2331 182.079 88.4521 182.45 88.5894 182.859C88.735 183.266 88.7909 183.685 88.7571 184.118C88.7288 184.553 88.6054 184.985 88.3868 185.414C88.1683 185.842 87.8911 186.196 87.5552 186.474C87.2248 186.755 86.8509 186.959 86.4336 187.085C86.0245 187.209 85.5954 187.25 85.1463 187.207C84.7054 187.163 84.2654 187.028 83.826 186.804ZM84.2 186.071C84.5185 186.233 84.8404 186.328 85.1655 186.356C85.4962 186.386 85.8108 186.352 86.1094 186.256C86.4162 186.156 86.6932 186 86.9403 185.787C87.193 185.576 87.4005 185.312 87.563 184.993C87.7255 184.675 87.8177 184.352 87.8397 184.024C87.8671 183.699 87.8296 183.385 87.7273 183.084C87.6332 182.78 87.4769 182.503 87.2583 182.253C87.0452 182.006 86.7794 181.801 86.4609 181.638C86.1368 181.473 85.8095 181.375 85.4788 181.345C85.1537 181.318 84.8377 181.354 84.5308 181.453C84.2267 181.547 83.9484 181.7 83.6958 181.91C83.4487 182.123 83.2439 182.389 83.0814 182.707C82.9189 183.026 82.8239 183.348 82.7965 183.673C82.7745 184.001 82.8133 184.318 82.9129 184.625C83.0153 184.926 83.173 185.201 83.3861 185.448C83.6046 185.698 83.8759 185.905 84.2 186.071ZM90.7449 190.333C90.3 190.106 89.9272 189.826 89.6266 189.493C89.3288 189.154 89.1098 188.783 88.9697 188.379C88.8323 187.97 88.7778 187.548 88.8062 187.112C88.8345 186.677 88.9579 186.245 89.1764 185.816C89.3949 185.388 89.6722 185.035 90.008 184.756C90.3439 184.477 90.7164 184.276 91.1255 184.153C91.5429 184.027 91.9747 183.987 92.421 184.035C92.8701 184.077 93.3199 184.213 93.7702 184.443C94.2261 184.676 94.6057 184.963 94.909 185.304C95.2123 185.646 95.4201 186.032 95.5325 186.463L94.7612 186.713C94.6427 186.362 94.47 186.063 94.2431 185.816C94.0245 185.566 93.7532 185.358 93.4292 185.193C93.0996 185.025 92.7641 184.923 92.4224 184.887C92.0863 184.854 91.7635 184.883 91.4539 184.974C91.1498 185.069 90.8701 185.223 90.6147 185.439C90.3676 185.652 90.1627 185.918 90.0003 186.237C89.8406 186.55 89.7456 186.872 89.7154 187.202C89.6934 187.53 89.7322 187.848 89.8318 188.154C89.9396 188.459 90.1056 188.737 90.3297 188.99C90.5537 189.243 90.8305 189.453 91.1601 189.621C91.4676 189.778 91.7853 189.881 92.113 189.931C92.449 189.977 92.7953 189.95 93.1518 189.848L93.302 190.714C92.8932 190.81 92.4643 190.823 92.0154 190.753C91.5748 190.68 91.1513 190.541 90.7449 190.333ZM92.5658 190.203L93.6584 188.061L94.4493 188.465L93.302 190.714L92.5658 190.203ZM94.5389 192.186L97.4806 186.419L98.3044 186.839L95.3628 192.606L94.5389 192.186ZM97.0893 193.486L100.031 187.72L100.706 188.064L102.104 194.747L101.75 194.566L104.167 189.829L104.99 190.25L102.049 196.016L101.373 195.672L99.9752 188.989L100.329 189.17L97.9131 193.907L97.0893 193.486Z" fill="#0B3C95"/>
<path d="M161.982 75.486C161.051 73.134 158.373 71.996 156.058 73.014C153.535 74.123 150.664 74.168 148.146 72.883C145.855 71.714 144.281 69.664 143.575 67.275C142.855 64.839 140.351 63.397 137.931 64.17C132.314 65.965 127.26 70.146 124.31 76.144C124.311 76.147 124.312 76.149 124.313 76.152L160.697 94.72C160.7 94.719 160.702 94.719 160.705 94.718C164.052 88.39 164.297 81.333 161.982 75.486Z" fill="#0B3C95"/>
<path d="M156.019 57.4541C152.333 55.5731 147.871 56.9381 146.053 60.5011C145.601 61.3871 145.355 62.3261 145.297 63.2651C145.122 66.1031 146.664 68.9461 149.433 70.3591C152.35 71.8471 155.747 71.2971 157.941 69.2401C158.52 68.6971 159.019 68.0561 159.399 67.3121C161.218 63.7491 159.705 59.3351 156.019 57.4541Z" fill="#0B3C95"/>
<path d="M89.0303 142.367C88.7059 142.202 88.4502 141.978 88.2633 141.696C88.0789 141.41 87.9797 141.085 87.966 140.724C87.9594 140.359 88.0608 139.972 88.2702 139.562C88.4796 139.152 88.7325 138.845 89.0288 138.641C89.3275 138.433 89.6458 138.322 89.9837 138.308C90.3215 138.294 90.6551 138.371 90.9842 138.539C91.342 138.721 91.6203 138.966 91.8189 139.272C92.0248 139.575 92.1346 139.914 92.1483 140.287C92.1644 140.656 92.0763 141.029 91.8839 141.406C91.6891 141.788 91.4376 142.081 91.1293 142.284C90.821 142.487 90.4824 142.597 90.1133 142.613C89.7491 142.632 89.3881 142.55 89.0303 142.367ZM86.4008 142.73L89.0267 137.585L89.5133 137.833L88.9363 138.964L88.5027 139.69L88.1871 140.485L86.9088 142.989L86.4008 142.73ZM89.2246 141.898C89.4917 142.034 89.7607 142.097 90.0315 142.084C90.3047 142.068 90.5593 141.981 90.7954 141.825C91.0338 141.664 91.2273 141.438 91.3759 141.147C91.5244 140.856 91.5926 140.569 91.5806 140.286C91.5686 140.004 91.4892 139.747 91.3426 139.515C91.196 139.284 90.9892 139.101 90.722 138.964C90.4549 138.828 90.1823 138.767 89.9043 138.781C89.6311 138.798 89.3765 138.885 89.1404 139.041C88.9092 139.2 88.7193 139.424 88.5707 139.715C88.4222 140.006 88.3504 140.294 88.3552 140.579C88.3672 140.862 88.4465 141.119 88.5931 141.35C88.747 141.579 88.9574 141.762 89.2246 141.898ZM94.2924 145.008L94.7161 144.178L94.764 144.031L95.4725 142.643C95.6357 142.323 95.6704 142.031 95.5768 141.767C95.4879 141.505 95.267 141.284 94.914 141.104C94.6707 140.98 94.4186 140.902 94.1578 140.871C93.8969 140.84 93.6561 140.853 93.4352 140.908L93.3998 140.412C93.6734 140.347 93.9657 140.34 94.2767 140.391C94.5901 140.436 94.8947 140.535 95.1905 140.686C95.6771 140.934 95.9895 141.247 96.1277 141.624C96.2731 141.999 96.2204 142.432 95.9696 142.923L94.779 145.256L94.2924 145.008ZM92.9789 144.383C92.6975 144.239 92.4749 144.068 92.3113 143.87C92.1548 143.67 92.0631 143.461 92.0362 143.243C92.0117 143.02 92.0542 142.801 92.1638 142.586C92.2636 142.391 92.399 142.237 92.57 142.126C92.7482 142.013 92.9666 141.962 93.2252 141.974C93.491 141.983 93.8028 142.079 94.1606 142.262L95.4558 142.923L95.2623 143.302L93.9814 142.648C93.6188 142.463 93.3331 142.399 93.1242 142.454C92.9201 142.512 92.7694 142.637 92.672 142.828C92.5624 143.042 92.5583 143.257 92.6595 143.471C92.7607 143.685 92.9616 143.869 93.2622 144.022C93.5484 144.168 93.827 144.229 94.0978 144.205C94.3759 144.179 94.626 144.066 94.848 143.866L94.7835 144.275C94.5615 144.475 94.2935 144.587 93.9795 144.614C93.6702 144.642 93.3367 144.565 92.9789 144.383ZM97.1497 146.511C96.8396 146.353 96.5681 146.16 96.3353 145.933C96.1048 145.701 95.945 145.478 95.8557 145.265L96.2892 144.981C96.3835 145.173 96.5279 145.373 96.7226 145.581C96.9198 145.784 97.1495 145.952 97.4119 146.086C97.7697 146.268 98.0553 146.345 98.2687 146.316C98.4846 146.282 98.64 146.171 98.735 145.985C98.8056 145.847 98.8151 145.717 98.7634 145.594C98.7189 145.469 98.6348 145.351 98.5112 145.24C98.39 145.124 98.2484 145.006 98.0865 144.888C97.9246 144.769 97.7652 144.646 97.6081 144.517C97.4559 144.391 97.3264 144.256 97.2198 144.112C97.1157 143.962 97.0512 143.8 97.0263 143.625C97.0061 143.452 97.0508 143.259 97.1604 143.044C97.2651 142.839 97.4161 142.684 97.6134 142.581C97.8107 142.477 98.0421 142.436 98.3079 142.457C98.5808 142.476 98.877 142.567 99.1967 142.73C99.44 142.854 99.6662 143.012 99.8754 143.203C100.087 143.389 100.245 143.575 100.349 143.76L99.9187 144.055C99.8102 143.855 99.6727 143.683 99.5062 143.538C99.3421 143.388 99.1647 143.264 98.9739 143.167C98.6352 142.994 98.3543 142.926 98.1312 142.962C97.9153 142.996 97.7611 143.104 97.6686 143.285C97.5956 143.428 97.5813 143.563 97.6258 143.687C97.675 143.815 97.759 143.939 97.8778 144.06C98.0038 144.178 98.1453 144.295 98.3025 144.412C98.4644 144.53 98.6202 144.655 98.7701 144.786C98.9271 144.914 99.0589 145.05 99.1655 145.195C99.2793 145.337 99.3463 145.495 99.3664 145.667C99.3937 145.838 99.3551 146.025 99.2504 146.23C99.1383 146.45 98.9789 146.609 98.7721 146.708C98.5725 146.804 98.3327 146.838 98.0527 146.81C97.7799 146.779 97.4789 146.679 97.1497 146.511ZM100.644 148.295C100.334 148.136 100.062 147.944 99.8293 147.717C99.5989 147.485 99.4391 147.262 99.3498 147.048L99.7833 146.764C99.8775 146.956 100.022 147.156 100.217 147.364C100.414 147.567 100.644 147.735 100.906 147.869C101.264 148.052 101.549 148.128 101.763 148.099C101.979 148.065 102.134 147.955 102.229 147.769C102.3 147.63 102.309 147.5 102.257 147.377C102.213 147.252 102.129 147.134 102.005 147.023C101.884 146.907 101.743 146.79 101.581 146.671C101.419 146.552 101.259 146.429 101.102 146.301C100.95 146.175 100.821 146.04 100.714 145.895C100.61 145.746 100.545 145.583 100.52 145.408C100.5 145.236 100.545 145.042 100.654 144.827C100.759 144.622 100.91 144.468 101.107 144.364C101.305 144.26 101.536 144.219 101.802 144.24C102.075 144.259 102.371 144.351 102.691 144.514C102.934 144.638 103.16 144.795 103.37 144.986C103.581 145.173 103.739 145.358 103.843 145.544L103.413 145.838C103.304 145.639 103.167 145.466 103 145.321C102.836 145.171 102.659 145.048 102.468 144.95C102.129 144.777 101.848 144.709 101.625 144.746C101.409 144.78 101.255 144.887 101.163 145.069C101.09 145.212 101.075 145.346 101.12 145.471C101.169 145.598 101.253 145.722 101.372 145.843C101.498 145.961 101.639 146.079 101.797 146.195C101.958 146.314 102.114 146.438 102.264 146.569C102.421 146.697 102.553 146.834 102.66 146.978C102.773 147.12 102.84 147.278 102.86 147.451C102.888 147.621 102.849 147.809 102.744 148.014C102.632 148.233 102.473 148.392 102.266 148.491C102.067 148.588 101.827 148.622 101.547 148.593C101.274 148.562 100.973 148.463 100.644 148.295ZM103.843 149.882L104.344 145.402L104.83 145.651L104.34 149.793L104.118 149.68L107.22 146.87L107.657 147.093L107.188 151.247L106.966 151.133L110.054 148.317L110.519 148.554L107.178 151.584L106.698 151.34L107.111 147.419L107.262 147.496L104.322 150.127L103.843 149.882ZM110.775 153.465C110.412 153.28 110.127 153.032 109.919 152.722C109.718 152.409 109.607 152.066 109.586 151.695C109.567 151.319 109.653 150.945 109.843 150.572C110.035 150.196 110.288 149.907 110.601 149.706C110.914 149.505 111.255 149.396 111.624 149.38C111.993 149.364 112.362 149.449 112.729 149.637C113.101 149.827 113.389 150.076 113.592 150.384C113.8 150.695 113.913 151.035 113.929 151.404C113.95 151.775 113.864 152.149 113.671 152.526C113.482 152.898 113.229 153.187 112.913 153.393C112.605 153.597 112.263 153.708 111.887 153.726C111.513 153.74 111.142 153.653 110.775 153.465ZM111.005 153.015C111.277 153.153 111.548 153.217 111.819 153.204C112.092 153.188 112.344 153.1 112.576 152.941C112.814 152.78 113.008 152.554 113.156 152.263C113.307 151.968 113.377 151.678 113.365 151.396C113.357 151.115 113.279 150.862 113.13 150.636C112.984 150.404 112.777 150.221 112.51 150.084C112.242 149.948 111.972 149.888 111.699 149.905C111.428 149.917 111.175 150.001 110.939 150.157C110.703 150.314 110.509 150.54 110.358 150.835C110.21 151.126 110.14 151.416 110.15 151.703C110.162 151.986 110.241 152.243 110.388 152.474C110.537 152.7 110.743 152.881 111.005 153.015ZM113.748 154.938L115.666 151.181L116.152 151.429L115.63 152.453L115.671 152.248C115.922 152.015 116.21 151.888 116.533 151.867C116.859 151.841 117.206 151.922 117.573 152.109L117.321 152.603C117.302 152.593 117.283 152.584 117.264 152.574C117.247 152.559 117.229 152.547 117.21 152.538C116.814 152.335 116.442 152.299 116.094 152.428C115.748 152.552 115.461 152.836 115.235 153.279L114.256 155.197L113.748 154.938ZM118.007 157.156C117.649 156.974 117.368 156.728 117.165 156.42C116.966 156.114 116.859 155.777 116.843 155.408C116.829 155.034 116.918 154.659 117.111 154.282C117.306 153.9 117.557 153.608 117.865 153.404C118.174 153.201 118.509 153.092 118.871 153.078C119.24 153.062 119.603 153.145 119.961 153.328C120.29 153.496 120.546 153.72 120.728 153.999C120.915 154.281 121.011 154.604 121.018 154.968C121.032 155.33 120.934 155.716 120.724 156.126C120.518 156.532 120.265 156.839 119.966 157.047C119.667 157.255 119.348 157.369 119.007 157.387C118.674 157.404 118.341 157.327 118.007 157.156ZM118.273 156.724C118.54 156.86 118.809 156.922 119.08 156.91C119.358 156.896 119.612 156.809 119.843 156.651C120.082 156.49 120.275 156.264 120.424 155.973C120.575 155.677 120.644 155.388 120.632 155.105C120.625 154.825 120.545 154.57 120.391 154.341C120.244 154.11 120.037 153.926 119.77 153.79C119.508 153.656 119.24 153.597 118.967 153.614C118.696 153.627 118.443 153.711 118.206 153.867C117.97 154.023 117.777 154.249 117.626 154.545C117.477 154.836 117.408 155.125 117.418 155.412C117.43 155.695 117.509 155.952 117.656 156.183C117.805 156.41 118.01 156.59 118.273 156.724ZM119.478 157.862L120.055 156.731L120.492 155.998L120.808 155.203L122.166 152.541L122.674 152.801L119.964 158.11L119.478 157.862Z" fill="white"/>
<path d="M61.7423 135.973L150.549 181.268" stroke="white" stroke-miterlimit="10"/>
<path d="M103.829 110.54C103.51 110.376 103.261 110.174 103.083 109.933C102.906 109.692 102.811 109.419 102.799 109.112C102.792 108.808 102.88 108.477 103.063 108.119L104.176 105.936L104.685 106.196L103.6 108.321C103.395 108.722 103.338 109.074 103.429 109.379C103.527 109.682 103.755 109.925 104.113 110.107C104.376 110.241 104.629 110.304 104.873 110.297C105.125 110.287 105.353 110.205 105.558 110.051C105.768 109.899 105.946 109.68 106.092 109.394L107.096 107.426L107.604 107.686L105.687 111.442L105.2 111.194L105.726 110.164L105.71 110.39C105.449 110.606 105.152 110.728 104.819 110.756C104.493 110.782 104.163 110.71 103.829 110.54ZM108.093 112.716C107.783 112.558 107.512 112.365 107.279 112.138C107.049 111.906 106.889 111.683 106.799 111.469L107.233 111.185C107.327 111.378 107.472 111.578 107.666 111.785C107.863 111.988 108.093 112.157 108.356 112.29C108.713 112.473 108.999 112.55 109.212 112.52C109.428 112.486 109.584 112.376 109.679 112.19C109.749 112.052 109.759 111.921 109.707 111.799C109.663 111.674 109.579 111.556 109.455 111.444C109.334 111.328 109.192 111.211 109.03 111.092C108.868 110.974 108.709 110.85 108.552 110.722C108.4 110.596 108.27 110.461 108.164 110.316C108.059 110.167 107.995 110.005 107.97 109.83C107.95 109.657 107.995 109.463 108.104 109.249C108.209 109.044 108.36 108.889 108.557 108.785C108.754 108.682 108.986 108.64 109.252 108.662C109.524 108.681 109.821 108.772 110.14 108.935C110.384 109.059 110.61 109.217 110.819 109.408C111.031 109.594 111.189 109.78 111.292 109.965L110.862 110.26C110.754 110.06 110.616 109.887 110.45 109.742C110.286 109.593 110.108 109.469 109.918 109.371C109.579 109.199 109.298 109.13 109.075 109.167C108.859 109.201 108.705 109.309 108.612 109.49C108.539 109.633 108.525 109.767 108.57 109.892C108.619 110.019 108.703 110.144 108.822 110.264C108.948 110.383 109.089 110.5 109.246 110.616C109.408 110.735 109.564 110.86 109.714 110.99C109.871 111.119 110.003 111.255 110.109 111.4C110.223 111.542 110.29 111.699 110.31 111.872C110.337 112.042 110.299 112.23 110.194 112.435C110.082 112.655 109.923 112.814 109.716 112.913C109.516 113.009 109.276 113.043 108.996 113.014C108.724 112.983 108.423 112.884 108.093 112.716ZM112.174 114.799C111.783 114.599 111.481 114.343 111.268 114.029C111.057 113.712 110.942 113.367 110.921 112.995C110.902 112.619 110.988 112.245 111.178 111.873C111.368 111.501 111.615 111.212 111.918 111.006C112.227 110.802 112.56 110.69 112.92 110.669C113.287 110.646 113.644 110.723 113.992 110.901C114.345 111.081 114.616 111.322 114.806 111.623C115.002 111.921 115.104 112.256 115.113 112.628C115.125 112.994 115.034 113.366 114.842 113.743C114.83 113.767 114.814 113.792 114.795 113.818C114.782 113.842 114.769 113.868 114.754 113.897L111.484 112.228L111.678 111.848L114.676 113.379L114.399 113.427C114.538 113.155 114.601 112.883 114.589 112.613C114.584 112.339 114.512 112.092 114.372 111.871C114.233 111.649 114.032 111.471 113.769 111.337C113.512 111.206 113.25 111.147 112.984 111.162C112.718 111.177 112.473 111.262 112.249 111.418C112.025 111.575 111.842 111.791 111.701 112.068L111.661 112.146C111.515 112.433 111.448 112.717 111.46 113C111.479 113.28 111.569 113.54 111.73 113.778C111.898 114.014 112.128 114.207 112.419 114.355C112.648 114.472 112.881 114.54 113.118 114.559C113.359 114.58 113.594 114.543 113.823 114.449L113.941 114.925C113.672 115.04 113.384 115.085 113.078 115.061C112.776 115.04 112.475 114.952 112.174 114.799ZM114.915 116.153L116.833 112.396L117.32 112.644L116.797 113.667L116.838 113.463C117.089 113.23 117.377 113.103 117.7 113.082C118.026 113.056 118.373 113.137 118.74 113.324L118.488 113.818C118.469 113.808 118.45 113.799 118.431 113.789C118.414 113.774 118.397 113.762 118.377 113.752C117.982 113.55 117.609 113.514 117.261 113.643C116.915 113.767 116.629 114.051 116.402 114.494L115.424 116.412L114.915 116.153ZM121.585 114.776C121.89 114.932 122.127 115.128 122.295 115.364C122.471 115.598 122.562 115.867 122.569 116.171C122.581 116.478 122.494 116.813 122.309 117.175L121.195 119.358L120.687 119.098L121.775 116.966C121.978 116.57 122.03 116.221 121.931 115.918C121.841 115.613 121.616 115.369 121.258 115.187C120.991 115.05 120.729 114.986 120.473 114.993C120.224 114.999 119.992 115.076 119.778 115.225C119.571 115.372 119.394 115.588 119.248 115.874L118.24 117.849L117.732 117.59L119.649 113.833L120.136 114.082L119.61 115.112L119.63 114.879C119.888 114.668 120.187 114.553 120.527 114.534C120.87 114.51 121.223 114.591 121.585 114.776ZM124.922 121.26L125.345 120.43L125.393 120.283L126.102 118.895C126.265 118.575 126.3 118.283 126.206 118.019C126.117 117.757 125.896 117.536 125.543 117.356C125.3 117.231 125.048 117.154 124.787 117.123C124.526 117.092 124.285 117.105 124.065 117.16L124.029 116.664C124.303 116.599 124.595 116.592 124.906 116.643C125.22 116.688 125.524 116.787 125.82 116.938C126.306 117.186 126.619 117.499 126.757 117.876C126.903 118.251 126.85 118.684 126.599 119.175L125.408 121.508L124.922 121.26ZM123.608 120.634C123.327 120.491 123.104 120.32 122.941 120.122C122.784 119.922 122.693 119.713 122.666 119.495C122.641 119.272 122.684 119.053 122.793 118.838C122.893 118.643 123.028 118.489 123.199 118.378C123.378 118.265 123.596 118.214 123.855 118.226C124.12 118.235 124.432 118.331 124.79 118.514L126.085 119.175L125.892 119.554L124.611 118.9C124.248 118.715 123.962 118.65 123.754 118.706C123.55 118.764 123.399 118.889 123.301 119.08C123.192 119.294 123.188 119.509 123.289 119.723C123.39 119.937 123.591 120.121 123.892 120.274C124.178 120.42 124.456 120.481 124.727 120.457C125.005 120.43 125.255 120.318 125.477 120.118L125.413 120.527C125.191 120.727 124.923 120.839 124.609 120.866C124.3 120.894 123.966 120.817 123.608 120.634ZM133.418 120.816C133.724 120.972 133.958 121.166 134.121 121.4C134.292 121.631 134.378 121.898 134.381 122.2C134.388 122.504 134.299 122.837 134.114 123.2L133 125.383L132.492 125.123L133.58 122.991C133.782 122.595 133.839 122.248 133.75 121.95C133.669 121.65 133.457 121.412 133.113 121.237C132.855 121.106 132.603 121.046 132.356 121.058C132.117 121.068 131.892 121.149 131.682 121.301C131.48 121.45 131.306 121.668 131.16 121.954L130.152 123.929L129.644 123.67L130.732 121.537C130.934 121.141 130.991 120.794 130.902 120.497C130.816 120.194 130.601 119.955 130.258 119.78C130.005 119.651 129.755 119.592 129.508 119.605C129.264 119.612 129.037 119.692 128.827 119.844C128.625 119.993 128.451 120.21 128.304 120.497L127.296 122.472L126.788 122.212L128.706 118.456L129.192 118.704L128.674 119.72L128.686 119.501C128.94 119.288 129.232 119.169 129.562 119.145C129.9 119.119 130.243 119.195 130.592 119.373C130.959 119.561 131.224 119.813 131.387 120.131C131.552 120.443 131.579 120.803 131.468 121.209L131.307 121.028C131.573 120.779 131.892 120.632 132.263 120.587C132.642 120.54 133.027 120.616 133.418 120.816ZM135.955 126.936C135.564 126.736 135.262 126.48 135.049 126.167C134.838 125.849 134.722 125.504 134.702 125.133C134.683 124.757 134.769 124.382 134.959 124.01C135.149 123.638 135.395 123.349 135.699 123.143C136.007 122.94 136.341 122.828 136.701 122.807C137.067 122.783 137.425 122.861 137.773 123.038C138.126 123.218 138.397 123.459 138.586 123.76C138.783 124.059 138.885 124.394 138.894 124.765C138.905 125.132 138.815 125.503 138.623 125.88C138.61 125.904 138.595 125.929 138.575 125.955C138.563 125.979 138.55 126.005 138.535 126.034L135.265 124.365L135.458 123.986L138.457 125.516L138.18 125.564C138.318 125.292 138.382 125.021 138.37 124.75C138.365 124.477 138.293 124.229 138.153 124.008C138.014 123.786 137.813 123.609 137.55 123.475C137.293 123.343 137.031 123.285 136.765 123.299C136.499 123.314 136.254 123.399 136.03 123.556C135.806 123.712 135.623 123.928 135.482 124.205L135.442 124.284C135.296 124.57 135.228 124.854 135.241 125.137C135.26 125.418 135.35 125.677 135.511 125.916C135.679 126.152 135.908 126.344 136.199 126.493C136.428 126.609 136.661 126.677 136.898 126.696C137.14 126.717 137.375 126.681 137.604 126.587L137.722 127.062C137.453 127.177 137.165 127.223 136.858 127.199C136.557 127.177 136.256 127.089 135.955 126.936Z" fill="white"/>
<path d="M77.1203 105.822L165.928 151.118" stroke="white" stroke-miterlimit="10"/>
<path d="M103.519 371.729H280.135" stroke="#6C99EA" stroke-miterlimit="10"/>
<path opacity="0.05" d="M217.596 46.3932C233.683 44.1952 255.898 56.6602 239.567 75.7472C218.842 99.9712 179.667 96.5712 185.512 69.9482C188.305 57.2272 205.644 48.0262 217.596 46.3932Z" fill="#4B74BC"/>
<path d="M121.377 296.727C115.844 299.369 112.004 301.521 111.54 311.109C111.524 311.443 110.718 311.422 110.653 311.094C108.702 301.212 106.761 298.881 100.986 296.727C100.117 296.403 99.9343 294.76 100.831 294.523C108.293 292.551 109.221 288.221 110.653 278.943C110.701 278.633 111.416 278.667 111.54 278.955C113.525 283.582 112.313 292.861 121.63 294.523C122.547 294.687 122.217 296.326 121.377 296.727Z" fill="#6C99EA"/>
<path d="M129.553 281.684C127.313 282.754 125.758 283.625 125.57 287.507C125.563 287.642 125.237 287.634 125.211 287.501C124.421 283.5 123.635 282.556 121.297 281.685C120.945 281.554 120.871 280.889 121.234 280.793C124.255 279.995 124.631 278.242 125.211 274.485C125.23 274.359 125.52 274.373 125.57 274.49C126.373 276.363 125.883 280.12 129.655 280.793C130.027 280.858 129.893 281.521 129.553 281.684Z" fill="#6C99EA"/>
<path d="M308.421 229.433C304.496 231.32 301.771 232.857 301.442 239.704C301.43 239.943 300.859 239.928 300.813 239.693C299.429 232.636 298.052 230.971 293.955 229.433C293.339 229.202 293.209 228.029 293.845 227.859C299.139 226.451 299.797 223.359 300.813 216.732C300.847 216.511 301.355 216.535 301.442 216.741C302.85 220.045 301.99 226.672 308.6 227.859C309.251 227.976 309.017 229.146 308.421 229.433Z" fill="#6C99EA"/>
<path d="M324.68 214.746C321.282 216.38 318.923 217.71 318.638 223.639C318.628 223.845 318.133 223.833 318.093 223.63C316.895 217.52 315.703 216.078 312.155 214.747C311.621 214.547 311.509 213.531 312.06 213.385C316.643 212.166 317.213 209.489 318.093 203.752C318.122 203.56 318.562 203.581 318.638 203.759C319.857 206.62 319.113 212.357 324.836 213.385C325.398 213.485 325.196 214.499 324.68 214.746Z" fill="#6C99EA"/>
<path d="M290.91 214.262C288.894 215.231 287.495 216.02 287.326 219.537C287.32 219.659 287.026 219.652 287.003 219.532C286.292 215.907 285.585 215.053 283.481 214.263C283.164 214.144 283.098 213.542 283.425 213.455C286.144 212.732 286.482 211.144 287.004 207.741C287.021 207.627 287.282 207.64 287.327 207.745C288.05 209.442 287.609 212.845 291.003 213.455C291.336 213.513 291.216 214.115 290.91 214.262Z" fill="#6C99EA"/>
<path d="M295.724 59.9351V65.2011" stroke="#6C99EA" stroke-miterlimit="10" stroke-linecap="round"/>
<path d="M295.724 70.6689V75.9349" stroke="#6C99EA" stroke-miterlimit="10" stroke-linecap="round"/>
<path d="M303.724 67.9351H298.459" stroke="#6C99EA" stroke-miterlimit="10" stroke-linecap="round"/>
<path d="M292.99 67.9351H287.724" stroke="#6C99EA" stroke-miterlimit="10" stroke-linecap="round"/>
<path d="M43.4173 242.089V247.354" stroke="#6C99EA" stroke-miterlimit="10" stroke-linecap="round"/>
<path d="M43.4173 252.823V258.089" stroke="#6C99EA" stroke-miterlimit="10" stroke-linecap="round"/>
<path d="M51.4173 250.089H46.1513" stroke="#6C99EA" stroke-miterlimit="10" stroke-linecap="round"/>
<path d="M40.6833 250.089H35.4173" stroke="#6C99EA" stroke-miterlimit="10" stroke-linecap="round"/>
<path d="M82.7493 270.922C82.4913 270.922 82.2303 270.856 81.9923 270.716L73.6713 265.84C72.9563 265.421 72.7163 264.502 73.1353 263.787C73.5543 263.073 74.4733 262.834 75.1873 263.252L83.5083 268.128C84.2233 268.547 84.4633 269.466 84.0443 270.181C83.7653 270.656 83.2643 270.922 82.7493 270.922Z" fill="#6C99EA"/>
<path d="M81.1703 263.413C80.9113 263.413 80.6493 263.347 80.4103 263.205L76.5573 260.935C75.8443 260.515 75.6063 259.595 76.0263 258.881C76.4473 258.168 77.3673 257.928 78.0803 258.351L81.9333 260.622C82.6463 261.042 82.8843 261.962 82.4643 262.676C82.1853 263.15 81.6843 263.413 81.1703 263.413Z" fill="#6C99EA"/>
<path d="M81.1703 263.413C80.9113 263.413 80.6493 263.347 80.4103 263.205L76.5573 260.935C75.8443 260.515 75.6063 259.595 76.0263 258.881C76.4473 258.168 77.3673 257.928 78.0803 258.351L81.9333 260.622C82.6463 261.042 82.8843 261.962 82.4643 262.676C82.1853 263.15 81.6843 263.413 81.1703 263.413Z" fill="#6C99EA"/>
<path d="M79.7223 276.059C79.4653 276.059 79.2043 275.993 78.9653 275.853L70.6443 270.978C69.9293 270.559 69.6893 269.64 70.1083 268.926C70.5263 268.21 71.4443 267.97 72.1613 268.39L80.4823 273.265C81.1973 273.684 81.4373 274.603 81.0183 275.317C80.7393 275.793 80.2373 276.059 79.7223 276.059Z" fill="#6C99EA"/>
<path d="M65.2093 282.691C64.7783 282.691 64.3413 282.58 63.9423 282.345C62.7533 281.644 62.3563 280.112 63.0573 278.921L77.6413 254.17C78.3413 252.98 79.8733 252.584 81.0643 253.285C82.2533 253.986 82.6503 255.518 81.9493 256.709L67.3663 281.46C66.9003 282.251 66.0663 282.691 65.2093 282.691Z" fill="#CDDFF7"/>
<path d="M65.2093 282.691C64.7783 282.691 64.3413 282.58 63.9423 282.345C62.7533 281.644 62.3563 280.112 63.0573 278.921L77.6413 254.17C78.3413 252.98 79.8733 252.584 81.0643 253.285C82.2533 253.986 82.6503 255.518 81.9493 256.709L67.3663 281.46C66.9003 282.251 66.0663 282.691 65.2093 282.691Z" fill="#CDDFF7"/>
<path opacity="0.15" d="M81.1553 253.352L63.7383 282.195C63.8063 282.245 63.8683 282.301 63.9433 282.345C64.3413 282.579 64.7783 282.691 65.2103 282.691C66.0663 282.691 66.9003 282.252 67.3663 281.461L81.9493 256.71C82.6313 255.552 82.2683 254.078 81.1553 253.352Z" fill="#6C99EA"/>
<path d="M60.8913 297.398C58.1893 297.398 55.4913 296.347 53.4693 294.255C49.5143 290.164 49.6253 283.617 53.7163 279.661C57.8093 275.706 64.3553 275.816 68.3103 279.908C70.2263 281.889 71.2563 284.499 71.2093 287.256C71.1623 290.013 70.0453 292.586 68.0633 294.502C66.0633 296.436 63.4753 297.398 60.8913 297.398ZM60.8893 281.763C59.5563 281.763 58.2233 282.259 57.1923 283.256C55.0833 285.295 55.0253 288.671 57.0643 290.78C59.1033 292.886 62.4783 292.944 64.5883 290.906C65.6103 289.919 66.1863 288.593 66.2103 287.171C66.2343 285.75 65.7033 284.405 64.7153 283.383C63.6733 282.305 62.2813 281.763 60.8893 281.763Z" fill="#CDDFF7"/>
<path d="M75.1883 263.252C74.4743 262.834 73.5543 263.073 73.1363 263.787C72.7173 264.502 72.9573 265.421 73.6723 265.84L77.2663 267.946L78.6923 265.305L75.1883 263.252Z" fill="#CDDFF7"/>
<path d="M75.8563 270.555L72.1613 268.39C71.4453 267.97 70.5263 268.21 70.1083 268.926C69.6893 269.64 69.9293 270.559 70.6443 270.978L74.4293 273.196L75.8563 270.555Z" fill="#CDDFF7"/>
<path d="M81.4883 260.359L78.0803 258.351C77.3673 257.928 76.4473 258.168 76.0263 258.881C75.6063 259.595 75.8433 260.515 76.5573 260.935L79.9793 262.951L81.4883 260.359Z" fill="#CDDFF7"/>
</g>
<defs>
<clipPath id="clip0_220_26760">
<rect width="325.173" height="371.114" fill="white" transform="translate(0 0.615234)"/>
</clipPath>
</defs>
</svg>
