<?xml version="1.0" encoding="UTF-8"?>
<svg id="logo" xmlns="http://www.w3.org/2000/svg" viewBox="0 0 235 44">
  <defs>
    <style>
      .cls-1 {
        fill: #4fd7ed;
      }

      .cls-2 {
        fill: #fff;
      }

      .cls-3 {
        fill: #e4e7ef;
      }

      .cls-4 {
        fill: #0b3c95;
      }
    </style>
  </defs>
  <g>
    <path class="cls-2" d="M75.5,29.1c0,2.04-.76,3.68-2.25,4.9-1.46,1.19-3.42,1.79-5.82,1.79s-4.32-.6-5.77-1.77c-1.48-1.2-2.25-2.85-2.3-4.9v-.53s1.93,0,1.93,0v.51c.05,1.54.6,2.7,1.67,3.55,1.1.87,2.6,1.3,4.46,1.3s3.4-.45,4.5-1.33c1.09-.87,1.62-2.01,1.62-3.51,0-.85-.21-1.54-.63-2.03-.44-.53-1-.9-1.72-1.13-.78-.25-1.64-.45-2.56-.6l-2.9-.47c-1.01-.16-1.95-.4-2.77-.71-.9-.34-1.64-.91-2.2-1.7-.57-.79-.85-1.81-.85-3.03,0-1.95.71-3.54,2.11-4.75,1.38-1.18,3.21-1.78,5.45-1.78s4,.58,5.37,1.71c1.4,1.15,2.13,2.7,2.18,4.61v.54s-1.93,0-1.93,0v-.51c-.05-1.43-.55-2.51-1.55-3.29-1.01-.8-2.38-1.21-4.07-1.21s-3.12.42-4.13,1.25c-.99.81-1.48,1.94-1.48,3.44,0,.87.21,1.53.63,2.04.44.53,1,.89,1.72,1.12.77.25,1.64.45,2.56.6l2.9.47c1,.16,1.94.4,2.77.7.9.34,1.64.91,2.2,1.69.57.79.85,1.81.85,3.02Z"/>
    <path class="cls-2" d="M92.55,29.19h1.95l-.22.68c-.57,1.8-1.63,3.25-3.17,4.32-1.53,1.06-3.35,1.6-5.42,1.6-2.63,0-4.82-.84-6.51-2.51-1.69-1.67-2.55-3.81-2.55-6.36s.85-4.69,2.55-6.36c1.69-1.66,3.88-2.51,6.51-2.51,2.07,0,3.89.54,5.42,1.6,1.53,1.07,2.6,2.52,3.17,4.32l.22.68h-1.95l-.13-.35c-.47-1.34-1.31-2.42-2.49-3.22-1.19-.8-2.62-1.21-4.24-1.21-2.14,0-3.83.66-5.17,2-1.33,1.34-1.98,3-1.98,5.05s.65,3.71,1.98,5.06c1.34,1.34,3.02,2,5.17,2,1.62,0,3.05-.41,4.24-1.21,1.18-.8,2.02-1.88,2.49-3.22l.13-.35Z"/>
    <path class="cls-2" d="M113.12,26.53v8.84h-1.88v-8.84c0-2.11-.58-3.77-1.74-4.93-1.17-1.17-2.72-1.74-4.73-1.74s-3.56.58-4.73,1.76c-1.16,1.17-1.74,2.82-1.74,4.91v8.84h-1.88V11.53h1.88v9.39c.54-.69,1.2-1.27,1.97-1.73,1.27-.76,2.8-1.15,4.54-1.15,2.5,0,4.54.74,6.05,2.2,1.51,1.47,2.28,3.58,2.28,6.28Z"/>
    <path class="cls-2" d="M132.06,23.41c-.43-1.06-1.06-2.02-1.9-2.85-1.69-1.66-3.88-2.51-6.52-2.51s-4.83.84-6.51,2.51c-1.69,1.67-2.55,3.81-2.55,6.36s.86,4.69,2.55,6.36c1.68,1.67,3.88,2.51,6.51,2.51s4.83-.84,6.52-2.51c1.69-1.67,2.55-3.81,2.55-6.36,0-1.27-.22-2.45-.64-3.51ZM123.64,33.97c-1.07,0-2.03-.16-2.89-.5-.85-.33-1.61-.83-2.28-1.5-1.33-1.35-1.98-3-1.98-5.06s.65-3.71,1.98-5.05,3.02-2,5.17-2,3.83.66,5.17,2c1.33,1.34,1.98,3,1.98,5.05s-.65,3.71-1.98,5.06c-1.33,1.34-3.02,2-5.17,2Z"/>
    <rect class="cls-2" x="134.8" y="11.53" width="1.88" height="23.84"/>
    <path class="cls-2" d="M154.35,20.56c-1.68-1.66-3.87-2.51-6.5-2.51s-4.82.84-6.51,2.51c-1.69,1.67-2.55,3.81-2.55,6.36s.85,4.69,2.55,6.36c1.69,1.67,3.87,2.51,6.48,2.51,1.89,0,3.57-.45,4.98-1.35.89-.56,1.63-1.25,2.23-2.07v3h1.85v-8.39c0-2.59-.85-4.75-2.53-6.42ZM153.01,31.98c-1.33,1.34-3.02,2-5.17,2-1.07,0-2.03-.16-2.89-.5-.86-.33-1.62-.83-2.28-1.5-1.33-1.35-1.98-3-1.98-5.06s.65-3.71,1.98-5.05c1.34-1.34,3.02-2,5.17-2s3.83.66,5.17,2c1.34,1.34,1.98,3,1.98,5.05s-.65,3.71-1.98,5.06Z"/>
    <path class="cls-2" d="M172.89,25.09v.81h-1.85v-.81c0-1.73-.45-3.05-1.35-3.91-.91-.88-2.14-1.32-3.75-1.32s-2.83.43-3.74,1.32c-.9.87-1.35,2.18-1.35,3.91v10.28h-1.88v-10.28c0-2.26.64-4.02,1.91-5.23,1.26-1.21,2.97-1.81,5.06-1.81s3.8.61,5.05,1.81c1.26,1.21,1.89,2.97,1.89,5.23Z"/>
    <path class="cls-2" d="M190.54,20.56c-1.69-1.66-3.87-2.51-6.49-2.51-1.87,0-3.53.45-4.96,1.33-.88.55-1.63,1.22-2.22,2v-9.85h-1.88v15.33c0,2.62.85,4.78,2.53,6.44,1.68,1.65,3.87,2.49,6.5,2.49,1.32,0,2.52-.21,3.61-.63,1.09-.42,2.06-1.05,2.9-1.88,1.69-1.67,2.55-3.81,2.55-6.36s-.86-4.69-2.55-6.36ZM189.19,31.98c-1.33,1.34-3.02,2-5.17,2-1.07,0-2.03-.16-2.89-.5-.86-.33-1.62-.83-2.28-1.5-1.33-1.35-1.98-3-1.98-5.06s.65-3.71,1.98-5.05c1.34-1.34,3.02-2,5.17-2s3.83.66,5.17,2c1.34,1.34,1.98,3,1.98,5.05s-.65,3.71-1.98,5.06Z"/>
    <path class="cls-2" d="M211.99,26.92c0-2.55-.86-4.69-2.55-6.36-1.69-1.66-3.87-2.51-6.49-2.51s-4.82.84-6.51,2.51c-1.69,1.67-2.55,3.81-2.55,6.36s.85,4.69,2.55,6.36c1.69,1.67,3.88,2.51,6.51,2.51,1.94,0,3.66-.47,5.11-1.4,1.47-.93,2.54-2.21,3.2-3.81l.3-.72h-2.01l-.14.3c-.55,1.16-1.4,2.1-2.52,2.78-1.12.68-2.45,1.03-3.95,1.03-2.14,0-3.83-.64-5.15-1.97-1.21-1.21-1.86-2.68-1.98-4.5h16.16v-.59ZM195.88,25.69c.25-1.63.95-2.95,2.12-4.04,1.29-1.19,2.96-1.79,4.96-1.79,1,0,1.91.15,2.74.45s1.56.75,2.2,1.34c1.17,1.08,1.86,2.4,2.11,4.04h-14.14Z"/>
    <path class="cls-2" d="M230.9,26.92c0-2.55-.86-4.69-2.55-6.36-1.69-1.66-3.87-2.51-6.49-2.51s-4.82.84-6.51,2.51c-1.69,1.67-2.55,3.81-2.55,6.36s.85,4.69,2.55,6.36c1.69,1.67,3.88,2.51,6.51,2.51,1.94,0,3.66-.47,5.11-1.4,1.47-.93,2.54-2.21,3.2-3.81l.3-.72h-2.01l-.14.3c-.55,1.16-1.4,2.1-2.52,2.78-1.12.68-2.45,1.03-3.95,1.03-2.14,0-3.83-.64-5.15-1.97-1.21-1.21-1.86-2.68-1.98-4.5h16.16v-.59ZM214.79,25.69c.24-1.63.95-2.95,2.12-4.04,1.29-1.19,2.96-1.79,4.96-1.79,1,0,1.91.15,2.74.45.83.3,1.56.75,2.2,1.34,1.17,1.08,1.86,2.4,2.11,4.04h-14.14Z"/>
  </g>
  <g>
    <g>
      <polygon class="cls-3" points="25.8 22.09 33.54 43.43 4.1 24.53 17.91 3.01 25.25 7.72 32.17 12.17 25.8 22.09"/>
      <polygon class="cls-1" points="32.17 12.17 25.8 22.09 33.54 43.43 15.18 23.4 25.25 7.72 29 1.88 34.75 8.16 32.17 12.17"/>
    </g>
    <path class="cls-4" d="M42.52,29.41v12.61c0,.61-.5,1.11-1.11,1.11h0c-.61,0-1.11-.5-1.11-1.11v-9.01l2.2-3.43s0-.06.02-.17Z"/>
    <path class="cls-4" d="M36.27,22.2l3.98,10.87-6.65,10.36-7.74-21.34,6.37-9.92,2.57-4.01,4.87-7.58,7.74,21.34-4.92,7.66-3.12-8.51c-.31-.86-1.26-1.3-2.12-.98-.86.31-1.3,1.26-.98,2.12Z"/>
  </g>
</svg>