<svg width="34" height="24" viewBox="0 0 34 24" fill="none" xmlns="http://www.w3.org/2000/svg">
<g id="envelope ">
<path id="Vector" d="M30.5156 0.710938H3.17188C1.42188 0.710938 0 2.13281 0 3.88281V20.6719C0 22.4219 1.42188 23.8438 3.17188 23.8438H30.5156C32.2656 23.8438 33.6875 22.4219 33.6875 20.6719V3.88281C33.6875 2.13281 32.2656 0.710938 30.5156 0.710938ZM30.5156 2.625C30.7891 2.625 31.0078 2.67969 31.2266 2.84375L17.6094 11.1016C17.1172 11.375 16.5703 11.375 16.0781 11.1016L2.46094 2.84375C2.67969 2.73438 2.89844 2.625 3.17188 2.625H30.5156ZM30.5156 21.875H3.17188C2.51562 21.875 1.91406 21.3281 1.91406 20.6172V4.75781L15.0391 12.7422C15.5859 13.0703 16.1875 13.2344 16.7891 13.2344C17.3906 13.2344 17.9922 13.0703 18.5391 12.7422L31.6641 4.75781V20.6172C31.7734 21.3281 31.1719 21.875 30.5156 21.875Z" fill="#0B3C95"/>
</g>
</svg>
