<svg width="31" height="31" viewBox="0 0 31 31" fill="none" xmlns="http://www.w3.org/2000/svg">
<g id="vuesax/bold/message-question">
<g id="message-question">
<path id="Vector" d="M21.75 3.78735H9.25C5.5 3.78735 3 6.28735 3 10.0374V17.5374C3 21.2874 5.5 23.7874 9.25 23.7874V26.4499C9.25 27.4499 10.3625 28.0499 11.1875 27.4874L16.75 23.7874H21.75C25.5 23.7874 28 21.2874 28 17.5374V10.0374C28 6.28735 25.5 3.78735 21.75 3.78735ZM15.5 18.9999C14.975 18.9999 14.5625 18.5749 14.5625 18.0624C14.5625 17.5499 14.975 17.1249 15.5 17.1249C16.025 17.1249 16.4375 17.5499 16.4375 18.0624C16.4375 18.5749 16.025 18.9999 15.5 18.9999ZM17.075 13.8124C16.5875 14.1374 16.4375 14.3499 16.4375 14.6999V14.9624C16.4375 15.4749 16.0125 15.8999 15.5 15.8999C14.9875 15.8999 14.5625 15.4749 14.5625 14.9624V14.6999C14.5625 13.2499 15.625 12.5374 16.025 12.2624C16.4875 11.9499 16.6375 11.7374 16.6375 11.4124C16.6375 10.7874 16.125 10.2749 15.5 10.2749C14.875 10.2749 14.3625 10.7874 14.3625 11.4124C14.3625 11.9249 13.9375 12.3499 13.425 12.3499C12.9125 12.3499 12.4875 11.9249 12.4875 11.4124C12.4875 9.74985 13.8375 8.39985 15.5 8.39985C17.1625 8.39985 18.5125 9.74985 18.5125 11.4124C18.5125 12.8374 17.4625 13.5499 17.075 13.8124Z" fill="#0B3C95"/>
</g>
</g>
</svg>
