<svg width="48" height="48" viewBox="0 0 48 48" fill="none" xmlns="http://www.w3.org/2000/svg">
<g id="vuesax/outline/people">
<g id="people">
<path id="Vector" d="M35.9996 15.8195C35.9396 15.8195 35.8996 15.8195 35.8396 15.8195H35.7396C31.9596 15.6995 29.1396 12.7795 29.1396 9.17953C29.1396 5.49953 32.1397 2.51953 35.7997 2.51953C39.4597 2.51953 42.4597 5.51953 42.4597 9.17953C42.4397 12.7995 39.6196 15.7195 36.0196 15.8395C36.0196 15.8195 36.0196 15.8195 35.9996 15.8195ZM35.7997 5.49954C33.7797 5.49954 32.1396 7.13955 32.1396 9.15955C32.1396 11.1395 33.6797 12.7395 35.6597 12.8195C35.6797 12.7995 35.8396 12.7995 36.0196 12.8195C37.9596 12.7195 39.4597 11.1195 39.4797 9.15955C39.4797 7.13955 37.8397 5.49954 35.7997 5.49954Z" fill="#0B3C95"/>
<path id="Vector_2" d="M36.02 30.5603C35.24 30.5603 34.46 30.5003 33.68 30.3603C32.86 30.2203 32.32 29.4403 32.46 28.6203C32.6 27.8003 33.38 27.2603 34.2 27.4003C36.66 27.8203 39.26 27.3603 41 26.2003C41.94 25.5803 42.44 24.8003 42.44 24.0203C42.44 23.2403 41.92 22.4803 41 21.8603C39.26 20.7003 36.62 20.2403 34.14 20.6803C33.32 20.8403 32.54 20.2803 32.4 19.4603C32.26 18.6403 32.8 17.8603 33.62 17.7203C36.88 17.1403 40.26 17.7603 42.66 19.3603C44.42 20.5403 45.44 22.2203 45.44 24.0203C45.44 25.8003 44.44 27.5003 42.66 28.7003C40.84 29.9003 38.48 30.5603 36.02 30.5603Z" fill="#0B3C95"/>
<path id="Vector_3" d="M11.94 15.82C11.92 15.82 11.9 15.82 11.9 15.82C8.29996 15.7 5.47996 12.78 5.45996 9.17999C5.45996 5.49999 8.45996 2.5 12.12 2.5C15.78 2.5 18.78 5.5 18.78 9.16C18.78 12.78 15.96 15.7 12.36 15.82L11.94 14.32L12.08 15.82C12.04 15.82 11.98 15.82 11.94 15.82ZM12.14 12.82C12.26 12.82 12.36 12.82 12.48 12.84C14.26 12.76 15.82 11.16 15.82 9.17999C15.82 7.15999 14.18 5.51999 12.16 5.51999C10.14 5.51999 8.49996 7.15999 8.49996 9.17999C8.49996 11.14 10.02 12.72 11.96 12.84C11.98 12.82 12.06 12.82 12.14 12.82Z" fill="#0B3C95"/>
<path id="Vector_4" d="M11.92 30.5603C9.46 30.5603 7.1 29.9003 5.28 28.7003C3.52 27.5203 2.5 25.8203 2.5 24.0203C2.5 22.2403 3.52 20.5403 5.28 19.3603C7.68 17.7603 11.06 17.1403 14.32 17.7203C15.14 17.8603 15.68 18.6403 15.54 19.4603C15.4 20.2803 14.62 20.8403 13.8 20.6803C11.32 20.2403 8.7 20.7003 6.94 21.8603C6 22.4803 5.5 23.2403 5.5 24.0203C5.5 24.8003 6.02 25.5803 6.94 26.2003C8.68 27.3603 11.28 27.8203 13.74 27.4003C14.56 27.2603 15.34 27.8203 15.48 28.6203C15.62 29.4403 15.08 30.2203 14.26 30.3603C13.48 30.5003 12.7 30.5603 11.92 30.5603Z" fill="#0B3C95"/>
<path id="Vector_5" d="M23.9996 30.76C23.9396 30.76 23.8996 30.76 23.8396 30.76H23.7396C19.9596 30.64 17.1396 27.72 17.1396 24.12C17.1396 20.44 20.1397 17.46 23.7997 17.46C27.4597 17.46 30.4596 20.46 30.4596 24.12C30.4396 27.74 27.6196 30.66 24.0196 30.78C24.0196 30.76 24.0196 30.76 23.9996 30.76ZM23.7997 20.44C21.7797 20.44 20.1396 22.08 20.1396 24.1C20.1396 26.08 21.6797 27.68 23.6597 27.76C23.6797 27.74 23.8396 27.74 24.0196 27.76C25.9596 27.66 27.4597 26.06 27.4797 24.1C27.4797 22.1 25.8397 20.44 23.7997 20.44Z" fill="#0B3C95"/>
<path id="Vector_6" d="M23.9996 45.5195C21.5996 45.5195 19.1996 44.8995 17.3396 43.6395C15.5796 42.4595 14.5596 40.7795 14.5596 38.9795C14.5596 37.1995 15.5596 35.4795 17.3396 34.2995C21.0796 31.8195 26.9396 31.8195 30.6596 34.2995C32.4196 35.4795 33.4396 37.1595 33.4396 38.9595C33.4396 40.7395 32.4396 42.4595 30.6596 43.6395C28.7996 44.8795 26.3996 45.5195 23.9996 45.5195ZM18.9996 36.8195C18.0596 37.4395 17.5596 38.2195 17.5596 38.9995C17.5596 39.7795 18.0796 40.5395 18.9996 41.1595C21.6996 42.9795 26.2796 42.9795 28.9796 41.1595C29.9196 40.5395 30.4196 39.7595 30.4196 38.9795C30.4196 38.1995 29.8996 37.4395 28.9796 36.8195C26.2996 34.9995 21.7196 35.0195 18.9996 36.8195Z" fill="#0B3C95"/>
</g>
</g>
</svg>
