<svg width="49" height="48" viewBox="0 0 49 48" fill="none" xmlns="http://www.w3.org/2000/svg">
<g id="Frame" opacity="0.8" clip-path="url(#clip0_1704_45224)">
<g id="Group">
<path id="Vector" d="M24.1951 0C10.8325 0 0 10.7451 0 24C0 37.2547 10.8325 47.9999 24.1951 47.9999C37.5576 47.9999 48.3901 37.2547 48.3901 24C48.376 10.7511 37.5518 0.0141629 24.1951 0ZM34.3846 24.7646C34.2171 25.098 33.9447 25.3681 33.6087 25.5343V25.5428L19.7829 32.4C18.9291 32.8232 17.8911 32.4797 17.4644 31.6328C17.3431 31.392 17.2807 31.1263 17.2822 30.8571V17.1429C17.2817 16.1961 18.0551 15.4283 19.0096 15.4278C19.278 15.4276 19.5428 15.4895 19.7829 15.6086L33.6087 22.4657C34.4629 22.888 34.8104 23.9173 34.3846 24.7646Z" fill="white"/>
</g>
</g>
<defs>
<clipPath id="clip0_1704_45224">
<rect width="48.3902" height="48" fill="white"/>
</clipPath>
</defs>
</svg>
