<svg width="26" height="21" viewBox="0 0 26 21" fill="none" xmlns="http://www.w3.org/2000/svg">
<g id="Frame 1938">
<path id="Vector" d="M25.2883 11.3324H19.3274C19.4293 6.55966 20.6615 6.01789 22.209 5.86325L22.8058 5.78197L22.8058 0.533884L22.1179 0.574383C20.0971 0.699291 17.8628 1.09952 16.3722 3.12111C15.0656 4.89329 14.4895 7.78857 14.4895 12.2331L14.4895 20.4688H25.2883V11.3324Z" fill="#0B3C95"/>
<path id="Vector_2" d="M11.511 20.4688L11.511 11.3324H5.62959C5.7315 6.55966 6.92384 6.01789 8.47142 5.86325L9.0285 5.78197V0.533884L8.38032 0.574383C6.35945 0.699291 4.10522 1.09952 2.61461 3.12111C1.30807 4.89329 0.712152 7.78857 0.712152 12.2331L0.712152 20.4688H11.511Z" fill="#0B3C95"/>
</g>
</svg>
