<svg width="26" height="21" viewBox="0 0 26 21" fill="none" xmlns="http://www.w3.org/2000/svg">
<g id="Frame 1937">
<path id="Vector" d="M25.2493 11.3324H19.3073C19.4089 6.55966 20.6372 6.01789 22.1798 5.86325L22.7747 5.78197L22.7747 0.533884L22.089 0.574383C20.0745 0.699291 17.8474 1.09952 16.3615 3.12111C15.059 4.89329 14.4848 7.78857 14.4848 12.2331L14.4848 20.4688H25.2493V11.3324Z" fill="white"/>
<path id="Vector_2" d="M11.515 20.4688L11.515 11.3324H5.65223C5.75382 6.55966 6.94237 6.01789 8.48504 5.86325L9.04034 5.78197V0.533884L8.39422 0.574383C6.37977 0.699291 4.1327 1.09952 2.64682 3.12111C1.34443 4.89329 0.750401 7.78857 0.750401 12.2331L0.750401 20.4688H11.515Z" fill="white"/>
</g>
</svg>
