<svg width="438" height="409" viewBox="0 0 438 409" fill="none" xmlns="http://www.w3.org/2000/svg">
<path d="M416.796 408.228H3.56884C1.98618 408.228 0.703125 406.945 0.703125 405.363C0.703125 403.78 1.98618 402.497 3.56884 402.497H416.796C418.379 402.497 419.662 403.78 419.662 405.363C419.662 406.945 418.379 408.228 416.796 408.228Z" fill="#003C99"/>
<path d="M374.257 69.3893C375.94 62.747 376.217 56.0371 375.256 49.6412L377.287 49.3361L381.3 48.7361L381.351 48.7251C380.262 41.4042 377.76 34.4248 374.014 28.1678L368.729 31.3161C365.338 25.6556 360.867 20.6379 355.457 16.6617L359.126 11.7044C353.405 7.43181 346.745 4.20022 339.4 2.33889L337.883 8.32385C331.217 6.63486 324.531 6.36405 318.135 7.3247L317.218 1.22949C309.897 2.31769 302.912 4.84241 296.661 8.5661L299.81 13.8515C294.149 17.2423 289.132 21.7132 285.155 27.1233L280.198 23.4546C275.925 29.1756 272.693 35.8357 270.832 43.1812L276.817 44.6979C275.128 51.3632 274.857 58.0498 275.818 64.4457L271.505 65.0897L269.746 65.3678L269.723 65.3621C270.811 72.6827 273.336 79.6678 277.059 85.9194L282.345 82.7711C285.736 88.4318 290.229 93.4548 295.639 97.4312L291.97 102.388C297.691 106.661 304.329 109.887 311.674 111.749L313.191 105.763C319.856 107.452 326.566 107.729 332.962 106.768L333.666 111.507L333.877 112.863C341.199 111.775 348.161 109.244 354.412 105.521L351.264 100.236C356.925 96.8446 361.948 92.3517 365.947 86.9471L370.904 90.6158C375.154 84.8891 378.38 78.2512 380.241 70.906L374.257 69.3893ZM318.833 83.5005C304.21 79.7951 295.374 64.9616 299.08 50.3392C302.779 35.7393 317.613 26.9041 332.236 30.6095C346.835 34.3091 355.671 49.142 351.971 63.7419C348.266 78.3646 333.433 87.2003 318.833 83.5005Z" stroke="#B3D1FF" stroke-width="1.0476" stroke-miterlimit="10" stroke-linejoin="round"/>
<path d="M397.773 124.113C395.525 121.291 392.801 119.037 389.814 117.402L390.334 116.453L391.361 114.58L391.373 114.555C387.957 112.678 384.235 111.503 380.418 111.08L380.054 114.298C376.601 113.915 373.073 114.191 369.683 115.191L368.774 112.074C365.16 113.11 361.684 114.872 358.563 117.358L360.588 119.901C357.756 122.156 355.513 124.873 353.877 127.86L351.03 126.301C349.154 129.717 347.986 133.449 347.555 137.256L350.774 137.62C350.391 141.073 350.666 144.601 351.667 147.992L348.55 148.9C349.586 152.514 351.348 155.991 353.833 159.112L356.376 157.086C358.632 159.918 361.348 162.162 364.335 163.797L363.23 165.81L362.787 166.636L362.777 166.644C366.192 168.52 369.924 169.688 373.731 170.119L374.095 166.9C377.549 167.283 381.085 167 384.476 166L385.385 169.117C388.999 168.081 392.466 166.326 395.587 163.841L393.561 161.298C396.393 159.042 398.647 156.318 400.282 153.331L402.493 154.546L403.129 154.889C405.006 151.474 406.163 147.75 406.595 143.943L403.376 143.578C403.758 140.125 403.476 136.588 402.485 133.19L405.602 132.281C404.556 128.675 402.802 125.208 400.316 122.087L397.773 124.113ZM386.027 151.84C379.815 156.788 370.782 155.765 365.834 149.552C360.893 143.35 361.917 134.317 368.129 129.369C374.332 124.428 383.365 125.451 388.305 131.654C393.253 137.867 392.23 146.899 386.027 151.84Z" stroke="#B3D1FF" stroke-width="1.0476" stroke-miterlimit="10" stroke-linejoin="round"/>
<path d="M168.335 272.284C165.741 269.028 162.598 266.427 159.151 264.54L159.75 263.445L160.935 261.283L160.949 261.255C157.008 259.089 152.712 257.733 148.308 257.244L147.888 260.958C143.903 260.517 139.832 260.835 135.92 261.989L134.871 258.392C130.701 259.588 126.689 261.621 123.087 264.489L125.425 267.423C122.157 270.026 119.567 273.161 117.68 276.607L114.395 274.81C112.229 278.751 110.882 283.058 110.385 287.45L114.099 287.871C113.657 291.856 113.975 295.927 115.129 299.839L111.532 300.888C112.728 305.058 114.761 309.07 117.629 312.671L120.564 310.334C123.167 313.602 126.301 316.192 129.748 318.079L128.473 320.402L127.961 321.355L127.95 321.364C131.891 323.529 136.198 324.877 140.591 325.374L141.011 321.66C144.996 322.101 149.078 321.775 152.99 320.621L154.039 324.218C158.209 323.022 162.21 320.997 165.812 318.129L163.474 315.195C166.742 312.592 169.343 309.449 171.23 306.002L173.781 307.403L174.515 307.8C176.681 303.859 178.017 299.561 178.514 295.168L174.8 294.747C175.241 290.762 174.915 286.68 173.772 282.759L177.369 281.71C176.162 277.549 174.137 273.548 171.269 269.947L168.335 272.284ZM154.781 304.28C147.612 309.991 137.189 308.81 131.478 301.641C125.777 294.483 126.958 284.06 134.127 278.35C141.285 272.648 151.708 273.829 157.409 280.987C163.119 288.156 161.939 298.579 154.781 304.28Z" stroke="#003880" stroke-width="1.0476" stroke-miterlimit="10"/>
<path d="M325.308 56.5113C322.399 39.2824 295.868 31.5045 296.387 42.7495L174.761 43.4618C166.337 43.5111 159.506 51.0897 159.499 60.3976L159.247 380.275C159.239 389.918 166.189 397.802 174.774 397.875L298.936 398.94C299.706 400.559 301.149 402.031 303.421 403.26C317.66 403.564 324.49 396.532 326.985 388.582C327.797 386.449 328.239 384.09 328.219 381.604C327.722 377.44 326.208 60.5511 325.308 56.5113Z" fill="#66A2FF"/>
<path d="M302.094 403.311L159.574 402.392C150.681 402.335 143.487 394.238 143.503 384.316L144.038 55.3511C144.054 45.7837 151.134 38.012 159.855 37.9837L299.605 37.5296C308.396 37.5011 315.585 45.2617 315.658 54.8726L318.191 385.359C318.268 395.327 311.059 403.369 302.094 403.311Z" fill="white"/>
<path d="M304.061 400.918C303.469 400.998 302.863 401.036 302.26 401.031L159.785 399.953C152.143 399.895 145.896 392.796 145.909 384.136L146.402 55.5323C146.414 47.1801 152.562 40.3636 160.058 40.3311L299.799 39.7232C300.017 39.7224 300.238 39.7269 300.455 39.7371C303.972 39.9003 307.258 41.502 309.714 44.2436C312.225 47.0457 313.621 50.7589 313.651 54.7055L316.151 385.526C316.21 393.367 311.031 399.984 304.061 400.918Z" fill="#252525"/>
<path d="M308.751 56.3687L311.154 386.037L150.65 385.077L151.059 56.3687H308.751Z" fill="#0050CC"/>
<path d="M252.909 222.258H209.94C206.305 222.258 203.33 219.283 203.33 215.647C203.33 212.012 206.305 209.037 209.94 209.037H252.909C256.545 209.037 259.519 212.012 259.519 215.647C259.519 219.283 256.544 222.258 252.909 222.258Z" fill="#FF9F34"/>
<path d="M285.596 173.185H174.493C170.857 173.185 167.883 170.21 167.883 166.574C167.883 162.939 170.857 159.964 174.493 159.964H285.596C289.232 159.964 292.207 162.939 292.207 166.574C292.207 170.21 289.232 173.185 285.596 173.185Z" fill="white"/>
<path d="M285.596 194.475H174.493C170.857 194.475 167.883 191.501 167.883 187.865C167.883 184.229 170.857 181.255 174.493 181.255H285.596C289.232 181.255 292.207 184.229 292.207 187.865C292.207 191.501 289.232 194.475 285.596 194.475Z" fill="white"/>
<path d="M195.239 188.45C195.239 189.736 194.197 190.778 192.912 190.778C191.626 190.778 190.584 189.736 190.584 188.45C190.584 187.165 191.627 186.123 192.912 186.123C194.197 186.123 195.239 187.165 195.239 188.45Z" fill="#80B2FF"/>
<path d="M203.154 188.937C203.421 187.68 202.619 186.444 201.362 186.177C200.104 185.91 198.869 186.712 198.601 187.969C198.334 189.226 199.136 190.462 200.393 190.73C201.651 190.997 202.886 190.195 203.154 188.937Z" fill="#80B2FF"/>
<path d="M210.511 190.096C211.42 189.187 211.42 187.714 210.511 186.805C209.603 185.896 208.129 185.896 207.22 186.805C206.311 187.714 206.311 189.187 207.22 190.096C208.129 191.005 209.603 191.005 210.511 190.096Z" fill="#80B2FF"/>
<path d="M218.49 190.096C219.399 189.187 219.399 187.714 218.491 186.805C217.582 185.896 216.108 185.896 215.199 186.805C214.29 187.714 214.29 189.187 215.199 190.096C216.108 191.005 217.582 191.005 218.49 190.096Z" fill="#80B2FF"/>
<path d="M225.732 190.602C226.919 190.11 227.483 188.748 226.991 187.561C226.499 186.373 225.138 185.809 223.95 186.301C222.763 186.793 222.199 188.155 222.691 189.342C223.183 190.53 224.544 191.093 225.732 190.602Z" fill="#80B2FF"/>
<path d="M235.074 189.018C235.369 187.767 234.595 186.513 233.344 186.218C232.093 185.923 230.839 186.697 230.544 187.948C230.249 189.199 231.023 190.452 232.274 190.748C233.525 191.043 234.778 190.268 235.074 189.018Z" fill="#80B2FF"/>
<path d="M242.428 190.096C243.337 189.187 243.337 187.714 242.429 186.805C241.52 185.896 240.046 185.896 239.137 186.805C238.228 187.714 238.228 189.187 239.137 190.096C240.046 191.005 241.52 191.005 242.428 190.096Z" fill="#80B2FF"/>
<path d="M250.407 190.097C251.316 189.188 251.316 187.714 250.407 186.805C249.499 185.896 248.025 185.896 247.116 186.805C246.207 187.714 246.207 189.188 247.116 190.097C248.025 191.005 249.499 191.005 250.407 190.097Z" fill="#80B2FF"/>
<path d="M257.65 190.601C258.837 190.109 259.401 188.748 258.909 187.56C258.417 186.373 257.056 185.809 255.868 186.301C254.681 186.793 254.117 188.154 254.609 189.342C255.101 190.529 256.462 191.093 257.65 190.601Z" fill="#80B2FF"/>
<path d="M248.137 133.987C258.111 124.013 258.111 107.842 248.137 97.8683C238.163 87.8946 221.992 87.8946 212.019 97.8684C202.045 107.842 202.045 124.013 212.019 133.987C221.992 143.96 238.163 143.96 248.137 133.987Z" fill="white"/>
<path d="M230.118 114.899C232.611 114.899 234.914 113.684 236.384 111.83C237.471 110.487 238.111 108.761 238.111 106.842C238.111 102.431 234.53 98.7859 230.118 98.7859C225.643 98.7859 222.062 102.431 222.062 106.842C222.062 108.761 222.701 110.487 223.788 111.83C225.259 113.684 227.56 114.899 230.118 114.899Z" fill="#005CEA"/>
<path d="M244.275 129.254C244.275 134.338 215.884 134.338 215.884 129.254L215.893 123.329C217.015 115.23 241.967 114.89 244.28 123.329L244.275 129.254Z" fill="#005CEA"/>
<path d="M180.004 186.646V186.292C180.004 184.858 178.837 183.691 177.403 183.691C175.968 183.691 174.802 184.858 174.802 186.292V186.646H174.407V191.334C174.407 192.144 180.415 192.144 180.415 191.334V186.646H180.004ZM175.729 186.292C175.729 185.392 176.284 184.575 177.403 184.575C178.521 184.575 179.094 185.34 179.094 186.292V186.646H175.729V186.292ZM177.845 189.007V190.361C177.845 190.605 177.637 190.778 177.393 190.778C177.15 190.778 176.977 190.605 176.977 190.361V189.007C176.734 188.868 176.56 188.625 176.56 188.312C176.56 187.861 176.942 187.479 177.393 187.479C177.845 187.479 178.227 187.861 178.227 188.312C178.227 188.625 178.053 188.868 177.845 189.007Z" fill="#4D4D4D"/>
<path d="M177.408 166.094C177.935 166.094 178.42 165.837 178.731 165.446C178.96 165.163 179.095 164.798 179.095 164.394C179.095 163.463 178.34 162.694 177.408 162.694C176.464 162.694 175.708 163.463 175.708 164.394C175.708 164.799 175.843 165.163 176.073 165.446C176.383 165.838 176.869 166.094 177.408 166.094Z" fill="#4D4D4D"/>
<path d="M180.396 169.124C180.396 170.196 174.374 170.196 174.374 169.124L174.407 167.873C174.644 166.164 179.909 166.092 180.397 167.873L180.396 169.124Z" fill="#4D4D4D"/>
<path d="M216.325 168.514H191.978C190.911 168.514 190.038 167.641 190.038 166.574C190.038 165.507 190.911 164.634 191.978 164.634H216.325C217.392 164.634 218.265 165.507 218.265 166.574C218.265 167.641 217.392 168.514 216.325 168.514Z" fill="#80B2FF"/>
<path d="M248.437 168.514H224.09C223.023 168.514 222.15 167.641 222.15 166.574C222.15 165.507 223.023 164.634 224.09 164.634H248.437C249.504 164.634 250.377 165.507 250.377 166.574C250.377 167.641 249.504 168.514 248.437 168.514Z" fill="#80B2FF"/>
<path d="M197.301 290.457V338.619C197.301 343.971 262.789 343.971 262.789 338.619V290.457H197.301Z" fill="white"/>
<path d="M237.909 310.544C238.935 306.198 236.244 301.843 231.898 300.817C227.553 299.791 223.198 302.482 222.172 306.828C221.146 311.173 223.837 315.528 228.182 316.554C232.528 317.58 236.883 314.889 237.909 310.544Z" fill="#005CEA"/>
<path d="M230.046 332.997C228.215 332.997 226.731 331.513 226.731 329.683V311.139H233.359V329.683C233.359 331.513 231.876 332.997 230.046 332.997Z" fill="#005CEA"/>
<path d="M257.05 287.025H250.422V283.782C250.422 272.546 241.28 263.405 230.046 263.405C218.81 263.405 209.668 272.546 209.668 283.782V287.025H203.041V283.782C203.041 268.891 215.155 256.777 230.046 256.777C244.935 256.777 257.05 268.891 257.05 283.782V287.025Z" fill="white"/>
<path d="M284.809 232.372C284.81 232.116 284.81 232.004 284.81 231.978C284.81 232.025 284.809 232.372 284.809 232.372Z" fill="#D9FFFF"/>
<path d="M284.809 232.372C284.81 232.116 284.81 232.004 284.81 231.978C284.81 232.025 284.809 232.372 284.809 232.372Z" fill="#D9FFFF"/>
<path d="M437.331 233.054C437.331 233.054 437.333 232.707 437.333 232.66C437.333 232.686 437.332 232.798 437.331 233.054Z" fill="#D9FFFF"/>
<path d="M437.331 233.054C437.331 233.054 437.333 232.707 437.333 232.66C437.333 232.686 437.332 232.798 437.331 233.054Z" fill="#D9FFFF"/>
<path d="M361.352 196.531C344.469 214.617 317.528 229.439 288.699 235.754C288.69 237.679 288.643 248.347 288.423 297.515C288.13 363.105 350.552 395.157 360.243 400.076C369.632 395.754 432.842 363.752 433.135 298.162C433.355 248.994 433.402 238.326 433.411 236.401C404.64 229.828 378.074 214.767 361.352 196.531Z" fill="white"/>
<path d="M361.201 203.646C343.796 219.612 319.682 232.161 293.167 239.002L292.905 297.504C292.786 324.273 303.42 348.489 324.515 369.484C338.375 383.278 352.947 391.833 360.342 395.68C360.66 395.519 361.009 395.336 361.352 395.158V203.782C361.302 203.736 361.25 203.692 361.201 203.646Z" fill="#80B2FF"/>
<path d="M361.353 203.782V395.158C369.042 391.158 383.018 382.889 396.402 369.805C417.683 349.001 428.534 324.88 428.653 298.111L428.914 239.608C402.537 232.552 378.602 219.838 361.353 203.782Z" fill="#4D93FF"/>
<path d="M414.48 262.421C394.293 265.534 366.805 283.945 349.464 306.083C347.032 295.645 336.112 286.115 330.4 284.032L313.091 301.429C323.898 306.299 335.708 320.098 337.274 334.225L354.564 336.905C361.854 322.505 380.68 288.061 418.136 269.541C417.414 266.722 414.769 262.823 414.48 262.421Z" fill="#0046B3"/>
<path d="M85.6472 157.397L82.6029 169.633L82.0498 171.908C81.4351 174.798 62.3431 173.568 63.6955 170.187L64.8335 167.697L70.7053 154.814L85.6472 157.397Z" fill="#F7A58E"/>
<path d="M96.8099 139.246C97.0045 152.513 90.8454 163.303 81.2072 163.256C71.569 163.209 62.2443 155.032 61.907 139.077C61.6922 128.912 69.8093 120.706 79.4475 120.752C89.086 120.799 96.6609 129.08 96.8099 139.246Z" fill="#F7A58E"/>
<path d="M79.7375 117.104C79.7375 117.104 98.9421 118.052 100.54 132.597C102.672 145.363 93.0949 135.978 89.1848 144.545C84.706 154.357 89.2704 161.539 95.0917 163.489C89.9168 170.714 60.3252 170.454 52.7102 157.777C47.4947 141.875 54.8738 117.986 79.7375 117.104Z" fill="#252525"/>
<path d="M93.2038 144.02C93.3639 145.989 91.897 147.716 89.9275 147.876C87.958 148.036 86.2315 146.569 86.0715 144.6C85.9115 142.63 87.3781 140.904 89.3479 140.744C91.3176 140.584 93.0438 142.051 93.2038 144.02Z" fill="#F7A58E"/>
<path d="M90.2622 390.857C91.1624 389.903 95.4091 389.888 95.7967 391.298C96.1843 392.708 95.4361 393.716 97.228 395.951C96.1966 396.249 92.5389 396.276 91.4193 395.951C90.2997 395.625 89.3618 391.811 90.2622 390.857Z" fill="white"/>
<path d="M83.2451 395.676H93.5933C94.5607 351.887 94.3756 304.217 94.0273 268.316C93.9021 255.459 93.5475 248.956 91.2165 241.237C86.5065 225.651 64.3636 230.45 62.7925 244.577C62.1377 252.417 61.6585 267.711 76.1512 319.681C69.8751 342.563 80.8246 369.998 83.2451 395.676Z" fill="#00050D"/>
<path d="M99.3893 396.343C97.865 396.262 94.306 394.794 93.6348 393.782C92.6456 394.887 90.586 395.193 88.1001 394.822C85.1636 394.384 84.776 393.019 82.6698 393.201C81.7817 395.67 79.6184 401.211 81.7055 402.496C81.7055 402.496 94.0457 402.496 103.462 402.496C105.405 400.722 105.354 396.937 99.3893 396.343Z" fill="white"/>
<path d="M37.5777 391.965C38.3343 391.163 41.903 391.151 42.2288 392.336C42.5543 393.521 41.9258 394.367 43.4317 396.246C42.5651 396.496 39.4909 396.52 38.5502 396.246C37.6091 395.972 36.8211 392.766 37.5777 391.965Z" fill="white"/>
<path d="M71.6813 244.179C69.5652 228.035 40.8444 229.693 38.9351 243.789C38.2453 251.375 36.1386 262.791 41.5355 319.131C30.15 340.631 33.3671 371.481 29.9661 394.191C29.5905 397.646 39.3785 398.477 40.1386 395.397C50.5695 353.264 65.1453 305.993 70.5638 270.94C72.5293 258.233 72.7279 252.175 71.6813 244.179Z" fill="#00050D"/>
<path d="M45.2787 395.676C43.7544 395.594 41.5071 393.611 40.8361 392.598C39.8469 393.703 37.9586 395.193 35.4726 394.822C32.5362 394.384 32.1486 393.019 30.0424 393.201C29.1543 395.67 26.991 401.211 29.0781 402.496C29.0781 402.496 40.8245 402.496 50.2414 402.496C52.1834 400.722 51.2429 396.269 45.2787 395.676Z" fill="white"/>
<path d="M120.116 158.728L114.76 159.916C114.882 162.735 114.543 167.237 114.76 172.207L123.769 171.021C122.398 166.016 121.075 161.629 120.116 158.728Z" fill="#F7A58E"/>
<path d="M114.76 172.207C114.56 182.058 114.297 186.278 114.216 190.159L87.4858 173.015C79.3407 170.543 69.8426 186.665 80.1411 193.94C80.1411 193.94 115.739 214.04 123.746 208.25C128.078 205.118 126.955 182.649 123.769 171.021L114.76 172.207Z" fill="white"/>
<path d="M122.537 153.488C120.062 150.586 114.627 151.598 114.215 151.676L114.737 159.704C114.859 163.669 119.776 163.804 121.779 160.386C121.779 160.386 124.681 156.346 122.537 153.488Z" fill="#F7A58E"/>
<path d="M116.845 152.436C115.042 143.69 113.221 144.863 113.221 144.863C113.221 144.863 113.513 147.952 114.327 153.406C114.938 156.494 117.069 154.631 116.845 152.436Z" fill="#F7A58E"/>
<path d="M93.8013 196.054C95.6163 187.221 96.5898 178.499 87.4856 173.015C82.0876 169.763 64.7364 167.441 56.6235 170.126C48.4486 173.78 50.2164 189.714 48.6851 214.876C43.0519 227.433 40.6028 231.559 38.9351 243.79C38.9351 243.79 41.9487 253.005 63.1805 253.017C72.8213 253.023 87.0207 252.165 93.48 247.248C92.8357 238.908 89.348 230.872 87.8944 219.064C87.8944 219.064 93.6699 197.067 93.8013 196.054Z" fill="white"/>
<path d="M52.2632 171.903C42.2982 179.511 32.5783 191.474 27.9845 197.828C23.3911 204.181 11.4927 229.715 11.4927 229.715L19.065 235.298L39.5474 207.389L64.5702 186.865C73.2535 178.002 61.9692 164.492 52.2632 171.903Z" fill="white"/>
<path d="M8.32031 236.19L13.2286 226.049C14.3833 229.098 20.0024 231.88 21.6159 231.822C21.6159 231.822 16.3381 239.417 15.0477 240.708C13.7574 241.998 8.42691 239.813 8.32031 236.19Z" fill="#F7A58E"/>
<path d="M16.2892 239.014C16.2696 239.089 16.2916 239.192 16.2719 239.267C16.0255 242.957 13.1888 244.704 12.4212 245.118C12.3602 245.167 12.2918 245.181 12.2237 245.196C14.8917 244.662 15.6908 248.236 14.3334 249.061C10.4067 251.718 4.81091 248.063 4.3374 245.846C3.85681 243.595 8.3298 236.148 8.3298 236.148C10.6112 234.305 16.4511 234.592 16.2892 239.014Z" fill="#F7A58E"/>
<path d="M16.2718 239.267C16.1144 243.438 12.3551 245.154 12.2867 245.169C10.0875 245.108 9.30395 244.975 7.20508 244.98C8.57482 244.312 11.3842 242.535 10.2965 239.084C12.4478 237.438 15.6838 238.877 16.2718 239.267Z" fill="#E6856A"/>
<path d="M16.3287 238.792C16.9069 242.235 16.6626 247.142 15.8439 249.3C15.8439 249.3 13.733 249.411 13.9307 245.424C13.982 244.387 13.8325 242.134 12.8061 241.384C9.64602 239.296 9.13766 237.38 10.2968 235.809C11.8415 233.715 16.2071 235.84 16.3287 238.792Z" fill="#F7A58E"/>
<path d="M6.54876 248.202C8.26316 249.391 12.8014 251.696 13.5177 251.127C14.234 250.558 10.6051 246.696 8.2629 246.185C5.92046 245.673 5.67034 247.593 6.54876 248.202Z" fill="#F7A58E"/>
</svg>
