<svg width="48" height="48" viewBox="0 0 48 48" fill="none" xmlns="http://www.w3.org/2000/svg">
<g id="teacher">
<g id="vuesax/outline/teacher">
<g id="teacher_2">
<path id="Vector" d="M24.0199 33.9996C22.3199 33.9996 20.5999 33.5596 19.2599 32.6996L7.21989 24.8396C4.97989 23.3796 3.63989 20.9196 3.63989 18.2396C3.63989 15.5596 4.97989 13.0996 7.21989 11.6396L19.2799 3.79958C21.9599 2.05958 26.1399 2.05958 28.7999 3.81958L40.7799 11.6796C42.9999 13.1396 44.3399 15.5996 44.3399 18.2596C44.3399 20.9196 42.9999 23.3796 40.7799 24.8396L28.7999 32.6996C27.4599 33.5796 25.7399 33.9996 24.0199 33.9996ZM24.0199 5.49958C22.8799 5.49958 21.7399 5.75958 20.9199 6.31958L8.87989 14.1596C7.47989 15.0796 6.65989 16.5596 6.65989 18.2396C6.65989 19.9196 7.45989 21.3996 8.87989 22.3196L20.9199 30.1796C22.5799 31.2596 25.4999 31.2596 27.1599 30.1796L39.1399 22.3196C40.5399 21.3996 41.3399 19.9196 41.3399 18.2396C41.3399 16.5596 40.5399 15.0796 39.1399 14.1596L27.1599 6.29958C26.3199 5.77958 25.1799 5.49958 24.0199 5.49958Z" fill="#0B3C95"/>
<path id="Vector_2" d="M24.0001 45.5002C23.1201 45.5002 22.2201 45.3802 21.5001 45.1402L15.1201 43.0202C12.1001 42.0202 9.72012 38.7202 9.74012 35.5402L9.76012 26.1602C9.76012 25.3402 10.4401 24.6602 11.2601 24.6602C12.0801 24.6602 12.7601 25.3402 12.7601 26.1602L12.7401 35.5402C12.7401 37.4202 14.3001 39.5802 16.0801 40.1802L22.4601 42.3002C23.2601 42.5602 24.7401 42.5602 25.5401 42.3002L31.9201 40.1802C33.7001 39.5802 35.2601 37.4202 35.2601 35.5602V26.2802C35.2601 25.4602 35.9401 24.7802 36.7601 24.7802C37.5801 24.7802 38.2601 25.4602 38.2601 26.2802V35.5602C38.2601 38.7402 35.9001 42.0202 32.8801 43.0402L26.5001 45.1602C25.7801 45.3802 24.8801 45.5002 24.0001 45.5002Z" fill="#0B3C95"/>
<path id="Vector_3" d="M42.8 31.5C41.98 31.5 41.3 30.82 41.3 30V18C41.3 17.18 41.98 16.5 42.8 16.5C43.62 16.5 44.3 17.18 44.3 18V30C44.3 30.82 43.62 31.5 42.8 31.5Z" fill="#0B3C95"/>
</g>
</g>
<g id="Group 1000005303">
<path id="Vector_4" d="M21 20.3298C21 21.6198 21.99 22.6598 23.22 22.6598H25.73C26.8 22.6598 27.67 21.7498 27.67 20.6298C27.67 19.4098 27.14 18.9798 26.35 18.6998L22.32 17.2998C21.53 17.0198 21 16.5898 21 15.3698C21 14.2498 21.87 13.3398 22.94 13.3398H25.45C26.68 13.3398 27.67 14.3798 27.67 15.6698" stroke="#0B3C95" stroke-width="1.5" stroke-linecap="round" stroke-linejoin="round"/>
<path id="Vector_5" d="M24.3281 12V24" stroke="#0B3C95" stroke-width="1.5" stroke-linecap="round" stroke-linejoin="round"/>
</g>
</g>
</svg>
