<svg width="49" height="49" viewBox="0 0 49 49" fill="none" xmlns="http://www.w3.org/2000/svg">
<g id="Icon" clip-path="url(#clip0_540_16574)">
<g id="Clip path group">
<mask id="mask0_540_16574" style="mask-type:luminance" maskUnits="userSpaceOnUse" x="0" y="0" width="49" height="49">
<g id="__lottie_element_157">
<path id="Vector" d="M48.1631 0.0253906H0.0859375V48.1026H48.1631V0.0253906Z" fill="white"/>
</g>
</mask>
<g mask="url(#mask0_540_16574)">
<g id="Group">
<g id="Group_2">
<g id="Group_3">
<path id="Vector_2" d="M41.557 27.6947V20.4344H38.9448C38.5596 18.9136 37.9379 17.4848 37.1202 16.1874L39.3874 13.9401L34.2654 8.80637L31.8957 11.1561C30.6201 10.4144 29.2253 9.84974 27.746 9.49656V6.63184H20.5024V9.49656C19.0231 9.84974 17.6283 10.4144 16.3527 11.1561L13.983 8.80637L8.86104 13.9401L11.1282 16.1874C10.3105 17.4848 9.68883 18.9136 9.30363 20.4344H6.69141V27.6947H9.30363C9.68883 29.2155 10.3105 30.6444 11.1282 31.9419L8.86104 34.189L13.983 39.3228L16.3527 36.9732C17.6283 37.7149 19.0231 38.2794 20.5024 38.6327V41.4974H27.746V38.6327C29.2253 38.2794 30.6201 37.7149 31.8957 36.9732L34.2654 39.3228L39.3874 34.189L37.1202 31.9419C37.9379 30.6444 38.5596 29.2155 38.9448 27.6947H41.557Z" stroke="#0B3C95" stroke-width="1.53847" stroke-linecap="round" stroke-linejoin="round"/>
</g>
</g>
<g id="Group_4">
<g id="Group_5">
<path id="Vector_3" d="M26.3566 14.4541V19.9444L24.1241 21.6859L21.8819 19.9444V14.4574C18.7984 15.413 16.5586 18.2873 16.5586 21.6849C16.5586 24.2574 17.8429 26.5296 19.8051 27.8966V33.6775H28.4434V27.8966C30.4054 26.5296 31.6898 24.2574 31.6898 21.6849C31.6898 18.2836 29.4453 15.4066 26.3566 14.4541Z" stroke="#0B3C95" stroke-width="1.53847" stroke-linecap="round" stroke-linejoin="round"/>
</g>
</g>
</g>
</g>
</g>
</g>
<defs>
<clipPath id="clip0_540_16574">
<rect width="48.0772" height="48.0772" fill="white" transform="translate(0.0859375 0.0263672)"/>
</clipPath>
</defs>
</svg>
