<svg width="25" height="24" viewBox="0 0 25 24" fill="none" xmlns="http://www.w3.org/2000/svg">
<path d="M6.45962 16C6.56962 15.51 6.36962 14.81 6.01962 14.46L3.58962 12.03C2.82962 11.27 2.52962 10.46 2.74962 9.76C2.97962 9.06 3.68962 8.58 4.74962 8.4L7.86962 7.88C8.31962 7.8 8.86962 7.4 9.07962 6.99L10.7996 3.54C11.2996 2.55 11.9796 2 12.7196 2C13.4596 2 14.1396 2.55 14.6396 3.54L16.3596 6.99C16.4896 7.25 16.7596 7.5 17.0496 7.67L6.27962 18.44C6.13962 18.58 5.89962 18.45 5.93962 18.25L6.45962 16Z" fill="#FFCC00"/>
<path d="M19.4196 14.4599C19.0596 14.8199 18.8596 15.5099 18.9796 15.9999L19.6696 19.0099C19.9596 20.2599 19.7796 21.1999 19.1596 21.6499C18.9096 21.8299 18.6096 21.9199 18.2596 21.9199C17.7496 21.9199 17.1496 21.7299 16.4896 21.3399L13.5596 19.5999C13.0996 19.3299 12.3396 19.3299 11.8796 19.5999L8.94963 21.3399C7.83963 21.9899 6.88963 22.0999 6.27963 21.6499C6.04963 21.4799 5.87963 21.2499 5.76963 20.9499L17.9296 8.7899C18.3896 8.3299 19.0396 8.1199 19.6696 8.2299L20.6796 8.3999C21.7396 8.5799 22.4496 9.0599 22.6796 9.7599C22.8996 10.4599 22.5996 11.2699 21.8396 12.0299L19.4196 14.4599Z" fill="#FFCC00"/>
</svg>
