<svg width="30" height="30" viewBox="0 0 30 30" fill="none" xmlns="http://www.w3.org/2000/svg">
<path d="M20.525 9.93789C23.575 12.9879 23.575 17.9379 20.525 20.9879C17.475 24.0379 12.525 24.0379 9.475 20.9879C6.425 17.9379 6.425 12.9879 9.475 9.93789C12.525 6.88789 17.475 6.88789 20.525 9.93789Z" fill="#0B3C95"/>
<path d="M10.3125 27.9871C10.2 27.9871 10.075 27.9621 9.9625 27.9246C7.15 26.7996 4.875 24.8121 3.35 22.1871C1.875 19.6246 1.2875 16.7246 1.675 13.7746C1.7375 13.2621 2.225 12.8996 2.725 12.9621C3.2375 13.0246 3.6 13.4996 3.5375 14.0121C3.2125 16.5496 3.7125 19.0496 4.975 21.2496C6.275 23.4996 8.2375 25.2121 10.65 26.1746C11.125 26.3746 11.3625 26.9121 11.175 27.3996C11.0375 27.7621 10.675 27.9871 10.3125 27.9871Z" fill="#0B3C95"/>
<path d="M7.31249 6.53769C7.03749 6.53769 6.76249 6.41269 6.57499 6.17519C6.24999 5.77519 6.32499 5.1877 6.73749 4.8627C9.11249 3.0002 11.975 2.0127 15 2.0127C17.95 2.0127 20.7625 2.96269 23.125 4.76269C23.5375 5.07519 23.6125 5.66269 23.3 6.07519C22.9875 6.48769 22.4 6.56269 21.9875 6.25019C19.95 4.70019 17.5375 3.88769 15 3.88769C12.4 3.88769 9.93749 4.7377 7.88749 6.33769C7.71249 6.47519 7.51249 6.53769 7.31249 6.53769Z" fill="#0B3C95"/>
<path d="M19.6875 27.9873C19.3125 27.9873 18.9625 27.7623 18.8125 27.3998C18.625 26.9248 18.85 26.3748 19.3375 26.1748C21.75 25.1998 23.7125 23.4998 25.0125 21.2498C26.2875 19.0498 26.7875 16.5498 26.45 14.0248C26.3875 13.5123 26.75 13.0373 27.2625 12.9748C27.7625 12.9123 28.25 13.2748 28.3125 13.7873C28.6875 16.7248 28.1125 19.6373 26.6375 22.1998C25.125 24.8248 22.8375 26.7998 20.025 27.9373C19.925 27.9623 19.8125 27.9873 19.6875 27.9873Z" fill="#0B3C95"/>
</svg>
