<svg width="32" height="32" viewBox="0 0 32 32" fill="none" xmlns="http://www.w3.org/2000/svg">
<path d="M16.0133 22.6662C14.88 22.6662 13.7333 22.3729 12.84 21.7996L4.81335 16.5596C3.32001 15.5862 2.42668 13.9462 2.42668 12.1596C2.42668 10.3729 3.32001 8.73289 4.81335 7.75956L12.8533 2.53289C14.64 1.37289 17.4267 1.37289 19.2 2.54622L27.1867 7.78623C28.6667 8.75956 29.56 10.3996 29.56 12.1729C29.56 13.9462 28.6667 15.5862 27.1867 16.5596L19.2 21.7996C18.3067 22.3862 17.16 22.6662 16.0133 22.6662ZM16.0133 3.66622C15.2533 3.66622 14.4933 3.83956 13.9467 4.21289L5.92001 9.43956C4.98668 10.0529 4.44001 11.0396 4.44001 12.1596C4.44001 13.2796 4.97335 14.2662 5.92001 14.8796L13.9467 20.1196C15.0533 20.8396 17 20.8396 18.1067 20.1196L26.0933 14.8796C27.0267 14.2662 27.56 13.2796 27.56 12.1596C27.56 11.0396 27.0267 10.0529 26.0933 9.43956L18.1067 4.19956C17.5467 3.85289 16.7867 3.66622 16.0133 3.66622Z" fill="#252525"/>
<path d="M16 30.3333C15.4133 30.3333 14.8133 30.2533 14.3333 30.0933L10.08 28.6799C8.06666 28.0133 6.47999 25.8133 6.49332 23.6933L6.50666 17.4399C6.50666 16.8933 6.95999 16.4399 7.50666 16.4399C8.05332 16.4399 8.50666 16.8933 8.50666 17.4399L8.49332 23.6933C8.49332 24.9466 9.53332 26.3866 10.72 26.7866L14.9733 28.1999C15.5067 28.3733 16.4933 28.3733 17.0267 28.1999L21.28 26.7866C22.4667 26.3866 23.5067 24.9466 23.5067 23.7066V17.5199C23.5067 16.9733 23.96 16.5199 24.5067 16.5199C25.0533 16.5199 25.5067 16.9733 25.5067 17.5199V23.7066C25.5067 25.8266 23.9333 28.0133 21.92 28.6933L17.6667 30.1066C17.1867 30.2533 16.5867 30.3333 16 30.3333Z" fill="#252525"/>
<path d="M28.5333 21C27.9867 21 27.5333 20.5467 27.5333 20V12C27.5333 11.4533 27.9867 11 28.5333 11C29.08 11 29.5333 11.4533 29.5333 12V20C29.5333 20.5467 29.08 21 28.5333 21Z" fill="#252525"/>
</svg>
