<svg width="15" height="12" viewBox="0 0 15 12" fill="none" xmlns="http://www.w3.org/2000/svg">
<path d="M12.7616 1.98151L13.6352 0.943301C13.8881 0.662119 13.9571 0.445825 13.9801 0.337678C13.2904 0.727007 12.6466 0.856784 12.2328 0.856784H12.0719L11.9799 0.770266C11.4281 0.316049 10.7384 0.078125 10.0027 0.078125C8.39336 0.078125 7.12888 1.33263 7.12888 2.7818C7.12888 2.86832 7.12888 2.9981 7.15187 3.08461L7.22084 3.5172L6.73804 3.49557C3.79524 3.40905 1.38122 1.02982 0.990384 0.61886C0.346647 1.70033 0.714496 2.73854 1.10534 3.38742L1.88702 4.59867L0.645525 3.94979C0.668515 4.85822 1.03637 5.572 1.74907 6.0911L2.36982 6.52369L1.74907 6.76161C2.13991 7.86471 3.01356 8.31893 3.65729 8.49197L4.50795 8.70826L3.70328 9.22737C2.4158 10.0925 0.806459 10.0277 0.09375 9.96277C1.54216 10.9145 3.26645 11.1308 4.46197 11.1308C5.3586 11.1308 6.02533 11.0442 6.18626 10.9793C12.6236 9.55181 12.9225 4.14445 12.9225 3.06298V2.91158L13.0605 2.82506C13.8421 2.13292 14.164 1.76522 14.3479 1.54893C14.279 1.57055 14.187 1.61381 14.095 1.63544L12.7616 1.98151Z" fill="#DDDDDD"/>
</svg>
