<svg width="18" height="16" viewBox="0 0 18 16" fill="none" xmlns="http://www.w3.org/2000/svg">
<g id="twitter" clip-path="url(#clip0_540_16454)">
<path id="Path 8" d="M18 2.41938C17.323 2.71618 16.6067 2.91387 15.8733 3.00634C16.6456 2.54797 17.2231 1.82226 17.4962 0.966662C16.7728 1.39564 15.9814 1.69771 15.1562 1.85981C14.6504 1.32022 13.9941 0.945069 13.2725 0.783022C12.5509 0.620975 11.7972 0.679513 11.1093 0.95104C10.4214 1.22257 9.83088 1.69456 9.41447 2.30578C8.99806 2.917 8.77493 3.63925 8.77402 4.37884C8.771 4.66156 8.79955 4.94375 8.85913 5.22014C7.39118 5.1482 5.95493 4.76727 4.64427 4.10225C3.33362 3.43723 2.17807 2.50309 1.25315 1.3609C0.77954 2.17293 0.633155 3.13492 0.843791 4.05107C1.05443 4.96722 1.60625 5.76867 2.38696 6.29231C1.80421 6.27586 1.23391 6.11986 0.723913 5.83742V5.87753C0.724938 6.72955 1.01946 7.55521 1.5579 8.21552C2.09635 8.87584 2.84584 9.33049 3.68022 9.50297C3.36452 9.5861 3.03917 9.62689 2.71272 9.62427C2.47832 9.62856 2.24414 9.60757 2.01424 9.56166C2.2523 10.2937 2.71128 10.934 3.32808 11.3945C3.94488 11.8551 4.6892 12.1132 5.4587 12.1335C4.15172 13.1557 2.53965 13.7099 0.880435 13.7075C0.586173 13.7093 0.292096 13.6923 0 13.6567C1.6874 14.7441 3.65374 15.3194 5.6612 15.3129C7.04294 15.3225 8.41282 15.0575 9.69127 14.5332C10.9697 14.0089 12.1313 13.2358 13.1084 12.2589C14.0856 11.2819 14.8589 10.1205 15.3834 8.84214C15.9079 7.56378 16.1732 6.19395 16.1638 4.81221C16.1638 4.64884 16.1579 4.49134 16.1501 4.33481C16.878 3.81409 17.5049 3.16499 18 2.41938Z" fill="#0B3C95"/>
</g>
<defs>
<clipPath id="clip0_540_16454">
<rect width="18" height="14.625" fill="white" transform="translate(0 0.6875)"/>
</clipPath>
</defs>
</svg>
