<svg width="31" height="30" viewBox="0 0 31 30" fill="none" xmlns="http://www.w3.org/2000/svg">
<g id="vuesax/bold/profile-2user">
<g id="profile-2user">
<path id="Vector" d="M11.75 2.5C8.475 2.5 5.8125 5.1625 5.8125 8.4375C5.8125 11.65 8.325 14.25 11.6 14.3625C11.7 14.35 11.8 14.35 11.875 14.3625C11.9 14.3625 11.9125 14.3625 11.9375 14.3625C11.95 14.3625 11.95 14.3625 11.9625 14.3625C15.1625 14.25 17.675 11.65 17.6875 8.4375C17.6875 5.1625 15.025 2.5 11.75 2.5Z" fill="#0B3C95"/>
<path id="Vector_2" d="M18.1 17.6871C14.6125 15.3621 8.92501 15.3621 5.41251 17.6871C3.82501 18.7496 2.95001 20.1871 2.95001 21.7246C2.95001 23.2621 3.82501 24.6871 5.40001 25.7371C7.15001 26.9121 9.45001 27.4996 11.75 27.4996C14.05 27.4996 16.35 26.9121 18.1 25.7371C19.675 24.6746 20.55 23.2496 20.55 21.6996C20.5375 20.1621 19.675 18.7371 18.1 17.6871Z" fill="#0B3C95"/>
<path id="Vector_3" d="M25.4875 9.17512C25.6875 11.6001 23.9625 13.7251 21.575 14.0126C21.5625 14.0126 21.5625 14.0126 21.55 14.0126H21.5125C21.4375 14.0126 21.3625 14.0126 21.3 14.0376C20.0875 14.1001 18.975 13.7126 18.1375 13.0001C19.425 11.8501 20.1625 10.1251 20.0125 8.25012C19.925 7.23762 19.575 6.31262 19.05 5.52512C19.525 5.28762 20.075 5.13762 20.6375 5.08762C23.0875 4.87512 25.275 6.70012 25.4875 9.17512Z" fill="#0B3C95"/>
<path id="Vector_4" d="M27.9875 20.7375C27.8875 21.95 27.1125 23 25.8125 23.7125C24.5625 24.4 22.9875 24.725 21.425 24.6875C22.325 23.875 22.85 22.8625 22.95 21.7875C23.075 20.2375 22.3375 18.75 20.8625 17.5625C20.025 16.9 19.05 16.375 17.9875 15.9875C20.75 15.1875 24.225 15.725 26.3625 17.45C27.5125 18.375 28.1 19.5375 27.9875 20.7375Z" fill="#0B3C95"/>
</g>
</g>
</svg>
