<svg width="30" height="31" viewBox="0 0 30 31" fill="none" xmlns="http://www.w3.org/2000/svg">
<path d="M21.25 4.5H8.75C5.3 4.5 2.5 7.3 2.5 10.75V12V20.75C2.5 24.2 5.3 27 8.75 27H20H21.25C24.7 27 27.5 24.2 27.5 20.75V10.75C27.5 7.3 24.7 4.5 21.25 4.5ZM13.1125 21.7625C13.075 21.7625 13.0375 21.775 12.9875 21.775C12.525 21.775 12.125 21.425 12.0625 20.9625C11.9 19.6875 10.975 18.7625 9.7 18.6C9.1875 18.5375 8.825 18.0625 8.8875 17.55C8.95 17.0375 9.425 16.675 9.9375 16.7375C12.05 17.0125 13.65 18.6125 13.925 20.725C13.9875 21.225 13.625 21.7 13.1125 21.7625ZM16.925 21.125C16.8875 21.125 16.85 21.1375 16.8 21.1375C16.3375 21.1375 15.9375 20.7875 15.875 20.325C15.4875 17.35 13.325 15.175 10.3375 14.7875C9.825 14.725 9.4625 14.25 9.525 13.7375C9.5875 13.225 10.0625 12.8625 10.575 12.925C14.425 13.425 17.2375 16.225 17.7375 20.0875C17.8 20.5875 17.4375 21.05 16.925 21.125ZM20.3 20.0375C20.2625 20.0375 20.225 20.05 20.175 20.05C19.7125 20.05 19.3125 19.7 19.25 19.2375C18.7125 15.0125 15.6375 11.9375 11.4125 11.4C10.9 11.3375 10.5375 10.8625 10.6 10.35C10.6625 9.8375 11.1375 9.475 11.65 9.5375C16.7375 10.1875 20.45 13.9 21.1125 19C21.175 19.5125 20.8125 19.975 20.3 20.0375Z" fill="#0B3C95"/>
</svg>
